<?xml version="1.0" encoding="utf-8" ?><svg xmlns="http://www.w3.org/2000/svg" xmlns:xlink="http://www.w3.org/1999/xlink" width="1024" height="1536" viewBox="0 0 1024 1536"><path fill="#555454" d="M303.946 191.328C326.791 181.279 345.689 173.619 370.099 167.178C379.459 164.708 388.92 162.641 398.457 160.982C408.753 159.204 450.555 155.164 456.024 148.219C458.05 142.373 451.574 137.403 450.317 131.888C449.859 129.879 450.125 128.12 451.288 126.397C453.922 122.497 461.113 121.076 465.407 120.275C478.694 117.796 543.667 116.506 552.199 123.481C553.484 124.531 554.131 125.757 554.327 127.376C555.009 133.026 547.782 140.38 544.493 144.52C548.789 146.112 553.693 147.087 558.19 148.118C568.041 148.562 574.087 150.625 583.396 151.842C625.377 157.807 660.598 173.028 699.904 187.882C744.909 204.89 790.839 219.701 830.91 247.29C852.455 261.963 855.193 264.403 861.644 289.718L867.597 293.373C872.297 296.232 875.915 299.614 878.69 304.464C882.369 310.475 883.985 316.586 884.396 323.597C885.756 346.803 885.35 371.096 885.126 394.319C884.587 429.836 884.326 465.358 884.343 500.879C885.373 554.543 884.523 607.744 884.373 661.396C884.294 689.385 884.711 717.313 883.714 745.294C883.922 768.903 884.656 799.134 883.691 822.249C884.58 857.312 888.507 909.481 884.369 943.371C884.982 961.945 890.699 981.151 888.247 998.883C889.964 1039.75 890.417 1080.66 889.607 1121.55C889.217 1140.05 887.296 1157.54 887.531 1176.46C887.726 1199.96 887.776 1223.46 887.682 1246.96C887.648 1257.23 888.022 1271.16 887.442 1281.1C887.47 1290.76 887.644 1300.81 887.466 1310.43L887.547 1319.94C898.068 1322.06 908.545 1324.41 918.968 1326.97C918.944 1330.9 919.036 1335.53 918.832 1339.39C900.693 1348.14 876.554 1357.99 857.631 1364.04L848.303 1361.55C835.57 1359.23 820.149 1354.6 808.018 1350.1C794.886 1346.42 791.24 1347.82 791.434 1333.13C800.066 1329.91 808.647 1326.56 817.176 1323.08C815.955 1312.33 814.992 1301.56 814.287 1290.76C813.901 1284.7 813.657 1273.72 812.439 1268.14C810.669 1267.35 809.309 1267.98 807.093 1268.35C802.085 1272.24 762.705 1287.57 755.136 1290.56L638.475 1336.22C625.636 1341.32 601.742 1353.09 589.863 1356.41C583.711 1358.88 579.534 1360.37 573.178 1362.23C573.889 1367.65 571.769 1377.26 571.804 1383C571.945 1406.75 568.502 1434.68 570.173 1458.09C577.689 1460.79 585.691 1463.27 593.029 1466.42C595.137 1467.32 597.717 1469.28 598.759 1471.32C602.519 1479.71 590.544 1485.43 584.973 1487.74C569.368 1494.2 553.548 1499.68 537.675 1505.2C528.125 1503.15 477.863 1489.14 472.89 1483.81C472.577 1482.39 472.275 1481.09 472.043 1479.65C472.066 1477.75 471.89 1475.18 471.819 1473.22C477.361 1468.99 491.689 1463.87 498.814 1461.13C501.559 1455.47 497.235 1386.78 496.74 1375.52C495.74 1352.72 495.65 1323.28 493.425 1300.59C488.706 1297.08 484.037 1293.5 479.418 1289.85C473.929 1286.31 468.874 1281.9 464.094 1277.48C461.483 1276.26 441.869 1260.3 438.416 1257.56C411.619 1236.31 383.369 1215.07 357.5 1192.82C341.182 1198.75 325.748 1206.67 309.806 1213.19C281.543 1224.76 251.079 1237.36 222.069 1246.71C217.732 1248.61 213.061 1250.78 208.629 1252.35C207.371 1281.66 204.009 1309.11 201.619 1338.21C209.641 1340.82 222.783 1344.45 230.23 1347.35C230.273 1351.74 230.438 1356.59 230.075 1360.92C223.996 1363.29 218.292 1365.5 212.106 1367.59C198.671 1373.9 188.851 1376.65 176.31 1381.9C172.682 1380.36 171.413 1381.88 168.331 1378.31C168.124 1374.43 174.825 1372.61 175.467 1367.53C179.953 1364.88 189.268 1360.96 194.344 1359.5C197.694 1358.53 196.577 1360.38 199.31 1356.65C200.477 1356.64 203.083 1356.7 204.061 1356.33L206.812 1355.03C207.816 1352.07 209.709 1348.76 211.199 1345.93C207.628 1344.74 204.078 1343.48 200.551 1342.16C200.235 1347.56 200.633 1349.64 196.312 1353.35C188.381 1354.66 177.759 1359.72 169.403 1361.71C165.653 1361.99 159.65 1362.17 156.038 1361.59L156.621 1359.96C153.21 1358.77 148.954 1357.59 145.435 1356.51C141.948 1355.4 138.805 1353.69 135.53 1352.06L134.917 1355.61L130.956 1352.83C130.542 1351.21 128.693 1348.54 127.737 1347L127.041 1341.31C128.916 1328.63 128.315 1310.43 128.316 1297.08L128.335 1226.97L128.975 1069.59C129.072 1047.75 129.957 1024.91 129.631 1003.34C124.9 991.563 131.202 970.467 134.419 958.309C133.466 924.915 134.283 887.721 134.281 854.106L134.367 688.716C131.967 663.075 133.797 641.123 134.145 615.851C134.47 592.181 134.358 567.651 134.226 543.949L133.468 421.125C132.997 386.889 131.512 356.126 133.593 321.854C134.4 313.356 134.839 309.01 139.757 302.043C143.611 296.906 150.811 291.99 156.069 288.14C156.404 280.916 159.305 270.39 161.459 263.422C180.703 244.784 277.309 198.757 303.946 191.328ZM852.532 1007.09C850.095 1009.15 839.796 1016.21 837.251 1016.61C833.845 1016.5 826.948 1020.38 823.51 1022.04C784.714 1038.07 730.129 1052.32 688.028 1057.77L687.754 1059.25C662.597 1062.73 637.331 1065.38 611.998 1067.18C603.086 1067.88 589.621 1069.36 581.131 1069.49C565.094 1069.91 548.5 1071.81 532.622 1072.02C505.745 1072.36 477.435 1072.55 450.591 1071.72C443.735 1072.33 424.599 1071.13 417.845 1069.75C403.997 1068.27 389.149 1068.26 374.911 1066.83C324.012 1061.71 250.823 1052.81 204.792 1031.23C203.087 1031.02 203.843 1031.33 202.48 1030.19C199.498 1027.36 193.265 1024.46 189.396 1022.71C172.939 1015.26 153.754 1007.13 146.24 989.3C144.508 986.138 143.259 982.97 140.041 981.758L138.974 978.703C140.245 975.658 138.411 965.335 137.065 962.281C136.396 960.935 135.314 959.559 134.419 958.309C131.202 970.467 124.9 991.563 129.631 1003.34C129.957 1024.91 129.072 1047.75 128.975 1069.59L128.335 1226.97L128.316 1297.08C128.315 1310.43 128.916 1328.63 127.041 1341.31L127.737 1347C128.693 1348.54 130.542 1351.21 130.956 1352.83L134.917 1355.61L135.53 1352.06C138.805 1353.69 141.948 1355.4 145.435 1356.51C148.954 1357.59 153.21 1358.77 156.621 1359.96L156.038 1361.59C159.65 1362.17 165.653 1361.99 169.403 1361.71C177.759 1359.72 188.381 1354.66 196.312 1353.35C200.633 1349.64 200.235 1347.56 200.551 1342.16C204.078 1343.48 207.628 1344.74 211.199 1345.93C209.709 1348.76 207.816 1352.07 206.812 1355.03L204.061 1356.33C203.083 1356.7 200.477 1356.64 199.31 1356.65C196.577 1360.38 197.694 1358.53 194.344 1359.5C189.268 1360.96 179.953 1364.88 175.467 1367.53C174.825 1372.61 168.124 1374.43 168.331 1378.31C171.413 1381.88 172.682 1380.36 176.31 1381.9C188.851 1376.65 198.671 1373.9 212.106 1367.59C218.292 1365.5 223.996 1363.29 230.075 1360.92C230.438 1356.59 230.273 1351.74 230.23 1347.35C222.783 1344.45 209.641 1340.82 201.619 1338.21C204.009 1309.11 207.371 1281.66 208.629 1252.35C213.061 1250.78 217.732 1248.61 222.069 1246.71C251.079 1237.36 281.543 1224.76 309.806 1213.19C325.748 1206.67 341.182 1198.75 357.5 1192.82C383.369 1215.07 411.619 1236.31 438.416 1257.56C441.869 1260.3 461.483 1276.26 464.094 1277.48C468.874 1281.9 473.929 1286.31 479.418 1289.85C484.037 1293.5 488.706 1297.08 493.425 1300.59C495.65 1323.28 495.74 1352.72 496.74 1375.52C497.235 1386.78 501.559 1455.47 498.814 1461.13C491.689 1463.87 477.361 1468.99 471.819 1473.22C471.89 1475.18 472.066 1477.75 472.043 1479.65C472.275 1481.09 472.577 1482.39 472.89 1483.81C477.863 1489.14 528.125 1503.15 537.675 1505.2C553.548 1499.68 569.368 1494.2 584.973 1487.74C590.544 1485.43 602.519 1479.71 598.759 1471.32C597.717 1469.28 595.137 1467.32 593.029 1466.42C585.691 1463.27 577.689 1460.79 570.173 1458.09C568.502 1434.68 571.945 1406.75 571.804 1383C571.769 1377.26 573.889 1367.65 573.178 1362.23C579.534 1360.37 583.711 1358.88 589.863 1356.41C601.742 1353.09 625.636 1341.32 638.475 1336.22L755.136 1290.56C762.705 1287.57 802.085 1272.24 807.093 1268.35C809.309 1267.98 810.669 1267.35 812.439 1268.14C813.657 1273.72 813.901 1284.7 814.287 1290.76C814.992 1301.56 815.955 1312.33 817.176 1323.08C808.647 1326.56 800.066 1329.91 791.434 1333.13C791.24 1347.82 794.886 1346.42 808.018 1350.1C820.149 1354.6 835.57 1359.23 848.303 1361.55L857.631 1364.04C876.554 1357.99 900.693 1348.14 918.832 1339.39C919.036 1335.53 918.944 1330.9 918.968 1326.97C908.545 1324.41 898.068 1322.06 887.547 1319.94L887.466 1310.43C887.644 1300.81 887.47 1290.76 887.442 1281.1C888.022 1271.16 887.648 1257.23 887.682 1246.96C887.776 1223.46 887.726 1199.96 887.531 1176.46C887.296 1157.54 889.217 1140.05 889.607 1121.55C890.417 1080.66 889.964 1039.75 888.247 998.883C890.699 981.151 884.982 961.945 884.369 943.371C888.507 909.481 884.58 857.312 883.691 822.249C884.656 799.134 883.922 768.903 883.714 745.294C884.711 717.313 884.294 689.385 884.373 661.396C884.523 607.744 885.373 554.543 884.343 500.879C884.326 465.358 884.587 429.836 885.126 394.319C885.35 371.096 885.756 346.803 884.396 323.597C883.985 316.586 882.369 310.475 878.69 304.464C875.915 299.614 872.297 296.232 867.597 293.373L861.644 289.718C855.193 264.403 852.455 261.963 830.91 247.29C790.839 219.701 744.909 204.89 699.904 187.882C660.598 173.028 625.377 157.807 583.396 151.842C574.087 150.625 568.041 148.562 558.19 148.118C553.693 147.087 548.789 146.112 544.493 144.52C547.782 140.38 555.009 133.026 554.327 127.376C554.131 125.757 553.484 124.531 552.199 123.481C543.667 116.506 478.694 117.796 465.407 120.275C461.113 121.076 453.922 122.497 451.288 126.397C450.125 128.12 449.859 129.879 450.317 131.888C451.574 137.403 458.05 142.373 456.024 148.219C450.555 155.164 408.753 159.204 398.457 160.982C388.92 162.641 379.459 164.708 370.099 167.178C345.689 173.619 326.791 181.279 303.946 191.328C277.309 198.757 180.703 244.784 161.459 263.422C159.305 270.39 156.404 280.916 156.069 288.14C150.811 291.99 143.611 296.906 139.757 302.043C134.839 309.01 134.4 313.356 133.593 321.854C135.757 324.689 137.201 326.537 138.98 329.646C142.516 334.387 150.065 340.946 150.07 345.537C156.875 350.484 164.848 355.542 173.081 357.597L173.002 358.716C193.161 366.755 210.158 372.853 231.119 378.394C266.885 385.675 299.207 392.462 335.568 395.727C362.24 398.543 391.271 401.434 418.192 402.675L425.84 402.799C432.966 404.283 446.371 402.706 450.665 403.94C459.484 404.418 475.042 405.557 483.465 404.9C489.358 405.25 495.169 405.646 501.076 405.693C558.655 405.782 615.695 404.304 672.994 397.727L673.27 396.611C676.701 395.404 697.013 393.611 701.494 393.07C716.152 391.632 730.599 388.829 744.335 386.506C753.935 384.882 797.854 373.644 803.562 374.582C814.003 371.653 838.175 363.854 847.159 358.106C858.197 352.596 864.817 347.753 874.568 339.923C876.49 365.011 876.308 387.194 876.312 412.35C876.318 453.95 875.166 495.457 874.805 537.034L874.134 788.792C874.037 846.223 872.946 907.099 874.832 964.172C874.695 976.509 874.47 985.487 865.406 995.75C862.768 998.737 853.914 1002.99 852.532 1007.09Z"/><defs><linearGradient id="gradient_0" gradientUnits="userSpaceOnUse" x1="841.32532" y1="1363.1827" x2="149.74969" y2="949.17596"><stop offset="0" stop-color="#4B4B4B"/><stop offset="1" stop-color="#686767"/></linearGradient></defs><path fill="url(#gradient_0)" d="M876.861 929.986C877.224 946.288 876.79 962.567 876.939 978.841L883.978 972.862C882.774 964.117 878.76 950.606 884.369 943.371C884.982 961.945 890.699 981.151 888.247 998.883C889.964 1039.75 890.417 1080.66 889.607 1121.55C889.217 1140.05 887.296 1157.54 887.531 1176.46C887.726 1199.96 887.776 1223.46 887.682 1246.96C887.648 1257.23 888.022 1271.16 887.442 1281.1C887.47 1290.76 887.644 1300.81 887.466 1310.43L887.547 1319.94C898.068 1322.06 908.545 1324.41 918.968 1326.97C918.944 1330.9 919.036 1335.53 918.832 1339.39C900.693 1348.14 876.554 1357.99 857.631 1364.04L848.303 1361.55C835.57 1359.23 820.149 1354.6 808.018 1350.1C794.886 1346.42 791.24 1347.82 791.434 1333.13C800.066 1329.91 808.647 1326.56 817.176 1323.08C815.955 1312.33 814.992 1301.56 814.287 1290.76C813.901 1284.7 813.657 1273.72 812.439 1268.14C810.669 1267.35 809.309 1267.98 807.093 1268.35C802.085 1272.24 762.705 1287.57 755.136 1290.56L638.475 1336.22C625.636 1341.32 601.742 1353.09 589.863 1356.41C583.711 1358.88 579.534 1360.37 573.178 1362.23C573.889 1367.65 571.769 1377.26 571.804 1383C571.945 1406.75 568.502 1434.68 570.173 1458.09C577.689 1460.79 585.691 1463.27 593.029 1466.42C595.137 1467.32 597.717 1469.28 598.759 1471.32C602.519 1479.71 590.544 1485.43 584.973 1487.74C569.368 1494.2 553.548 1499.68 537.675 1505.2C528.125 1503.15 477.863 1489.14 472.89 1483.81C472.577 1482.39 472.275 1481.09 472.043 1479.65C472.066 1477.75 471.89 1475.18 471.819 1473.22C477.361 1468.99 491.689 1463.87 498.814 1461.13C501.559 1455.47 497.235 1386.78 496.74 1375.52C495.74 1352.72 495.65 1323.28 493.425 1300.59C488.706 1297.08 484.037 1293.5 479.418 1289.85C473.929 1286.31 468.874 1281.9 464.094 1277.48C461.483 1276.26 441.869 1260.3 438.416 1257.56C411.619 1236.31 383.369 1215.07 357.5 1192.82C341.182 1198.75 325.748 1206.67 309.806 1213.19C281.543 1224.76 251.079 1237.36 222.069 1246.71C217.732 1248.61 213.061 1250.78 208.629 1252.35C207.371 1281.66 204.009 1309.11 201.619 1338.21C209.641 1340.82 222.783 1344.45 230.23 1347.35C230.273 1351.74 230.438 1356.59 230.075 1360.92C223.996 1363.29 218.292 1365.5 212.106 1367.59C198.671 1373.9 188.851 1376.65 176.31 1381.9C172.682 1380.36 171.413 1381.88 168.331 1378.31C168.124 1374.43 174.825 1372.61 175.467 1367.53C179.953 1364.88 189.268 1360.96 194.344 1359.5C197.694 1358.53 196.577 1360.38 199.31 1356.65C200.477 1356.64 203.083 1356.7 204.061 1356.33L206.812 1355.03C207.816 1352.07 209.709 1348.76 211.199 1345.93C207.628 1344.74 204.078 1343.48 200.551 1342.16C200.235 1347.56 200.633 1349.64 196.312 1353.35C188.381 1354.66 177.759 1359.72 169.403 1361.71C165.653 1361.99 159.65 1362.17 156.038 1361.59L156.621 1359.96C153.21 1358.77 148.954 1357.59 145.435 1356.51C141.948 1355.4 138.805 1353.69 135.53 1352.06L134.917 1355.61L130.956 1352.83C130.542 1351.21 128.693 1348.54 127.737 1347L127.041 1341.31C128.916 1328.63 128.315 1310.43 128.316 1297.08L128.335 1226.97L128.975 1069.59C129.072 1047.75 129.957 1024.91 129.631 1003.34C124.9 991.563 131.202 970.467 134.419 958.309C135.314 959.559 136.396 960.935 137.065 962.281C138.411 965.335 140.245 975.658 138.974 978.703L140.041 981.758C143.259 982.97 144.508 986.138 146.24 989.3C153.754 1007.13 172.939 1015.26 189.396 1022.71C193.265 1024.46 199.498 1027.36 202.48 1030.19C203.843 1031.33 203.087 1031.02 204.792 1031.23C250.823 1052.81 324.012 1061.71 374.911 1066.83C389.149 1068.26 403.997 1068.27 417.845 1069.75C424.599 1071.13 443.735 1072.33 450.591 1071.72C477.435 1072.55 505.745 1072.36 532.622 1072.02C548.5 1071.81 565.094 1069.91 581.131 1069.49C589.621 1069.36 603.086 1067.88 611.998 1067.18C637.331 1065.38 662.597 1062.73 687.754 1059.25L688.028 1057.77C730.129 1052.32 784.714 1038.07 823.51 1022.04C826.948 1020.38 833.845 1016.5 837.251 1016.61C839.796 1016.21 850.095 1009.15 852.532 1007.09C853.914 1002.99 862.768 998.737 865.406 995.75C874.47 985.487 874.695 976.509 874.832 964.172C876.353 958.354 876.217 937.679 876.861 929.986ZM665.242 1187.54C658.703 1193.35 648.513 1202.76 641.515 1207.41C625.321 1222.01 587.77 1247.13 577.132 1260.97C575.952 1268.97 571.859 1324.65 574.716 1329.39C616.355 1315.54 657.337 1297.42 697.935 1280.82C728.752 1268.13 760.024 1256.58 791.69 1246.18C797.963 1244.24 804.492 1242.03 810.926 1240.86C807.846 1242.15 795.386 1247.11 793.087 1248.45C793.524 1252.22 791.921 1254.13 789.108 1256.75L789.925 1256.5C787.245 1257.9 788.407 1257.68 785.521 1257.5C783.275 1255.56 783.205 1253.9 781.123 1252.69C747.756 1264.6 715.363 1280.37 681.716 1291.68C672.749 1294.7 663.591 1299.37 654.644 1302.21C654.353 1308.66 651.682 1310.88 644.918 1310.32C643.812 1310.23 642.819 1308.29 642.221 1307.36L638.817 1308.64C638.251 1311.86 637.386 1314.17 637.038 1317.29C634.566 1318.05 631.033 1318.08 628.839 1316.56C629.512 1316.06 629.906 1315.79 630.627 1315.32C629.934 1314.08 629.782 1313.74 628.87 1312.66C610.421 1319.76 592.099 1327.19 573.912 1334.93C573.819 1339.89 573.74 1341.42 574.839 1346.19C590.44 1339.91 611.117 1331.69 627.03 1326.41C636.86 1322.39 653.12 1306.52 662.343 1310.63C667.573 1311.05 697.078 1296.87 703.859 1294.34C705.739 1293.64 710.509 1289.72 711.966 1287.87L711.601 1284.98C715.035 1280.99 722.374 1287.57 730.94 1284C730.684 1282.35 730.705 1282.47 731.342 1280.92C736.7 1277.81 736.429 1278.24 741.936 1279.57C742.843 1279.79 747.56 1277.93 748.818 1277.48C767.429 1270.84 785.671 1263.56 804.192 1256.64L815.116 1251.76C810.723 1234.09 813.274 1224.19 811.914 1206.51C809.672 1177.36 807.656 1148.46 807.046 1119.2C806.749 1104.98 805.503 1084.86 806.704 1070.97C775.845 1097.78 745.543 1121.65 713.988 1147.54C699.065 1159.78 678.984 1174.67 665.242 1187.54ZM492.692 1476.91L493.997 1477.02C495.036 1474.95 495.552 1474.47 497.413 1473.11L496.802 1471.72C494.742 1470.7 493.074 1470.07 490.943 1469.26C488.487 1470.11 486.673 1470.35 485.324 1472.43C486.263 1474.56 487.234 1474.89 489.75 1475.85C490.725 1476.22 491.706 1476.57 492.692 1476.91ZM823.66 1338.74C825.71 1339.02 825.607 1338.99 827.593 1338.32C827.865 1333.58 827.618 1334.05 824.361 1331.08C820.793 1328.41 819.074 1326.71 814.517 1327.07C814.157 1331.67 813.85 1332.35 810.158 1335.54C815.51 1338.41 817.879 1335.09 823.66 1338.74ZM565.206 1470.39C564.971 1471.85 565.047 1471.82 565.384 1473.28C571.33 1476.04 575.259 1471.43 576.339 1465.9L568.878 1463.74C568.319 1464.8 565.785 1469.78 565.206 1470.39ZM281.971 1131.49C279.169 1129.51 276.435 1126.81 273.897 1124.45C258.645 1112.82 245.212 1101.33 230.699 1088.86L223.765 1084.16C219.659 1126.39 217.812 1169.04 212.567 1211.18C212.31 1213.24 212.003 1215.61 211.57 1217.63C219.433 1216.35 257.417 1200.97 267.091 1196.97C286.485 1188.96 311.858 1180.07 330.536 1171.28C316.994 1156.96 295.13 1144.68 281.971 1131.49ZM906.091 1328.81C900.17 1326.25 893.81 1324.91 887.483 1323.78C886.536 1324.91 883.978 1327.77 883.446 1328.9C882.474 1330.84 881.622 1332.09 881.548 1334.25C886.457 1339.96 901.163 1332.1 906.091 1328.81ZM337.688 1174.76C328.339 1176.46 311.256 1183.43 301.97 1187.15L251.069 1207.61C239.171 1212.38 223.195 1219.08 210.871 1222.16C210.713 1226.23 210.495 1230.31 210.64 1234.37C221.207 1230.1 233.739 1224.66 244.484 1221.38C251.911 1217.71 264.471 1213.85 272.544 1210.67C295.863 1201.47 321.312 1193.14 343.757 1182.02C341.653 1178.87 340.317 1177.51 337.688 1174.76Z"/><path fill="#010101" fill-opacity="0.98431373" d="M598.304 1327.68C600.702 1327.61 606.177 1327.06 607.463 1329.21L606.231 1330C603.686 1329.92 598.039 1330.13 596.439 1328.85L598.304 1327.68Z"/><path fill="#010101" fill-opacity="0.97647059" d="M672.125 1298.62C675.426 1298.1 678.662 1297.16 681.341 1299.45C678.3 1300.71 675.007 1300 672.125 1298.62Z"/><path fill="#010101" fill-opacity="0.96862745" d="M305.273 1189.65C308.261 1189.69 308.944 1189.62 311.7 1190.7L311.389 1191.61L308.577 1192.6C305.817 1192.46 305.343 1192.29 302.724 1191.37L302.737 1190.52L305.273 1189.65Z"/><path fill="#010101" d="M574.716 1329.39C616.355 1315.54 657.337 1297.42 697.935 1280.82C728.752 1268.13 760.024 1256.58 791.69 1246.18L791.017 1248.67L793.087 1248.45C793.524 1252.22 791.921 1254.13 789.108 1256.75L789.925 1256.5C787.245 1257.9 788.407 1257.68 785.521 1257.5C783.275 1255.56 783.205 1253.9 781.123 1252.69C747.756 1264.6 715.363 1280.37 681.716 1291.68C672.749 1294.7 663.591 1299.37 654.644 1302.21C652.657 1302.99 643.449 1306.48 642.221 1307.36L638.817 1308.64C638.251 1311.86 637.386 1314.17 637.038 1317.29C634.566 1318.05 631.033 1318.08 628.839 1316.56C629.512 1316.06 629.906 1315.79 630.627 1315.32C629.934 1314.08 629.782 1313.74 628.87 1312.66C610.421 1319.76 592.099 1327.19 573.912 1334.93C573.775 1332.16 573.617 1331.83 574.716 1329.39Z"/><path fill="#F4F3F3" d="M793.087 1248.45C793.524 1252.22 791.921 1254.13 789.108 1256.75L789.925 1256.5C787.245 1257.9 788.407 1257.68 785.521 1257.5C783.275 1255.56 783.205 1253.9 781.123 1252.69C783.998 1251.35 787.992 1249.88 791.017 1248.67L793.087 1248.45Z"/><path fill="#F4F3F3" d="M628.87 1312.66C631.129 1311.38 636.178 1309.63 638.817 1308.64C638.251 1311.86 637.386 1314.17 637.038 1317.29C634.566 1318.05 631.033 1318.08 628.839 1316.56C629.512 1316.06 629.906 1315.79 630.627 1315.32C629.934 1314.08 629.782 1313.74 628.87 1312.66Z"/><path fill="#D4D4D4" d="M531.405 1088.82L532.373 1087.63L534.969 1087.6C547.613 1088.08 561.786 1087.45 574.688 1087.58C575.114 1123.03 573.146 1159.79 572.001 1195.21C570.66 1247.75 568.986 1300.29 566.98 1352.82L563.701 1436.39C563.406 1443.55 563.705 1461.61 562.588 1467.78L563.722 1470.58C559.626 1473.66 549.647 1478.1 544.616 1479.37C528.484 1483.45 519.371 1478.04 506.041 1470.27L505.256 1468.27C506.268 1468.16 506.756 1467.98 507.672 1468.2C505.895 1452.88 505.534 1435.66 505.025 1420.22L502.764 1353.31C499.046 1264.96 496.596 1176.56 495.414 1088.15L516.069 1088.17C518.947 1088.09 530.101 1087 531.405 1088.82Z"/><path fill="#F4F3F3" d="M495.414 1088.15L516.069 1088.17L519.956 1371.94C520.232 1393.15 521.915 1414.9 522.446 1436.16C522.78 1449.53 523.631 1462.51 522.025 1475.83C516.454 1473.65 512.576 1471.55 507.672 1468.2C505.895 1452.88 505.534 1435.66 505.025 1420.22L502.764 1353.31C499.046 1264.96 496.596 1176.56 495.414 1088.15Z"/><path fill="#D4D4D4" d="M516.069 1088.17C518.947 1088.09 530.101 1087 531.405 1088.82C533.761 1103.09 532.522 1131.12 532.216 1146.28C531.888 1167.62 531.719 1188.96 531.709 1210.31L531.843 1478.17L522.025 1475.83C523.631 1462.51 522.78 1449.53 522.446 1436.16C521.915 1414.9 520.232 1393.15 519.956 1371.94L516.069 1088.17Z"/><path fill="#151515" d="M531.405 1088.82L532.373 1087.63L534.969 1087.6C532.292 1130.92 534.081 1182.44 534.152 1226.45L534.102 1478.12C545.868 1475.3 551.809 1473.49 562.588 1467.78L563.722 1470.58C559.626 1473.66 549.647 1478.1 544.616 1479.37C528.484 1483.45 519.371 1478.04 506.041 1470.27L505.256 1468.27C506.268 1468.16 506.756 1467.98 507.672 1468.2C512.576 1471.55 516.454 1473.65 522.025 1475.83L531.843 1478.17L531.709 1210.31C531.719 1188.96 531.888 1167.62 532.216 1146.28C532.522 1131.12 533.761 1103.09 531.405 1088.82Z"/><path fill="#A2A0A0" d="M165.779 1034.88C174.701 1042.43 183.704 1050.29 193.124 1057.19C199.824 1057.84 229.765 1082.52 230.699 1088.86L223.765 1084.16C219.659 1126.39 217.812 1169.04 212.567 1211.18C212.31 1213.24 212.003 1215.61 211.57 1217.63C219.433 1216.35 257.417 1200.97 267.091 1196.97C286.485 1188.96 311.858 1180.07 330.536 1171.28C316.994 1156.96 295.13 1144.68 281.971 1131.49C279.169 1129.51 276.435 1126.81 273.897 1124.45C277.666 1124.16 281.454 1127.64 284.23 1130.02C286.078 1131.63 287.881 1133.29 289.637 1135C300.098 1144.25 331.505 1166.81 337.688 1174.76C328.339 1176.46 311.256 1183.43 301.97 1187.15L251.069 1207.61C239.171 1212.38 223.195 1219.08 210.871 1222.16C210.713 1226.23 210.495 1230.31 210.64 1234.37C221.207 1230.1 233.739 1224.66 244.484 1221.38C241.236 1227.72 229.707 1230.67 222.75 1232.91C218.59 1234.23 214.411 1235.49 210.215 1236.69C209.819 1240.43 209.342 1244.33 209.024 1248.07C212.688 1247.13 218.817 1245.05 222.069 1246.71C217.732 1248.61 213.061 1250.78 208.629 1252.35C207.371 1281.66 204.009 1309.11 201.619 1338.21C209.641 1340.82 222.783 1344.45 230.23 1347.35C230.273 1351.74 230.438 1356.59 230.075 1360.92C223.996 1363.29 218.292 1365.5 212.106 1367.59C198.671 1373.9 188.851 1376.65 176.31 1381.9C172.682 1380.36 171.413 1381.88 168.331 1378.31C168.124 1374.43 174.825 1372.61 175.467 1367.53C179.953 1364.88 189.268 1360.96 194.344 1359.5C197.694 1358.53 196.577 1360.38 199.31 1356.65C200.477 1356.64 203.083 1356.7 204.061 1356.33L206.812 1355.03C207.816 1352.07 209.709 1348.76 211.199 1345.93C207.628 1344.74 204.078 1343.48 200.551 1342.16C200.235 1347.56 200.633 1349.64 196.312 1353.35C188.381 1354.66 177.759 1359.72 169.403 1361.71L168.159 1360.03C168.031 1359.92 167.885 1359.82 167.773 1359.69C162.428 1353.42 165.483 1068.99 165.779 1034.88Z"/><path fill="#010101" d="M193.124 1057.19C199.824 1057.84 229.765 1082.52 230.699 1088.86L223.765 1084.16C219.659 1126.39 217.812 1169.04 212.567 1211.18C212.31 1213.24 212.003 1215.61 211.57 1217.63C219.433 1216.35 257.417 1200.97 267.091 1196.97C286.485 1188.96 311.858 1180.07 330.536 1171.28C316.994 1156.96 295.13 1144.68 281.971 1131.49C279.169 1129.51 276.435 1126.81 273.897 1124.45C277.666 1124.16 281.454 1127.64 284.23 1130.02C286.078 1131.63 287.881 1133.29 289.637 1135C300.098 1144.25 331.505 1166.81 337.688 1174.76C328.339 1176.46 311.256 1183.43 301.97 1187.15L251.069 1207.61C239.171 1212.38 223.195 1219.08 210.871 1222.16C210.713 1226.23 210.495 1230.31 210.64 1234.37C221.207 1230.1 233.739 1224.66 244.484 1221.38C241.236 1227.72 229.707 1230.67 222.75 1232.91C218.59 1234.23 214.411 1235.49 210.215 1236.69C209.819 1240.43 209.342 1244.33 209.024 1248.07C212.688 1247.13 218.817 1245.05 222.069 1246.71C217.732 1248.61 213.061 1250.78 208.629 1252.35C207.371 1281.66 204.009 1309.11 201.619 1338.21C209.641 1340.82 222.783 1344.45 230.23 1347.35C230.273 1351.74 230.438 1356.59 230.075 1360.92C223.996 1363.29 218.292 1365.5 212.106 1367.59C198.671 1373.9 188.851 1376.65 176.31 1381.9C172.682 1380.36 171.413 1381.88 168.331 1378.31C168.124 1374.43 174.825 1372.61 175.467 1367.53C179.953 1364.88 189.268 1360.96 194.344 1359.5C197.694 1358.53 196.577 1360.38 199.31 1356.65C200.477 1356.64 203.083 1356.7 204.061 1356.33L206.812 1355.03C207.816 1352.07 209.709 1348.76 211.199 1345.93C207.628 1344.74 204.078 1343.48 200.551 1342.16C200.235 1347.56 200.633 1349.64 196.312 1353.35C188.381 1354.66 177.759 1359.72 169.403 1361.71L168.159 1360.03C174.05 1356.45 186.943 1352.26 193.525 1350.03C192.984 1316.26 197.673 1280.33 201.264 1246.62C202.164 1224.56 205.227 1198.71 206.922 1176.26C208.25 1156 209.952 1135.77 212.025 1115.58C212.948 1106.64 214.076 1093.94 215.856 1085.23L216.977 1077.12C212.674 1072.76 198.666 1061.96 193.124 1057.19Z"/><path fill="#555454" d="M215.856 1085.23C217.987 1084.66 218.63 1083.22 219.868 1081.49C222.46 1085.34 210.706 1204.76 209.305 1219.07C207.852 1240.95 205.446 1264.15 203.664 1286.04C202.536 1299.89 200.746 1328.73 196.531 1341.09C196.486 1338.43 196.677 1331.28 196.451 1329.18C195.08 1316.45 205.377 1253.31 201.264 1246.62C202.164 1224.56 205.227 1198.71 206.922 1176.26C208.25 1156 209.952 1135.77 212.025 1115.58C212.948 1106.64 214.076 1093.94 215.856 1085.23Z"/><path fill="#555454" d="M204.061 1356.33C209.501 1358.81 216.944 1352.28 222.436 1355.31C221.635 1360.74 214.887 1361.72 212.106 1367.59C198.671 1373.9 188.851 1376.65 176.31 1381.9C172.682 1380.36 171.413 1381.88 168.331 1378.31C168.124 1374.43 174.825 1372.61 175.467 1367.53C179.953 1364.88 189.268 1360.96 194.344 1359.5C197.694 1358.53 196.577 1360.38 199.31 1356.65C200.477 1356.64 203.083 1356.7 204.061 1356.33Z"/><path fill="#F4F3F3" d="M211.199 1345.93L221.14 1349.44C216.449 1351.32 211.564 1353.37 206.812 1355.03C207.816 1352.07 209.709 1348.76 211.199 1345.93Z"/><defs><linearGradient id="gradient_1" gradientUnits="userSpaceOnUse" x1="853.55652" y1="1010.4036" x2="855.63715" y2="1347.7659"><stop offset="0" stop-color="#D5D4D4"/><stop offset="1" stop-color="#FCFBFB"/></linearGradient></defs><path fill="url(#gradient_1)" d="M876.861 929.986C877.224 946.288 876.79 962.567 876.939 978.841L883.978 972.862C882.774 964.117 878.76 950.606 884.369 943.371C884.982 961.945 890.699 981.151 888.247 998.883C889.964 1039.75 890.417 1080.66 889.607 1121.55C889.217 1140.05 887.296 1157.54 887.531 1176.46C887.726 1199.96 887.776 1223.46 887.682 1246.96C887.648 1257.23 888.022 1271.16 887.442 1281.1C887.47 1290.76 887.644 1300.81 887.466 1310.43L887.547 1319.94C898.068 1322.06 908.545 1324.41 918.968 1326.97C918.944 1330.9 919.036 1335.53 918.832 1339.39C900.693 1348.14 876.554 1357.99 857.631 1364.04L848.303 1361.55C835.57 1359.23 820.149 1354.6 808.018 1350.1C804.719 1345.34 794.903 1342.23 793.869 1337.61C798.186 1334.2 804.69 1338.95 808.476 1337.52L808.115 1336.06L810.158 1335.54C815.51 1338.41 817.879 1335.09 823.66 1338.74C825.71 1339.02 825.607 1338.99 827.593 1338.32L828.236 1334.83C829.658 1334.65 835.016 1337.55 836.77 1338.37C843.931 1341.73 849.228 1341.4 856.982 1340.9L857.834 1338.64C856.819 1330.67 857.43 1309.77 857.432 1300.9L857.932 1217.76C858.47 1155.66 857.058 1091.58 856.777 1029.24C865 1022.56 872.655 1015.58 880.465 1008.44C881.13 999.708 888.74 993.446 885.52 978.867L884.704 978.56L883.144 979.89L881.098 979.69C878.339 981.08 874.564 986.058 872.421 988.669C866.433 995.962 860.599 1001.93 852.532 1007.09C853.914 1002.99 862.768 998.737 865.406 995.75C874.47 985.487 874.695 976.509 874.832 964.172C876.353 958.354 876.217 937.679 876.861 929.986ZM883.446 1328.9C882.474 1330.84 881.622 1332.09 881.548 1334.25C886.457 1339.96 901.163 1332.1 906.091 1328.81C900.17 1326.25 893.81 1324.91 887.483 1323.78C886.536 1324.91 883.978 1327.77 883.446 1328.9Z"/><path fill="#010101" d="M883.833 1177.12L887.531 1176.46C887.726 1199.96 887.776 1223.46 887.682 1246.96C887.648 1257.23 888.022 1271.16 887.442 1281.1C887.47 1290.76 887.644 1300.81 887.466 1310.43L887.547 1319.94C898.068 1322.06 908.545 1324.41 918.968 1326.97C918.944 1330.9 919.036 1335.53 918.832 1339.39C900.693 1348.14 876.554 1357.99 857.631 1364.04L848.303 1361.55C835.57 1359.23 820.149 1354.6 808.018 1350.1C804.719 1345.34 794.903 1342.23 793.869 1337.61C798.186 1334.2 804.69 1338.95 808.476 1337.52L808.115 1336.06L810.158 1335.54C815.51 1338.41 817.879 1335.09 823.66 1338.74L824.254 1340.55L825.777 1341.25C836.497 1343.88 847.161 1346.74 857.763 1349.81C862.704 1347.98 869.756 1345.16 874.639 1343.75C877.481 1342.49 883.016 1340.37 884.926 1338.16C879.661 1336.21 879.856 1336.98 879.285 1331.51C877.799 1329.22 879.277 1320.73 879.658 1317.77C882.742 1293.9 881.618 1269.92 881.46 1245.84L881.319 1177.13L883.833 1177.12ZM883.446 1328.9C882.474 1330.84 881.622 1332.09 881.548 1334.25C886.457 1339.96 901.163 1332.1 906.091 1328.81C900.17 1326.25 893.81 1324.91 887.483 1323.78C886.536 1324.91 883.978 1327.77 883.446 1328.9Z"/><path fill="#555454" d="M808.115 1336.06L810.158 1335.54C815.51 1338.41 817.879 1335.09 823.66 1338.74L824.254 1340.55L825.777 1341.25L824.966 1342.27C828.448 1344.72 851.013 1350.63 856.688 1352.21C856.675 1355.52 857.237 1357.82 855.776 1360.33C853.376 1360.55 850.118 1360.4 848.303 1361.55C835.57 1359.23 820.149 1354.6 808.018 1350.1C804.719 1345.34 794.903 1342.23 793.869 1337.61C798.186 1334.2 804.69 1338.95 808.476 1337.52L808.115 1336.06Z"/><path fill="#555454" d="M906.091 1328.81L906.25 1330.89C909.982 1333.62 910.448 1330.64 913.458 1333.58C912.915 1342.77 864.979 1360.29 860.525 1358.54C856.958 1352.08 873.596 1349.16 874.639 1343.75C877.481 1342.49 883.016 1340.37 884.926 1338.16C879.661 1336.21 879.856 1336.98 879.285 1331.51L883.446 1328.9C882.474 1330.84 881.622 1332.09 881.548 1334.25C886.457 1339.96 901.163 1332.1 906.091 1328.81Z"/><path fill="#555454" d="M887.442 1281.1C887.47 1290.76 887.644 1300.81 887.466 1310.43C880.367 1301.48 882.48 1290.42 887.442 1281.1Z"/><path fill="#555454" d="M876.861 929.986C877.224 946.288 876.79 962.567 876.939 978.841L883.978 972.862C882.774 964.117 878.76 950.606 884.369 943.371C884.982 961.945 890.699 981.151 888.247 998.883C889.964 1039.75 890.417 1080.66 889.607 1121.55C889.217 1140.05 887.296 1157.54 887.531 1176.46L883.833 1177.12L881.319 1177.13C881.759 1140.51 881.333 1103.33 881.411 1066.68C881.438 1053.83 882.369 1019.08 880.465 1008.44C881.13 999.708 888.74 993.446 885.52 978.867L884.704 978.56L883.144 979.89L881.098 979.69C878.339 981.08 874.564 986.058 872.421 988.669C866.433 995.962 860.599 1001.93 852.532 1007.09C853.914 1002.99 862.768 998.737 865.406 995.75C874.47 985.487 874.695 976.509 874.832 964.172C876.353 958.354 876.217 937.679 876.861 929.986Z"/><path fill="#151515" d="M876.861 929.986C877.224 946.288 876.79 962.567 876.939 978.841L883.978 972.862C882.774 964.117 878.76 950.606 884.369 943.371C884.982 961.945 890.699 981.151 888.247 998.883C879.832 1014.47 883.489 1060.3 883.352 1079.47C883.121 1111.77 884.406 1144.74 883.833 1177.12L881.319 1177.13C881.759 1140.51 881.333 1103.33 881.411 1066.68C881.438 1053.83 882.369 1019.08 880.465 1008.44C881.13 999.708 888.74 993.446 885.52 978.867L884.704 978.56L883.144 979.89L881.098 979.69C878.339 981.08 874.564 986.058 872.421 988.669C866.433 995.962 860.599 1001.93 852.532 1007.09C853.914 1002.99 862.768 998.737 865.406 995.75C874.47 985.487 874.695 976.509 874.832 964.172C876.353 958.354 876.217 937.679 876.861 929.986Z"/><path fill="#6A6A6A" d="M857.834 1338.64C862.15 1337.56 866.617 1336.34 870.993 1335.62C866.403 1338.06 862.084 1339.77 856.982 1340.9L857.834 1338.64Z"/><path fill="#A2A0A0" d="M808.232 1071.14C810.524 1066.41 844.436 1039.13 850.947 1033.28C854.685 1081.15 853.708 1124.75 853.728 1172.67L853.994 1338.21C845.339 1336.1 837.637 1334.11 829.116 1331.56C827.288 1313.65 825.585 1296.73 822.604 1278.97L819.538 1278.98C820.815 1287.55 826.479 1320.7 823.986 1327.65C824.356 1329.21 824.514 1329.45 824.361 1331.08C820.793 1328.41 819.074 1326.71 814.517 1327.07C814.157 1331.67 813.85 1332.35 810.158 1335.54L808.115 1336.06L808.476 1337.52C804.69 1338.95 798.186 1334.2 793.869 1337.61C794.903 1342.23 804.719 1345.34 808.018 1350.1C794.886 1346.42 791.24 1347.82 791.434 1333.13C800.066 1329.91 808.647 1326.56 817.176 1323.08C815.955 1312.33 814.992 1301.56 814.287 1290.76C813.901 1284.7 813.657 1273.72 812.439 1268.14C810.669 1267.35 809.309 1267.98 807.093 1268.35C808.579 1265.82 813.895 1262.02 814.835 1259.42C810.432 1257.4 808.138 1258.25 804.192 1256.64L815.116 1251.76C810.723 1234.09 813.274 1224.19 811.914 1206.51C809.672 1177.36 807.656 1148.46 807.046 1119.2C806.749 1104.98 805.503 1084.86 806.704 1070.97L808.232 1071.14Z"/><path fill="#010101" d="M806.704 1070.97L808.232 1071.14C810.257 1089.53 809.15 1110.31 809.906 1129.3C811.228 1163.71 813.634 1198.07 817.12 1232.33C818.319 1245.3 819.663 1266.72 822.604 1278.97L819.538 1278.98C820.815 1287.55 826.479 1320.7 823.986 1327.65C824.356 1329.21 824.514 1329.45 824.361 1331.08C820.793 1328.41 819.074 1326.71 814.517 1327.07C814.157 1331.67 813.85 1332.35 810.158 1335.54L808.115 1336.06L808.476 1337.52C804.69 1338.95 798.186 1334.2 793.869 1337.61C794.903 1342.23 804.719 1345.34 808.018 1350.1C794.886 1346.42 791.24 1347.82 791.434 1333.13C800.066 1329.91 808.647 1326.56 817.176 1323.08C815.955 1312.33 814.992 1301.56 814.287 1290.76C813.901 1284.7 813.657 1273.72 812.439 1268.14C810.669 1267.35 809.309 1267.98 807.093 1268.35C808.579 1265.82 813.895 1262.02 814.835 1259.42C810.432 1257.4 808.138 1258.25 804.192 1256.64L815.116 1251.76C810.723 1234.09 813.274 1224.19 811.914 1206.51C809.672 1177.36 807.656 1148.46 807.046 1119.2C806.749 1104.98 805.503 1084.86 806.704 1070.97Z"/><path fill="#6A6A6A" d="M823.986 1327.65C815.038 1312.28 815.971 1285.7 816.48 1268.4L819.538 1278.98C820.815 1287.55 826.479 1320.7 823.986 1327.65Z"/><path fill="#F4F3F3" d="M808.115 1336.06C805.618 1335.41 804.61 1335.33 802.542 1333.8L802.618 1332.55C804.938 1330.35 811.237 1328.33 814.517 1327.07C814.157 1331.67 813.85 1332.35 810.158 1335.54L808.115 1336.06Z"/><path fill="#F4F3F3" d="M136.128 987.658C136.54 984.404 136.688 981.312 138.016 978.352L138.974 978.703L140.041 981.758C143.259 982.97 144.508 986.138 146.24 989.3C153.754 1007.13 172.939 1015.26 189.396 1022.71C193.265 1024.46 199.498 1027.36 202.48 1030.19C203.843 1031.33 203.087 1031.02 204.792 1031.23C250.823 1052.81 324.012 1061.71 374.911 1066.83C389.149 1068.26 403.997 1068.27 417.845 1069.75C424.599 1071.13 443.735 1072.33 450.591 1071.72C477.435 1072.55 505.745 1072.36 532.622 1072.02C548.5 1071.81 565.094 1069.91 581.131 1069.49C589.621 1069.36 603.086 1067.88 611.998 1067.18C637.331 1065.38 662.597 1062.73 687.754 1059.25L688.028 1057.77C730.129 1052.32 784.714 1038.07 823.51 1022.04C826.948 1020.38 833.845 1016.5 837.251 1016.61C839.796 1016.21 850.095 1009.15 852.532 1007.09C860.599 1001.93 866.433 995.962 872.421 988.669C874.564 986.058 878.339 981.08 881.098 979.69C881.368 987.237 872.472 999.128 867.581 1004.45C827.403 1048.15 717.941 1063.48 660.893 1070.75C649.891 1072.16 638.991 1074.44 627.971 1075.66C606.294 1078.06 584.18 1078.92 562.39 1079.68C488.504 1082.53 414.508 1079.11 341.202 1069.44C296.361 1063.51 251.546 1055.64 208.59 1041.13C175.849 1030.08 150.579 1021.83 136.128 987.658Z"/><path fill="#151515" d="M823.51 1022.04L823.9 1023.32C775.838 1044.84 739.197 1051.06 687.754 1059.25L688.028 1057.77C730.129 1052.32 784.714 1038.07 823.51 1022.04Z"/><path fill="#151515" d="M140.041 981.758C143.259 982.97 144.508 986.138 146.24 989.3C153.754 1007.13 172.939 1015.26 189.396 1022.71C193.265 1024.46 199.498 1027.36 202.48 1030.19C180.156 1025.09 146.689 1004.67 140.041 981.758Z"/><path fill="#6A6A6A" d="M823.51 1022.04C826.948 1020.38 833.845 1016.5 837.251 1016.61C833.578 1018.48 827.485 1021.82 823.9 1023.32L823.51 1022.04Z"/><path fill="#D4D4D4" d="M129.631 1003.34C131.233 1005.91 134.286 1011.13 136.288 1013.06L136.927 1010.66C139.419 1010.99 146.161 1018.5 148.272 1020.67C144.509 1038.21 144.971 1059.34 144.988 1077.38L145.012 1126.52L145.04 1215.3C145.471 1263.54 146.458 1308.13 145.435 1356.51C141.948 1355.4 138.805 1353.69 135.53 1352.06L134.917 1355.61L130.956 1352.83C130.542 1351.21 128.693 1348.54 127.737 1347L127.041 1341.31C128.916 1328.63 128.315 1310.43 128.316 1297.08L128.335 1226.97L128.975 1069.59C129.072 1047.75 129.957 1024.91 129.631 1003.34Z"/><path fill="#555454" d="M129.631 1003.34C131.233 1005.91 134.286 1011.13 136.288 1013.06C137.504 1045.54 136.133 1078.06 136.014 1110.52L135.716 1277.75C135.652 1289.29 133.625 1345.11 135.53 1352.06L134.917 1355.61L130.956 1352.83C130.542 1351.21 128.693 1348.54 127.737 1347L127.041 1341.31C128.916 1328.63 128.315 1310.43 128.316 1297.08L128.335 1226.97L128.975 1069.59C129.072 1047.75 129.957 1024.91 129.631 1003.34Z"/><path fill="#F4F3F3" d="M148.272 1020.67C152.34 1024 156.571 1027.57 160.687 1030.8L160.734 1208.84C160.807 1228.1 163.156 1352.86 156.621 1359.96C153.21 1358.77 148.954 1357.59 145.435 1356.51C146.458 1308.13 145.471 1263.54 145.04 1215.3L145.012 1126.52L144.988 1077.38C144.971 1059.34 144.509 1038.21 148.272 1020.67Z"/><path fill="#010101" d="M570.173 1458.09C577.689 1460.79 585.691 1463.27 593.029 1466.42C595.137 1467.32 597.717 1469.28 598.759 1471.32C602.519 1479.71 590.544 1485.43 584.973 1487.74C569.368 1494.2 553.548 1499.68 537.675 1505.2C528.125 1503.15 477.863 1489.14 472.89 1483.81C472.577 1482.39 472.275 1481.09 472.043 1479.65C472.066 1477.75 471.89 1475.18 471.819 1473.22C477.361 1468.99 491.689 1463.87 498.814 1461.13C500.884 1463.23 500.655 1462.39 501.057 1464.85C502.365 1466.2 503.52 1467.68 505.256 1468.27L506.041 1470.27C519.371 1478.04 528.484 1483.45 544.616 1479.37C549.647 1478.1 559.626 1473.66 563.722 1470.58L565.206 1470.39C564.971 1471.85 565.047 1471.82 565.384 1473.28C571.33 1476.04 575.259 1471.43 576.339 1465.9L568.878 1463.74C569.256 1461.87 569.739 1459.95 570.173 1458.09ZM492.692 1476.91L493.997 1477.02C495.036 1474.95 495.552 1474.47 497.413 1473.11L496.802 1471.72C494.742 1470.7 493.074 1470.07 490.943 1469.26C488.487 1470.11 486.673 1470.35 485.324 1472.43C486.263 1474.56 487.234 1474.89 489.75 1475.85C490.725 1476.22 491.706 1476.57 492.692 1476.91Z"/><path fill="#555454" d="M471.819 1473.22C477.361 1468.99 491.689 1463.87 498.814 1461.13C500.884 1463.23 500.655 1462.39 501.057 1464.85C498.553 1465.88 493.019 1467.99 490.943 1469.26C488.487 1470.11 486.673 1470.35 485.324 1472.43C486.263 1474.56 487.234 1474.89 489.75 1475.85C490.725 1476.22 491.706 1476.57 492.692 1476.91L493.997 1477.02C497.012 1478.63 499.762 1478.5 503.186 1478.68C505.931 1483.05 515.397 1483.78 520.666 1486.14L520.464 1487.45C525.128 1491.45 534.788 1489.37 535.426 1496.05C528.448 1509.38 477.29 1477.46 472.043 1479.65C472.066 1477.75 471.89 1475.18 471.819 1473.22Z"/><path fill="#010101" d="M471.819 1473.22C477.361 1468.99 491.689 1463.87 498.814 1461.13C500.884 1463.23 500.655 1462.39 501.057 1464.85C498.553 1465.88 493.019 1467.99 490.943 1469.26C488.487 1470.11 486.673 1470.35 485.324 1472.43C486.263 1474.56 487.234 1474.89 489.75 1475.85C490.725 1476.22 491.706 1476.57 492.692 1476.91L492.039 1477.9C486.764 1478.37 476.4 1475.8 471.819 1473.22Z"/><path fill="#F4F3F3" d="M501.057 1464.85C502.365 1466.2 503.52 1467.68 505.256 1468.27L506.041 1470.27C519.371 1478.04 528.484 1483.45 544.616 1479.37C549.647 1478.1 559.626 1473.66 563.722 1470.58L565.206 1470.39C564.971 1471.85 565.047 1471.82 565.384 1473.28C571.33 1476.04 575.259 1471.43 576.339 1465.9C580.986 1467.23 584.058 1468.47 588.471 1470.29C571.721 1476.65 552.9 1484.51 536.293 1490.3L520.666 1486.14C515.397 1483.78 505.931 1483.05 503.186 1478.68C499.762 1478.5 497.012 1478.63 493.997 1477.02C495.036 1474.95 495.552 1474.47 497.413 1473.11L496.802 1471.72C494.742 1470.7 493.074 1470.07 490.943 1469.26C493.019 1467.99 498.553 1465.88 501.057 1464.85Z"/><path fill="#555454" d="M591.589 1472.34C592.646 1472.47 592.335 1472.54 593.419 1473.35C594.185 1485.37 549.951 1497.98 540.305 1500.84L538.654 1499.48C537.405 1488.72 583.068 1474.89 591.589 1472.34Z"/><path fill="#010101" d="M730.94 1284L737.46 1282.31L738.258 1282.83C737.618 1283.99 736.204 1285.27 734.99 1285.62C719.075 1290.23 663.644 1318.6 650.478 1317.85L650.306 1317.14C655.112 1313.95 658.097 1314.38 662.343 1310.63C667.573 1311.05 697.078 1296.87 703.859 1294.34C705.739 1293.64 710.509 1289.72 711.966 1287.87L711.601 1284.98C715.035 1280.99 722.374 1287.57 730.94 1284Z"/><path fill="#010101" d="M574.839 1346.19C590.44 1339.91 611.117 1331.69 627.03 1326.41L627.375 1327.77C619.077 1332.78 583.603 1348.73 575.295 1348.34C575.114 1347.61 574.887 1346.92 574.839 1346.19Z"/><path fill="#151515" d="M134.419 958.309C135.314 959.559 136.396 960.935 137.065 962.281L135.578 969.2C129.719 984.774 129.394 993.795 136.515 1009.41C136.813 1010.06 136.749 1009.95 136.927 1010.66L136.288 1013.06C134.286 1011.13 131.233 1005.91 129.631 1003.34C124.9 991.563 131.202 970.467 134.419 958.309Z"/><path fill="#010101" d="M641.515 1207.41C639.826 1201.66 659.496 1185.39 665.242 1187.54C658.703 1193.35 648.513 1202.76 641.515 1207.41Z"/><path fill="#010101" d="M464.094 1277.48C470.392 1276.95 482.289 1283.72 479.418 1289.85C473.929 1286.31 468.874 1281.9 464.094 1277.48Z"/><path fill="#A2A0A0" d="M137.065 962.281C138.411 965.335 140.245 975.658 138.974 978.703L138.016 978.352C136.688 981.312 136.54 984.404 136.128 987.658C135.689 985.147 135.632 972.324 135.578 969.2L137.065 962.281Z"/><path fill="#010101" d="M573.178 1362.23L573.499 1360.01C576.784 1355.96 585.243 1353.8 589.863 1356.41C583.711 1358.88 579.534 1360.37 573.178 1362.23Z"/><path fill="#A2A0A0" d="M193.281 1044.63C208.946 1047.61 227.518 1053.79 243.659 1057.53C281.771 1066.5 320.385 1073.18 359.294 1077.55C366.085 1078.32 400.252 1081.63 402.975 1084.27C414.561 1084.85 432.49 1084.96 443.305 1086.61C446.694 1084.98 450.72 1084.05 453.937 1086.62C460.128 1085.79 482.261 1087.54 490.993 1087.26C492.13 1100.37 491.834 1113.28 492.166 1126.43L493.838 1208.24C494.118 1222.32 496.65 1267.22 494.448 1278.24L494.289 1289.28C460.725 1260.72 428.279 1235.53 393.84 1208.05C356.259 1178.09 318.833 1147.93 281.563 1117.58C256.592 1097.44 230.894 1077.58 207.341 1055.77C205.167 1053.75 203.19 1052.53 203.895 1049.5C200.39 1047.93 196.697 1046.35 193.281 1044.63Z"/><path fill="#6A6A6A" d="M402.975 1084.27C414.561 1084.85 432.49 1084.96 443.305 1086.61C446.694 1084.98 450.72 1084.05 453.937 1086.62C460.128 1085.79 482.261 1087.54 490.993 1087.26C492.13 1100.37 491.834 1113.28 492.166 1126.43L493.838 1208.24C494.118 1222.32 496.65 1267.22 494.448 1278.24C488.273 1267.61 477.165 1242.21 471.489 1230.24L424.214 1130.56C417.406 1116.06 410.181 1098.1 402.975 1084.27Z"/><path fill="#151515" d="M443.305 1086.61C446.694 1084.98 450.72 1084.05 453.937 1086.62C450.54 1086.8 446.739 1086.66 443.305 1086.61Z"/><path fill="#010101" d="M193.281 1044.63C208.946 1047.61 227.518 1053.79 243.659 1057.53C281.771 1066.5 320.385 1073.18 359.294 1077.55C366.085 1078.32 400.252 1081.63 402.975 1084.27C395.259 1085.19 374.582 1082.37 366.352 1081.39C311.404 1075.31 257.062 1064.64 203.895 1049.5C200.39 1047.93 196.697 1046.35 193.281 1044.63Z"/><path fill="#A2A0A0" d="M633.928 1081.61C661.592 1081.48 690.579 1075.89 717.74 1070.84C753.222 1064.24 786.022 1056.62 820.27 1045.3C806.492 1060.78 788.923 1072.13 773.129 1085.35C773.098 1085.62 772.847 1087.76 772.847 1087.76C767.673 1093.82 739.778 1118.51 733.149 1117.89L661.384 1176.61C650.924 1185.16 636.373 1195.96 626.84 1204.85C625.537 1210.57 606.521 1226.49 600.213 1226.72C591.657 1234.73 586.033 1240.48 576.115 1246.94C576.723 1240.6 576.788 1217.22 578.511 1213.22C597.015 1170.3 615.198 1124.17 633.928 1081.61Z"/><path fill="#151515" d="M773.129 1085.35C773.098 1085.62 772.847 1087.76 772.847 1087.76C767.673 1093.82 739.778 1118.51 733.149 1117.89C742.047 1108.43 762.188 1093.45 773.129 1085.35Z"/><path fill="#010101" d="M626.84 1204.85C625.537 1210.57 606.521 1226.49 600.213 1226.72C606.952 1219.15 618.721 1210.71 626.84 1204.85Z"/><path fill="#010101" d="M303.946 191.328C326.791 181.279 345.689 173.619 370.099 167.178C379.459 164.708 388.92 162.641 398.457 160.982C408.753 159.204 450.555 155.164 456.024 148.219C458.05 142.373 451.574 137.403 450.317 131.888C449.859 129.879 450.125 128.12 451.288 126.397C453.922 122.497 461.113 121.076 465.407 120.275C478.694 117.796 543.667 116.506 552.199 123.481C553.484 124.531 554.131 125.757 554.327 127.376C555.009 133.026 547.782 140.38 544.493 144.52C548.789 146.112 553.693 147.087 558.19 148.118C568.041 148.562 574.087 150.625 583.396 151.842C625.377 157.807 660.598 173.028 699.904 187.882C744.909 204.89 790.839 219.701 830.91 247.29C852.455 261.963 855.193 264.403 861.644 289.718L867.597 293.373C872.297 296.232 875.915 299.614 878.69 304.464C882.369 310.475 883.985 316.586 884.396 323.597C885.756 346.803 885.35 371.096 885.126 394.319C884.587 429.836 884.326 465.358 884.343 500.879C885.373 554.543 884.523 607.744 884.373 661.396C884.294 689.385 884.711 717.313 883.714 745.294C883.922 768.903 884.656 799.134 883.691 822.249C884.58 857.312 888.507 909.481 884.369 943.371C878.76 950.606 882.774 964.117 883.978 972.862L876.939 978.841C876.79 962.567 877.224 946.288 876.861 929.986C876.217 937.679 876.353 958.354 874.832 964.172C872.946 907.099 874.037 846.223 874.134 788.792L874.805 537.034C875.166 495.457 876.318 453.95 876.312 412.35C876.308 387.194 876.49 365.011 874.568 339.923C864.817 347.753 858.197 352.596 847.159 358.106C838.175 363.854 814.003 371.653 803.562 374.582C797.854 373.644 753.935 384.882 744.335 386.506C730.599 388.829 716.152 391.632 701.494 393.07C697.013 393.611 676.701 395.404 673.27 396.611L672.994 397.727C615.695 404.304 558.655 405.782 501.076 405.693C495.169 405.646 489.358 405.25 483.465 404.9C475.042 405.557 459.484 404.418 450.665 403.94C446.371 402.706 432.966 404.283 425.84 402.799L418.192 402.675C391.271 401.434 362.24 398.543 335.568 395.727C299.207 392.462 266.885 385.675 231.119 378.394C210.158 372.853 193.161 366.755 173.002 358.716L173.081 357.597C164.848 355.542 156.875 350.484 150.07 345.537C150.065 340.946 142.516 334.387 138.98 329.646C137.201 326.537 135.757 324.689 133.593 321.854C134.4 313.356 134.839 309.01 139.757 302.043C143.611 296.906 150.811 291.99 156.069 288.14C156.404 280.916 159.305 270.39 161.459 263.422C180.703 244.784 277.309 198.757 303.946 191.328ZM476.508 145.878L473.243 144.35C469.983 148.533 465.795 157.115 469.256 161.967C472.413 163.289 471.801 162.494 473.352 164.949C471.904 167.776 470.416 164.747 470.3 168.092C471.723 170.357 471.203 170.309 473.231 171.262C478.223 167.977 477.803 151.248 476.508 145.878ZM461.103 133.916C475.261 141.195 526.343 140.55 540.491 132.868C542.981 132.005 543.505 131.604 544.456 129.743C543.175 127.513 543.497 128.192 540.637 126.893C515.393 128.845 504.665 133.23 477.774 129.359C471.853 128.375 461.961 125.749 457.157 129.96C457.342 132.093 459.145 133.303 461.103 133.916Z"/><path fill="#F4F3F3" fill-opacity="0.91764706" d="M473.243 144.35L476.508 145.878C477.803 151.248 478.223 167.977 473.231 171.262C471.203 170.309 471.723 170.357 470.3 168.092C470.416 164.747 471.904 167.776 473.352 164.949C471.801 162.494 472.413 163.289 469.256 161.967C465.795 157.115 469.983 148.533 473.243 144.35Z"/><path fill="#D4D4D4" d="M540.083 156.988C549.206 152.254 562.392 157.207 572.554 158.616C596.213 161.897 620.041 165.709 642.88 172.843C667.918 181.122 692.732 192.358 717.718 201.355C722.98 204.182 728.518 206.464 734.244 208.165C778.521 227.402 808.396 242.429 847.967 271.43C820.808 292.29 809.856 296.447 776.04 305.618C751.361 310.469 733.31 314.838 707.79 318.277C695.429 319.922 683.044 321.388 670.64 322.674C664.825 323.277 657.344 323.616 651.838 324.573L650.421 326.324C629.245 327.337 607.81 329.521 586.186 330.529C557.416 331.628 528.622 331.95 499.834 331.495C484.772 331.325 469.824 330.816 454.671 330.717C441.396 329.259 428.052 328.522 414.696 328.508C389.388 328.422 359.698 324.999 334.564 322.23C308.932 317.956 282.845 314.84 257.661 310.52C234.818 304.715 212.27 297.807 190.096 289.821C181.909 285.173 174.771 280.849 167.196 275.196L161.852 295.529C156.75 285.133 166.264 260.612 180.661 260.318C185.911 257.632 192.795 252.829 197.474 249.272C269.618 210.515 343.336 174.749 425.177 163.171C433.118 162.048 445.219 159.299 452.794 158.943C455.825 158.886 458.356 158.414 460.695 160.077C462.528 163.78 460.046 167.145 463.067 172.063L472.518 175.687C474.205 176.146 477.972 177.288 479.523 177.511L479.714 176.948C481.35 176.227 500.784 176.91 504.573 176.899C509.165 176.91 515.905 176.747 520.237 177.663C534.445 178.318 539.68 169.954 540.083 156.988Z"/><path fill="#D4D4D4" d="M197.474 249.272C269.618 210.515 343.336 174.749 425.177 163.171C433.118 162.048 445.219 159.299 452.794 158.943C455.825 158.886 458.356 158.414 460.695 160.077C462.528 163.78 460.046 167.145 463.067 172.063C449.05 175.059 423.461 182.411 411.008 187.26C379.313 199.601 231.857 275.41 216.744 297.167C211.396 296.264 202.435 292.915 197.362 291.03C192.567 288.714 187.716 286.233 182.94 283.855C167.513 276.962 169.133 270.291 180.661 260.318C185.911 257.632 192.795 252.829 197.474 249.272Z"/><path fill="#F4F3F3" d="M182.94 283.855C192.562 269.468 216.73 257.434 231.876 248.645C244.252 241.464 257.727 233.68 270.388 227.131C318.653 201.773 370.244 183.325 423.647 172.328C432.11 170.683 440.628 169.336 449.186 168.29C426.196 177.13 403.695 182.263 381.39 190.447C326.745 210.261 274.808 236.862 226.799 269.625C219.403 274.611 203.236 285.312 197.362 291.03C192.567 288.714 187.716 286.233 182.94 283.855Z"/><path fill="#F4F3F3" d="M216.744 297.167C231.857 275.41 379.313 199.601 411.008 187.26C423.461 182.411 449.05 175.059 463.067 172.063L472.518 175.687C459.709 186.202 435.902 194.1 420.98 201.738C407.901 208.432 394.826 216.127 382.41 223.976C359.649 238.657 337.603 254.416 316.346 271.199C299.871 284.272 284.146 297.958 267.104 310.276C252.723 307.64 231.374 301.202 216.744 297.167Z"/><path fill="#010101" d="M161.852 295.529C156.75 285.133 166.264 260.612 180.661 260.318C169.133 270.291 167.513 276.962 182.94 283.855C187.716 286.233 192.567 288.714 197.362 291.03C202.435 292.915 211.396 296.264 216.744 297.167C231.374 301.202 252.723 307.64 267.104 310.276C299.494 312.987 333.439 319.149 366.925 322.306C422.623 327.329 478.53 329.654 534.452 329.272C570.913 329.232 615.651 328.376 651.838 324.573L650.421 326.324C629.245 327.337 607.81 329.521 586.186 330.529C557.416 331.628 528.622 331.95 499.834 331.495C484.772 331.325 469.824 330.816 454.671 330.717C441.396 329.259 428.052 328.522 414.696 328.508C389.388 328.422 359.698 324.999 334.564 322.23C308.932 317.956 282.845 314.84 257.661 310.52C234.818 304.715 212.27 297.807 190.096 289.821C181.909 285.173 174.771 280.849 167.196 275.196L161.852 295.529Z"/><path fill="#010101" d="M479.523 177.511L479.714 176.948C481.35 176.227 500.784 176.91 504.573 176.899C509.165 176.91 515.905 176.747 520.237 177.663C507.254 180.904 492.569 179.425 479.523 177.511Z"/><path fill="#D4D4D4" d="M776.497 307.156C798.974 300.521 816.67 297.894 837.146 283.754C839.983 281.795 847.552 274.58 849.967 275.341C853.93 287.937 857.298 309.887 860.974 324.378C850.304 331.841 837.412 340.96 825.598 346.321C748.641 381.249 656.053 383.324 573.336 386.488L526.307 388.351C518.893 388.62 498.742 389.152 491.977 388.063C477.374 387.027 464.821 386.99 450.216 387.003C448.231 367.215 448.908 349.775 454.671 330.717C469.824 330.816 484.772 331.325 499.834 331.495C528.622 331.95 557.416 331.628 586.186 330.529C607.81 329.521 629.245 327.337 650.421 326.324L651.838 324.573C657.344 323.616 664.825 323.277 670.64 322.674C683.044 321.388 695.429 319.922 707.79 318.277C733.31 314.838 751.361 310.469 776.04 305.618L776.497 307.156Z"/><path fill="#F4F3F3" d="M454.671 330.717C469.824 330.816 484.772 331.325 499.834 331.495C500.938 342.204 502.993 384.179 491.977 388.063C477.374 387.027 464.821 386.99 450.216 387.003C448.231 367.215 448.908 349.775 454.671 330.717Z"/><path fill="#6A6A6A" d="M776.04 305.618L776.497 307.156C744.516 313.615 712.77 319.594 680.313 323.216C671.75 324.172 658.9 325.967 650.421 326.324L651.838 324.573C657.344 323.616 664.825 323.277 670.64 322.674C683.044 321.388 695.429 319.922 707.79 318.277C733.31 314.838 751.361 310.469 776.04 305.618Z"/><path fill="#F4F3F3" d="M334.564 322.23C359.698 324.999 389.388 328.422 414.696 328.508C428.052 328.522 441.396 329.259 454.671 330.717C448.908 349.775 448.231 367.215 450.216 387.003C439.109 387.169 428.002 386.65 416.958 385.448C393.755 385.957 360.392 381.396 336.846 378.556C336.909 362.654 336.103 337.624 334.564 322.23Z"/><path fill="#D4D4D4" d="M414.696 328.508C428.052 328.522 441.396 329.259 454.671 330.717C448.908 349.775 448.231 367.215 450.216 387.003C439.109 387.169 428.002 386.65 416.958 385.448C417.398 364.889 416.414 348.871 414.696 328.508Z"/><path fill="#6A6A6A" d="M139.757 302.043C143.611 296.906 150.811 291.99 156.069 288.14C156.354 292.684 157.158 298.91 154.78 302.796L153.002 303.764C141.926 309.666 143.179 318.097 145.044 328.994C146.767 330.905 148.507 332.801 150.262 334.683C160.149 343.571 167.323 347.779 179.244 353.825C180.786 354.506 182.475 355.21 183.953 355.986C213.407 366.183 234.136 370.172 264.425 376.252C365.204 396.482 467.061 400.39 569.586 396.726C611.913 395.443 654.164 392.315 696.219 387.35C701.558 385.939 717.361 384.738 724.375 383.591C755.877 378.439 816.947 369.603 842.545 352.372C851.336 352.503 864.213 339.051 870.436 333.011L880.45 323.309C874.023 335.423 868.254 342.441 856.546 350.211C853.622 352.152 848.988 354.875 846.818 357.288L847.159 358.106C838.175 363.854 814.003 371.653 803.562 374.582C797.854 373.644 753.935 384.882 744.335 386.506C730.599 388.829 716.152 391.632 701.494 393.07C697.013 393.611 676.701 395.404 673.27 396.611L672.994 397.727C615.695 404.304 558.655 405.782 501.076 405.693C495.169 405.646 489.358 405.25 483.465 404.9C475.042 405.557 459.484 404.418 450.665 403.94C446.371 402.706 432.966 404.283 425.84 402.799L418.192 402.675C391.271 401.434 362.24 398.543 335.568 395.727C299.207 392.462 266.885 385.675 231.119 378.394C210.158 372.853 193.161 366.755 173.002 358.716L173.081 357.597C164.848 355.542 156.875 350.484 150.07 345.537C150.065 340.946 142.516 334.387 138.98 329.646C137.201 326.537 135.757 324.689 133.593 321.854C134.4 313.356 134.839 309.01 139.757 302.043Z"/><path fill="#010101" d="M183.953 355.986C213.407 366.183 234.136 370.172 264.425 376.252C365.204 396.482 467.061 400.39 569.586 396.726C611.913 395.443 654.164 392.315 696.219 387.35L698.475 388.062L698.327 388.806C696.73 389.396 695.092 389.865 693.425 390.212C674.154 394.323 629.218 396.511 608.759 397.531C485.458 403.677 355.734 402.54 235.206 373.611C220.666 370.121 195.717 364.598 183.708 356.889L183.953 355.986Z"/><path fill="#010101" d="M173.081 357.597C176.755 357.1 216.818 371.783 225.304 374.008C291.076 391.254 358.21 395.349 425.275 402.295C425.463 402.463 425.651 402.631 425.84 402.799L418.192 402.675C391.271 401.434 362.24 398.543 335.568 395.727C299.207 392.462 266.885 385.675 231.119 378.394C210.158 372.853 193.161 366.755 173.002 358.716L173.081 357.597Z"/><path fill="#151515" d="M483.465 404.9C495.273 402.724 509.871 403.053 522 403.349C557.269 404.208 591.992 403.287 627.173 400.577C642.435 399.401 658.018 397.426 673.27 396.611L672.994 397.727C615.695 404.304 558.655 405.782 501.076 405.693C495.169 405.646 489.358 405.25 483.465 404.9Z"/><path fill="#010101" d="M139.757 302.043C143.611 296.906 150.811 291.99 156.069 288.14C156.354 292.684 157.158 298.91 154.78 302.796L153.002 303.764C141.926 309.666 143.179 318.097 145.044 328.994C142.26 327.954 140.165 322.294 138.804 319.404C142.165 309.478 148.198 301.743 154.38 293.493C151.423 295.565 142.742 302.929 139.757 302.043Z"/><path fill="#010101" d="M150.262 334.683C160.149 343.571 167.323 347.779 179.244 353.825C172.432 354.497 151.83 341.595 150.262 334.683Z"/><path fill="#F4F3F3" d="M153.002 303.764C155.053 307.453 154.527 312.442 154.66 316.911C159.142 332.065 165.216 337.878 179.429 345.591C203.904 358.874 234.326 363.718 261.579 369.125C385.841 393.776 514.621 394.511 640.605 385.669C693.576 381.952 750.636 374.957 801.932 360.665C828.838 353.168 841.541 345.985 862.06 328.159C862.548 329.586 862.443 329.625 862.589 331.157C866.394 332.084 871.319 325.708 873.673 323.072C867.12 337.607 855.535 343.541 842.545 352.372C816.947 369.603 755.877 378.439 724.375 383.591C717.361 384.738 701.558 385.939 696.219 387.35C654.164 392.315 611.913 395.443 569.586 396.726C467.061 400.39 365.204 396.482 264.425 376.252C234.136 370.172 213.407 366.183 183.953 355.986C182.475 355.21 180.786 354.506 179.244 353.825C167.323 347.779 160.149 343.571 150.262 334.683C148.507 332.801 146.767 330.905 145.044 328.994C143.179 318.097 141.926 309.666 153.002 303.764Z"/><path fill="#D4D4D4" d="M257.661 310.52C282.845 314.84 308.932 317.956 334.564 322.23C336.103 337.624 336.909 362.654 336.846 378.556C310.095 375.163 283.428 371.146 256.865 366.508C256.836 358.281 255.867 349.563 255.947 341.136C256.045 330.826 256.879 320.783 257.661 310.52Z"/><path fill="#F4F3F3" d="M190.096 289.821C212.27 297.807 234.818 304.715 257.661 310.52C256.879 320.783 256.045 330.826 255.947 341.136C255.867 349.563 256.836 358.281 256.865 366.508C230.16 358.713 210.311 353.118 183.827 343.916C185.038 338.431 185.808 328.435 186.432 322.486L190.096 289.821Z"/><path fill="#555454" d="M880.655 329.974C882.577 342.619 882.694 356.215 882.852 368.996C882.991 380.267 880.894 498.027 883.281 500.18C883.625 500.49 883.951 500.654 884.343 500.879C885.373 554.543 884.523 607.744 884.373 661.396C884.294 689.385 884.711 717.313 883.714 745.294C883.922 768.903 884.656 799.134 883.691 822.249C884.58 857.312 888.507 909.481 884.369 943.371C878.76 950.606 882.774 964.117 883.978 972.862L876.939 978.841C876.79 962.567 877.224 946.288 876.861 929.986C877.617 913.699 877.106 891.403 877.209 874.807L877.776 754.667C879.097 633.552 879.239 512.426 878.205 391.308C878.761 388.665 878.373 371.611 878.248 367.845C878.332 353.233 878.911 344.424 880.655 329.974Z"/><path fill="#151515" d="M883.714 745.294C883.922 768.903 884.656 799.134 883.691 822.249C880.499 815.396 880.945 752.995 883.714 745.294Z"/><path fill="#A2A0A0" d="M517.864 145.799C525.381 144.146 532.932 142.646 540.51 141.3C540.022 145.812 538.917 152.77 540.083 156.988C539.68 169.954 534.445 178.318 520.237 177.663C515.905 176.747 509.165 176.91 504.573 176.899C500.784 176.91 481.35 176.227 479.714 176.948L479.523 177.511C477.972 177.288 474.205 176.146 472.518 175.687L463.067 172.063C460.046 167.145 462.528 163.78 460.695 160.077C458.356 158.414 455.825 158.886 452.794 158.943C454.863 158.49 458.958 158.246 461.214 158.044C461.338 151.898 461.459 148.04 462.281 141.913C466.174 142.978 469.268 143.607 473.243 144.35C469.983 148.533 465.795 157.115 469.256 161.967C472.413 163.289 471.801 162.494 473.352 164.949C471.904 167.776 470.416 164.747 470.3 168.092C471.723 170.357 471.203 170.309 473.231 171.262C478.223 167.977 477.803 151.248 476.508 145.878C492.409 147.691 502.065 148.779 517.864 145.799Z"/><path fill="#555454" d="M517.864 145.799C525.381 144.146 532.932 142.646 540.51 141.3C540.022 145.812 538.917 152.77 540.083 156.988C539.68 169.954 534.445 178.318 520.237 177.663C515.905 176.747 509.165 176.91 504.573 176.899C509.47 175.994 516.049 176.213 521.151 176.2C521.848 169.429 525.033 148.645 517.864 145.799Z"/><path fill="#D4D4D4" d="M167.196 275.196C174.771 280.849 181.909 285.173 190.096 289.821L186.432 322.486C185.808 328.435 185.038 338.431 183.827 343.916C182.285 343.305 180.756 342.66 179.242 341.98C167.416 336.611 163.727 331.292 159.399 319.686C160.047 311.61 161.629 303.802 161.852 295.529L167.196 275.196Z"/><path fill="#555454" d="M303.946 191.328C289.732 205.945 199.847 238.778 197.474 249.272C192.795 252.829 185.911 257.632 180.661 260.318C166.264 260.612 156.75 285.133 161.852 295.529C161.629 303.802 160.047 311.61 159.399 319.686C159.026 316.977 158.604 314.219 156.459 312.438C154.67 314.032 155.217 313.909 154.66 316.911C154.527 312.442 155.053 307.453 153.002 303.764L154.78 302.796C157.158 298.91 156.354 292.684 156.069 288.14C156.404 280.916 159.305 270.39 161.459 263.422C180.703 244.784 277.309 198.757 303.946 191.328Z"/><path fill="#6A6A6A" d="M711.571 196.561C747.559 203.937 829.225 240.345 853.359 271.934C859.671 280.195 861.252 298.277 861.893 309.018C859.093 301.051 855.707 282.683 852.327 276.818C838.633 253.053 801.984 236.862 778.423 225.011C769.757 220.652 741.2 207.184 734.244 208.165C728.518 206.464 722.98 204.182 717.718 201.355C715.296 198.982 714.368 198.397 711.571 196.561Z"/><path fill="#6A6A6A" d="M558.19 148.118C568.041 148.562 574.087 150.625 583.396 151.842C582.921 151.875 581.993 152.18 581.488 152.321C586.65 155.685 606.335 158.218 616.558 163.023C590.54 158.637 566.854 155.903 540.862 149.579C545.188 149.507 554.998 149.802 558.19 148.118Z"/><path fill="#6A6A6A" d="M867.597 293.373C872.297 296.232 875.915 299.614 878.69 304.464C878.19 309.251 883.311 315.124 880.741 319.168C878.793 318.273 878.695 315.907 877.722 313.774C873.629 304.799 864.215 304.626 867.597 293.373Z"/><path fill="#151515" d="M878.205 391.308C876.578 388.669 877.665 371.554 878.248 367.845C878.373 371.611 878.761 388.665 878.205 391.308Z"/><path fill="#F4F3F3" d="M464.722 124.115C485.474 118.371 521.861 121.551 544.611 122.617L534.302 125.575C536.632 126.675 538.092 126.64 540.637 126.893C515.393 128.845 504.665 133.23 477.774 129.359L477.293 127.781C472.944 126.887 468.934 125.488 464.722 124.115Z"/><path fill="#151515" d="M534.302 125.575C536.632 126.675 538.092 126.64 540.637 126.893C515.393 128.845 504.665 133.23 477.774 129.359L477.293 127.781C494.025 130.44 517.792 128.586 534.302 125.575Z"/><defs><linearGradient id="gradient_2" gradientUnits="userSpaceOnUse" x1="498.60477" y1="136.27209" x2="498.43216" y2="128.25107"><stop offset="0" stop-color="#F5F4F4" stop-opacity="0.94509804"/><stop offset="1" stop-color="#F6F5F5"/></linearGradient></defs><path fill="url(#gradient_2)" d="M477.774 129.359C504.665 133.23 515.393 128.845 540.637 126.893C543.497 128.192 543.175 127.513 544.456 129.743C543.505 131.604 542.981 132.005 540.491 132.868C536.14 131.681 528.893 135.969 524.646 136.049C509.16 136.341 493.528 136.257 478.042 136.1C474.05 136.06 463.363 133.485 461.103 133.916C459.145 133.303 457.342 132.093 457.157 129.96C461.961 125.749 471.853 128.375 477.774 129.359Z"/><path fill="#F4F3F3" fill-opacity="0.98823529" d="M461.103 133.916C463.363 133.485 474.05 136.06 478.042 136.1C493.528 136.257 509.16 136.341 524.646 136.049C528.893 135.969 536.14 131.681 540.491 132.868C526.343 140.55 475.261 141.195 461.103 133.916Z"/><path fill="#6A6A6A" d="M506.531 141.992C523.661 140.735 534.891 136.037 551.361 133.19C536.755 142.765 526.409 143.231 509.29 143.589L506.531 141.992Z"/><path fill="#555454" d="M509.29 143.589C504.058 144.787 479.911 143.196 474.198 140.602L474.407 140.179C482.435 141.934 497.791 141.827 506.531 141.992L509.29 143.589Z"/><path fill="#D4D4D4" d="M133.593 321.854C135.757 324.689 137.201 326.537 138.98 329.646C142.516 334.387 150.065 340.946 150.07 345.537C156.875 350.484 164.848 355.542 173.081 357.597L173.002 358.716C172.572 364.206 173.425 384.361 171.983 387.5C171.544 407.185 171.241 431.378 171.704 450.986C172.124 456.172 171.309 514.145 170.386 516.356C167.225 519.367 167.068 525.163 167.066 529.521C167.056 553.025 168.005 576.632 168.106 600.139C167.947 662.103 168.169 724.067 168.773 786.027L169.106 910.455C169.183 931.069 169.121 951.785 169.673 972.382C169.918 981.535 185.617 990.557 192.9 994.032C265.411 1028.63 346.523 1036.92 425.709 1041.49C454.7 1043.31 483.73 1044.43 512.774 1044.85C607.216 1045.59 779.219 1035.47 854.478 975.406C855.003 820.715 854.749 666.022 853.717 511.333C809.297 536.941 749.841 550.442 698.596 558.5C698.268 558.552 697.746 558.192 697.453 558.014C700.22 543.148 697.636 517.096 697.807 501.325C698.182 466.582 696.901 431.175 698.013 396.448C698.05 395.299 699.869 394.685 700.903 394.089L701.494 393.07C716.152 391.632 730.599 388.829 744.335 386.506C753.935 384.882 797.854 373.644 803.562 374.582C814.003 371.653 838.175 363.854 847.159 358.106C858.197 352.596 864.817 347.753 874.568 339.923C876.49 365.011 876.308 387.194 876.312 412.35C876.318 453.95 875.166 495.457 874.805 537.034L874.134 788.792C874.037 846.223 872.946 907.099 874.832 964.172C874.695 976.509 874.47 985.487 865.406 995.75C862.768 998.737 853.914 1002.99 852.532 1007.09C850.095 1009.15 839.796 1016.21 837.251 1016.61C833.845 1016.5 826.948 1020.38 823.51 1022.04C784.714 1038.07 730.129 1052.32 688.028 1057.77L687.754 1059.25C662.597 1062.73 637.331 1065.38 611.998 1067.18C603.086 1067.88 589.621 1069.36 581.131 1069.49C565.094 1069.91 548.5 1071.81 532.622 1072.02C505.745 1072.36 477.435 1072.55 450.591 1071.72C443.735 1072.33 424.599 1071.13 417.845 1069.75C403.997 1068.27 389.149 1068.26 374.911 1066.83C324.012 1061.71 250.823 1052.81 204.792 1031.23C203.087 1031.02 203.843 1031.33 202.48 1030.19C199.498 1027.36 193.265 1024.46 189.396 1022.71C172.939 1015.26 153.754 1007.13 146.24 989.3C144.508 986.138 143.259 982.97 140.041 981.758L138.974 978.703C140.245 975.658 138.411 965.335 137.065 962.281C136.396 960.935 135.314 959.559 134.419 958.309C133.466 924.915 134.283 887.721 134.281 854.106L134.367 688.716C131.967 663.075 133.797 641.123 134.145 615.851C134.47 592.181 134.358 567.651 134.226 543.949L133.468 421.125C132.997 386.889 131.512 356.126 133.593 321.854Z"/><path fill="#555454" d="M133.593 321.854C135.757 324.689 137.201 326.537 138.98 329.646C142.516 334.387 150.065 340.946 150.07 345.537L142.551 340.765L142.496 453.278C144.252 492.394 142.77 531.688 143.21 570.9C144.436 589.81 143.994 614.491 144.122 633.744L144.999 735.912C145.677 819.113 147.785 906.293 146.24 989.3C144.508 986.138 143.259 982.97 140.041 981.758L138.974 978.703C140.245 975.658 138.411 965.335 137.065 962.281C136.396 960.935 135.314 959.559 134.419 958.309C133.466 924.915 134.283 887.721 134.281 854.106L134.367 688.716C131.967 663.075 133.797 641.123 134.145 615.851C134.47 592.181 134.358 567.651 134.226 543.949L133.468 421.125C132.997 386.889 131.512 356.126 133.593 321.854Z"/><path fill="#010101" d="M133.593 321.854C135.757 324.689 137.201 326.537 138.98 329.646C137.326 331.514 135.99 332.764 135.863 335.265C135.311 346.156 135.586 357.425 135.667 368.334L136.146 429.469L136.192 610.972C136.232 624.645 138.2 678.016 134.367 688.716C131.967 663.075 133.797 641.123 134.145 615.851C134.47 592.181 134.358 567.651 134.226 543.949L133.468 421.125C132.997 386.889 131.512 356.126 133.593 321.854Z"/><path fill="#010101" d="M143.21 570.9C142.949 570.544 142.791 570.367 142.602 569.99C139.644 564.095 140.081 471.697 141.151 458.965C141.317 456.983 141.8 455.137 142.496 453.278C144.252 492.394 142.77 531.688 143.21 570.9Z"/><defs><linearGradient id="gradient_3" gradientUnits="userSpaceOnUse" x1="310.7139" y1="1060.2083" x2="315.0546" y2="1042.3953"><stop offset="0" stop-color="black"/><stop offset="1" stop-color="#2E2C2D"/></linearGradient></defs><path fill="url(#gradient_3)" d="M204.792 1031.23C212.27 1031.48 237.918 1039.81 246.821 1042.21C263.662 1046.75 280.676 1050.62 297.823 1053.81C342.828 1062.24 374.806 1062.15 418.563 1066.53L417.845 1069.75C403.997 1068.27 389.149 1068.26 374.911 1066.83C324.012 1061.71 250.823 1052.81 204.792 1031.23Z"/><path fill="#010101" d="M462.222 1069.39C500.599 1067.69 541.497 1068.71 580.504 1067.78L581.131 1069.49C565.094 1069.91 548.5 1071.81 532.622 1072.02C505.745 1072.36 477.435 1072.55 450.591 1071.72C449.57 1070.85 446.8 1070.93 445.355 1070.9L445.845 1070.09C448.707 1069.55 458.551 1069.59 462.222 1069.39Z"/><path fill="#010101" d="M701.494 393.07C716.152 391.632 730.599 388.829 744.335 386.506C753.935 384.882 797.854 373.644 803.562 374.582C784.043 380.385 717.763 397.541 700.903 394.089L701.494 393.07Z"/><path fill="#555454" d="M580.504 1067.78C583.515 1066.73 615.927 1065.8 622.18 1065.27C644.199 1063.43 666.158 1060.93 688.028 1057.77L687.754 1059.25C662.597 1062.73 637.331 1065.38 611.998 1067.18C603.086 1067.88 589.621 1069.36 581.131 1069.49L580.504 1067.78Z"/><path fill="#151515" d="M418.563 1066.53C430.802 1067.78 452.222 1067.91 462.222 1069.39C458.551 1069.59 448.707 1069.55 445.845 1070.09L445.355 1070.9C446.8 1070.93 449.57 1070.85 450.591 1071.72C443.735 1072.33 424.599 1071.13 417.845 1069.75L418.563 1066.53Z"/><path fill="#A2A0A0" d="M171.704 450.986C169.207 441.653 169.951 396.484 171.373 386.243L171.983 387.5C171.544 407.185 171.241 431.378 171.704 450.986Z"/><path fill="#D4D4D4" d="M673.27 396.611C676.701 395.404 697.013 393.611 701.494 393.07L700.903 394.089C699.869 394.685 698.05 395.299 698.013 396.448C696.901 431.175 698.182 466.582 697.807 501.325C697.636 517.096 700.22 543.148 697.453 558.014L696.576 557.87C694.927 556.343 695.209 555.08 694.748 552.444C694.657 555.598 695.186 556.798 693.622 559.003C686.25 561.352 678.33 561.881 670.696 562.967C614.149 571.006 557.353 573.085 500.293 573.017C482.89 573.09 464.185 572.088 446.698 571.438C436.878 570.231 424.726 570.931 415.041 568.815C387.699 567.258 360.169 563.495 333.07 559.689C332.976 544.983 333.582 530.656 333.733 516.001L335.568 395.727C362.24 398.543 391.271 401.434 418.192 402.675L425.84 402.799C432.966 404.283 446.371 402.706 450.665 403.94C459.484 404.418 475.042 405.557 483.465 404.9C489.358 405.25 495.169 405.646 501.076 405.693C558.655 405.782 615.695 404.304 672.994 397.727L673.27 396.611Z"/><path fill="#F4F3F3" d="M335.568 395.727C362.24 398.543 391.271 401.434 418.192 402.675C419.435 419.013 419.455 558.917 416.053 568.02L415.041 568.815C387.699 567.258 360.169 563.495 333.07 559.689C332.976 544.983 333.582 530.656 333.733 516.001L335.568 395.727Z"/><path fill="#F4F3F3" d="M418.192 402.675L425.84 402.799C432.966 404.283 446.371 402.706 450.665 403.94C459.484 404.418 475.042 405.557 483.465 404.9C489.358 405.25 495.169 405.646 501.076 405.693C502.551 425.666 501.277 443.745 501.105 463.686L500.293 573.017C482.89 573.09 464.185 572.088 446.698 571.438C436.878 570.231 424.726 570.931 415.041 568.815L416.053 568.02C419.455 558.917 419.435 419.013 418.192 402.675Z"/><path fill="#D4D4D4" d="M418.192 402.675L425.84 402.799C432.966 404.283 446.371 402.706 450.665 403.94C445.358 409.726 448.046 516.259 446.824 529.581C446.472 533.419 445.209 568.384 446.698 571.438C436.878 570.231 424.726 570.931 415.041 568.815L416.053 568.02C419.455 558.917 419.435 419.013 418.192 402.675Z"/><path fill="#151515" d="M673.27 396.611C676.701 395.404 697.013 393.611 701.494 393.07L700.903 394.089C699.869 394.685 698.05 395.299 698.013 396.448C696.901 431.175 698.182 466.582 697.807 501.325C697.636 517.096 700.22 543.148 697.453 558.014L696.576 557.87C694.927 556.343 695.209 555.08 694.748 552.444L694.602 395.86L672.994 397.727L673.27 396.611Z"/><path fill="#D4D4D4" d="M173.002 358.716C193.161 366.755 210.158 372.853 231.119 378.394C266.885 385.675 299.207 392.462 335.568 395.727L333.733 516.001C333.582 530.656 332.976 544.983 333.07 559.689C312.034 556.002 291.261 552.729 270.385 547.994C257.436 545.056 244.708 541.302 231.81 538.327C215.923 533.609 183.425 524.191 170.386 516.356C171.309 514.145 172.124 456.172 171.704 450.986C171.241 431.378 171.544 407.185 171.983 387.5C173.425 384.361 172.572 364.206 173.002 358.716Z"/><path fill="#F4F3F3" d="M173.002 358.716C193.161 366.755 210.158 372.853 231.119 378.394L231.95 475.165C232 496.067 231.511 517.52 231.81 538.327C215.923 533.609 183.425 524.191 170.386 516.356C171.309 514.145 172.124 456.172 171.704 450.986C171.241 431.378 171.544 407.185 171.983 387.5C173.425 384.361 172.572 364.206 173.002 358.716Z"/><path fill="#F4F3F3" d="M175.521 525.97C225.883 551.415 288.737 565.833 344.776 573.218C480.909 591.159 624.08 589.591 758.249 558.569C787.919 551.709 820.354 542.467 846.211 526.285L846.905 852.823L846.999 937.975C847.007 948.997 847.123 961.246 846.797 972.359C846.75 973.954 845.11 974.686 843.741 975.684C775.596 1015.53 654.258 1028.41 576.387 1034.01C469.592 1041.69 366.041 1034.73 262.095 1008.79C236.604 1002.43 197.716 992.679 177.712 975.184C176.193 963.009 176.867 939.318 176.866 926.511L176.734 838.681L175.521 525.97Z"/><path fill="#555454" d="M569.479 979.883C579.554 977.001 590.069 982.779 593.036 992.827C596.004 1002.88 590.313 1013.44 580.288 1016.49C570.142 1019.57 559.425 1013.8 556.422 1003.63C553.42 993.465 559.283 982.799 569.479 979.883Z"/><path fill="#D4D4D4" d="M570.929 984.362C575.87 983.009 581.157 984.421 584.765 988.058C588.373 991.695 589.742 996.992 588.348 1001.92C586.953 1006.85 583.012 1010.65 578.033 1011.85C570.489 1013.69 562.872 1009.12 560.93 1001.61C558.989 994.094 563.441 986.413 570.929 984.362Z"/><path fill="#555454" d="M254.252 943.824C264.099 941.824 273.7 948.193 275.685 958.041C277.669 967.889 271.284 977.478 261.431 979.446C251.599 981.411 242.034 975.044 240.054 965.218C238.073 955.392 244.427 945.819 254.252 943.824Z"/><path fill="#D4D4D4" d="M255.24 949.09C262.252 947.57 269.167 952.03 270.674 959.043C272.18 966.057 267.706 972.962 260.687 974.454C253.688 975.942 246.806 971.484 245.304 964.49C243.802 957.496 248.247 950.606 255.24 949.09Z"/><path fill="#555454" d="M763.203 850.091C772.748 847.513 782.57 853.187 785.103 862.742C787.635 872.297 781.912 882.089 772.342 884.574C762.838 887.042 753.126 881.368 750.611 871.879C748.096 862.389 753.724 852.652 763.203 850.091Z"/><path fill="#D4D4D4" d="M764.154 855.366C770.772 853.262 777.846 856.9 779.983 863.505C782.121 870.111 778.518 877.202 771.922 879.372C765.278 881.558 758.123 877.925 755.971 871.272C753.818 864.619 757.488 857.484 764.154 855.366Z"/><path fill="#555454" d="M519.35 829.928C527.101 827.378 535.45 831.606 537.979 839.362C540.508 847.118 536.256 855.454 528.491 857.961C520.756 860.458 512.458 856.228 509.939 848.501C507.419 840.775 511.628 832.468 519.35 829.928Z"/><path fill="#D4D4D4" d="M521.926 834.38C527.015 833.244 532.092 836.335 533.418 841.377C534.743 846.42 531.842 851.607 526.852 853.119C523.454 854.149 519.765 853.239 517.235 850.749C514.705 848.258 513.739 844.584 514.717 841.171C515.695 837.759 518.461 835.153 521.926 834.38Z"/><path fill="#555454" d="M472.382 884.605C477.425 883.341 482.757 884.93 486.285 888.749C489.813 892.568 490.974 898.007 489.313 902.934C487.652 907.86 483.433 911.486 478.313 912.39C470.773 913.721 463.533 908.845 461.936 901.359C460.338 893.874 464.956 886.467 472.382 884.605Z"/><path fill="#D4D4D4" d="M474.34 889.075C479.265 888.152 484.03 891.319 485.084 896.217C486.139 901.115 483.099 905.961 478.23 907.145C474.963 907.94 471.522 906.899 469.243 904.427C466.964 901.954 466.208 898.44 467.267 895.25C468.327 892.059 471.035 889.695 474.34 889.075Z"/><path fill="#555454" d="M319.538 797.656C324.546 796.485 329.795 798.124 333.246 801.937C336.697 805.749 337.807 811.134 336.143 815.999C334.479 820.865 330.305 824.444 325.242 825.347C317.696 826.692 310.452 821.783 308.906 814.278C307.36 806.772 312.075 799.401 319.538 797.656Z"/><path fill="#D4D4D4" d="M319.556 802.847C324.34 800.947 329.755 803.312 331.61 808.112C333.466 812.912 331.049 818.303 326.23 820.113C321.476 821.898 316.17 819.521 314.34 814.785C312.509 810.048 314.837 804.722 319.556 802.847Z"/><path fill="#555454" d="M211.758 736.862C219.169 736.002 225.878 741.302 226.754 748.71C227.63 756.117 222.343 762.836 214.936 763.727C207.506 764.622 200.761 759.317 199.882 751.887C199.003 744.457 204.324 737.724 211.758 736.862Z"/><path fill="#D4D4D4" d="M210.33 742.172C214.802 740.504 219.781 742.765 221.467 747.229C223.153 751.693 220.911 756.68 216.452 758.383C211.969 760.095 206.947 757.839 205.252 753.35C203.557 748.861 205.833 743.85 210.33 742.172Z"/><path fill="#555454" d="M801.774 800.264C820.078 800.364 824.162 816.411 808.05 825.782C789.569 827.503 786.219 810.459 801.774 800.264Z"/><path fill="#D4D4D4" d="M801.59 805.897C804.279 804.719 807.395 805.082 809.742 806.846C812.089 808.609 813.303 811.501 812.92 814.411C812.536 817.321 810.614 819.799 807.891 820.895C803.766 822.554 799.073 820.596 797.351 816.498C795.63 812.4 797.517 807.679 801.59 805.897Z"/><path fill="#555454" d="M234.556 834.395C238.457 832.921 242.851 833.686 246.025 836.39C249.198 839.095 250.649 843.312 249.81 847.396C248.972 851.48 245.978 854.784 241.995 856.021C236.088 857.854 229.793 854.663 227.781 848.816C225.77 842.969 228.771 836.582 234.556 834.395Z"/><path fill="#D4D4D4" d="M237.105 838.139C240.813 837.202 244.585 839.423 245.566 843.119C246.546 846.815 244.37 850.612 240.685 851.635C238.262 852.308 235.664 851.627 233.884 849.852C232.103 848.076 231.415 845.481 232.082 843.057C232.748 840.633 234.667 838.755 237.105 838.139Z"/><path fill="#555454" d="M813.274 896.63C819.089 894.74 825.339 897.896 827.268 903.696C829.198 909.496 826.082 915.766 820.294 917.733C814.45 919.719 808.107 916.569 806.16 910.714C804.212 904.859 807.405 898.538 813.274 896.63Z"/><path fill="#D4D4D4" d="M815.512 900.403C819.017 899.748 822.427 901.929 823.303 905.384C824.178 908.84 822.217 912.381 818.823 913.472C816.428 914.243 813.803 913.619 812.012 911.853C810.22 910.088 809.557 907.474 810.293 905.068C811.028 902.663 813.039 900.866 815.512 900.403Z"/><path fill="#555454" d="M351.039 850.125C354.827 849.112 358.867 850.233 361.591 853.053C364.315 855.872 365.296 859.947 364.152 863.697C363.008 867.447 359.919 870.282 356.085 871.102C350.36 872.326 344.702 868.763 343.333 863.073C341.964 857.382 345.383 851.637 351.039 850.125Z"/><path fill="#F4F3F3" d="M351.946 854.604C355.236 853.468 358.835 855.14 360.088 858.386C361.341 861.633 359.799 865.289 356.598 866.657C354.424 867.586 351.915 867.255 350.057 865.792C348.199 864.33 347.288 861.969 347.681 859.638C348.075 857.307 349.71 855.376 351.946 854.604Z"/><path fill="#555454" d="M763.985 940.122C769.539 938.213 775.599 941.099 777.616 946.613C779.634 952.127 776.868 958.241 771.393 960.366C767.755 961.779 763.637 961.116 760.627 958.632C757.616 956.148 756.183 952.232 756.88 948.393C757.576 944.553 760.294 941.39 763.985 940.122Z"/><path fill="#D4D4D4" d="M764.504 944.63C766.581 943.578 769.064 943.731 770.996 945.031C772.927 946.33 774.004 948.573 773.81 950.892C773.616 953.212 772.182 955.245 770.062 956.206C766.881 957.648 763.13 956.285 761.618 953.136C760.107 949.988 761.389 946.21 764.504 944.63Z"/><path fill="#555454" d="M357.786 970.152C361.419 968.709 365.551 969.364 368.559 971.86C371.568 974.356 372.974 978.295 372.225 982.131C371.477 985.968 368.694 989.09 364.968 990.272C359.48 992.014 353.598 989.099 351.663 983.678C349.728 978.256 352.435 972.277 357.786 970.152Z"/><path fill="#D4D4D4" d="M359.384 973.851C361.71 972.941 364.35 973.388 366.246 975.016C368.142 976.643 368.985 979.184 368.437 981.621C367.889 984.058 366.04 985.994 363.63 986.654C360.166 987.602 356.565 985.674 355.435 982.266C354.304 978.857 356.039 975.161 359.384 973.851Z"/><path fill="#555454" d="M301.529 969.362C306.902 967.287 312.943 969.934 315.058 975.291C317.174 980.647 314.57 986.706 309.229 988.86C303.831 991.037 297.693 988.401 295.555 982.989C293.418 977.576 296.099 971.459 301.529 969.362Z"/><path fill="#D4D4D4" d="M302.846 973.159C304.991 972.242 307.462 972.548 309.319 973.96C311.175 975.371 312.13 977.671 311.82 979.982C311.51 982.293 309.982 984.259 307.819 985.131C304.522 986.46 300.769 984.888 299.406 981.605C298.043 978.323 299.577 974.555 302.846 973.159Z"/><path fill="#555454" d="M274.352 909.363C279.825 907.962 285.397 911.261 286.798 916.732C288.2 922.203 284.899 927.774 279.427 929.175C273.955 930.575 268.383 927.276 266.982 921.805C265.581 916.335 268.88 910.764 274.352 909.363Z"/><path fill="#D4D4D4" d="M273.972 913.881C275.942 912.857 278.312 912.975 280.172 914.189C282.032 915.403 283.093 917.525 282.947 919.74C282.802 921.956 281.473 923.921 279.471 924.882C276.442 926.335 272.808 925.091 271.307 922.087C269.805 919.083 270.992 915.43 273.972 913.881Z"/><path fill="#555454" d="M439.614 947.613C443.118 946.557 446.919 947.469 449.562 950.001C452.204 952.532 453.278 956.29 452.372 959.835C451.466 963.38 448.72 966.162 445.186 967.116C439.833 968.561 434.311 965.44 432.788 960.11C431.265 954.779 434.305 949.213 439.614 947.613Z"/><path fill="#D4D4D4" d="M439.555 952.144C441.478 951.074 443.83 951.13 445.7 952.29C447.571 953.449 448.666 955.531 448.563 957.729C448.46 959.927 447.174 961.896 445.203 962.876C442.252 964.342 438.669 963.185 437.134 960.269C435.6 957.353 436.674 953.745 439.555 952.144Z"/><path fill="#555454" d="M684.168 909.316C689.586 908.317 694.811 911.829 695.929 917.224C697.047 922.618 693.648 927.917 688.278 929.152C684.699 929.975 680.954 928.797 678.491 926.074C676.027 923.35 675.231 919.507 676.409 916.029C677.587 912.551 680.556 909.983 684.168 909.316Z"/><path fill="#D4D4D4" d="M683.235 913.879C685.157 912.939 687.436 913.108 689.198 914.32C690.96 915.532 691.932 917.599 691.742 919.729C691.551 921.859 690.227 923.721 688.277 924.601C685.327 925.932 681.854 924.65 680.476 921.721C679.099 918.793 680.327 915.301 683.235 913.879Z"/><path fill="#555454" d="M603.191 949.879C606.701 948.883 610.475 949.858 613.063 952.429C615.65 955.001 616.647 958.769 615.671 962.284C614.694 965.798 611.896 968.512 608.353 969.381C603.009 970.692 597.6 967.482 596.193 962.164C594.785 956.847 597.898 951.382 603.191 949.879Z"/><path fill="#D4D4D4" d="M604.719 953.657C607.754 952.993 610.784 954.793 611.651 957.775C612.519 960.756 610.926 963.9 608.009 964.966C605.939 965.722 603.619 965.263 601.994 963.774C600.369 962.285 599.709 960.016 600.282 957.888C600.855 955.76 602.566 954.129 604.719 953.657Z"/><path fill="#555454" d="M485.057 991.107C488.54 990.132 492.278 991.103 494.846 993.649C497.414 996.196 498.416 999.925 497.469 1003.42C496.523 1006.91 493.774 1009.62 490.271 1010.52C484.934 1011.89 479.487 1008.71 478.058 1003.39C476.628 998.071 479.75 992.592 485.057 991.107Z"/><path fill="#D4D4D4" d="M486.397 994.901C489.574 994.138 492.78 996.046 493.623 999.202C494.465 1002.36 492.638 1005.61 489.503 1006.53C487.405 1007.15 485.137 1006.58 483.579 1005.04C482.021 1003.51 481.417 1001.25 482.003 999.143C482.588 997.036 484.271 995.412 486.397 994.901Z"/><path fill="#555454" d="M653.51 971.639C656.864 970.333 660.661 970.931 663.451 973.205C666.24 975.479 667.59 979.077 666.986 982.624C666.381 986.171 663.914 989.119 660.529 990.341C655.385 992.197 649.704 989.574 647.783 984.454C645.862 979.335 648.414 973.623 653.51 971.639Z"/><path fill="#D4D4D4" d="M655.617 975.365C657.662 974.799 659.854 975.395 661.329 976.92C662.805 978.445 663.33 980.654 662.697 982.68C662.064 984.705 660.375 986.223 658.293 986.637C655.234 987.244 652.242 985.324 651.522 982.29C650.801 979.256 652.611 976.196 655.617 975.365Z"/><path fill="#555454" d="M817.655 944.623C822.843 942.718 828.593 945.391 830.479 950.585C832.365 955.78 829.669 961.518 824.466 963.383C819.291 965.238 813.59 962.561 811.714 957.394C809.838 952.228 812.495 946.518 817.655 944.623Z"/><path fill="#D4D4D4" d="M819.493 948.378C821.495 947.799 823.653 948.341 825.143 949.797C826.634 951.252 827.227 953.397 826.695 955.411C826.163 957.425 824.59 958.998 822.575 959.528C819.511 960.336 816.368 958.529 815.524 955.475C814.68 952.422 816.449 949.258 819.493 948.378Z"/><path fill="#555454" d="M320.214 907.138C325.418 905.873 330.676 909.009 332.035 914.188C333.394 919.368 330.351 924.681 325.196 926.131C321.778 927.093 318.106 926.136 315.594 923.627C313.082 921.118 312.119 917.449 313.077 914.031C314.035 910.612 316.763 907.977 320.214 907.138Z"/><path fill="#F4F3F3" d="M319.756 911.598C321.633 910.593 323.906 910.675 325.706 911.813C327.506 912.951 328.554 914.969 328.45 917.096C328.346 919.222 327.106 921.128 325.204 922.085C322.315 923.54 318.792 922.401 317.301 919.531C315.81 916.66 316.904 913.125 319.756 911.598Z"/><path fill="#010101" d="M99.0524 1351.78C107.796 1348.08 118.039 1344.6 127.041 1341.31L127.737 1347C122.804 1348.43 116.15 1349.43 113.652 1353.57C115.52 1357.23 120.635 1357.71 124.507 1358.68C129.471 1361.24 157.62 1370.12 163.634 1371.61L175.467 1367.53C174.825 1372.61 168.124 1374.43 168.331 1378.31C171.413 1381.88 172.682 1380.36 176.31 1381.9C172.203 1383.88 168.539 1385.38 164.335 1387.07C147.328 1382.97 116.759 1371.68 99.0165 1365.73C98.9098 1361.22 99.0316 1356.32 99.0524 1351.78Z"/><path fill="#555454" d="M102.369 1355.24C120.645 1360.21 138.766 1366.84 157.005 1372.06C159.076 1372.65 161.116 1373.46 163.102 1374.3C164.128 1376.6 163.634 1379.79 163.497 1382.45C147.976 1379.87 120.043 1369.1 104.057 1363.35L102.369 1355.24Z"/><path fill="#F4F3F3" fill-opacity="0.98823529" d="M169.403 1361.71C177.759 1359.72 188.381 1354.66 196.312 1353.35C197.377 1354.76 197.876 1355.58 199.31 1356.65C196.577 1360.38 197.694 1358.53 194.344 1359.5C189.268 1360.96 179.953 1364.88 175.467 1367.53L163.634 1371.61C157.62 1370.12 129.471 1361.24 124.507 1358.68C129.317 1355.95 129.502 1359.61 130.956 1352.83L134.917 1355.61C141.076 1357.6 149.784 1360.66 156.038 1361.59C159.65 1362.17 165.653 1361.99 169.403 1361.71Z"/><path fill="#F4F3F3" fill-opacity="0.98823529" d="M654.644 1302.21C654.353 1308.66 651.682 1310.88 644.918 1310.32C643.812 1310.23 642.819 1308.29 642.221 1307.36C643.449 1306.48 652.657 1302.99 654.644 1302.21Z"/><path fill="#010101" d="M135.53 1352.06C138.805 1353.69 141.948 1355.4 145.435 1356.51C148.954 1357.59 153.21 1358.77 156.621 1359.96L156.038 1361.59C149.784 1360.66 141.076 1357.6 134.917 1355.61L135.53 1352.06Z"/><path fill="#010101" fill-opacity="0.98823529" d="M791.69 1246.18C797.963 1244.24 804.492 1242.03 810.926 1240.86C807.846 1242.15 795.386 1247.11 793.087 1248.45L791.017 1248.67L791.69 1246.18Z"/></svg>