<?xml version="1.0" encoding="utf-8" ?><svg xmlns="http://www.w3.org/2000/svg" xmlns:xlink="http://www.w3.org/1999/xlink" width="1024" height="1536" viewBox="0 0 1024 1536"><path fill="#29272D" d="M605.801 26.5189C623.694 24.0496 637.63 31.2703 650.334 43.0894L650.486 110.991C672.072 118.875 682.251 123.384 684.913 147.097C710.65 160.982 738.477 172.324 763.907 185.962C770.551 182.4 777.406 179.69 784.434 177.015C796.686 181.639 809.3 188.339 821.107 194.113C839.549 203.132 857.309 212.445 875.191 222.532C875.531 266.746 875.501 310.962 875.102 355.176L874.972 539.967L875.186 1249.34C896.692 1261.36 922.847 1272.36 942.812 1285.29C943.484 1293.93 943.192 1302.22 942.724 1310.85C924.773 1320.25 903.947 1328.23 885.121 1336.32L798.376 1374.2C696.08 1419.67 593.423 1464.32 490.414 1508.14C471.844 1497.19 446.844 1488.5 429.392 1475.78C425.493 1472.94 426.846 1456.27 427.007 1450.58C447.134 1438.73 475.837 1430.05 498.565 1418.33C496.447 1406.19 497.211 1386.88 497.256 1373.87L497.305 1305.68C490.995 1302.08 483.906 1298.49 477.447 1295.06C442.17 1276.44 406.585 1258.41 370.706 1240.97C357.762 1247.71 340.921 1254.53 327.359 1260.37L258.683 1289.98C229.992 1302.36 188.095 1322.6 159.853 1332.12C152.89 1329.42 141.555 1323.44 134.731 1319.97L95.517 1299.95L95.3958 1273.54C105.19 1268.34 117.932 1263.17 128.274 1258.68L181.284 1235.79C177.294 1224.81 179.18 1201.63 179.25 1189.06L179.294 1145.21C155.141 1131.78 160.209 1116.59 179.321 1101.37L179.346 985.496C155.71 970.5 158.487 956.407 179.291 940.11L179.267 824.178C173.845 821.353 170.113 819.526 166.517 814.439C163.467 810.2 162.297 804.893 163.282 799.766C164.997 790.736 171.847 784.964 178.92 780.01C178.228 770.894 178.782 758.988 178.661 749.667C178.301 721.998 180.232 691.996 178.536 664.546C173.596 662.187 169.154 659.008 166.169 654.344C163.149 649.646 162.172 643.922 163.462 638.488C165.547 629.437 171.848 624.166 179.296 619.51L179.153 548.287C179.121 534.537 179.456 517.961 178.536 504.454C156.466 490.923 158.938 475.171 178.865 460.905C178.22 449.417 178.754 433.73 178.807 421.996L178.978 346.463C156.49 330.018 163.713 322.315 179.265 304.788C179.223 280.329 179.497 255.733 179.388 231.264C179.367 226.494 176.924 220.463 177.064 217.158C177.349 210.456 178.907 202.174 179.13 195.425C179.532 183.227 179.402 170.676 179.394 158.462C189.548 154.739 199.655 150.177 209.589 145.857C219.901 151.664 233.703 158.129 244.454 163.071C267.213 151.885 295.227 140.881 319 130.788C363.076 111.918 407.292 93.3775 451.645 75.1681C451.04 45.0968 453.681 45.8882 481.037 37.5729C508.135 50.1701 538.358 66.2913 565.431 79.7473C563.391 40.0414 564.934 31.7637 605.801 26.5189ZM320.344 201.53C376.363 228.297 431.298 258.89 487.716 285.066C495.692 288.766 503.883 292.783 511.728 296.754C524.834 291.332 539.618 285.578 552.389 279.797C609.154 256.173 666.556 233.706 721.449 206.13C726.501 203.592 732.632 201.283 737.918 199.033C719.13 189.593 700.191 180.456 681.108 171.628C654.12 205.991 578.503 203.993 544.503 180.734C530.785 171.349 529.756 144.647 540.004 132.369C544.469 126.774 550.697 122.953 556.873 119.483C550.5 116.669 543.623 113.567 539.06 108.109L385.889 173.449C365.469 182.174 340.247 192.243 320.344 201.53Z"/><path fill="#ADACAC" d="M788.359 591.023C790.851 593.772 789.883 634.918 789.876 641.924L789.734 728.715L789.267 989.273C723.765 1017.07 658.581 1045.6 593.729 1074.88C592.66 1069.87 592.964 1042.94 592.995 1036.29L593.312 959.6L592.654 677.054C657.868 649.405 723.196 619.366 788.359 591.023Z"/><path fill="#EEEEEC" d="M504.187 324.107C517.49 328.429 552.363 347.752 566.378 355.243L565.635 1448.3C550.46 1441.52 538.451 1435.4 523.967 1427.53C533.514 1424.64 551.469 1417.86 556.84 1409.43C567.398 1392.86 547.464 1374.69 535.066 1366.57C525.641 1371.5 513.222 1376.94 503.374 1381.55L503.354 1308.47L530.429 1323.02C581.013 1297.02 530.325 1274.33 503.378 1261.14L503.35 1248.82L503.432 1148.16C512.038 1152.31 520.449 1156.85 528.637 1161.77C531.125 1160.15 533.621 1158.55 536.107 1156.92C576.153 1130.73 524.355 1111.19 503.408 1100.6C502.976 1063.26 502.965 1025.92 503.373 988.574L529.852 1002.05C578.338 974.584 529.8 954.409 503.193 941.356C502.946 903.247 503.001 865.137 503.357 827.03C511.284 830.532 520.402 835.557 528.198 839.611C578.242 813.443 528.971 792.981 502.582 780.124L503.136 667.83C510.6 671.364 518.837 676.096 526.169 680.099C529.935 678.448 534.132 676.501 537.506 674.168C572.436 650.026 520.637 628.745 503.23 620.326C500.991 586.005 503.095 540.329 503.423 505.442C511.815 510.034 519.122 513.827 527.758 517.92C529.753 517.12 531.723 516.262 533.666 515.344C544.357 510.192 547.306 505.83 551.02 495.044L550.607 493.94C543.196 474.464 521.71 467.088 503.713 458.966C504.056 437.561 503.956 415.741 504.045 394.302C508.586 397.184 515.678 400.798 520.552 403.459C540.036 396.754 567.515 388.629 554.114 361.379C550.172 353.363 543.889 348.073 537.393 342.197C524.009 344.274 516.137 351.618 504.272 357.93L504.187 324.107Z"/><path fill="#EEEEEC" d="M845.956 242.932C846.937 242.687 846.411 242.719 847.621 243.371C849.319 248.946 849.243 305.214 849.261 314.156L848.802 507.75L848.846 1322.38C830.985 1314.28 813.353 1305.68 795.969 1296.6L796.143 1207.3C806.824 1202.17 817.929 1198.88 828.928 1193.18C836.535 1189.11 833.04 1167.5 829.899 1161.06C821.693 1144.25 807.857 1151.95 795.871 1158.07L795.849 1031.82C813.764 1023.01 837.758 1021.42 826.469 994.051C818.808 975.478 810.951 979.655 795.887 986.367L796.382 587.231C805.785 583.563 822.874 578.833 827.929 569.554C830.754 564.368 829.322 555.809 827.142 550.47C819.864 532.645 810.088 537.401 796.552 543.795L796.569 409.319C802.547 407.258 808.455 404.953 814.343 402.75C842.058 392.38 834.946 372.256 818.837 353.897C810.649 356.644 803.806 359.537 795.859 362.942L795.834 264.621C812.176 256.93 829.451 250.568 845.956 242.932Z"/><path fill="#ADACAC" d="M245.37 696.401C329.775 737.817 412.524 781.806 496.718 823.604L496.637 937.861C413.671 893.58 328.76 851.932 245.216 808.407C244.071 797.085 244.478 780.627 244.506 768.898C244.525 744.73 244.813 720.563 245.37 696.401Z"/><path fill="#ADACAC" d="M245.404 856.294C278.024 871.928 310.798 889.393 343.014 906.019L497.309 985.657C497.464 1022.06 497.267 1058.46 496.717 1094.86C490.967 1095.78 269.145 981.84 245.267 969.63L245.404 856.294Z"/><path fill="#ADACAC" d="M245.336 377.27C251.183 379.515 266.308 387.597 272.463 390.694L326.822 418.062L497.372 503.791L497.402 571.086C497.402 585.626 497.833 602.174 496.474 616.425C463.778 600.661 431.843 583.698 399.524 567.193L245.419 488.925C244.654 451.238 245.076 414.941 245.336 377.27Z"/><path fill="#ADACAC" d="M245.503 218.028C257.646 223.06 272.237 230.634 284.065 236.529L341.031 264.948C393.617 290.706 445.993 316.892 498.153 343.502C498.283 349.39 498.394 354.211 497.936 360.078C498.026 364.145 495.071 373.263 495.629 377.037C499.358 402.252 498.042 426.298 497.376 451.687C497.263 452.738 497.147 452.609 496.564 453.626C491.932 454.317 457.556 435.477 450.52 431.975L344.213 378.933C311.257 362.362 277.51 347.33 245.342 329.589L245.503 218.028Z"/><path fill="#ADACAC" d="M245.274 1017.11C268.17 1026.63 304.753 1047.04 328.31 1059.05L497.381 1145.38C497.502 1178.14 498.82 1223.69 496.675 1255.34C491.803 1255.74 264.881 1139.67 245.336 1129.74L245.274 1017.11Z"/><path fill="#ADACAC" d="M244.634 536.477C254.973 540.456 269.388 548.238 279.47 553.4L333.911 581.199C388.815 609.072 442.464 635.235 496.637 664.621C496.526 702.045 497.922 735.948 496.203 773.816C495.38 774.599 495.56 774.356 494.391 774.777C485.295 770.822 474.793 765.114 465.822 760.546L415.73 735.09L245.185 648.513C244.563 611.171 244.379 573.823 244.634 536.477Z"/><path fill="#ADACAC" d="M787.175 412.205C789.562 413.326 789.494 417.043 789.544 419.501C790.394 461.503 789.987 504.867 789.899 546.762C769.971 554.399 742.496 567.594 722.229 576.449C679.092 595.006 636.105 613.912 593.272 633.163L593.319 594.375L593.308 482.722C602.145 478.902 611.02 475.172 619.932 471.53C635.292 489.947 656.437 500.306 677.122 511.636C686.439 511.35 707.642 510.314 718.241 505.598C728.987 500.817 763.347 476.734 771.499 466.19C772.74 464.584 770.365 459.644 769.478 457.487C771.629 450.827 775.493 444.412 777.89 437.506C780.911 428.802 780.09 418.413 787.175 412.205Z"/><path fill="#ADACAC" d="M786.662 1035.65C786.963 1035.59 787.777 1035.79 788.133 1035.86C791.15 1043.56 789.303 1143.52 789.194 1160.22C782.717 1163 776.088 1165.67 769.568 1168.37C746.338 1148.05 719.062 1132.77 688.787 1148.46C650.59 1168.25 634.782 1196.81 620.994 1235.44L615.711 1237.88C608.638 1241.36 599.96 1244.8 592.6 1247.91L592.837 1121.68C656.226 1091.8 722.65 1065.11 786.662 1035.65Z"/><path fill="#EEEEEC" d="M572.365 353.839L587.396 355.809L586.665 1115.07L586.634 1337.84L586.703 1402.55C586.737 1413.32 586.936 1424.76 586.478 1435.53C586.391 1437.57 584.782 1438.78 583.228 1439.97L571.676 1444.63L572.365 353.839Z"/><path fill="#EEEEEC" d="M867.732 230.212C870.004 231.762 869.506 235.311 869.502 237.736L869.498 1314.88L856.117 1320.22L854.934 1319.22C854.171 1316.09 854.583 1303.22 854.588 1299.2L854.603 1253.17L854.585 1057.35L854.486 235.868L867.732 230.212Z"/><path fill="#EEEEEC" d="M733.792 353.521C735.352 353.414 734.577 353.314 736.062 354.224C738.525 368.417 747.525 364.653 756.508 359.245C787.661 389.581 779.953 426.008 760.573 459.465C745.763 460.503 746.493 466.502 746.329 478.866C734.783 493.127 718.147 500.548 700.658 504.576L684.141 506.514C684.398 505.554 684.624 504.587 684.82 503.614C687.831 489.291 679.635 489.727 668.427 488.519C662.435 479.762 658.373 469.832 656.507 459.387C652.403 435.817 660.549 410.612 673.604 390.713C676.319 386.574 682.021 382.897 684.982 379.582C701.071 361.569 710.106 357.108 733.792 353.521Z"/><path fill="#29272D" d="M722.967 371.346C762.981 368.945 765.741 411.249 754.193 439.637C744.664 463.061 732.214 473.821 709.363 483.391C665.996 487.566 666.285 439.125 679.384 410.923C689.071 390.069 701.428 379.014 722.967 371.346Z"/><path fill="#EEEEEC" d="M724.381 377.419C759.281 375.67 758.636 413.8 748.682 437.566C740.263 457.666 727.541 469.401 707.645 477.523C662.46 484.051 667.091 396.446 724.381 377.419Z"/><path fill="#5A6779" d="M200.219 953.831C206.931 955.949 220.395 963.342 227.123 966.818C242.666 974.915 258.271 982.893 273.935 990.753C355.134 1030.7 435.732 1071.86 515.703 1114.22C506.05 1120.81 502.903 1126.56 498.56 1136.79C496.558 1139.19 486.805 1133.7 484.159 1132.37C457.873 1119.16 431.74 1105.68 405.579 1092.22L300.325 1038.68L235.669 1006.1C219.583 998.03 200.652 989.042 185.959 979.032C181.22 970.763 194.745 958.929 200.219 953.831Z"/><path fill="#5A6779" d="M201.135 1115.05C210.325 1116.48 276.126 1151.84 288.436 1158.09C364.896 1196.41 441.119 1235.19 517.103 1274.44C507 1283.75 503.85 1286.75 501.425 1300.53C487.111 1294.76 468.519 1284.1 454.351 1276.7L385.402 1241.56L249.432 1172.67C228.175 1161.92 205.783 1151.7 185.7 1138.96C178.386 1134.32 198.174 1117.66 201.135 1115.05Z"/><path fill="#5A6779" d="M200.297 792.772C210.494 796.92 225.484 805.155 235.607 810.309L300.408 843.236C372.561 879.703 444.35 916.887 515.764 954.781C506.291 963.606 503.629 965.982 498.489 977.772C495.134 978.137 489.096 974.443 485.783 972.762C465.258 962.345 444.762 951.867 424.281 941.363L262.993 858.599C237.934 845.846 210.722 833.373 186.457 819.074C185.267 818.372 184.526 813.972 184.788 812.496C186.278 804.137 194.14 797.985 200.297 792.772Z"/><path fill="#5A6779" d="M199.837 633.527C210.134 635.079 282.324 674.116 295.531 680.791C368.341 717.589 442.196 753.466 513.694 792.694C504.584 801.118 502.019 805.209 497.842 816.522C494.41 817.186 429.356 783.326 420.07 778.594L278.101 706.087C248.143 690.84 215.606 673.78 185.043 660.078C185.123 658.733 185.249 657.391 185.422 656.054C186.902 643.857 190.652 640.74 199.837 633.527Z"/><path fill="#5A6779" d="M201.454 474.676C206.05 475.455 219.347 483.03 224.607 485.458C253.924 498.987 282.284 514.105 311.023 528.747L424.882 586.551C454.957 601.743 485.628 616.856 515.017 633.294C504.42 641.713 502.365 645.07 498.196 657.529C494.974 657.538 448.689 632.971 441.698 629.389L268.222 541.393L220.15 517.518C209.057 512.04 196.878 506.603 186.772 499.609C181.603 488.153 192.203 479.356 201.454 474.676Z"/><path fill="#5A6779" d="M200.392 316.299C211.935 317.409 311.178 369.269 329.092 378.221L514.988 470.991C505.124 480.33 502.429 483.054 499.881 496.182L499.305 496.362C489.317 494.914 424.105 460.334 411.642 454.061L271.91 383.725C257.785 376.57 243.584 369.565 229.311 362.709C219.311 357.911 194.931 346.757 186.955 340.183C182.418 331.476 194.635 321.284 200.392 316.299Z"/><path fill="#EEEEEC" d="M791.753 1301.99C796.434 1303.32 807.569 1309.1 812.226 1311.41C822.387 1316.49 832.614 1321.44 842.903 1326.26C818.769 1338.43 794.024 1347.47 769.311 1358.2L628.708 1419.76C616.741 1425 604.679 1430.02 592.529 1434.82L592.675 1388.98C658.34 1359.43 725.74 1331.55 791.753 1301.99Z"/><path fill="#ADACAC" d="M786.591 268.437C787.676 268.708 787.43 268.76 788.399 269.623C789.709 279.241 789.266 295.676 789.262 305.941L789.192 365.487C784.412 367.439 779.047 369.359 774.18 371.202C765.145 358.106 740.585 331.321 725.234 327.911C672.971 316.302 634.315 376.065 622.85 416.444L621.214 424.791C612.076 429.676 602.576 433.421 593 437.323L593.418 353.002C614.545 342.751 636.777 334.22 658.318 324.86L786.591 268.437Z"/><path fill="#EEEEEC" d="M761.871 195.669C765.158 196.385 785.739 207.363 790.082 209.583C801.868 215.634 813.768 221.461 825.775 227.059C784.434 246.01 740.546 263.6 698.766 282.485C662.712 298.782 622.326 317.941 585.727 331.599C566.417 324.596 538.062 309.895 519.486 300.164C531.089 294.084 546.321 288.377 558.628 283.479L575.284 277.011C574.296 280.806 572.437 287.528 572.701 291.212C573.857 307.396 598.792 309.88 610.834 308.874C618.796 308.208 629.92 305.966 635.203 299.662C638.825 295.339 637.234 285.384 636.753 280.001C624.294 267.237 616.707 267.169 599.404 266.89C628.573 253.384 662.273 240.604 692.555 227.422C692.214 235.043 690.928 242.057 698.341 247.256C714.732 259.566 768.426 258.911 762.917 228.027C759.191 207.141 722.665 213.586 709.401 216.096C724.512 208.58 744.728 203.665 761.871 195.669Z"/><path fill="#EEEEEC" d="M484.38 68.246C501.464 75.4083 521.415 86.1594 538.613 94.218C538.689 96.4991 538.96 99.3647 539.12 101.686C513.622 114.134 485.666 124.548 459.416 135.676L313.966 197.779C293.229 187.313 272.312 177.622 251.715 166.766L255.162 165.046C260.885 162.218 292.086 147.087 296.094 148.445L295.933 150.174C295.358 154.699 295.498 161.28 295.46 165.987C314.427 184.605 344.929 184.969 363.808 166.048C363.958 158.595 364.552 152.482 359.343 146.263C351.765 137.216 335.252 136.609 324.235 135.554C351.024 122.14 387.669 107.665 416.065 96.7035C400.266 134.281 461.681 137.247 477.685 120.301C481.274 116.566 483.183 111.528 482.969 106.353C482.31 86.16 450.647 87.48 436.504 88.2007C446.845 82.3689 472.221 73.0774 484.38 68.246Z"/><path fill="#ADACAC" d="M787.48 1210.94C787.711 1211.09 787.97 1211.21 788.174 1211.4C790.784 1213.83 789.293 1286.3 789.269 1296.2C767.991 1307.07 739.019 1318.47 716.54 1328.54C675.656 1346.85 634.136 1365.08 592.649 1381.91L592.671 1340.62L592.669 1296.77C602.605 1291.79 615.147 1286.57 625.482 1282C639.069 1304.46 659.453 1324.36 685.521 1325.94C744.444 1329.52 783.54 1269.79 783.326 1216.5C783.315 1213.72 785.44 1212.65 787.48 1210.94Z"/><path fill="#EEEEEC" d="M811.402 986.239C819.314 987.941 825.835 1004.21 822.377 1009.92C818.057 1017.05 795.143 1025.46 787.307 1028.89L744.052 1047.97L602.17 1110.75L592.758 1115.12C592.679 1103.55 592.784 1093.45 593.321 1081.88L811.402 986.239Z"/><path fill="#EEEEEC" d="M812.088 543.685C815.065 543.751 818.59 545.98 819.628 548.465C825.2 561.819 827.972 566.975 813.689 573.321C791.221 583.305 768.034 593.31 745.846 603.141L602.022 667.092L592.675 671.336L592.679 639.672C619.335 627.546 646.139 615.747 673.084 604.277C719.246 583.686 765.583 563.489 812.088 543.685Z"/><path fill="#EEEEEC" d="M935.209 1292.97C937.609 1295.99 937.03 1302.68 936.984 1306.68C911.608 1319.53 885.508 1329.85 859.375 1341.04L762.948 1383.15C675.015 1421.53 583.84 1463.1 495.436 1499.25C492.615 1495.63 493.443 1490.14 493.589 1485.47C521.202 1472.87 548.75 1461.39 576.491 1449.2C634.383 1423.48 692.434 1398.13 750.64 1373.13L935.209 1292.97Z"/><path fill="#EEEEEC" d="M207.391 152.92C213.392 153.779 251.893 173.725 259.636 177.604L350.405 222.958L502.289 298.378C528.318 311.152 554.586 323.147 580.443 336.326C576.162 342.122 573.281 347.377 565.37 347.424C525.43 328.541 487.011 308.838 447.494 289.165L189.395 160.932C195.431 158.345 201.43 155.675 207.391 152.92Z"/><path fill="#EEEEEC" d="M643.019 58.499C644.206 59.4851 644.29 60.0511 644.36 61.7068C645.569 90.334 642.72 119.001 646.096 147.545C623.96 162.589 598.543 161.001 574.96 150.034C570.057 145.069 571.514 118.391 571.545 110.455L571.687 59.061C575.092 60.7983 578.595 62.3352 582.179 63.6638C603.544 71.3778 623.146 67.7504 643.019 58.499Z"/><path fill="#EEEEEC" d="M185.052 666.088C203.531 674.563 221.312 683.943 239.292 693.388L239.557 759.313C239.631 773.658 240.052 791.193 238.868 805.327C228.4 801.86 198.328 784.766 184.5 778.596L184.394 706.104C184.384 696.22 183.89 675.047 185.052 666.088Z"/><path fill="#EEEEEC" d="M185.265 825.814C199.435 831.92 224.625 845.823 239.298 853.281L238.719 965.929C221.473 958.781 201.373 947.387 184.566 938.383C184.154 900.859 184.387 863.33 185.265 825.814Z"/><path fill="#EEEEEC" d="M184.579 348.232C194.211 350.92 228.356 368.828 239.294 374.379L239.134 485.876C232.884 484.033 220.577 477.233 214.52 473.9C203.63 467.908 196.129 464.285 184.561 459.845L184.579 348.232Z"/><path fill="#EEEEEC" d="M185.272 987.154C203.196 995.238 221.771 1005.13 239.365 1014.13L239.294 1126.79C221.339 1117.41 203.223 1108.35 184.953 1099.6C184.403 1085.86 185.028 1071.69 185.112 1057.88L185.272 987.154Z"/><path fill="#EEEEEC" d="M184.522 506.548C202.728 514.886 220.89 524.493 238.618 533.783L239.094 644.847C231.575 642.982 194.564 622.955 184.567 617.974L184.522 506.548Z"/><path fill="#EEEEEC" d="M725.108 1193.31C778.309 1192.33 760.271 1276.18 709.153 1294.45C672.301 1295.8 673.2 1257.71 683.829 1232.15C692.396 1211.55 704.937 1201.32 725.108 1193.31Z"/><path fill="#EEEEEC" d="M726.176 1170.09C749.804 1168.79 770.555 1179.53 776.451 1203.65C783.241 1231.43 772.166 1259.29 758.257 1282.95C754.469 1280.74 749.808 1277.36 746.11 1274.82C755.214 1258.92 764.474 1242.52 762.578 1223.48C758.121 1176.92 715.698 1177.68 690.816 1209.52C675.385 1229.27 669.879 1248.25 672.764 1273.32C680.083 1304.08 706.523 1308.22 729.756 1290.49C733.654 1287.51 738.437 1282.88 742.568 1280.55L744.01 1281.35C743.66 1283.94 741.765 1283.24 741.675 1285.65C744.249 1288.9 747.51 1291.08 750.823 1293.55C730.236 1313.39 716.017 1318.4 688.369 1321.7L689.643 1311.55C685.201 1309.49 679.911 1307.16 675.757 1304.65C644.212 1285.58 657.152 1236.19 672.374 1210.44C684.692 1189.6 703.173 1175.85 726.176 1170.09Z"/><path fill="#EEEEEC" d="M185.277 165.098C202.862 172.885 222.635 184.017 239.815 193.206C240.01 237.734 239.851 282.264 239.34 326.79C223.82 319.551 208.409 312.079 193.114 304.377L185.397 300.798C183.286 286.603 184.753 252.141 185.326 237.318C190.533 240.696 193.533 242.02 199.214 244.229C208.392 241.116 225.339 234.072 231.969 227.233C236.109 206.104 231.962 195.315 213.728 183.76C204.982 187.057 193.74 193.17 185.273 197.561C185.038 186.865 185.228 175.821 185.277 165.098Z"/><path fill="#EEEEEC" d="M246.004 195.877C271.367 206.622 306.208 225.449 331.821 238.167L498.327 320.891L498.213 336.63C489.246 332.796 476.078 325.659 467.152 321.166L415.507 295.456L245.994 210.838L246.004 195.877Z"/><path fill="#EEEEEC" d="M175.486 1244.96C192.635 1251.95 215.362 1264.85 232.232 1273.89C209.855 1283.03 183.617 1293.56 162.294 1304.27C147.653 1298.68 120.353 1283.64 105.612 1276.03C127.014 1265.61 153.459 1254.73 175.486 1244.96Z"/><path fill="#EEEEEC" d="M503.331 1423.45C518.424 1429.75 541.492 1443.21 556.471 1451.45C536.425 1461.04 511.352 1471.05 490.688 1479.87C479.158 1472.11 450.274 1458.99 436.494 1452.28C458.886 1443.7 481.386 1433.28 503.331 1423.45Z"/><path fill="#EEEEEC" d="M293.688 1202.92C302.64 1205.23 331.259 1220.9 340.832 1225.98C321.012 1234.88 301.111 1243.59 281.132 1252.13L246.745 1266.98L246.815 1223.54C262.417 1216.15 277.835 1209.73 293.688 1202.92Z"/><path fill="#EEEEEC" d="M830.671 230.962C834.675 230.866 840.57 234.662 844.21 236.707C762.813 271.642 682.527 308.523 600.702 342.759L592.827 346.033L588.865 336.359C669.799 301.993 750.404 266.859 830.671 230.962Z"/><path fill="#EEEEEC" d="M185.173 1147.03C203.879 1156.17 222.451 1165.58 240.883 1175.26C241.047 1207.15 240.795 1239.04 240.129 1270.93C229.169 1264.64 217.947 1259.04 206.689 1253.31L198.645 1249.27C214.309 1243.18 221.581 1240.5 235.585 1230.78C235.386 1208.34 232.014 1198.04 213.65 1184.86C203.72 1189.84 194.237 1195.78 184.766 1201.58L185.173 1147.03Z"/><path fill="#EEEEEC" d="M345.832 1229.89C350.026 1230.21 359.037 1235.66 362.975 1237.84C339.528 1249.32 316.294 1258.53 292.383 1268.87L178.241 1318.57L164.177 1324.38L164.259 1310.1C178.062 1302.66 195.092 1296.11 209.637 1289.87L290.062 1255.09C307.486 1247.59 329.392 1238.79 345.832 1229.89Z"/><path fill="#EEEEEC" d="M651.02 117.856C657.768 119.753 665.755 123.794 671.228 128.055C679.625 134.59 680.341 144.51 672.841 152.309C658.415 167.312 633.762 171.413 613.846 172.518C588.163 173.944 563.312 169.271 543.692 151.546C542.35 148.775 541.114 144.89 540.07 141.906C547.767 130.038 553.178 127.576 565.68 122.118C564.929 133.088 565.022 138.967 566 149.919C582.198 165.421 607.083 166.246 628.11 162.376C638.873 160.395 647.273 156.685 653.422 147.43C652.086 136.134 650.97 129.35 651.02 117.856Z"/><path fill="#EEEEEC" d="M677.892 156.591C678.661 157.317 678.727 157.707 679.267 158.69C679.105 163.292 674.61 170.618 671.407 173.843C658.154 187.192 632.303 191.378 614.069 191.607C587.67 191.939 561.748 189.059 541.848 170.148C540.181 166.195 540.126 160.899 539.978 156.621C576.154 187.789 641.125 185.749 677.892 156.591Z"/><path fill="#5A6779" d="M816.83 1155.71C823.435 1159.48 830.545 1179.56 827.23 1183.95C819.69 1193.93 795.328 1201.48 783.524 1205.97C781.646 1202.58 776.453 1183.38 771.88 1173.93C786.828 1167.77 801.812 1161.7 816.83 1155.71Z"/><path fill="#EEEEEC" d="M653.997 1183.22L675.788 1195.56C655.803 1220.41 651.716 1243.56 651.334 1274.76L644.362 1270.38C644.708 1260.97 645.955 1245.77 640.736 1237.92C637.069 1232.4 634.059 1231.83 628.064 1230.49C634.263 1210.1 641.594 1200.4 653.997 1183.22Z"/><path fill="#EEEEEC" d="M603.191 32.5091C612.238 31.6496 640.273 33.6267 642.222 45.9722C644.091 57.8154 621.134 60.6497 612.336 61.9551C576.351 65.9267 550.737 40.4479 603.191 32.5091Z"/><path fill="#EEEEEC" d="M875.493 1257.03C892.051 1263.87 917.093 1278.11 933.476 1286.84C928.249 1289.29 921.922 1291.79 916.539 1294.07C902.801 1299.92 889.109 1305.88 875.462 1311.95L875.493 1257.03Z"/><path fill="#5A6779" d="M631.803 1237.4C639.322 1240.56 637.723 1263.01 637.599 1270.15C623.894 1275.67 610.873 1281.51 597.39 1287.56C597.055 1287.73 595.326 1288.2 594.854 1288.34L593.569 1287.58C591.301 1282.58 592.462 1261.34 592.609 1254.71C605.818 1249.27 618.887 1243.5 631.803 1237.4Z"/><path fill="#5A6779" d="M815.845 360.618C822.533 362.556 829.081 383.512 826.398 387.763C821.482 395.552 795.626 404.16 787.929 407.142L785.867 407.626C784.643 406.846 783.999 406.255 783.663 404.575C781.498 393.736 780.868 387.049 777.19 376.417C789.864 372.217 803.716 366.171 815.845 360.618Z"/><path fill="#5A6779" d="M626.246 428.934C636.921 429.057 643.823 444.05 639.743 452.154C634.88 461.811 614.163 467.598 604.42 471.146L592.698 476.353L592.653 443.895C604.124 439.176 614.99 434.133 626.246 428.934Z"/><path fill="#EEEEEC" d="M658.45 361.909C664.164 366.722 649.764 373.709 673.24 379.319C667.279 392.442 659.407 404.358 653.799 417.693C651.466 423.241 652.377 439.347 646.597 440.04C642.195 426.622 639.999 423.623 628.774 415.621C638.025 389.942 641.293 382.758 658.45 361.909Z"/><path fill="#EEEEEC" d="M479.931 44.2045C485.458 45.9045 501.793 54.6616 507.81 57.641C527.117 67.1994 546.684 76.806 565.565 87.1674L565.569 100.579L554.671 95.0137C524.285 80.8043 494.008 66.3632 463.842 51.6915C467.875 49.4372 475.499 46.2166 479.931 44.2045Z"/><path fill="#EEEEEC" d="M783.711 183.71C790.338 185.756 804.286 193.081 811.181 196.486C829.161 205.341 847.068 214.342 864.902 223.488C860.33 226.13 853.383 229.386 848.529 231.841C841.094 227.473 828.132 221.412 820.032 217.444C802.374 208.995 784.849 200.271 767.463 191.276C772.521 188.735 778.515 186.124 783.711 183.71Z"/><path fill="#EEEEEC" d="M707.64 332.388L714.334 332.194L738.356 347.78C717.347 348.792 710.244 352.146 693.205 363.105L687.16 367.407C680.536 355.076 678.604 354.84 665.1 354.679C680.647 341.279 687.438 336.995 707.64 332.388Z"/><path fill="#EEEEEC" d="M713.152 1147.7C731.916 1145.92 730.424 1161.06 740.834 1162.95L741.164 1163.73C736.99 1165.1 731.712 1163.97 727.298 1164.14C716.684 1164.55 707.444 1169.74 698.472 1174.72L691.921 1179.21C686.04 1174.39 678.232 1170.36 671.532 1166.73C686.406 1155.49 694.769 1151.07 713.152 1147.7Z"/><path fill="#EEEEEC" d="M101.669 1281.03C120.6 1290.08 139.251 1299.71 157.597 1309.89L157.578 1324.85C140.217 1317.17 118.771 1305.13 101.711 1296.04C101.523 1290.71 101.378 1286.41 101.669 1281.03Z"/><path fill="#EEEEEC" d="M433.099 1457.46C451.431 1466.42 469.633 1475.64 487.702 1485.12L487.66 1499.67C469.212 1491.36 451.134 1482.26 433.478 1472.38L433.099 1457.46Z"/><path fill="#EEEEEC" d="M685.006 154.216C697.636 161.25 750.33 183.891 756.28 189.669L756.18 190.826L754.062 192.566L745.655 195.829C726.476 188.075 703.162 175.424 684.104 166.117C684.603 162.378 684.77 158.033 685.006 154.216Z"/><path fill="#ADACAC" d="M246.916 1177.98C260.867 1184.42 274.715 1191.78 288.382 1198.86L275.774 1204.41C266.223 1208.72 256.563 1212.78 246.803 1216.6L246.916 1177.98Z"/><path fill="#EEEEEC" d="M319.547 142.725C329.16 141.493 345.901 141.745 352.183 150.296C353.546 157.204 342.568 158.534 337.598 159.458C328.177 160.518 310.219 160.119 304.253 151.576C303.409 145.03 314.736 143.57 319.547 142.725Z"/><path fill="#EEEEEC" d="M444.07 93.2952C451.716 92.4885 468.06 92.8472 469.731 102.892C467.662 110.227 459.2 109.863 452.758 110.316C445.12 110.388 427.744 110.574 424.9 101.511C426.294 94.5231 438.316 93.899 444.07 93.2952Z"/><path fill="#EEEEEC" d="M724.851 218.51C732.868 217.796 746.003 217.061 750.353 225.53C750.641 233.717 740.824 234.362 734.469 235.599C726.677 235.662 709.644 235.876 705.725 227.374C706.544 220.184 718.969 219.371 724.851 218.51Z"/><path fill="#EEEEEC" d="M638.099 1276.47C642.141 1277.18 648.979 1281.26 652.817 1283.36C656.575 1291.25 663.645 1314.25 671.664 1317.04C673.575 1315.69 673.199 1314.55 673.762 1311.63L674.77 1311.09C678.545 1311.57 681.985 1314.56 682.287 1318.42C658.586 1319.63 640.687 1299.17 629.847 1280.3L638.099 1276.47Z"/><path fill="#EEEEEC" d="M646.94 451.315C647.046 451.439 647.152 451.563 647.258 451.688C649.442 460.348 661.171 485.667 660.013 493.052C656.416 493.939 649.387 489.407 645.951 487.492C636.651 482.246 632.195 477.42 625.604 469.537C631.493 466.444 638.513 463.949 644.788 461.533C645.332 457.867 646.06 454.918 646.94 451.315Z"/><path fill="#EEEEEC" d="M600.81 273.288C608.384 272.206 620.389 273.272 625.108 280.173C626.512 287.868 617.114 288.757 611.386 290.014C603.09 290.584 590.308 291.266 585.966 282.195C585.726 274.486 594.959 273.908 600.81 273.288Z"/><path fill="#5A6779" d="M532.408 347.931C551.306 352.668 561.215 376.854 542.232 390.019C539.813 385.211 539.255 372.351 536.659 366.563C532.971 358.341 528.585 356.538 520.874 353.301C524.124 351.562 528.956 349.519 532.408 347.931Z"/><path fill="#ADACAC" d="M534.117 1373.1C546.107 1376.33 555.815 1392.24 552.549 1404.6C551.392 1408.99 548.846 1410.31 545.183 1412.4C543.618 1412.4 543.703 1412.31 542.335 1411.49C540.649 1407.58 541.747 1404.36 541.149 1400.52C539.619 1390.71 531.907 1383.92 525.021 1378.03L534.117 1373.1Z"/><path fill="#EEEEEC" d="M196.854 1201.37C212.808 1205.53 213.926 1221.51 213.732 1235.07L205.912 1239.06C202.133 1241.07 201.773 1236.73 201.665 1234.14C201.124 1221.22 197.839 1215.99 188.983 1207.01L196.854 1201.37Z"/><path fill="#EEEEEC" d="M519.285 796.311C524.11 798.042 527.762 800.391 532.142 802.978C526.167 808.102 522.377 812.005 521.387 820.069C521.053 822.781 520.781 825.584 519.557 828.042C514.56 825.794 509.409 823.249 504.445 820.879C507.019 807.223 508.516 804.614 519.285 796.311Z"/><path fill="#EEEEEC" d="M519.694 474.508C524.03 475.326 528.902 478.289 532.816 480.465C529.506 483.393 524.184 487.677 522.468 491.592C520.482 496.123 521.947 503.361 521.071 507.96C499.307 496.778 502.405 490.411 519.694 474.508Z"/><path fill="#EEEEEC" d="M197.929 197.914C208.291 197.893 216.229 218.208 214.299 227.042C213.328 231.486 207.741 234.124 204.037 236.421L202.319 236.611C201.355 234.391 204.217 228.689 203.494 223.196C202.17 213.134 196.116 209.165 188.855 203.01C191.682 201.309 195.014 199.546 197.929 197.914Z"/><path fill="#EEEEEC" d="M518.397 637.317C523.124 638.078 527.922 640.836 532.192 643.055C520.66 651.589 519.302 655.624 519.868 669.434C497.304 659.581 503.594 650.386 518.397 637.317Z"/><path fill="#EEEEEC" d="M519.368 358.603C524.955 360.239 529.623 364.894 531.716 370.202C536.905 383.363 535.994 390.286 522.998 395.964C521.543 393.426 523.696 382.717 522.563 378.571C520.428 370.758 514.01 366.382 507.638 362.258C511.367 360.907 515.543 359.749 519.368 358.603Z"/><path fill="#EEEEEC" d="M182.314 1105.3C186.419 1105.75 192.658 1109.55 196.42 1111.65C184.908 1119.21 183.067 1122.68 179.358 1135.25C178.727 1136.9 179.272 1136.25 177.453 1137.06C174.669 1136.4 172.54 1134.79 170.722 1132.65C162.407 1122.87 175.79 1110.92 182.314 1105.3Z"/><path fill="#EEEEEC" d="M698.569 228.552C700.674 230.163 700.081 232.819 701.918 234.176C712.715 242.151 731.461 243.909 743.808 238.728C746.492 237.602 754.4 233.532 755.92 233.377C756.484 235.518 755.548 237.642 754.908 239.883C748.735 247.648 733.215 249.538 724.048 248.843C710.495 247.816 697.635 244.586 698.569 228.552Z"/><path fill="#EEEEEC" d="M182.663 624.636C188.227 625.81 190.627 626.894 195.761 629.342C194.801 630.012 193.86 630.71 192.94 631.435C182.894 639.371 181.058 644.461 179.668 656.739C178.763 657.6 177.183 657.834 176.128 657.321C167.695 653.227 167.563 640.128 172.386 633.224C175.619 628.598 178.186 627.288 182.663 624.636Z"/><path fill="#EEEEEC" d="M183.263 944.897C188.367 945.219 191.491 947.635 195.609 950.419C185.005 959.493 182.774 962.404 179.382 975.544L179.178 976.362C173.394 981.442 157.577 963.319 183.263 944.897Z"/><path fill="#EEEEEC" d="M518.274 1380.65C529.347 1383.96 539.028 1401.58 534.78 1412.57C532.878 1417.5 530.504 1418.51 526.202 1420.66C524.734 1414.95 525.599 1407.84 524.022 1401.82C521.797 1393.34 515.385 1390.03 508.359 1385.98C511.391 1384.2 515.124 1382.33 518.274 1380.65Z"/><path fill="#EEEEEC" d="M521.397 1117.48L532.885 1123.24C526.863 1127.81 524.118 1130.05 520.03 1136.34C519.962 1140.24 520.756 1147.37 517.439 1149.4C494.309 1139.37 508.178 1127.57 521.397 1117.48Z"/><path fill="#EEEEEC" d="M183.091 784.298C187.333 785.155 191.141 787.654 194.815 789.877C182.297 799.21 180.79 803.439 179.848 818.563C159.759 808.75 168.683 793.643 183.091 784.298Z"/><path fill="#EEEEEC" d="M180.921 466.404C187.333 466.636 189.999 467.695 195.505 470.859C184.496 478.698 182.46 481.371 180.138 494.828C179.872 496.611 180.187 495.792 179.01 497.308C171.92 497.835 167.688 489.028 168.739 482.846C170.044 475.171 174.933 470.822 180.921 466.404Z"/><path fill="#EEEEEC" d="M521.348 957.664L532.681 964.131C518.331 973.743 522.92 976.067 518.611 990.124C515.541 988.581 511.187 986.686 508.923 984.164C499.891 974.106 514.323 963.106 521.348 957.664Z"/><path fill="#EEEEEC" d="M522.274 1278.6C525.466 1279.49 528.831 1280.42 531.012 1282.9C532.229 1288.41 524.911 1291.3 522.523 1296.7C520.462 1301.35 520.236 1306.08 519.661 1311.1L507.83 1304.63L507.894 1303.97C509.308 1289.71 511.271 1287.6 522.274 1278.6Z"/><path fill="#EEEEEC" d="M538.116 1127.13C556.276 1133.63 539.823 1147.76 531.69 1153.63C526.359 1154.56 525.329 1149.19 523.799 1144.96C527.532 1134.3 528.253 1133.34 538.116 1127.13Z"/><path fill="#EEEEEC" d="M356.962 158.22C360.823 164.201 351.108 169.855 346.321 171.209C330.024 175.818 318.441 173.61 303.775 166.137C302.126 164.191 302.012 164.126 301.447 161.701L302.116 160.866C305.63 160.717 314.362 164.465 318.735 165.313C334.067 168.289 344.092 166.263 356.962 158.22Z"/><path fill="#EEEEEC" d="M578.562 288.988C586.776 290.541 594.236 297.06 605.865 296.817C613.188 296.664 627.733 290.027 630.992 290.795C632.049 292.702 631.673 293.522 631.36 295.826C628.513 297.602 625.466 299.036 622.282 300.099C607.436 305.201 584.533 307.467 578.562 288.988Z"/><path fill="#EEEEEC" d="M537.5 1290.61C555.751 1292.78 542.874 1310.26 533.74 1315.88C528.251 1316.79 526.423 1310.64 524.597 1306.6C528.153 1297.61 529.486 1296.13 537.5 1290.61Z"/><path fill="#ADACAC" d="M537.243 967.319C555.141 971.487 540.139 992.698 533.859 992.616C532.501 991.273 531.891 990.385 530.043 989.931L528.042 992.611C518.421 983.826 530.336 973.018 537.243 967.319Z"/><path fill="#EEEEEC" d="M419.159 109.064C435.665 114.429 442.432 120.762 463.463 114.953C466.964 113.986 471.441 110.779 474.207 110.807C474.77 112.853 474.116 113.146 473.051 115.483C458.893 129.543 429.303 128.205 419.159 109.064Z"/><path fill="#EEEEEC" d="M211.754 1192.3C222.148 1195.89 228.896 1210.59 228.361 1221.05C228.097 1226.22 226.669 1227.84 223.064 1231.06C219.843 1229.63 220.863 1226.01 220.241 1222.16C218.38 1210.65 213.548 1204.97 205.189 1197.55L211.754 1192.3Z"/><path fill="#EEEEEC" d="M214.483 203.775C211.884 201.195 208.869 198.727 207.608 195.373C207.769 192.519 207.399 193.602 208.978 191.256L210.179 191.085C226.929 191.611 232.643 215.744 224.697 225.901L223.238 226.308C220.564 224.29 216.529 208.757 214.483 203.775Z"/><path fill="#ADACAC" d="M214.483 203.775C211.884 201.195 208.869 198.727 207.608 195.373C207.769 192.519 207.399 193.602 208.978 191.256L210.179 191.085C212.953 197.974 215.19 194.091 214.483 203.775Z"/><path fill="#EEEEEC" d="M184.55 308.049C188.044 308.606 193.262 310.87 196.711 312.216C195.167 313.307 193.663 314.452 192.201 315.651C183.577 322.744 182.213 328.445 181.148 339.152C174.804 341.451 171.886 332.152 170.098 327.683C175.074 318.626 177.744 315.511 184.55 308.049Z"/><path fill="#ADACAC" d="M535.017 806.731C553.251 809.498 541.655 823.38 534.039 830.674C531.018 831.859 530.68 831.764 528.138 830.951C524.974 827.734 525.375 823.6 525.039 818.965C528.176 812.653 529.467 811.112 535.017 806.731Z"/><path fill="#EEEEEC" d="M534.577 647.06C552.667 648.898 540.192 664.047 533.372 670.822C530.408 671.584 528.811 671.648 526.152 670.208C520.935 663.575 530.078 651.968 534.577 647.06Z"/><path fill="#EEEEEC" d="M502.726 1390.88C514.881 1393.68 522.165 1407.11 516.791 1418.26C503.067 1423.33 502.626 1398.89 502.726 1390.88Z"/><path fill="#EEEEEC" d="M535.467 485.822C553.469 486.838 541.978 501.696 535.17 508.501C532.156 510.068 530.787 510.13 527.977 508.537C523.526 500.569 529.597 491.125 535.467 485.822Z"/><path fill="#ADACAC" d="M504.632 368.461C515.824 372.941 520.84 382.207 515.299 393.505C512.193 392.056 509.058 390.495 505.967 388.998C500.993 379.917 499.937 377.936 504.632 368.461Z"/><path fill="#EEEEEC" d="M182.875 212.056C184.466 210.082 184.697 209.658 187.134 209.136C193.86 210.142 196.814 219.76 197.915 225.495C198.079 228.485 197.371 233.077 194.507 234.521C185.996 232.895 183.539 219.026 182.875 212.056Z"/><path fill="#ADACAC" d="M182.875 212.056C184.466 210.082 184.697 209.658 187.134 209.136C193.86 210.142 196.814 219.76 197.915 225.495C192.663 222.277 187.302 216.481 182.875 212.056Z"/><path fill="#EEEEEC" d="M665.584 1171.35C673.235 1174.83 679.906 1178.83 687.134 1183.1L680.557 1190.39C673.356 1186.31 666.05 1182.41 658.647 1178.71L665.584 1171.35Z"/><path fill="#EEEEEC" d="M545.321 97.5287C551.722 100.132 559.299 103.868 565.67 106.808L565.674 116.866C559.077 114.07 551.885 110.472 545.353 107.372L545.321 97.5287Z"/><path fill="#EEEEEC" d="M665.311 359.113C670.058 359.151 678.755 359.412 679.362 365.455C678.271 367.902 677.784 368.021 675.501 369.651C671.76 372.437 669.605 374.614 665.311 371.531C662.884 366.825 664.063 364.202 665.311 359.113Z"/><path fill="#EEEEEC" d="M458.046 55.5901C463.3 57.6734 471.241 61.7959 476.544 64.3558L469.838 67.851L458.41 72.5009C457.706 67.2711 457.214 60.8089 458.046 55.5901Z"/><path fill="#EEEEEC" d="M184.914 1212.98C194.3 1217.23 194.639 1228.46 195.088 1237.29L185.553 1229.96C184.859 1223 184.372 1220.05 184.914 1212.98Z"/><path fill="#EEEEEC" d="M752.193 1162.78C759.721 1164.41 767.673 1172.22 769.42 1179.86C764.591 1176.89 757.966 1173.72 754.084 1169.71C751.599 1167.14 752.03 1165.8 752.193 1162.78Z"/><path fill="#EEEEEC" d="M673.587 493.321C677.076 495.302 680.39 498.248 680.356 502.472C678.618 504.126 679.303 503.615 676.602 504.097L667.442 499.198L673.587 493.321Z"/><path fill="#ADACAC" d="M763.578 464.43C763.747 465.152 763.583 465.561 763.474 466.372C760.663 470.494 757.197 472.726 752.987 475.279C749.336 466.302 756.763 466.003 763.578 464.43Z"/><path fill="#ADACAC" d="M582.738 340.196C588.133 342.129 587.509 347.827 581.762 350.591C579.241 349.615 578.346 349.573 577.357 346.972C577.988 344.335 580.678 342.242 582.738 340.196Z"/><path fill="#EEEEEC" d="M742.662 348.338C748.825 350.437 749.21 353.471 750.016 359.206C742.729 357.49 742.799 355.464 742.662 348.338Z"/><path fill="#EEEEEC" d="M183.575 1238.9C189.265 1240.34 190.55 1241.71 194.477 1245.93C188.222 1245.52 186.304 1244.13 183.575 1238.9Z"/></svg>