<?xml version="1.0" encoding="utf-8" ?><svg xmlns="http://www.w3.org/2000/svg" xmlns:xlink="http://www.w3.org/1999/xlink" width="1024" height="1024" viewBox="0 0 1024 1024"><defs><linearGradient id="gradient_0" gradientUnits="userSpaceOnUse" x1="160.14642" y1="107.64674" x2="217.82343" y2="245.44354"><stop offset="0" stop-color="#FEA800"/><stop offset="1" stop-color="#FE4508"/></linearGradient></defs><path fill="url(#gradient_0)" transform="scale(2 2)" d="M196.854 92.9208C197.269 92.7789 198.669 92.7123 199.127 92.7052C210.276 92.5382 216.776 101.492 216.967 111.705C249.241 118.361 274.374 146.981 276.086 179.945C298.914 181.164 302.565 214.728 280.028 219.87C276.822 220.601 272.056 220.414 268.68 220.416L202.625 220.412L130.326 220.419C122.788 220.42 116.725 221.173 110.491 216.137C95.5819 204.094 102.87 181.777 121.702 179.945C121.559 148.364 150.165 116.8 180.787 110.855C180.576 101.395 187.584 93.9927 196.854 92.9208ZM180.787 179.945L180.795 153.901C180.797 149.892 180.75 145.875 180.837 141.867C180.928 137.745 187.273 137.935 187.343 141.532C187.468 147.892 187.376 154.287 187.377 160.654L187.374 174.199C187.361 190.376 187.054 186.238 169.154 186.247L136.77 186.253C126.514 186.255 105.536 185.66 109.548 202.844C112.596 215.513 123.584 214.049 134.161 214.043L273.675 214.021C293.289 214.084 293.058 187.222 275.506 186.531C269.302 186.184 263.434 186.247 257.308 186.25L225.789 186.272C207.515 186.287 210.336 187.741 210.358 170.5L210.369 127.585C210.374 117.055 213.805 99.3377 198.779 98.8188C183.594 101.145 189.186 113.668 186.523 115.105C182.169 117.455 176.719 118.374 172.045 120.306C146.006 131.069 131.189 152.399 127.704 179.945C145.274 179.94 163.252 179.728 180.787 179.945ZM269.531 179.945C268.485 149.545 245.416 125.93 216.967 118.413L216.967 179.945L269.531 179.945Z"/><defs><linearGradient id="gradient_1" gradientUnits="userSpaceOnUse" x1="300.72006" y1="281.07541" x2="385.41431" y2="326.73282"><stop offset="0" stop-color="#FE4E00"/><stop offset="1" stop-color="#FE151D"/></linearGradient></defs><path fill="url(#gradient_1)" transform="scale(2 2)" d="M333.085 229.702C339.776 229.382 346.887 229.953 353.705 229.656C364.096 229.205 370.36 231.976 370.379 243.746L370.379 343.902C370.422 349.66 371.253 354.799 368.319 359.927C363.726 367.957 359.242 376.027 354.827 384.157C348.261 396.213 342.082 387.416 337.584 379.658L331.729 369.747C329.692 366.317 324.952 359.393 323.689 356.047C322.656 353.31 323.245 289.139 323.246 280.651L323.275 242.141C323.347 235.211 326.58 231.691 333.085 229.702ZM329.816 351.487C340.919 351.497 352.816 351.719 363.855 351.487L363.855 262.743L329.816 262.743L329.816 351.487ZM341.808 357.986L332.19 357.986C337.086 366.424 341.751 375.548 347.59 383.376C349.385 380.067 351.488 376.619 353.192 373.38C355.642 369.183 360.247 362.041 362.121 357.986C358.252 358.049 354.494 358.131 350.625 357.986C350.698 360.287 350.766 362.518 350.709 364.756C350.644 367.355 343.738 373.405 344.003 357.986L341.808 357.986ZM363.855 256.1C363.982 231.806 364.691 235.554 337.132 236.114L336.856 236.122L333.085 236.122C331.559 237.215 330.945 237.73 329.816 239.322L329.816 256.1L357.047 256.1L363.855 256.1Z"/><path fill="#E6BC4A" transform="scale(2 2)" d="M373.243 89.2336L299.966 89.2552C297.598 89.2579 291.43 89.7102 289.606 88.5222C287.164 86.9312 288.54 83.002 291.802 82.9198C295.85 82.8178 299.983 82.8818 304.081 82.8929L358.383 82.8677C382.402 82.8443 376.679 80.6306 393.61 97.3692C401.814 105.48 410.365 113.47 418.224 121.882C420.207 123.496 427.463 130.641 428.675 132.603L428.67 324.243C428.67 332.369 428.725 340.499 428.623 348.628C428.548 354.56 421.923 354.402 422.011 348.682L422.013 148.661C422.03 144.896 422.31 140.674 421.999 137.009C413.489 137.012 404.105 137.225 395.674 137.009C370.92 137.372 373.242 141.304 373.238 118.003L373.243 89.2336ZM379.826 130.615C388.376 130.634 397.955 130.379 406.394 130.615L418.224 130.615C415.941 128.699 414.041 126.986 412.037 124.782C400.378 115.174 391.094 102.931 379.826 92.9208L379.826 130.615Z"/><path fill="#FE8800" transform="scale(2 2)" d="M373.243 89.2336L299.966 89.2552C297.598 89.2579 291.43 89.7102 289.606 88.5222C287.164 86.9312 288.54 83.002 291.802 82.9198C295.85 82.8178 299.983 82.8818 304.081 82.8929L358.383 82.8677C382.402 82.8443 376.679 80.6306 393.61 97.3692C401.814 105.48 410.365 113.47 418.224 121.882C415.186 121.712 403.746 104.427 400.219 110.863C400.523 113.297 412.195 122.8 412.037 124.782C400.378 115.174 391.094 102.931 379.826 92.9208L379.826 130.615C388.376 130.634 397.955 130.379 406.394 130.615C402.285 131.549 387.921 130.127 384.782 132.059C382.454 138.566 394.786 135.615 397.108 136.699L395.674 137.009C370.92 137.372 373.242 141.304 373.238 118.003L373.243 89.2336Z"/><defs><linearGradient id="gradient_2" gradientUnits="userSpaceOnUse" x1="57.764725" y1="323.06702" x2="194.3343" y2="470.19296"><stop offset="0" stop-color="#FE6400"/><stop offset="1" stop-color="#FE0F05"/></linearGradient></defs><path fill="url(#gradient_2)" transform="scale(2 2)" d="M83.5055 422.613C83.2495 414.843 83.5012 405.333 83.5029 397.454L83.5056 305.376C83.4869 302.623 84.0174 292.356 89.1616 298C90.797 299.794 89.9952 311.952 89.9953 314.731L89.9876 422.613L347.59 422.613C352.778 422.515 357.96 422.757 363.146 422.613C359.134 420.201 340.975 404.024 346.123 399.127C350.637 394.834 352.971 403.947 354.716 406.436C374.339 434.428 417.661 423.919 421.646 390.519C423.376 376.019 428.925 383.279 428.591 387.176C427.732 412.933 406.942 429.263 382.221 429.256C365.896 429.251 346.506 430.165 330.567 429.242L80.2326 429.222C78.4478 429.234 58.0749 430.687 64.6525 423.782C66.5453 421.795 80.1502 422.6 83.5055 422.613Z"/><path fill="#E6BC4A" transform="scale(2 2)" d="M363.146 422.613C359.134 420.201 340.975 404.024 346.123 399.127C350.637 394.834 352.971 403.947 354.716 406.436C374.339 434.428 417.661 423.919 421.646 390.519C423.376 376.019 428.925 383.279 428.591 387.176C427.732 412.933 406.942 429.263 382.221 429.256C365.896 429.251 346.506 430.165 330.567 429.242C317.974 427.941 303.561 429.248 290.64 429.241L262.481 429.268C255.795 429.253 231.624 429.873 231.183 424.369C232.793 422.324 256.185 423.273 260.083 423.263L335.85 423.296C339.42 423.281 344.272 423.625 347.59 422.613C352.778 422.515 357.96 422.757 363.146 422.613Z"/><path fill="#FE4807" transform="scale(2 2)" d="M196.854 270.74C202.302 270.912 200.966 276.165 200.961 280.229C225.226 281.006 247.295 300.637 247.916 325.36C261.821 325.817 260.634 332.188 247.916 332.086C245.602 357.151 225.616 375.52 200.961 378.068C201.707 389.081 193.76 388.965 194.241 378.068C169.969 375.179 148.952 357.589 147.45 332.086C136.662 331.624 137.153 324.781 147.45 325.36C146.729 301.178 160.538 301.639 158.648 307.737C156.755 313.846 154.265 318.726 153.949 325.36C165.264 324.991 165.52 332.286 153.949 332.086C156.175 347.937 164.765 360.508 179.42 367.43C184.147 369.816 189.095 370.739 194.241 371.575C194.206 369.61 193.776 364.327 195.395 363.519C202.773 359.839 201.188 369.015 200.961 371.575C225.288 366.748 236.017 355.716 241.606 332.086C229.167 332.271 228.677 325.138 241.606 325.36C239.59 303.118 222.292 289.109 200.961 286.62C201.892 298.572 193.373 299.222 194.241 286.62C185.562 287.944 178.041 289.995 171.269 295.966C179.583 305.23 189.804 313.4 198.738 322.092C201.73 325.004 199.032 328.148 196.192 328.167C193.159 327.049 174.887 308.998 171.269 305.397C170.018 306.934 164.962 314.609 163.248 314.292C154.361 312.65 163.922 304.01 166.53 301.109C160.444 295.306 162.25 294.405 168.5 289.747C176.322 283.916 184.616 281.12 194.241 280.229C194.043 276.606 193.05 272.463 196.854 270.74Z"/><path fill="#FE8800" transform="scale(2 2)" d="M124.47 82.8865C125.376 82.8397 146.642 81.498 139.959 87.7316C135.581 91.8148 100.143 82.3418 91.4005 115.221C89.0587 124.028 89.993 138.865 89.9968 148.354L89.9876 190.625C90.0501 193.189 90.9994 200.519 87.7578 201.445C81.3131 203.532 83.5015 184.372 83.507 180.835L83.4955 137.41C83.4873 110.263 91.1345 83.9586 124.47 82.8865Z"/><path fill="#FE4807" transform="scale(2 2)" d="M176.958 244.18L273.825 244.019C277.161 243.829 282.863 250.737 268.934 250.72L253.434 250.698L188.373 250.703C183.04 250.703 157.391 251.159 153.707 249.935C147.541 243.613 159.686 244.185 162.176 244.181L176.958 244.18Z"/><path fill="#FE4807" transform="scale(2 2)" d="M329.816 165.494C336.289 165.493 386.477 165.007 388.553 165.818C391.908 167.128 390.758 171.164 387.772 172.017C384.105 172.205 379.075 172.025 375.285 172.023L337.577 172.05C335.695 172.062 332.039 172.316 330.391 171.917C326.473 170.969 326.395 167.364 329.816 165.494Z"/><path fill="#FE4807" transform="scale(2 2)" d="M333.085 196.293L369.061 196.282C375.029 196.275 380.98 196.202 386.968 196.358C391.009 196.464 393.618 202.517 385.441 202.844L350.425 202.85C347.172 202.855 330.754 203.656 328.707 202.215C324.7 199.392 328.967 196.551 333.085 196.293Z"/><path fill="#FE4807" transform="scale(2 2)" d="M86.3751 264.732C87.7653 264.912 88.6415 265.006 89.5772 266.057C90.5585 268.512 91.7004 283.894 87.4164 286.62C82.1381 285.679 81.131 266.983 86.3751 264.732Z"/><path fill="#FE8800" transform="scale(2 2)" d="M84.8936 234.27C91.2097 233.502 89.7885 238.131 90.0097 242.695C90.169 245.981 90.9715 251.62 88.3111 253.51C80.6851 255.806 83.1882 236.162 84.8936 234.27Z"/><path fill="#FE4807" transform="scale(2 2)" d="M124.47 244.18C127.84 244.158 139.432 242.97 141.118 246.158C142.234 248.27 140.562 249.819 138.705 250.698C134.877 250.95 127.767 250.972 124.146 250.34C120.74 249.746 120.349 245.905 124.47 244.18Z"/><path fill="#FE8800" transform="scale(2 2)" d="M260.931 82.8865C264.461 82.6691 271.257 82.6275 274.829 83.07C278.345 83.5054 278.354 87.544 274.639 89.2336C270.465 89.191 265.027 89.7255 260.99 89.1564C257.562 88.673 257.051 84.3313 260.931 82.8865Z"/></svg>