<?xml version="1.0" encoding="utf-8" ?><svg xmlns="http://www.w3.org/2000/svg" xmlns:xlink="http://www.w3.org/1999/xlink" width="1024" height="1024" viewBox="0 0 1024 1024"><defs><linearGradient id="gradient_0" gradientUnits="userSpaceOnUse" x1="197.02338" y1="351.535" x2="313.49442" y2="160.75485"><stop offset="0" stop-color="#FF9C01"/><stop offset="1" stop-color="#FFE301"/></linearGradient></defs><path fill="url(#gradient_0)" transform="scale(2 2)" d="M234.347 170.857C233.792 152.162 234.003 140.415 256.962 142.395C262.503 142.873 268.428 141.815 273.245 145.516L274.761 147.079C279.581 154.285 277.361 163.401 278.244 171.007C285.173 172.749 295.766 176.75 301.548 180.964C305.57 175.902 310.71 166.786 317.733 165.858C322.361 165.246 328.883 169.316 331.95 172.272C340.967 180.959 353.181 190.75 340.79 202.792C338.297 205.215 333.92 208.852 332.173 211.662C336.462 220.325 338.924 224.146 341.621 234.141C361.135 230.787 371.712 235.571 370.43 255.711C369.693 267.271 371.542 275.993 355.845 278.268C353.517 278.546 342.683 278.428 341.497 279.347C340.753 280.929 340.349 282.568 339.818 284.227C337.899 290.224 334.793 295.689 331.998 301.295C335.344 306.662 347.67 313.992 345.551 322.024C343.071 331.426 329.546 346.457 318.73 345.943C314.56 345.603 304.205 335.171 301.365 331.65C298.134 332.951 279.124 340.273 278.141 341.814C277.837 343.501 278.246 344.463 278.174 346.041C277.873 352.609 278.864 363.877 272.731 368.213C267.058 372.224 251.96 370.753 245.083 370.096C242.791 369.876 237.643 366.879 236.575 364.554C235.74 362.736 234.851 360.796 234.732 358.614C234.181 355.76 233.845 344.351 234.418 341.553C233.146 340.687 226.33 338.954 224.212 338.011C219.868 336.077 215.247 334.006 211.097 331.69C206.492 336.497 196.573 347.344 189.275 346.502C184.108 345.906 178.067 338.73 174.493 335.262C172.427 333.066 169.853 330.993 168.084 328.549C160.441 317.985 172.804 306.852 180.381 301.441C176.84 296.358 172.118 284.809 171.05 278.702C159.276 278.857 142.463 281.014 142.905 264.637C142.783 258.698 143.127 252.665 142.841 246.73C142.124 231.859 160.588 233.782 170.985 234.054C172.416 226.765 176.143 217.456 180.304 211.182C178.616 209.248 176.879 207.356 175.096 205.508C161.321 191.336 162.681 188.695 176.548 174.882C192.361 159.129 198.124 166.682 210.949 181.104C216.908 176.242 226.858 172.65 234.347 170.857ZM177.087 242.227C175.314 242.82 173.742 243.089 171.874 243.148C168.484 243.256 154.206 241.588 152.607 244.271C151.595 245.968 151.682 265.712 152.518 267.853C152.71 268.347 152.861 268.475 153.334 268.732C156.578 270.493 173.029 267.897 176.464 270.03C177.464 270.652 178.106 271.908 178.577 272.949C180.546 277.3 181.486 282.183 183.221 286.664C184.358 289.599 190.988 300.323 190.233 302.518C190.199 302.616 190.157 302.712 190.12 302.81C190.076 302.926 190.036 303.043 189.99 303.158C187.442 309.653 172.314 315.531 175.671 323.082C177.885 328.063 185.852 335.087 190.695 337.36C196.992 334.861 199.615 330.729 204.119 326.074C206.326 323.919 209.097 319.717 212.649 321.963C213.712 322.636 219.233 325.199 219.77 325.806C222.406 328.79 241.906 332.881 242.475 335.539C244.107 343.17 242.328 352.075 243.349 359.727C249.089 362.634 252.007 361.485 258.261 361.451C261.03 361.438 265.981 361.513 267.792 359.348C271.96 353.012 265.693 339.838 270.859 334.127C272.191 332.655 278.045 331.532 280.427 330.833C286.848 328.95 296.117 321.953 302.328 321.031C308.34 323.473 316.551 338.41 321.625 336.887C324.229 336.105 335.177 323.791 337.107 320.912C332.773 312.433 326.209 310.696 321.356 303.407C320.895 302.714 321.044 301.166 321.371 300.323C322.791 296.661 325.205 294.116 327.113 290.543C329.059 286.899 333.012 271.3 335.729 269.378C339.77 266.519 358.9 273.069 360.646 266.054C361.785 261.478 362.113 249.426 360.386 244.732C360.056 243.836 358.052 242.923 357.038 242.696C349.261 240.956 342.543 244.516 334.763 242.183C332.294 238.618 332.002 233.835 330.285 229.643C327.726 223.398 322.956 216.284 321.387 209.848C324.536 203.108 333.757 198.544 335.392 190.734C333.363 186.53 325.244 178.19 321.092 176.331C316.082 174.089 307.009 192.682 301.52 190.466C295.931 188.211 289.425 184.795 283.775 182.33C279.592 180.5 273.854 179.806 270.274 177.186C267.42 172.075 270.28 160.424 268.064 153.083C263.957 151.192 257.236 150.992 252.793 151.399C251.21 151.525 244.662 152.212 243.906 153.533C240.694 159.143 246.177 174.12 240.808 178.423C236.444 180.507 231.743 180.705 227.281 182.816C222.406 185.122 215.13 188.817 210.293 190.059C204.921 191.437 196.418 173.871 190.853 174.946C187.308 175.632 178.597 185.462 175.828 188.471C175.245 189.185 174.65 190.723 175.006 191.626C177.756 198.597 188.526 202.857 190.615 210.043C191.338 212.527 185.513 220.728 184.191 223.749C182.095 228.537 180.258 238.548 177.087 242.227Z"/><path fill="#FEE700" transform="scale(2 2)" d="M273.245 145.516L274.761 147.079C274.204 147.722 273.918 147.763 273.15 148.027L273.005 148.326C273.826 149.412 275.376 150.397 274.687 151.589L274.188 151.697C272.751 151.016 269.886 147.884 269.126 146.614L269.391 146.443C270.166 146.751 270.389 146.841 271.226 147.04C272.099 146.784 272.345 146.415 272.995 145.769L273.245 145.516Z"/><path fill="#FEB200" transform="scale(2 2)" d="M234.418 341.553C235.091 342.785 235.006 356.666 234.732 358.614C234.181 355.76 233.845 344.351 234.418 341.553Z"/><path fill="#FEB200" transform="scale(2 2)" d="M256.709 207.003C259.923 207.053 263.124 207.42 266.266 208.098C291.821 213.608 308.558 238.199 304.31 263.993C300.061 289.788 276.322 307.713 250.35 304.736C224.378 301.76 205.309 278.93 207.006 252.843C208.703 226.756 230.57 206.589 256.709 207.003ZM257.874 295.999C279.909 294.948 296.936 276.259 295.935 254.221C294.935 232.183 276.285 215.114 254.245 216.063C232.133 217.016 214.996 235.74 216 257.85C217.003 279.96 235.767 297.054 257.874 295.999Z"/><path fill="#FEB200" transform="scale(2 2)" d="M72.8773 259.475C80.6073 259.693 78.7916 272.122 79.558 277.455C81.3325 289.801 84.0623 302.158 88.4466 313.856C109.693 370.564 157.823 412.94 216.766 426.832C223.5 428.344 230.301 429.538 237.148 430.408C240.07 430.767 243.002 430.92 245.996 431.152C250.061 431.479 254.353 430.616 258.209 432.232C260.64 433.25 261.437 436.361 260.306 438.649C259.705 439.865 258.185 440.321 256.949 440.714C254.526 441.123 251.559 441.05 249.078 441.022C227.335 440.766 207.225 434.785 187.199 426.937C145.61 410.639 112.674 381.903 91.28 342.464C86.9471 334.42 83.1652 326.091 79.9604 317.534C75.4826 305.654 66.7849 276.576 69.359 263.546C69.7177 261.731 71.1787 260.327 72.8773 259.475Z"/><path fill="#FEB200" transform="scale(2 2)" d="M360.127 364.862C368.834 364.654 387.752 364.014 394.988 367.831C399.869 370.406 402.727 375.14 404.255 380.307C405.216 383.557 405.771 387.012 406.051 390.386C406.619 397.248 406.233 404.22 406.001 411.091C405.914 413.638 406.08 416.395 405.717 418.907C405.564 419.969 405.295 421.041 404.749 421.973C404.14 423.012 403.242 423.721 402.066 424.006C400.855 424.3 399.54 424.09 398.512 423.375C397.073 422.374 396.706 420.576 396.452 418.945C395.95 415.725 396.162 412.316 396.177 409.066C396.217 400.132 396.988 389.227 395.438 380.481C389.858 385.718 384.952 391.153 378.939 396.146C364.725 407.946 348.868 417.512 332.032 425.061C327.423 427.127 323.514 429.021 318.695 430.661C307.374 434.554 296.084 437.423 284.164 438.799C278.173 439.49 277.352 431.779 280.462 430.54C285.605 428.491 292.723 427.924 298.262 426.643C303.593 425.411 308.671 423.949 313.843 422.138C335.404 414.672 355.433 403.358 372.958 388.746C378.141 384.402 383.553 379.201 388.467 374.515C385.217 374.393 381.267 374.615 377.944 374.675C372.495 374.744 367.047 374.785 361.598 374.796C358.507 374.808 349.905 375.335 347.035 373.215C345.899 372.376 345.36 368.368 346.919 367.036C350.004 364.402 356.107 364.953 360.127 364.862Z"/><path fill="#FEB200" transform="scale(2 2)" d="M219.785 71.5644C222.052 71.4144 222.42 71.6103 224.422 72.5212C225.318 73.7362 225.69 74.3298 225.954 75.7485C226.261 76.8621 225.098 79.1526 224.118 79.6174C219.277 81.914 213.377 82.7243 208.194 84.2009C203.246 85.617 198.357 87.2321 193.54 89.0424C167.499 98.9914 139.36 117.246 121.95 139.326C126.617 138.832 131.432 139.066 136.121 139.037C143.572 138.991 151.04 138.853 158.488 139.047C160.495 139.099 164.492 138.912 165.914 140.559C166.603 141.358 166.84 142.452 166.775 143.484C166.689 144.849 166.213 146.334 165.085 147.191C162.182 149.396 126.551 148.726 120.943 148.122C120.522 148.018 120.118 147.895 119.717 147.724C115.926 146.108 109.848 141.606 108.295 137.628C107.544 135.705 107.155 133.595 106.951 131.548C106.414 126.152 105.847 98.6958 107.4 95.7886C108.154 94.3777 109.809 94.0874 111.214 93.6503C114.001 94.5467 115.182 95.191 115.549 98.377C116.801 109.241 115.237 120.504 116.048 131.377C118.524 129.213 120.291 127.073 122.531 124.69C125.235 121.762 128.096 118.983 131.102 116.364C157.297 93.4964 185.712 78.639 219.785 71.5644Z"/><defs><linearGradient id="gradient_1" gradientUnits="userSpaceOnUse" x1="445.63315" y1="226.65536" x2="381.2706" y2="251.96931"><stop offset="0" stop-color="#FC8B00"/><stop offset="1" stop-color="#FEC30B"/></linearGradient></defs><path fill="url(#gradient_1)" transform="scale(2 2)" d="M401.688 139.73C406.519 139.997 410.482 148.448 412.906 152.023C418.092 159.672 422.375 168.09 426.183 176.505C438.593 204.669 444.14 235.376 442.368 266.101C440.927 286.876 436.368 307.316 428.844 326.734C427.459 330.392 425.037 336.907 422.506 339.956C422.17 340.362 420.933 340.911 420.406 341.148C409.714 342.597 417.577 329.758 419.087 325.222C419.729 323.293 420.804 321.22 421.552 319.3C439.027 274.405 437.337 222.722 417.388 178.912C412.019 167.12 405.452 157.366 398.707 146.461C396.804 143.385 398.513 140.969 401.688 139.73Z"/><path fill="#F77A00" transform="scale(2 2)" d="M246.875 67.8205C249.56 67.6055 255.006 67.7581 257.728 67.8305C270.56 68.0794 283.344 69.468 295.929 71.9799C315.437 76.0754 334.161 83.159 351.25 93.425C355.218 95.8092 372.791 104.302 363.405 109.764C362.143 110.498 361.32 110.208 360.043 109.804C355.821 107.648 351.483 103.646 346.991 101.48C343.347 99.7228 339.743 97.2954 336.068 95.4653C320.496 87.7768 303.85 82.4885 286.695 79.7801C275.44 77.8952 263.321 76.5199 251.965 77.577C250.382 77.6372 248.638 77.8559 247.056 77.7006C238.547 76.8658 237.219 69.3163 246.875 67.8205Z"/><path fill="#FEB200" transform="scale(2 2)" d="M91.4884 173.04C94.637 173.071 94.9514 174.449 95.856 177.096C94.3204 182.22 91.6039 187.128 89.5267 192.084C87.4543 197.028 85.973 208.355 80.2204 210.22C79.2033 210.018 78.4175 209.609 77.469 209.19C76.8475 208.253 75.9682 207.132 75.6879 206.045C74.6357 201.964 83.0659 182.019 85.4029 178.233C86.8984 175.811 88.602 173.706 91.4884 173.04Z"/><path fill="#FEB200" transform="scale(2 2)" d="M73.8132 224.962C82.1714 225.109 79.849 240.514 74.3848 244.016C66.244 242.3 67.6436 228.385 73.8132 224.962Z"/><path fill="#F77A00" transform="scale(2 2)" d="M380.197 116.996C385.906 116.621 395.463 125.121 388.583 130.546C383.202 130.588 373.105 121.597 380.197 116.996Z"/></svg>