<?xml version="1.0" encoding="utf-8" ?><svg xmlns="http://www.w3.org/2000/svg" xmlns:xlink="http://www.w3.org/1999/xlink" width="1024" height="1024" viewBox="0 0 1024 1024"><defs><linearGradient id="gradient_0" gradientUnits="userSpaceOnUse" x1="286.12122" y1="405.35394" x2="277.23331" y2="267.51718"><stop offset="0" stop-color="#FF9627"/><stop offset="1" stop-color="#FF6225"/></linearGradient></defs><path fill="url(#gradient_0)" transform="scale(2 2)" d="M251.187 408.253C240.687 400.296 233.521 387.682 232.48 374.549C231.611 363.596 231.861 352.583 231.831 341.603L231.793 324.297C231.778 317.152 231.652 308.917 233.268 301.906C234.78 295.502 237.762 289.538 241.976 284.485C261.922 260.189 307.683 260.915 325.909 286.746C328.672 290.662 330.74 293.741 331.188 298.603C326.904 307.988 320.6 294.637 317.92 291.214C301.054 269.671 259.828 270.61 245.438 294.525C239.028 305.176 240.886 318.465 240.598 330.337C240.522 333.483 240.863 336.622 240.436 339.813L240.377 340.238C242.535 336.92 244.642 333.786 247.449 330.987C274.77 303.739 324.924 317.495 332.988 355.825C336.482 372.433 332.699 390.994 320.186 403.068C318.266 405.055 316.109 407.39 314.009 409.156C305.731 416.116 295.287 418.8 284.624 419.009C272.839 419.24 260.307 416.127 251.214 408.283C251.205 408.273 251.196 408.263 251.187 408.253ZM315.176 395.702C326.567 382.529 328.776 363.743 320.753 348.286C312.73 332.829 296.095 323.825 278.767 325.559C261.439 327.293 246.918 339.416 242.117 356.156C237.317 372.896 243.206 390.871 256.981 401.526C274.849 415.345 300.401 412.788 315.176 395.702Z"/><path fill="#FBAD1E" transform="scale(2 2)" d="M315.176 395.702C316.051 397.966 317.552 396.79 318.343 399.151C318.871 400.728 317.453 402.372 319.118 403.17L320.186 403.068C318.266 405.055 316.109 407.39 314.009 409.156C305.731 416.116 295.287 418.8 284.624 419.009C272.839 419.24 260.307 416.127 251.214 408.283C251.205 408.273 251.196 408.263 251.187 408.253C251.874 407.722 252.376 406.316 252.779 405.469C253.759 403.413 255.442 402.994 256.981 401.526C274.849 415.345 300.401 412.788 315.176 395.702Z"/><path fill="#FBAD1E" transform="scale(2 2)" d="M451.671 225.642C455.268 225.454 462.086 224.541 462.502 229.637C462.769 232.917 460.323 234.208 457.38 234.235C453.769 234.268 450.157 234.196 446.546 234.186L425.871 234.184L358.711 234.191L170.421 234.195C133.849 234.195 95.9928 233.665 59.5984 234.58C56.8194 234.563 53.0968 234.599 50.9752 232.724C46.6901 228.936 51.1582 225.749 55.3092 225.701C58.394 225.665 61.242 225.765 64.1579 225.769L84.3569 225.77L148.567 225.754L350.16 225.755L416.148 225.758C427.278 225.759 440.717 226.122 451.671 225.642Z"/><defs><linearGradient id="gradient_1" gradientUnits="userSpaceOnUse" x1="252.59125" y1="91.645012" x2="271.15796" y2="192.06984"><stop offset="0" stop-color="#FF821C"/><stop offset="1" stop-color="#FFB42B"/></linearGradient></defs><path fill="url(#gradient_1)" transform="scale(2 2)" d="M267.687 88.229C271.724 88.1973 273.171 90.9425 274.786 94.1481C276.315 97.1835 277.795 100.248 279.281 103.306C284.03 113.021 288.652 122.797 293.147 132.633L306.898 162.595C308.984 167.139 311.357 171.653 313.232 176.28C313.889 177.901 315.25 180.89 314.781 182.635C314.532 183.562 313.901 184.219 313.093 184.702C312.101 185.296 310.862 185.563 309.73 185.269C305.892 184.275 298.3 163.412 295.773 158.94C287.329 159.112 278.883 159.171 270.438 159.116C261.552 159.133 251.438 159.28 242.634 158.837C240.265 163.047 238.777 168.192 236.667 172.52C234.733 176.486 231.089 188.469 224.917 183.951C224.377 183.648 223.449 181.832 223.576 181.278C224.705 176.381 228.633 169.054 230.644 164.714L246.277 131.112C248.995 125.206 251.816 119.037 254.578 113.171C257.796 106.335 262.153 93.0841 267.687 88.229ZM246.35 151.086C252.246 150.435 263.055 150.902 269.312 150.857C276.891 150.879 284.47 150.85 292.048 150.77C287.726 141.173 283.139 132.013 278.82 122.542L272.694 108.937C272.149 107.709 270.267 102.572 269.276 102.109C262.894 113.982 257.041 125.529 251.833 137.976C250.154 141.991 247.667 147.097 246.35 151.086Z"/><path fill="#F29319" transform="scale(2 2)" d="M113.408 88.2105C117.349 88.4972 121.906 97.6401 123.882 100.84L134.015 117.246C141.391 129.195 150.093 142.452 156.905 154.467C159.029 150.074 162.049 145.313 164.608 141.168L174.14 125.717L189.017 101.736C191.335 97.9421 194.401 89.9567 199.063 88.8409C202.542 88.0083 204.037 91.8022 204.112 94.7842C204.385 105.767 204.153 116.882 204.155 127.912L204.165 162.121C204.168 167.774 204.231 173.512 204.15 179.158C203.99 180.549 204.013 182.65 203.085 183.724C201.673 185.516 197.967 185.698 196.862 183.492C195.793 181.357 195.804 177.827 195.793 175.452C195.766 169.55 195.777 163.654 195.778 157.756L195.807 114.429C195.871 111.427 195.958 108.425 196.069 105.425C193.631 109.919 191.261 114.671 188.642 119.053C180.077 133.472 170.644 147.371 162.106 161.807C155.511 173.621 149.459 157.311 146.076 152.316C137.961 140.312 131.285 127.468 123.031 115.544C120.684 112.154 119.4 108.904 116.709 105.597L116.736 157.568C116.739 161.76 116.783 165.951 116.867 170.142C116.923 173.257 118.166 186.348 112.108 185.057C108.84 184.361 108.426 181.241 108.354 178.351C107.962 162.631 108.481 146.861 108.402 131.134C108.614 120.456 108.161 109.809 108.044 99.1445C107.991 94.3316 108.944 90.5203 113.408 88.2105Z"/><defs><linearGradient id="gradient_2" gradientUnits="userSpaceOnUse" x1="367.97546" y1="185.96051" x2="370.24524" y2="87.80616"><stop offset="0" stop-color="#FFA729"/><stop offset="1" stop-color="#FFA626"/></linearGradient></defs><path fill="url(#gradient_2)" transform="scale(2 2)" d="M399.27 88.2083C401.105 88.1741 401.478 88.3691 403.069 89.3334C403.804 90.5061 404.133 91.4605 404.645 92.7358C402.981 97.3886 399.206 102.128 396.412 106.225C389.704 116.064 380.418 126.57 374.73 136.904C384.714 146.707 392.603 161.861 401.314 172.942C402.328 174.231 405.335 177.964 404.981 179.716C404.267 183.238 400.4 184.802 397.668 182.095C389.583 172.65 382.195 162.2 374.918 152.108C372.996 149.444 371.137 146.023 369.484 143.256C363.854 150.349 358.542 157.69 353.566 165.256C349.568 171.448 344.115 182.528 337.892 186.007C337.011 185.834 336.211 185.534 335.487 184.988C334.475 184.225 333.59 183.13 333.476 181.827C333.116 177.712 360.257 141.372 363.912 136.722C360.828 132.673 357.319 127.25 354.236 122.959L343.081 107.345C339.997 103.052 335.663 98.1692 333.745 93.2394C332.524 90.1004 336.097 88.8993 338.506 88.3086C341.79 89.8744 344.884 95.0234 347.089 98.0768L357.328 112.349L364.759 122.722C366.082 124.563 368.376 127.568 369.36 129.451C372.719 123.023 393.998 91.5 399.27 88.2083Z"/><path fill="#FBAD1E" transform="scale(2 2)" d="M61.3938 388.36C69.0354 388.161 77.5249 388.495 85.2503 388.506L136.382 388.432L172.565 388.329C174.209 388.323 175.853 388.304 177.495 388.304C181.301 388.324 185.163 388.066 188.962 388.222C191.226 388.314 194.037 388.874 195.708 390.455C197.27 391.932 196.996 394.097 195.499 395.483C193.343 397.479 190.178 397.414 187.437 397.413C172.118 396.441 56.3525 398.586 53.3551 396.994C52.159 396.358 51.3696 394.402 51.2306 393.135C51.1148 392.081 51.3182 390.937 52.0531 390.133C53.7093 388.322 59.0247 388.481 61.3938 388.36Z"/><path fill="#FBAD1E" transform="scale(2 2)" d="M58.8998 274.364C67.0747 274.017 77.225 274.284 85.5721 274.278L135.874 274.251L173.107 274.236C179.4 274.236 185.845 274.184 192.144 274.354C193.658 274.395 194.754 275.133 195.983 275.933C196.471 276.791 196.954 277.683 196.993 278.697C197.029 279.514 196.733 280.312 196.172 280.908C194.316 282.855 190.153 282.758 187.678 282.748L100.244 282.844L71.5646 282.927C66.9053 282.941 54.551 283.585 50.8519 281.763C46.5678 274.647 53.7851 274.556 58.8998 274.364Z"/><path fill="#FBAD1E" transform="scale(2 2)" d="M66.5487 334.753C67.5835 331.693 68.9893 331.379 72.0844 331.176C75.6752 330.94 79.3579 331.065 82.9598 331.08L100.193 331.096L154.106 331.053C161.283 331.052 169.733 331.323 176.734 331.156C181.494 332.002 184.494 334.518 180.587 339.026C178.983 339.676 178.235 339.904 176.488 339.95C170.731 340.1 164.889 340.033 159.129 340.029L127.23 340.016L89.1515 340.022C83.4296 340.025 77.7086 340.054 71.987 340.106C71.0439 340.115 69.9716 339.885 69.0946 339.53C67.1274 338.734 66.5632 336.749 66.5487 334.753Z"/></svg>