<?xml version="1.0" encoding="utf-8" ?><svg xmlns="http://www.w3.org/2000/svg" xmlns:xlink="http://www.w3.org/1999/xlink" width="683" height="683" viewBox="0 0 683 683"><path fill="#FF7A02" transform="matrix(1.33398 0 0 1.33398 0 -1.52588e-05)" d="M144.282 105.593C140.936 105.591 134.057 106.192 131.154 105.385C127.176 104.28 127.138 97.8602 132.282 97.8151L197.567 97.7674C200.814 97.7681 204.355 97.4857 207.573 97.8035C211.152 98.157 212.221 103.105 209.197 105.056C207.3 106.281 198.361 105.583 195.749 105.593L195.749 125.534C199.694 126.455 208.126 130.246 210.855 130.342C216.166 130.529 222.06 130.35 227.39 130.363L271.995 130.369L271.995 112.159C268.563 112.184 259.861 113 258.267 110.459C253.062 102.161 274.319 104.274 277.773 104.272L322.738 104.272C326.219 104.274 337.529 102.622 335.879 109.187C334.743 113.707 326.416 112.136 322.695 112.159L322.695 130.369C327.082 130.362 342.247 128.712 343.123 133.813C343.404 135.449 340.629 138.392 338.869 138.096L225.246 138.056C228.052 140.512 231.065 142.482 233.875 144.822C269.239 174.277 271.002 204.466 270.999 245.443L270.991 330.374C270.988 351.96 268.649 371.79 240.886 370.076C240.518 381.014 240.886 394.254 240.886 405.387L273.598 405.387L274.84 406.122C281.165 406.118 314.979 404.586 317.138 407.968L317.47 408.029C318.645 408.253 320.436 408.503 320.167 410.049C316.488 413.432 271.377 413.355 265.693 413.128L261.443 412.918C265.941 413.338 269.629 412.898 273.598 413.177L70.6509 413.154C68.3826 413.168 60.9201 413.792 59.4065 412.116C51.5885 403.457 71.5161 405.376 74.6225 405.376L101.245 405.387L101.245 370.076C85.6769 371.545 70.989 360.983 70.1867 344.574C69.9708 340.158 70.0476 335.712 70.0489 331.301L70.0612 274.429C69.6775 271.817 78.0883 261.865 77.982 282.859L77.9764 324.747C77.9755 341.041 74.7738 362.583 98.6104 362.61L158.511 362.615L236.806 362.628C260.523 362.649 263.159 356.136 263.148 333.846L263.126 222.888C262.403 149.751 181.929 103.99 120.371 144.951C116.994 147.198 113.945 148.941 110.988 151.893C106.724 156.149 99.4277 151.681 106.109 146.115C117.098 136.958 130.37 129.11 144.282 125.534L144.282 105.593ZM215.557 405.387C220.803 406.33 228.424 405.136 232.869 405.976L233.552 405.685C234.135 402.348 232.853 395.349 233.519 389.849L233.634 389.846L233.686 391.06C234.349 391.399 234.656 391.411 235.385 391.581L235.85 391.314C235.964 388.018 236.558 391.758 238.671 394.166C240.511 396.263 240.068 404.647 240.47 405.55C240.502 405.57 273.106 406.129 274.84 406.122L273.598 405.387L240.886 405.387C240.886 394.254 240.518 381.014 240.886 370.076C268.649 371.79 270.988 351.96 270.991 330.374L270.999 245.443C271.002 204.466 269.239 174.277 233.875 144.822C231.065 142.482 228.052 140.512 225.246 138.056L338.869 138.096C340.629 138.392 343.404 135.449 343.123 133.813C342.247 128.712 327.082 130.362 322.695 130.369L322.695 112.159C326.416 112.136 334.743 113.707 335.879 109.187C337.529 102.622 326.219 104.274 322.738 104.272L277.773 104.272C274.319 104.274 253.062 102.161 258.267 110.459C259.861 113 268.563 112.184 271.995 112.159L271.995 130.369L227.39 130.363C222.06 130.35 216.166 130.529 210.855 130.342C208.126 130.246 199.694 126.455 195.749 125.534L195.749 105.593C198.361 105.583 207.3 106.281 209.197 105.056C212.221 103.105 211.152 98.157 207.573 97.8035C204.355 97.4857 200.814 97.7681 197.567 97.7674L132.282 97.8151C127.138 97.8602 127.176 104.28 131.154 105.385C134.057 106.192 140.936 105.591 144.282 105.593L144.282 125.534C130.37 129.11 117.098 136.958 106.109 146.115C99.4277 151.681 106.724 156.149 110.988 151.893C113.945 148.941 116.994 147.198 120.371 144.951C181.929 103.99 262.403 149.751 263.126 222.888L263.148 333.846C263.159 356.136 260.523 362.649 236.806 362.628L158.511 362.615L158.68 363.046C160.74 363.47 167.893 363.306 170.349 363.312L205.548 363.4C207.86 363.426 207.305 366.357 208.235 367.612L208.594 367.669C211.02 365.251 215.409 369.363 215.383 369.663C215.222 371.522 215.209 386.857 215.557 388.522C215.605 391.435 215.08 403.59 215.557 405.387ZM109.744 370.076L109.125 370.326C108.872 371.414 108.973 378.67 108.972 380.312L108.971 405.387L127.003 405.387L127.304 405.228C127.333 403.087 127.003 400.424 126.99 397.982L127.003 370.076L109.744 370.076ZM150.465 370.076C145.267 370.161 139.951 370.09 134.744 370.076L134.744 405.387L207.935 405.387C207.927 401.45 207.636 392.031 207.935 388.522C207.819 382.479 207.919 376.141 207.935 370.076L150.465 370.076Z"/><defs><linearGradient id="gradient_0" gradientUnits="userSpaceOnUse" x1="124.98592" y1="261.18457" x2="358.0318" y2="216.37123"><stop offset="0" stop-color="#FFF50C"/><stop offset="1" stop-color="#FF7008"/></linearGradient></defs><path fill="url(#gradient_0)" transform="matrix(1.33398 0 0 1.33398 0 -1.52588e-05)" d="M144.282 105.593C140.936 105.591 134.057 106.192 131.154 105.385C127.176 104.28 127.138 97.8602 132.282 97.8151L197.567 97.7674C200.814 97.7681 204.355 97.4857 207.573 97.8035C211.152 98.157 212.221 103.105 209.197 105.056C207.3 106.281 198.361 105.583 195.749 105.593L195.749 125.534C199.694 126.455 208.126 130.246 210.855 130.342C216.166 130.529 222.06 130.35 227.39 130.363L271.995 130.369L271.995 112.159C268.563 112.184 259.861 113 258.267 110.459C253.062 102.161 274.319 104.274 277.773 104.272L322.738 104.272C326.219 104.274 337.529 102.622 335.879 109.187C334.743 113.707 326.416 112.136 322.695 112.159L322.695 130.369C327.082 130.362 342.247 128.712 343.123 133.813C343.404 135.449 340.629 138.392 338.869 138.096L225.246 138.056C228.052 140.512 231.065 142.482 233.875 144.822C269.239 174.277 271.002 204.466 270.999 245.443L270.991 330.374C270.988 351.96 268.649 371.79 240.886 370.076C240.518 381.014 240.886 394.254 240.886 405.387L273.598 405.387L274.84 406.122C273.106 406.129 240.502 405.57 240.47 405.55C240.068 404.647 240.511 396.263 238.671 394.166C236.558 391.758 235.964 388.018 235.85 391.314L235.385 391.581C234.656 391.411 234.349 391.399 233.686 391.06L233.634 389.846L233.519 389.849C232.853 395.349 234.135 402.348 233.552 405.685L232.869 405.976C228.424 405.136 220.803 406.33 215.557 405.387C216.931 405.211 220.313 405.342 221.811 405.354L233.049 405.387L233.049 371.18L215.557 371.18C215.549 376.906 215.688 382.814 215.557 388.522C215.209 386.857 215.222 371.522 215.383 369.663C215.409 369.363 211.02 365.251 208.594 367.669L208.235 367.612C207.305 366.357 207.86 363.426 205.548 363.4L170.349 363.312C167.893 363.306 160.74 363.47 158.68 363.046L158.511 362.615L236.806 362.628C260.523 362.649 263.159 356.136 263.148 333.846L263.126 222.888C262.403 149.751 181.929 103.99 120.371 144.951C116.994 147.198 113.945 148.941 110.988 151.893C106.724 156.149 99.4277 151.681 106.109 146.115C117.098 136.958 130.37 129.11 144.282 125.534L144.282 105.593ZM279.883 112.159C279.88 118.112 279.763 124.449 279.883 130.369L304.179 130.369L314.909 130.369L314.909 112.159C307.638 111.868 298.345 112.164 290.928 112.159L279.883 112.159ZM152.055 123.823C162.89 121.043 175.59 121.073 186.442 123.823L187.499 123.624C187.98 122.592 187.732 107.719 187.725 105.593L152.055 105.593L152.055 123.823Z"/><path fill="#FFF50C" transform="matrix(1.33398 0 0 1.33398 0 -1.52588e-05)" d="M150.465 370.076C153.032 369.183 164.968 369.697 168.251 369.66L209.176 368.803C209.218 369.388 207.834 375.464 208.06 376.495C207.621 379.007 208.486 386.539 207.935 388.522C207.819 382.479 207.919 376.141 207.935 370.076L150.465 370.076Z"/><defs><linearGradient id="gradient_1" gradientUnits="userSpaceOnUse" x1="279.68787" y1="336.60788" x2="437.8418" y2="288.02704"><stop offset="0" stop-color="#FFDE03"/><stop offset="1" stop-color="#FF7008"/></linearGradient></defs><path fill="url(#gradient_1)" transform="matrix(1.33398 0 0 1.33398 0 -1.52588e-05)" d="M354.629 405.387L354.64 198.331C354.619 195.143 353.943 185.459 356.276 184.028C363.937 179.33 362.296 193.042 362.292 195.214L362.26 212.33L400.535 212.33C400.515 205.046 400.264 197.324 400.929 190.07C401.456 184.327 408.429 185.412 408.317 191.278C408.176 198.685 408.269 205.967 408.27 213.302L408.27 405.387L439.028 405.394C443.698 405.396 448.496 405.299 453.154 405.495C458.08 405.703 457.72 412.868 453.239 412.972C446.332 413.289 439.216 413.18 432.302 413.181L273.598 413.177C269.629 412.898 265.941 413.338 261.443 412.918L265.693 413.128C271.377 413.355 316.488 413.432 320.167 410.049C320.436 408.503 318.645 408.253 317.47 408.029L317.138 407.968C314.979 404.586 281.165 406.118 274.84 406.122L273.598 405.387L354.629 405.387ZM362.26 405.387L400.535 405.387L400.535 371.18L362.26 371.18L362.26 405.387ZM362.26 219.91L362.26 250.706C364.702 250.713 367.187 250.745 369.625 250.706L400.535 250.706L400.535 219.91C397.719 219.804 395.637 219.809 392.833 219.91L362.26 219.91ZM362.26 363.521L400.535 363.521L400.535 333.236L362.26 333.236L362.26 363.521ZM400.535 258.224L362.26 258.224L362.26 288.009L400.535 288.009L400.535 258.224ZM367.539 295.529C365.785 295.56 364.011 295.624 362.26 295.529L362.26 325.599L395.182 325.599L400.535 325.599L400.535 295.529L367.539 295.529Z"/><defs><linearGradient id="gradient_2" gradientUnits="userSpaceOnUse" x1="63.688801" y1="212.46344" x2="104.38264" y2="205.98538"><stop offset="0" stop-color="#FF7A02"/><stop offset="1" stop-color="#FFDE03"/></linearGradient></defs><path fill="url(#gradient_2)" transform="matrix(1.33398 0 0 1.33398 0 -1.52588e-05)" d="M93.2541 159.453C96.5479 159.605 97.4005 160.838 98.4839 163.769C97.1948 166.921 93.6979 170.713 91.8555 173.785C75.1178 201.705 78.1872 221.734 77.9916 251.967C77.968 255.607 78.4508 257.583 74.8808 259.16C67.4945 259.214 70.0366 246.782 70.0701 241.043C70.2352 212.753 69.8259 194.998 85.7831 169.153C87.8149 165.862 90.2408 161.881 93.2541 159.453Z"/><path fill="#FFF50C" transform="matrix(1.33398 0 0 1.33398 0 -1.52588e-05)" d="M109.744 194.242L188.533 194.238C192.239 194.24 201.695 193.012 200.124 198.847C199.727 200.321 198.823 201.074 197.562 201.753C193.226 202.022 185.666 201.759 181.037 201.76L123.045 201.765C118.724 201.764 113.664 202.026 109.46 201.356C106.201 200.837 106.243 195.646 109.744 194.242Z"/><path fill="#FF7008" transform="matrix(1.33398 0 0 1.33398 0 -1.52588e-05)" d="M196.805 229.216L222.675 229.198C224.4 229.197 232.144 228.902 233.321 229.369C237.757 231.132 236.716 234.928 233.049 236.822C221.043 236.953 208.829 236.833 196.805 236.822C193.433 234.512 192.858 231.286 196.805 229.216Z"/><path fill="#FFF50C" transform="matrix(1.33398 0 0 1.33398 0 -1.52588e-05)" d="M218.344 301.135C222.259 301.116 236.092 299.368 236.043 304.956C235.999 310.048 229.973 308.788 226.733 308.78L212.055 308.79C207.676 308.768 194.489 310.641 194.371 305.068C194.263 299.979 202.007 301.109 205.334 301.111L218.344 301.135Z"/><path fill="#FFF50C" transform="matrix(1.33398 0 0 1.33398 0 -1.52588e-05)" d="M197.562 265.255C207.643 264.901 218.094 265.491 228.203 265.232C237.647 264.99 238.204 270.703 233.049 272.878C227.798 272.885 198.754 273.449 196.18 272.362C193.091 271.057 193.672 266.676 197.562 265.255Z"/><path fill="#FF7A02" transform="matrix(1.33398 0 0 1.33398 0 -1.52588e-05)" d="M103.31 298.782C104.765 298.944 106.69 299.488 107.344 300.916C108.118 302.604 108.349 331.007 107.54 333.074C107.025 334.39 105.691 334.862 104.474 335.313C103.03 335.326 101.096 334.978 100.465 333.476C99.5678 331.338 99.5056 302.805 100.334 300.981C100.908 299.719 102.093 299.241 103.31 298.782Z"/><path fill="#FF7008" transform="matrix(1.33398 0 0 1.33398 0 -1.52588e-05)" d="M358.255 130.982C362.894 130.827 392.378 140.226 381.766 147.575C379.792 148.141 365.683 140.188 360.57 138.825C356.161 137.65 353.357 134.2 358.255 130.982Z"/><path fill="#FF7008" transform="matrix(1.33398 0 0 1.33398 0 -1.52588e-05)" d="M212.904 194.242L226.085 194.208C227.623 194.207 232.085 193.993 233.291 194.418C237.785 196.004 236.34 199.954 233.049 201.753C226.734 201.849 220.092 201.938 213.807 201.61C209.682 201.394 209.139 196.591 212.904 194.242Z"/><path fill="#FF7A02" transform="matrix(1.33398 0 0 1.33398 0 -1.52588e-05)" d="M103.31 264.492C110.192 264.362 107.901 280.643 107.872 285.754C106.718 287.368 106.408 287.461 104.474 288.009C97.6563 290.867 99.6661 270.04 100.517 266.466C100.682 265.776 102.645 264.836 103.31 264.492Z"/><path fill="#FF7008" transform="matrix(1.33398 0 0 1.33398 0 -1.52588e-05)" d="M394.254 154.761C398.331 154.525 409.112 170.009 401.463 173.37C397.786 173.138 392.284 161.503 391.049 158.452C392.042 156.229 392.098 155.932 394.254 154.761Z"/></svg>