<?xml version="1.0" encoding="utf-8" ?><svg xmlns="http://www.w3.org/2000/svg" xmlns:xlink="http://www.w3.org/1999/xlink" width="1024" height="1024" viewBox="0 0 1024 1024"><defs><linearGradient id="gradient_0" gradientUnits="userSpaceOnUse" x1="450.89099" y1="384.039" x2="307.69299" y2="260.112"><stop offset="0" stop-color="#FF9627"/><stop offset="1" stop-color="#D3891F"/></linearGradient></defs><path fill="url(#gradient_0)" d="M319.956 720.246L319.026 182.146C319.116 169.996 320.564 157.601 329.81 148.641C336.574 142.087 346.628 141.935 355.456 141.957C367.996 141.989 380.568 142.041 393.124 142.042L489.02 142.041L776.446 142.094L812.684 142.013C838.68 142.026 873.758 138.52 873.548 175.356C874.594 182.795 874.354 196.47 874.352 204.332L874.342 247.93L874.256 398.924L874.132 658.702L874.118 742.428C874.12 750.666 874.2 759.008 874.138 767.232C873.982 787.56 877.548 815.156 850.158 818.704C843.838 819.522 836.93 819.122 830.528 819.092L798.914 818.988L688.62 818.994L466.174 818.994L390.136 818.968C378.012 818.956 364.734 819.258 352.694 818.914C350.81 819.004 348.926 819.074 347.04 819.124C333.578 819.432 323.48 811.798 320.822 798.456C318 784.292 319.784 769.588 319.872 755.236C319.944 743.57 319.972 731.916 319.956 720.246ZM338.422 800.548C344.114 802.398 347.606 802.116 353.64 802.2C360.566 801.67 372.266 802.04 379.594 802.038L429.448 802.046L703.256 802.032L795.496 801.998C810.902 801.986 826.352 802.13 841.75 801.924C850.494 801.806 857.142 801.606 857.438 791.19C858.13 766.756 857.902 742.272 857.898 717.828L857.824 584.26L857.588 191.137C855.564 157.203 855.326 158.895 821.076 158.884L784.952 158.829C765.45 159.28 744.964 158.981 725.352 158.98L623.502 158.804L468.504 158.97L388.498 158.949C378.02 158.914 367.528 157.55 357.118 158.224C350.056 158.681 337.792 160.361 337.678 169.495C337.456 187.306 337.64 205.122 337.632 222.934L337.606 332.51L337.594 592.91C337.592 634.844 338.18 677.982 337.662 719.804L337.63 764.046C337.516 775.874 336.384 789.096 338.422 800.548Z"/><path fill="#FFB124" d="M550.97 208.554C552.884 208.486 554.452 208.446 556.312 209.016C560.602 210.33 561.578 214.488 561.568 218.586C561.492 248.428 561.528 278.276 561.528 308.12L561.52 494.208L561.514 658.544C561.514 684.548 561.538 710.552 561.588 736.554C561.602 744.07 559.562 745.404 553.056 747.762C548.502 746.776 546.604 745.13 545.122 740.45C542.954 733.23 542.748 725.102 543.17 717.618C544.378 696.166 544.024 674.738 544.026 653.248L544.038 314.7L544.018 248.846C543.956 240.092 543.264 231.38 543.336 222.646C543.388 216.254 544.882 211.36 550.97 208.554Z"/><path fill="#FFB124" d="M432.99 208.538C433.582 208.506 434.178 208.48 434.772 208.462C440.744 208.254 441.772 210.962 442.16 216.342C443.496 234.888 443.334 253.946 443.216 272.502L443.026 343.218L442.906 594.31L442.84 695.132C442.882 704.238 443.546 713.244 443.678 722.32C443.802 730.964 444.62 742.144 436.638 747.58C434.8 747.674 432.952 747.75 431.192 747.118C429.366 746.462 427.676 744.714 427 742.906C424.142 735.25 425.526 663.804 425.524 649.736L425.712 454.702L425.268 250.146C425.344 240.168 425.472 230.176 425.844 220.206C426.11 213.128 425.462 210.456 432.99 208.538Z"/><path fill="#FFB124" d="M668.728 208.588C674.26 207.888 678.796 208.744 679.228 215.362C679.854 224.972 679.59 234.708 679.578 244.344L679.56 296.14L679.56 627.568L679.56 706.374C679.622 715.916 680.592 725.686 680.23 735.18C680.046 740.014 677.304 744.536 673.282 747.284C666.278 748.534 663.07 744.066 662.704 737.61C662.154 727.878 662.372 717.96 662.38 708.216L662.366 655.418L662.374 327.89L662.334 260.458C662.272 251.728 661.93 242.944 661.934 234.23C661.938 226.002 660.696 213.356 668.728 208.588Z"/><path fill="#FFB124" d="M785.802 208.556C796.89 208 797.894 211.116 797.852 221.346C797.73 250.622 797.74 279.902 797.728 309.18L797.732 489.52L799.08 711.002C799.046 720.236 799.132 741.714 792.88 747.922C779.982 749.99 779.696 734.314 780.024 724.986C780.95 698.832 780.892 672.904 780.87 646.742L780.9 384.436L780.8 295.826C780.676 274.466 780.29 253.102 780.946 231.742C781.132 225.716 780.748 218.592 782.104 212.674C782.614 210.45 783.856 209.54 785.802 208.556Z"/><path fill="#FF7E09" d="M319.956 720.246L319.026 182.146C319.116 169.996 320.564 157.601 329.81 148.641C336.574 142.087 346.628 141.935 355.456 141.957C367.996 141.989 380.568 142.041 393.124 142.042L489.02 142.041L776.446 142.094L782.478 142.708C782.596 144.47 782.484 141.911 782.36 144.215C782.156 147.99 783.87 154.843 785.232 158.254L784.952 158.829C765.45 159.28 744.964 158.981 725.352 158.98L623.502 158.804L468.504 158.97L388.498 158.949C378.02 158.914 367.528 157.55 357.118 158.224C350.056 158.681 337.792 160.361 337.678 169.495C337.456 187.306 337.64 205.122 337.632 222.934L337.606 332.51L337.594 592.91C337.592 634.844 338.18 677.982 337.662 719.804C336.36 718.226 334.646 717.668 332.75 716.774C329.312 718.73 324.5 722.928 321.436 722.612C320.28 721.786 320.412 721.65 319.956 720.246Z"/><path fill="#FFB124" d="M776.446 142.094L812.684 142.013C838.68 142.026 873.758 138.52 873.548 175.356L873.488 175.933C871.666 195.415 875.164 225.02 872.368 244.396C872.278 242.338 872.096 235.796 871.114 234.17C870.538 233.218 870.646 233.838 870.32 232.416C868.778 233.96 867.33 239.906 866.824 240.256C862.904 242.964 863.604 240.878 861.938 246.124L861.318 245.972C860.298 243.192 859.746 242.248 859.306 239.334C858.38 233.198 860.052 193.795 858.258 191.207L857.588 191.137C855.564 157.203 855.326 158.895 821.076 158.884L784.952 158.829L785.232 158.254C783.87 154.843 782.156 147.99 782.36 144.215C782.484 141.911 782.596 144.47 782.478 142.708L776.446 142.094Z"/><path fill="#FFB124" d="M332.75 716.774C334.646 717.668 336.36 718.226 337.662 719.804L337.63 764.046C337.516 775.874 336.384 789.096 338.422 800.548C344.114 802.398 347.606 802.116 353.64 802.2C356.092 803.818 379.84 802.81 384.798 803.358C382.324 803.552 380.31 804.206 377.888 804.686C375.82 805.096 371.134 804.478 369.63 805.618C369.728 808.098 373.788 809.966 372.984 812.272C371.17 812.938 367.336 813.962 366.416 815.2L366.594 816.21C369.104 816.504 375.654 816.56 377.11 816.962L377.124 817.418C373.388 819.286 355.264 816.252 352.726 818.23L352.694 818.914C350.81 819.004 348.926 819.074 347.04 819.124C333.578 819.432 323.48 811.798 320.822 798.456C318 784.292 319.784 769.588 319.872 755.236C319.944 743.57 319.972 731.916 319.956 720.246C320.412 721.65 320.28 721.786 321.436 722.612C324.5 722.928 329.312 718.73 332.75 716.774Z"/><path fill="#FF7E09" d="M208.724 186.415C212.83 186.628 215.902 188.428 218.876 191.193C225.066 196.948 230.34 203.576 236.126 209.72C241.334 215.252 271.108 244.03 270.732 249.284C270.566 251.594 268.54 253.636 266.84 255.01C265.526 256.072 263.868 257.324 262.086 257.02C252.872 255.448 226.402 223.734 219.748 215.142C220.316 228.466 219.848 243.422 219.832 256.898L219.832 332.096L219.798 606.594L219.746 692.324C219.726 714.808 219.516 736.988 220.548 759.46C230.07 745.404 245.446 730.59 258.344 719.562C267.422 711.802 274.84 723.826 272.67 727.554C264.726 740.476 251.008 750.566 240.514 761.806C232.702 770.17 221.4 783.84 211.28 788.376C205.918 787.188 201.334 781.74 197.625 777.802C182.688 761.942 166.439 747.16 152.159 730.73C148.552 726.58 149.199 721.318 153.276 717.85C154.869 716.52 157.966 716.45 159.87 716.86C161.611 717.236 163.151 718.296 164.5 719.446C172.617 727.668 197.699 751.456 203.162 760.108C201.988 751.4 202.258 739.168 202.302 730.25L202.326 699.942L202.346 583.436L202.372 356.474C202.106 309.448 202.238 262.418 202.768 215.394C189.635 226.108 179.475 240.208 167.131 251.77C164.791 253.964 161.475 257.45 157.981 257.054C155.508 256.774 152.748 254.738 151.282 252.776C150.137 251.246 149.598 249.284 150.003 247.39C151.155 242.01 201.75 191.039 208.724 186.415Z"/></svg>