<?xml version="1.0" encoding="utf-8" ?><svg xmlns="http://www.w3.org/2000/svg" xmlns:xlink="http://www.w3.org/1999/xlink" width="683" height="683" viewBox="0 0 683 683"><defs><linearGradient id="gradient_0" gradientUnits="userSpaceOnUse" x1="240.86398" y1="368.46585" x2="205.75607" y2="288.45367"><stop offset="0" stop-color="#FC9200"/><stop offset="1" stop-color="#FDC502"/></linearGradient></defs><path fill="url(#gradient_0)" transform="matrix(1.33398 0 0 1.33398 0 -1.52588e-05)" d="M172.001 305.854C186.073 304.186 202.174 312.837 209.7 324.645L314.771 324.665C318.021 324.675 329.385 322.941 329.498 328.266C329.599 333.018 316.638 331.678 314.229 331.667L223.188 331.644L214.229 331.644C215.86 336.015 217.189 339.565 217.764 344.256C222.551 383.31 177.58 408.211 146.608 383.422C115.787 357.762 131.588 309.702 172.001 305.854ZM174.626 386.118C194.784 385.897 210.942 369.368 210.704 349.21C210.467 329.053 193.924 312.909 173.767 313.163C153.633 313.417 137.513 329.936 137.75 350.07C137.987 370.203 154.492 386.338 174.626 386.118Z"/><path fill="#FA9C01" transform="matrix(1.33398 0 0 1.33398 0 -1.52588e-05)" d="M173.279 335.55C180.956 334.916 187.697 340.617 188.348 348.292C188.998 355.968 183.313 362.722 175.639 363.389C167.941 364.059 161.161 358.352 160.509 350.652C159.856 342.953 165.578 336.186 173.279 335.55Z"/><defs><linearGradient id="gradient_1" gradientUnits="userSpaceOnUse" x1="333.86459" y1="329.58072" x2="401.9642" y2="365.37442"><stop offset="0" stop-color="#FEAE00"/><stop offset="1" stop-color="#FC3E02"/></linearGradient></defs><path fill="url(#gradient_1)" transform="matrix(1.33398 0 0 1.33398 0 -1.52588e-05)" d="M370.538 393.281C347.728 392.458 329.44 374.134 328.662 351.323C327.883 328.511 344.879 308.983 367.579 306.606C390.28 304.229 410.952 319.813 414.916 342.291C417.195 355.216 413.513 368.478 404.897 378.378C396.281 388.278 383.653 393.755 370.538 393.281ZM407.591 340.5C402.826 322.555 385.33 311.062 366.969 313.814C348.607 316.567 335.251 332.685 335.958 351.238C336.664 369.792 351.208 384.847 369.726 386.195C381.475 387.051 392.913 382.173 400.43 373.102C407.946 364.031 410.614 351.886 407.591 340.5Z"/><path fill="#FA9C01" transform="matrix(1.33398 0 0 1.33398 0 -1.52588e-05)" d="M369.871 335.677C377.582 334.269 384.981 339.359 386.424 347.064C387.866 354.769 382.81 362.19 375.111 363.667C367.364 365.154 359.884 360.058 358.433 352.304C356.981 344.55 362.111 337.093 369.871 335.677Z"/><path fill="#F42F00" transform="matrix(1.33398 0 0 1.33398 0 -1.52588e-05)" d="M407.591 340.5L408.033 340.75C410.806 348.16 407.818 340.729 414.916 342.291C417.195 355.216 413.513 368.478 404.897 378.378C396.281 388.278 383.653 393.755 370.538 393.281L370.633 392.878C371.547 392.648 371.624 392.681 372.594 392.783L372.851 392.812C374.215 388.663 371.633 387.511 369.726 386.195C381.475 387.051 392.913 382.173 400.43 373.102C407.946 364.031 410.614 351.886 407.591 340.5Z"/><path fill="#FA9C01" transform="matrix(1.33398 0 0 1.33398 0 -1.52588e-05)" d="M352.479 184.276L374.472 184.27C377.196 184.263 386.572 183.308 388.684 185.054C391.621 187.482 424.341 242.619 424.678 247.122C425.279 255.15 417.705 259.587 410.639 259.759L370.451 259.748C359.751 259.761 339.031 262.881 338.201 246.825C338.003 243.012 338.046 239.211 338.042 235.396L338.033 216.801C338.033 202.85 334.156 185.439 352.479 184.276ZM410.639 252.571C415.215 252.851 419.554 250.104 416.596 245.065C406.969 228.665 397.136 212.379 387.865 195.776C387.129 194.457 386.193 192.98 385.189 191.843C381.415 190.592 358.765 191.039 353.393 191.044C343.438 191.697 345.203 196.74 345.198 205.12L345.197 235.627C345.202 241.423 343.241 252.192 351.71 252.473C358.105 252.685 364.536 252.589 370.942 252.588L410.639 252.571Z"/><defs><linearGradient id="gradient_2" gradientUnits="userSpaceOnUse" x1="442.00565" y1="242.7281" x2="163.14478" y2="180.14302"><stop offset="0" stop-color="#FF7A02"/><stop offset="1" stop-color="#FAF802"/></linearGradient></defs><path fill="url(#gradient_2)" transform="matrix(1.33398 0 0 1.33398 0 -1.52588e-05)" d="M150.846 118.02L281.844 118.023C315.917 117.956 321.02 127.339 320.955 160.013L373.331 160.011C405.106 160.009 403.653 156.829 420.021 185.621L440.158 221.105C442.718 225.668 452.852 242.132 453.919 246.104C451.003 243.133 446.127 226.539 439.837 229.602C437.539 233.14 446.876 243.053 446.846 247.136L411.92 185.524C403.919 170.98 403.757 166.973 385.349 166.965L320.955 166.967L320.971 287.099C320.973 292.327 321.026 297.55 320.891 302.787C320.722 309.281 313.763 307.696 313.755 301.7L313.888 148.621C314.029 125.281 298.575 124.729 279.941 124.739L151.891 124.75C158.553 122.03 172.851 125.688 178.808 124.096C175.088 120.145 177.004 122.362 179.969 119.089L180.552 119.312C181.933 118.525 182.052 118.773 183.552 118.609C172.462 118.889 162.726 117.292 151.248 118.303L150.846 118.02Z"/><defs><linearGradient id="gradient_3" gradientUnits="userSpaceOnUse" x1="58.717686" y1="178.00243" x2="184.73018" y2="278.63956"><stop offset="0" stop-color="#DFFF03"/><stop offset="1" stop-color="#FCAF02"/></linearGradient></defs><path fill="url(#gradient_3)" transform="matrix(1.33398 0 0 1.33398 0 -1.52588e-05)" d="M92.5688 324.645L92.5626 162.45C92.5446 146.028 90.8389 121.6 113.61 118.475C118.851 117.756 125.033 118.01 130.345 118.009L150.846 118.02L151.248 118.303C162.726 117.292 172.462 118.889 183.552 118.609C182.052 118.773 181.933 118.525 180.552 119.312L179.969 119.089C177.004 122.362 175.088 120.145 178.808 124.096C172.851 125.688 158.553 122.03 151.891 124.75C142.168 125.177 122.336 123.357 113.744 125.49C99.0031 129.148 99.7294 142.853 99.7367 154.359L99.7512 272.268L120.077 272.239C123.667 272.232 127.235 272.132 130.823 272.357C135.677 272.661 136.09 279.091 131.387 279.635C127.744 280.057 123.701 279.888 120.007 279.888L99.7512 279.873L99.7512 324.645C104.658 324.639 130 321.901 128.112 329.899C127.067 334.326 93.9416 329.549 88.0926 332.67C87.1098 334.357 87.5208 349.497 87.5303 352.608C97.9803 352.771 108.504 352.422 118.948 352.642C123.709 352.742 124.479 360.016 117.935 359.954C108.44 359.865 98.8768 360.094 89.3776 359.911C79.3465 359.693 80.3679 349.608 80.2563 342.449C80.082 331.268 79.0207 324.805 92.5688 324.645Z"/><path fill="#F42F00" transform="matrix(1.33398 0 0 1.33398 0 -1.52588e-05)" d="M446.846 247.136C446.876 243.053 437.539 233.14 439.837 229.602C446.127 226.539 451.003 243.133 453.919 246.104L453.918 298.537C453.917 306.715 453.637 316.626 453.919 324.645C466.362 325.579 463.479 332.606 463.873 341.788C463.091 353.896 466.177 357.417 451.936 358.659C448.222 358.767 424.079 360.05 422.536 357.074C418.637 349.551 430.039 351.628 433.817 351.641L456.75 351.653C456.754 345.182 456.914 338.058 456.75 331.644C447.237 331.19 428.777 333.044 420.72 331.542C418.012 331.037 416.315 327.504 418.783 325.693C421.476 323.716 441.97 324.925 446.846 324.645L446.808 254.818C446.795 253.402 446.657 248.361 446.846 247.136Z"/><path fill="#F7E400" transform="matrix(1.33398 0 0 1.33398 0 -1.52588e-05)" d="M164.047 197.336L261.887 197.33C265.952 197.327 270.053 197.301 274.153 197.427C279.889 197.603 283.793 204.645 269.182 204.586L251.625 204.585L152.551 204.596C148.848 204.599 141.306 204.937 138.093 204.047C131.016 197.128 145.647 197.333 148.473 197.329L164.047 197.336Z"/><path fill="#F7E400" transform="matrix(1.33398 0 0 1.33398 0 -1.52588e-05)" d="M160.005 229.186L222.904 229.192C227.198 229.192 251.128 228.67 253.449 229.497C256.965 230.749 256.45 235.067 253.305 236.262L168.456 236.271C164.562 236.292 154.27 238.285 157.236 230.985C157.637 230 159.058 229.442 160.005 229.186Z"/><path fill="#F7E400" transform="matrix(1.33398 0 0 1.33398 0 -1.52588e-05)" d="M162.958 165.275C169.61 165.066 177.442 165.268 184.219 165.268L244.936 165.268C246.318 165.268 252.481 165.096 253.619 165.465C256.883 166.522 256.963 170.978 253.305 172.505C246.986 172.718 239.338 172.507 232.922 172.504L172.293 172.531C169.729 172.537 164.328 172.793 162.124 172.274C159.521 171.66 158.562 166.64 162.958 165.275Z"/><path fill="#FA9C01" transform="matrix(1.33398 0 0 1.33398 0 -1.52588e-05)" d="M315 351.653C321.178 351.389 322.731 358.562 316.206 358.736C312.659 358.831 309.287 358.835 305.823 358.83L229.74 358.817C222.478 358.856 223.04 352.121 227.404 351.817C231.061 351.562 234.798 351.641 238.507 351.644L315 351.653Z"/><path fill="#F7E400" transform="matrix(1.33398 0 0 1.33398 0 -1.52588e-05)" d="M52.2558 151.847C55.7861 151.589 74.903 151.479 77.4249 152.302C81.3517 153.583 79.4016 157.937 76.689 159.261C73.6801 159.525 52.9453 159.537 51.1812 158.961C47.1066 157.631 48.2694 153.493 52.2558 151.847Z"/><path fill="#F7E400" transform="matrix(1.33398 0 0 1.33398 0 -1.52588e-05)" d="M36.6412 186.595L52.3231 186.583C54.666 186.583 58.1395 186.445 60.3571 186.725C64.926 187.303 65.1365 193.707 59.5625 193.696C55.5291 193.684 35.7094 194.356 33.5614 192.982C30.2857 190.886 32.1864 186.944 36.6412 186.595Z"/><path fill="#F7E400" transform="matrix(1.33398 0 0 1.33398 0 -1.52588e-05)" d="M52.2558 222.751C59.7304 222.407 67.7651 222.902 75.2971 222.792C80.0995 222.721 80.6481 229.357 75.6494 229.91C71.4136 229.908 52.798 230.527 50.4169 229.403C46.8391 227.715 49.1028 223.489 52.2558 222.751Z"/><path fill="#FA9C01" transform="matrix(1.33398 0 0 1.33398 0 -1.52588e-05)" d="M353.393 271.637C355.606 271.579 363.404 270.864 364.518 272.727C369.03 280.275 356.332 278.854 352.479 278.815C350.566 278.848 343.028 279.38 341.758 278.205C333.798 270.841 350.243 271.61 353.393 271.637Z"/></svg>