<?xml version="1.0" encoding="utf-8" ?><svg xmlns="http://www.w3.org/2000/svg" xmlns:xlink="http://www.w3.org/1999/xlink" width="1024" height="1024" viewBox="0 0 1024 1024"><defs><linearGradient id="gradient_0" gradientUnits="userSpaceOnUse" x1="339.38593" y1="290.12766" x2="116.56002" y2="360.69595"><stop offset="0" stop-color="#FF7A02"/><stop offset="1" stop-color="#FED000"/></linearGradient></defs><path fill="url(#gradient_0)" transform="scale(2 2)" d="M151.658 299.038C156.05 296.412 164.95 286.543 169.172 282.382L188.057 263.604C210.986 241.077 214.715 237.374 214.127 201.647C213.837 184.026 248.417 176.807 255.39 211.887C259.218 233.207 254.23 257.178 241.43 274.786C233.24 286.213 235.171 284.043 249.935 284.005L298.177 283.984C314.886 283.986 340.604 279.948 343.774 303.02C345.085 312.559 341.731 318.815 334.918 325.135C349.177 337.267 347.502 358.093 328.682 365.197C338.08 377.924 336.103 394.119 320.999 401.389C320.047 401.848 319.006 402.476 318.056 402.98C326.044 410.833 324.408 425.494 316.672 433.039C309.29 440.239 302.694 439.966 293.128 439.974L226.977 439.968C198.658 439.957 176.313 434.355 153.078 416.429C152.412 415.916 150.631 415.978 149.731 415.97L130.804 415.97C128.45 425.525 121.474 431.841 111.368 431.88C96.0578 431.921 80.8316 432.07 65.5162 431.784C60.0172 431.682 53.1226 422.772 72.9616 422.826L99.1713 422.868C125.738 422.951 122.063 419.795 122.025 396.744L122.019 357.801C121.761 354.656 122.004 347.155 122.005 343.592L122.025 313.46C122.056 294.107 123.107 292.709 104.382 292.728L87.1061 292.743L73.3824 292.776C70.6752 292.78 68.2574 292.771 65.5024 292.556C59.8357 292.113 59.2306 285.099 64.0728 284.232C67.0765 283.694 72.4669 283.98 75.7217 283.98L97.464 283.993C101.757 283.967 113.242 283.266 116.811 283.993C124.319 286.038 129.765 291.169 130.804 299.038L151.658 299.038ZM130.804 307.965L130.804 338.658L130.796 383.892C130.795 391.427 130.648 399.395 130.804 406.881L147.534 406.85C148.933 406.839 154.167 406.662 155.06 406.881C156.997 407.407 162.203 411.903 164.676 413.569C188.248 429.456 205.317 431.22 231.874 431.166L288.158 431.165C299.118 431.192 312.396 433.184 314.366 417.395C316.789 397.968 287.095 403.458 276.172 402.96C270.537 403.131 263.376 394.363 281.247 394.293L302.716 394.312C308.548 394.337 314.704 395.518 319.8 391.648C328.892 384.744 327.048 371.008 316.304 367.076C313.525 366.059 308.974 366.374 305.89 366.395L291.548 366.433C287.434 366.469 277.333 368.206 278.534 361.16C278.808 359.551 279.883 358.843 281.152 358.003L281.462 357.801C294.168 357.269 311.307 359.157 323.37 357.573C333.84 356.194 338.824 343.605 332.555 335.207C327.119 327.926 318.055 329.39 309.935 329.393L292.251 329.432C277.251 329.46 282.089 320.891 286.673 320.753C298.254 320.474 309.308 320.748 320.969 320.671C338.719 320.553 339.279 297.441 326.369 293.627C321.799 292.277 312.366 292.738 307.44 292.737L246.348 292.764C240.947 292.758 234.616 293.947 230.444 289.637C222.141 281.059 231.911 273.881 236.326 266.808C245.897 251.37 255.198 214.38 239.848 199.372C234.691 194.328 227.968 194.364 223.062 199.745C223.338 230.036 223.144 240.892 201.9 262.077L166.989 296.899C157.179 306.683 159.223 308.008 145.243 307.987L130.804 307.965Z"/><path fill="#F80" transform="scale(2 2)" d="M122.019 357.801C123.381 355.437 121.522 345.973 123.313 344.412C126.685 344.386 130.432 354.283 130.381 335.751C130.44 337.016 130.389 338.478 130.377 339.76L130.688 339.691L130.474 340.162L130.804 338.658L130.796 383.892C130.795 391.427 130.648 399.395 130.804 406.881L147.534 406.85C148.933 406.839 154.167 406.662 155.06 406.881C151.771 408.185 147.539 407.503 144.891 411.365C142.625 414.67 149.439 414.958 150.332 415.492L149.33 415.582L149.731 415.97L130.804 415.97C128.45 425.525 121.474 431.841 111.368 431.88C96.0578 431.921 80.8316 432.07 65.5162 431.784C60.0172 431.682 53.1226 422.772 72.9616 422.826L99.1713 422.868C125.738 422.951 122.063 419.795 122.025 396.744L122.019 357.801Z"/><path fill="#F80" transform="scale(2 2)" d="M87.1061 292.743L73.3824 292.776C70.6752 292.78 68.2574 292.771 65.5024 292.556C59.8357 292.113 59.2306 285.099 64.0728 284.232C67.0765 283.694 72.4669 283.98 75.7217 283.98L97.464 283.993C94.7076 285.318 90.092 284.178 97.464 284.75C95.8171 285.586 94.159 288.095 94.363 289.946C96.0582 292.184 97.6815 291.032 99.3748 292.13C97.855 292.591 89.3508 292.058 87.1061 292.743Z"/><path fill="#F80" transform="scale(2 2)" d="M97.464 283.993C101.757 283.967 113.242 283.266 116.811 283.993C115.031 284.657 111.636 284.657 109.707 284.643L111.927 284.372C107.778 284.443 101.149 285.032 97.464 284.75C90.092 284.178 94.7076 285.318 97.464 283.993Z"/><path fill="#FF7D00" transform="scale(2 2)" d="M373.754 268.632C358.29 267.147 346.346 264.051 333.367 254.717C294.127 226.497 303.637 188.483 307.137 148.111L308.873 125.976C309.41 118.513 307.288 110.477 315.684 110.081C319.606 109.896 323.612 110.011 327.539 110.01L417.524 110.015L431.074 109.977C435.271 109.968 442.403 108.688 443.154 114.367C446.007 140.803 452.673 180.264 450.649 204.613C449.08 223.491 436.662 243.616 421.194 254.408C414.033 261.745 392.341 267.682 382.527 268.632C382.698 272.312 382.535 276.624 382.533 280.382L382.527 376.001C387.729 380.555 386.091 386.233 378.918 384.679C376.834 387.713 374.408 391.121 372.631 394.299C378.863 394.3 415.481 393.666 417.964 394.896C420.164 395.986 420.49 399.204 419.263 401.12C417.392 404.043 411.048 402.971 408.159 402.973L361.188 402.992C355.878 402.995 350.508 403.028 345.199 402.952C339.381 402.867 336.529 394.654 346.876 394.429C351.891 394.319 356.631 394.209 361.526 394.299C365.102 389.486 370.73 381.202 373.754 376.001C373.959 373.017 373.774 367.497 373.767 364.382L373.754 268.632ZM416.78 247.209C420.748 243.149 424.817 240.171 428.539 235.485C443.284 216.921 444.074 201.468 441.506 179.423L439.215 159.988C437.65 146.526 436.243 132.151 435.023 118.677C429.817 118.623 424.505 118.674 419.291 118.677L318.056 118.677C316.96 139.851 309.468 189.066 312.986 207.546C321.398 251.733 370.706 273.187 409.544 251.574C411.913 250.256 414.476 248.365 416.78 247.209Z"/><path fill="#FF7D00" transform="scale(2 2)" d="M404.175 153.313C434.557 144.063 432.692 160.351 426.734 160.056C419.59 159.702 414.736 159.708 407.527 161.325C405.089 162.424 401.656 163.019 399.099 164.158C373.095 175.745 352.076 206.581 321.926 198.517C316.398 197.038 316.082 192.013 321.267 189.609C326.006 190.043 329.649 191.694 335.159 191.002C360.919 187.691 379.38 157.916 404.175 153.313Z"/><path fill="#FC1C00" transform="scale(2 2)" d="M404.175 153.313C434.557 144.063 432.692 160.351 426.734 160.056C419.59 159.702 414.736 159.708 407.527 161.325C408.653 158.851 413.944 163.745 410.823 152.307C408.936 152.579 405.626 153.794 404.175 153.313Z"/><path fill="#FF7D00" transform="scale(2 2)" d="M416.78 189.609C428.619 189.63 418.954 230.302 383.445 235.51C377.478 235.589 375.911 227.665 384.878 226.35C398.107 224.411 409.081 213.852 411.97 200.907C412.627 197.966 412.758 194.838 413.476 191.862L413.557 191.534C414.594 190.276 415.223 190.068 416.78 189.609Z"/><path fill="#FC1C00" transform="scale(2 2)" d="M417.524 110.015L431.074 109.977C435.271 109.968 442.403 108.688 443.154 114.367C446.007 140.803 452.673 180.264 450.649 204.613C449.08 223.491 436.662 243.616 421.194 254.408C421.113 253.012 425.219 250.333 426.431 249.151C426.59 248.688 423.819 243.188 423.443 241.813C422.104 243.145 418.667 246.328 417.223 247.371L416.78 247.209C420.748 243.149 424.817 240.171 428.539 235.485C443.284 216.921 444.074 201.468 441.506 179.423L439.215 159.988C437.65 146.526 436.243 132.151 435.023 118.677C429.817 118.623 424.505 118.674 419.291 118.677C418.436 118.393 413.622 118.643 412.383 118.653L395.871 118.686C392.292 118.687 387.575 118.817 384.133 118.336C388.891 116.964 403.826 119.394 409.671 118.023C403.81 116.223 407.143 117.335 403.859 110.922C402.84 110.282 381.84 110.744 378.756 110.507C381.303 109.791 387.385 109.995 390.268 109.996L407.518 110.033C410.482 110.047 414.386 110.186 417.261 110.031L417.524 110.015Z"/><path fill="#FF7D00" transform="scale(2 2)" d="M238.541 155.735C246.439 155.563 254.388 155.705 262.164 157.144C268.359 158.271 269.902 167.716 258.318 165.536C237.782 161.672 218.496 166.372 200.165 175.83C195.487 178.137 188.329 183.319 183.757 185.854C181.923 186.87 176.801 182.237 180.335 178.678C192.989 165.161 220.952 157.467 238.541 155.735Z"/><path fill="#F80" transform="scale(2 2)" d="M95.3791 381.435C103.605 380.014 111.417 385.554 112.797 393.787C114.176 402.02 108.596 409.804 100.357 411.142C92.1756 412.47 84.459 406.938 83.0895 398.764C81.7199 390.59 87.2121 382.846 95.3791 381.435ZM98.631 402.319C102.025 401.936 104.454 398.859 104.04 395.469C103.626 392.079 100.527 389.677 97.1412 390.122C93.7983 390.561 91.4337 393.612 91.8425 396.959C92.2513 400.306 95.2807 402.698 98.631 402.319Z"/><path fill="#FF7D00" transform="scale(2 2)" d="M182.682 96.7251C186.475 96.9275 216.189 122.78 220.747 126.674C224.07 129.514 223.649 133.629 219.404 134.996L219.311 134.995C214.102 134.99 179.569 104.233 179.007 102.218C178.136 99.0981 180.513 97.5481 182.682 96.7251Z"/><path fill="#FF7D00" transform="scale(2 2)" d="M238.541 71.7712C240.734 71.509 242.665 72.1072 243.668 74.2522C244.536 76.1068 244.597 108.38 243.85 110.327C243.276 111.823 242.11 112.434 240.695 112.985C237.352 113.18 235.252 111.614 235.228 108.112C235.154 97.0054 234.623 85.6143 235.517 74.5647C235.615 73.3461 237.634 72.2736 238.541 71.7712Z"/><path fill="#FF7D00" transform="scale(2 2)" d="M289.858 100.248C294.533 100.139 297.677 103.816 294.145 107.652C290.085 112.061 276.323 126.635 271.294 129.658C267.119 130.816 263.928 125.536 267.249 122.182C271.928 117.458 284.676 103.425 289.858 100.248Z"/></svg>