<?xml version="1.0" encoding="utf-8" ?><svg xmlns="http://www.w3.org/2000/svg" xmlns:xlink="http://www.w3.org/1999/xlink" width="1024" height="1024" viewBox="0 0 1024 1024"><defs><linearGradient id="gradient_0" gradientUnits="userSpaceOnUse" x1="135.8584" y1="221.25354" x2="390.18347" y2="283.46518"><stop offset="0" stop-color="#F8B065"/><stop offset="1" stop-color="#E07A5F"/></linearGradient></defs><path fill="url(#gradient_0)" transform="scale(2 2)" d="M157.467 160.562C163.282 157.709 171.153 158.16 177.481 157.025C194.76 153.91 210.846 146.767 224.549 135.755C228.446 132.948 233.584 128.4 238.137 127.089C242.681 125.779 249.902 132.005 253.265 134.527C266.893 144.748 282.772 153.899 299.795 156.823C313.787 159.226 331.98 156.044 333.684 175.538C334.375 182.598 334.236 189.052 334.236 196.164L334.24 232.284C334.216 238.069 333.894 248.407 334.323 253.749C348.09 256.465 361.575 268.481 369.272 279.94C379.121 294.718 382.727 312.79 379.303 330.216C375.881 347.525 365.651 362.734 350.909 372.428C321.953 391.594 278.534 383.95 259.796 354.288C259.572 353.935 259.359 353.575 259.156 353.209C252.549 357.735 245.498 361.401 237.266 359.844C233.783 359.185 229.084 357.029 226.358 354.764C213.462 344.047 202.268 331.244 190.143 319.671C184.814 314.585 179.545 309.628 174.264 304.514C171.624 301.907 169.12 299.073 166.628 296.323C165.291 294.846 161.736 292.35 160.707 290.957C160.544 290.819 160.383 290.679 160.225 290.537C153.12 284.019 147.258 276.318 146.735 266.326C145.812 262.055 145.982 248.575 145.984 243.997L145.984 208.639L145.956 190.053C145.937 186.899 145.735 180.289 146.298 177.493C146.216 170.095 151.033 163.74 157.467 160.562ZM154.679 175.466L154.42 176.792C153.027 182.656 153.92 189.797 153.966 195.841C154.006 201.201 154.001 206.55 154 211.91L153.999 246.313C154 253.119 153.83 259.956 154.307 266.742C154.618 271.164 156.159 273.656 158.855 276.915C160.32 278.575 163.606 281.864 164.738 283.398C179.207 298.633 194.033 312.965 208.916 327.763C212.132 330.913 215.286 334.126 218.375 337.4C230.852 350.719 237.624 357.914 254.885 346.687C246.211 330.554 245.39 309.414 252.154 292.492C258.992 275.383 273.284 261.092 290.673 254.796C301.651 250.82 314.923 249.003 326.407 251.381C325.925 246.68 326.193 236.688 326.195 231.661L326.207 195.062C326.207 190.503 326.086 185.541 326.068 181.051C326.008 165.495 318.69 166.236 306.251 165.096C302.816 164.771 299.393 164.316 295.992 163.733C281.382 161.121 265.345 152.938 253.51 144.179C249.445 141.17 245.502 137.63 241.499 134.832C237.205 135.053 235.977 135.881 232.67 138.618C216.511 151.991 196.721 162.145 175.744 164.787C168.998 165.636 163.145 164.864 157.667 169.609C156.05 171.963 155.57 172.718 154.679 175.466ZM319.38 375.348C351.752 372.48 375.671 343.914 372.806 311.542C369.941 279.169 341.379 255.247 309.006 258.108C276.628 260.969 252.701 289.538 255.566 321.916C258.431 354.294 287.003 378.217 319.38 375.348Z"/><path fill="#F8B065" transform="scale(2 2)" d="M146.735 266.326C146.91 264.243 146.769 262.371 147.106 260.35C147.448 261.211 147.395 261.76 147.751 262.648C148.804 265.278 147.802 266.828 147.627 269.232C147.608 269.49 149.112 272.079 149.401 272.553C148.867 272.985 148.893 272.89 148.581 273.5C149.227 274.132 149.902 274.554 150.023 275.301L149.5 276.107C150.501 278.593 151.557 278.603 152.633 280.095C153.755 281.651 152.458 281.923 154.77 284.253C154.928 284.295 156.222 284.544 155.982 284.279C157.741 286.219 159.14 288.714 160.972 290.496L160.707 290.957C160.544 290.819 160.383 290.679 160.225 290.537C153.12 284.019 147.258 276.318 146.735 266.326Z"/><path fill="#F8B065" transform="scale(2 2)" d="M146.298 177.493C146.216 170.095 151.033 163.74 157.467 160.562C157.096 161.113 156.983 161.073 156.938 161.59L155.247 163.134C155.521 164.292 155.653 163.846 155.186 164.611C154.056 164.656 153.285 164.719 152.551 165.695C150.857 167.946 149.389 170.411 148.314 173.017C147.653 174.602 147.782 179.465 146.781 180.139C146.688 179.344 146.644 178.152 146.298 177.493Z"/><path fill="white" fill-opacity="0.0078431377" transform="scale(2 2)" d="M309.006 258.108C341.379 255.247 369.941 279.169 372.806 311.542C375.671 343.914 351.752 372.48 319.38 375.348C287.003 378.217 258.431 354.294 255.566 321.916C252.701 289.538 276.628 260.969 309.006 258.108Z"/><path fill="#C97031" transform="scale(2 2)" d="M350.904 288.207C352.134 287.866 354.018 288.284 354.603 289.403C356.062 292.193 352.536 295.8 350.862 297.492C347.284 301.108 343.766 304.655 340.233 308.252C331.903 316.835 323.488 325.337 314.992 333.757C312.012 336.664 306.05 342.624 302.802 344.894C298.342 342.604 284.075 327.047 279.806 322.469C279.078 321.687 277.726 319.312 277.476 318.283C277.196 317.134 276.96 316.788 277.521 315.657C278.242 315.056 278.949 314.929 279.869 315.03C285.866 315.684 297.962 331.023 302.781 335.656C303.613 334.697 306.958 330.737 307.792 330.214C309.349 328.309 312.591 325.236 314.465 323.362L326.913 310.932L340.104 297.744C342.392 295.437 348.222 288.858 350.904 288.207Z"/><path fill="#F8B065" transform="scale(2 2)" d="M158.368 277.073C156.889 275.107 154.93 274.871 153.882 272.327C153.236 270.76 153.571 269.801 153.163 268.449L152.411 268.354C151.847 264.567 152.122 252.532 152.127 247.967L152.131 208.803C152.13 200.471 152.124 192.143 151.987 183.812C151.95 181.555 151.547 177.709 153.93 176.38L154.42 176.792C153.027 182.656 153.92 189.797 153.966 195.841C154.006 201.201 154.001 206.55 154 211.91L153.999 246.313C154 253.119 153.83 259.956 154.307 266.742C154.618 271.164 156.159 273.656 158.855 276.915C160.32 278.575 163.606 281.864 164.738 283.398C163.915 283.174 161.861 282.003 161.008 281.548C160.896 281.892 160.921 282.027 160.933 282.385C158.138 281.493 158.607 279.297 158.368 277.073Z"/><path fill="#F8B065" transform="scale(2 2)" d="M154.679 175.466C154.343 175.203 154.323 175.014 154.129 174.633C153.587 175.012 153.784 174.998 153.215 175.057C153.434 174.191 153.896 172.913 154.681 172.441L154.964 172.806L155.089 172.628C155.005 171.911 154.928 171.513 154.781 170.82C155.248 170.163 154.947 170.373 155.696 170.147C157.011 170.969 156.084 170.272 157.667 169.609C156.05 171.963 155.57 172.718 154.679 175.466Z"/><defs><linearGradient id="gradient_1" gradientUnits="userSpaceOnUse" x1="447.13644" y1="295.78973" x2="244.02322" y2="253.05234"><stop offset="0" stop-color="#E07A5F"/><stop offset="1" stop-color="#FFE987"/></linearGradient></defs><path fill="url(#gradient_1)" transform="scale(2 2)" d="M292.21 63.3075L294.963 63.8192L297.071 64.2579C301.901 64.7291 315.022 69.0351 319.828 70.701C354.199 82.6169 383.857 103.371 407.029 131.497C433.207 163.028 448.795 202 451.584 242.886C452.35 255.102 451.884 265.084 450.707 277.126C445.198 328.491 419.643 375.607 379.596 408.24C331.876 447.31 262.13 461.183 202.952 444.216C204.794 444.014 206.719 444.94 208.201 443.722C208.222 441.798 206.192 441.806 205.761 440.452C206.975 439.851 207.979 440.247 209.171 440.692C210.165 441.063 212.309 439.995 213.289 439.593C212.511 439.455 212.429 439.277 211.909 438.733C213.295 439.055 214.921 439.389 216.273 439.759L217.345 439.955C219.71 440.209 222.499 440.862 224.901 441.269C238.899 443.642 252.437 444.106 266.603 443.291C296.688 441.756 325.978 433.104 352.069 418.047C394.907 393.046 425.866 351.84 437.954 303.736C450.73 255.179 443.691 203.536 418.384 160.17C392.527 116.247 348.206 84.1864 298.686 72.5964C295.254 71.793 291.678 71.22 288.282 70.3386C287.379 70.261 286.466 70.0678 285.569 69.9078C283.004 69.5816 280.447 69.2004 277.899 68.7647C279.372 68.5739 280.246 68.6414 281.703 68.8455C283.249 69.0623 284.014 67.8674 285.735 67.2487L286.106 67.1173C285.482 66.2457 285.39 66.4189 285.388 65.5536C285.964 65.1346 290.456 64.1791 292.21 63.3075Z"/><path fill="#F8B065" transform="scale(2 2)" d="M285.569 69.9078L286.048 69.8148L286.256 69.478L286.728 69.5188L286.772 69.4366C285.703 69.1165 285.839 69.3467 285.402 68.6249C285.819 67.4003 286.876 67.3717 287.92 67.9267C288.262 68.7184 288.229 68.3139 287.96 69.185L287.356 69.7548C287.936 69.9885 287.735 69.9351 288.348 69.9914L288.282 70.3386C287.379 70.261 286.466 70.0678 285.569 69.9078Z"/><path fill="#F8B065" transform="scale(2 2)" d="M216.273 439.759L217.345 439.955L217.199 440.408C216.253 441.204 215.274 440.8 214.519 439.936L216.273 439.759Z"/><path fill="#F8B065" transform="scale(2 2)" d="M294.963 63.8192L297.071 64.2579C296.09 64.8832 295.373 65.0032 294.275 64.5157L294.261 64.1196L294.963 63.8192Z"/><path fill="#C97031" transform="scale(2 2)" d="M242.362 83.2066C249.94 82.1908 260.307 82.385 267.969 82.9441C301.439 85.1919 333.527 97.146 360.31 117.344C423.427 165.606 448.713 253.779 414.255 326.74C412.969 329.463 411.86 332.375 410.119 334.824C408.42 337.226 403.956 336.021 403.98 333.014C403.995 331.109 404.989 329.082 405.764 327.376C410.197 317.695 413.801 307.656 416.54 297.367C431.116 240.988 415 181.098 374.099 139.647C354.613 119.934 330.52 105.389 303.999 97.3276C297.965 95.5218 291.215 94.0909 285.076 92.3495C277.244 90.1282 267.703 90.3923 259.648 89.972C253.521 89.8199 247.183 90.681 241.171 90.7809C240.303 90.2584 240.209 90.4573 239.174 90.7048L239.425 89.8515C237.435 88.0865 238.47 87.7214 237.189 85.6411C237.257 84.7636 237.111 85.1532 237.681 84.4449C239.782 83.5196 240.685 84.588 242.362 83.2066Z"/><path fill="#C97031" transform="scale(2 2)" d="M217.732 416.913C258.002 427.149 306.203 419.187 341.825 398.105C360.176 387.336 376.104 372.89 388.607 355.673C390.169 353.559 393.976 347.524 397.072 348.339C403.382 350 395.856 359.007 393.862 361.644C354.203 414.076 280.33 440.951 216.299 424.437C216.066 420.428 213.412 420.539 217.732 416.913Z"/><path fill="#F8B065" transform="scale(2 2)" d="M62.3906 246.343C68.8596 245.373 67.4569 249.682 67.6805 254.424C67.7728 256.383 67.6803 258.449 67.6964 260.419C68.1595 293.29 77.4105 325.438 94.4895 353.527C98.4676 360.075 102.522 365.922 107.335 371.856C109.665 374.889 112.327 377.66 114.563 380.763C116.62 383.616 115.363 385.089 112.964 386.919C110.226 387.128 106.138 382.612 104.484 380.645C78.6012 349.256 63.2241 310.535 60.5208 269.941C60.1472 263.825 59.78 257.226 60.1753 251.085C60.3228 248.794 60.7111 247.715 62.3906 246.343Z"/><path fill="#F8B065" transform="scale(2 2)" d="M277.899 68.7647C275.169 68.6363 271.569 67.7757 268.631 67.6463C248.574 66.6564 228.482 68.6851 209.027 73.6646C201.073 75.7139 193.251 78.2454 185.604 81.2449C181.082 83.0441 176.625 85.0024 172.241 87.116C169.792 88.2877 165.483 91.1069 162.766 90.9399C161.356 90.8532 160.538 87.3535 160.832 86.027C161.513 82.9574 165.006 82.3998 167.372 81.0452C173.082 78.3243 178.904 75.8016 184.787 73.4891C205.191 65.992 226.685 60.3729 248.497 59.5454C253.367 59.3624 257.205 59.7349 261.973 59.9476C272.356 60.4107 281.979 61.3841 292.21 63.3075C290.456 64.1791 285.964 65.1346 285.388 65.5536C285.39 66.4189 285.482 66.2457 286.106 67.1173L285.735 67.2487C284.014 67.8674 283.249 69.0623 281.703 68.8455C280.246 68.6414 279.372 68.5739 277.899 68.7647Z"/><path fill="#F8B065" transform="scale(2 2)" d="M216.299 424.437C182.863 417.975 148.956 396.948 126.247 371.79C121.291 366.097 116.305 360.033 112.229 353.682C110.431 350.881 113.724 345.419 117.496 348.895C119.955 351.162 121.381 353.527 123.216 356.265C128.007 363.415 134.003 369.702 140.032 375.807C157.534 393.403 179.899 404.701 203.241 412.442C207.956 414.006 212.913 415.738 217.732 416.913C213.412 420.539 216.066 420.428 216.299 424.437Z"/><path fill="#F8B065" transform="scale(2 2)" d="M202.952 444.216C194.769 442.298 184.306 438.471 176.605 435.03C164.847 429.778 132.132 411.632 125.46 401.761C124.817 400.809 124.413 399.779 124.702 398.624C124.924 397.738 125.671 396.85 126.467 396.423C127.469 395.885 128.695 395.919 129.732 396.341C132.158 397.328 136.358 401.825 138.753 403.614C142.99 406.779 147.242 409.979 151.719 412.8C159.512 417.708 167.891 421.829 176.167 425.853C179.998 427.715 183.85 429.856 187.818 431.385C195.782 434.452 203.713 436.477 211.909 438.733C212.429 439.277 212.511 439.455 213.289 439.593C212.309 439.995 210.165 441.063 209.171 440.692C207.979 440.247 206.975 439.851 205.761 440.452C206.192 441.806 208.222 441.798 208.201 443.722C206.719 444.94 204.794 444.014 202.952 444.216Z"/><path fill="#F8B065" transform="scale(2 2)" d="M241.171 90.7809C239.766 91.4323 232.826 91.8159 230.859 92.3739C229.129 92.8647 225.873 93.1524 223.898 93.5705C218.312 94.7529 212.745 96.0742 207.274 97.7129C202.232 99.2235 197.186 101.079 192.353 103.167C187.562 105.248 182.666 108.407 177.58 109.732C176.469 109.934 175.355 109.608 174.466 109.022C173.061 108.306 172.536 104.474 173.856 103.625C191.958 91.9843 221.804 84.2602 242.362 83.2066C240.685 84.588 239.782 83.5196 237.681 84.4449C237.111 85.1532 237.257 84.7636 237.189 85.6411C238.47 87.7214 237.435 88.0865 239.425 89.8515L239.174 90.7048C240.209 90.4573 240.303 90.2584 241.171 90.7809Z"/><path fill="#F8B065" transform="scale(2 2)" d="M88.9722 219.015C90.6021 219.261 90.7484 219.406 92.2319 220.286C92.6583 221.553 93.0448 223.126 92.8341 224.412C90.4617 238.645 87.8543 252.805 89.6614 267.308C90.3035 272.461 91.7665 276.407 86.9172 279.116C81.1101 279.005 81.8011 269.593 81.748 265.408C81.6522 257.852 81.1368 222.617 88.9722 219.015Z"/><path fill="#F8B065" transform="scale(2 2)" d="M144.327 95.2482C144.637 95.2366 144.942 95.2234 145.251 95.2489C146.307 95.3358 148.008 95.7869 148.641 96.6965C149.011 97.2274 149.064 97.8997 148.94 98.5188C148.186 102.283 133.395 113.399 129.66 115.823C127.784 116.261 126.75 115.374 125.518 113.972C125.145 113.547 124.921 112.317 125.183 111.838C128.31 106.122 138.708 98.0634 144.327 95.2482Z"/></svg>