<?xml version="1.0" encoding="utf-8" ?><svg xmlns="http://www.w3.org/2000/svg" xmlns:xlink="http://www.w3.org/1999/xlink" width="1024" height="1024" viewBox="0 0 1024 1024"><defs><linearGradient id="gradient_0" gradientUnits="userSpaceOnUse" x1="317.022" y1="348.34134" x2="108.68735" y2="169.49055"><stop offset="0" stop-color="#FFBF28"/><stop offset="1" stop-color="#FB9C23"/></linearGradient></defs><path fill="url(#gradient_0)" transform="scale(2 2)" d="M235.054 92.9656C228.109 93.2399 221.021 93.5604 214.148 92.4021C212.934 92.1975 208.951 91.0716 209.096 89.455C209.567 84.1969 218.272 85.2447 222.039 85.2414L241.367 85.3598C259.666 85.31 277.96 85.3032 296.265 85.287C298.903 84.6054 305.163 88.3263 301.789 90.9995C297.564 94.3474 282.633 93.0642 277.881 92.9754C277.797 94.2841 277.779 95.7186 277.781 97.0341C277.791 102.977 277.151 109.065 277.283 114.994C290.134 114.943 306.765 111.537 319.256 116.556C321.707 124.449 317.546 140.234 324.764 147.475C329.841 152.568 340.322 152.057 346.913 152.026L358.658 151.991C374.89 152.003 387.458 153.391 399.655 165.367C414.185 179.633 414.38 192.546 414.287 211.395L414.25 228.697L414.268 285.62C414.491 305.051 414.543 324.483 414.421 343.915L414.451 359.869C414.479 367.197 415.344 376.794 409.812 382.507C403.743 388.775 393.848 388.524 385.763 388.774C385.004 404.294 385.968 419.891 385.623 435.404C385.551 438.66 383.278 440.904 380.063 440.901C365.097 440.891 350.117 441.507 335.16 441.068C333.538 441.02 331.86 441.052 330.234 441.048L281.32 440.993L173.737 441.009L147.646 441.008C142.57 441.017 131.871 441.675 127.644 440.298C127.268 439.471 126.967 438.42 126.685 437.541C126.361 435.939 126.332 428.803 126.302 426.928C126.251 425.868 126.289 424.512 126.287 423.426C126.135 421.473 126.247 417.992 126.252 415.88L126.312 401.394C126.177 397.205 125.948 391.89 126.508 387.795C117.442 387.531 105.905 389.197 100.716 379.663C98.6389 375.849 98.2744 373.129 98.1476 368.826C97.9181 361.034 98.0702 352.951 98.0668 345.166L98.031 299.455L98.0184 236.562L97.9461 214.599C97.8415 194.481 96.8881 179.07 112.856 164.006C129.37 148.428 147.788 152.645 168.303 151.952C173.346 151.782 178.74 151.205 183.248 148.796C192.18 144.235 192.077 132.627 191.768 123.912C191.066 114.782 193.409 114.106 202.097 114.346C210.582 114.58 219.38 115.051 227.926 114.728C229.636 114.664 233.35 114.984 234.785 114.279C234.965 112.586 234.799 108.196 234.795 106.329C234.787 101.873 234.873 97.4177 235.054 92.9656ZM107.873 377.987C111.989 378.784 115.132 379.503 119.402 379.869C121.323 380.407 133.857 379.36 134.221 380.951C135.429 386.235 134.008 392.596 134.226 397.932C134.712 409.849 134.132 421.708 134.22 433.581C140.624 432.803 152.035 433.131 158.813 433.127L201.614 433.126L255.451 433.153L273.287 433.16C276.155 433.163 280.332 433.067 283.075 433.251C285.257 433.028 291.504 433.195 293.93 433.199L315.923 433.225C336.514 433.234 356.826 432.793 377.463 433.251L377.413 432.751C376.817 427.225 377.14 420.784 377.095 415.15C377.012 404.683 376.736 395.037 377.854 384.584C381.876 378.379 396.674 383.314 402.214 378.086C407.081 373.492 406.263 365.276 406.228 359.224L406.171 343.897C406.048 322.787 406.074 301.677 406.248 280.568L406.233 226.444C406.224 220.527 406.212 214.604 406.2 208.661C406.173 195.221 405.468 182.414 395.365 172.288C385.87 162.771 374.434 159.316 361.205 159.966C352.891 160.117 336.615 160.904 329.162 158.602C325.807 157.597 322.75 155.785 320.259 153.324C312.835 146.005 311.999 133.979 312.003 124.129L312.01 122.069C306.722 121.966 301.563 122.187 296.294 122.187L261.764 122.087C241.506 122.085 219.943 121.824 199.771 122.302C200.58 129.898 199.059 145.066 193.742 150.709C176.311 169.211 146.698 152.616 125.556 164.934C102.449 178.397 106.367 200.116 106.203 222.993L106.073 288.476C106.068 303.421 106.054 318.363 105.997 333.308C105.942 347.979 104.384 363.66 107.873 377.987ZM242.438 114.873C248.388 114.658 254.652 114.964 260.629 114.848C263.276 114.796 267.183 114.953 269.717 114.47C269.957 112.911 269.61 108.26 269.602 106.312C269.585 101.928 269.526 97.5667 269.792 93.1755C260.656 93.4094 251.824 93.0223 242.761 92.9612C242.917 99.582 243.18 108.297 242.438 114.873Z"/><path fill="#FF581F" transform="scale(2 2)" d="M230.236 214.323C231.595 214.189 232.63 213.957 233.759 214.73C236.149 218.942 226.726 225.343 225.315 228.866C220.428 241.066 228.682 245.366 235.006 253.539C239.572 259.441 238.467 268.562 233.694 273.931C225.651 282.887 219.254 290.033 229.283 300.972C232.886 304.903 237.111 307.202 231.153 311.009C229.739 311.375 228.592 310.811 227.434 310.033C216.425 302.63 211.32 286.959 221.184 276.434C223.074 274.397 224.926 272.545 226.634 270.349C230.622 265.427 229.567 258.731 225.507 254.231C221.581 249.881 217.369 247.073 216.532 240.75C215.196 230.659 218.558 216.347 230.236 214.323Z"/><path fill="#FF581F" transform="scale(2 2)" d="M270.102 214.09C271.378 214.288 271.94 214.32 272.932 215.244C275.546 217.679 271.339 221.181 269.483 222.774C264.655 226.917 264.05 230.931 263.648 237.126C263.287 242.674 267.119 244.807 270.469 248.403C273.674 251.865 275.251 254.483 276.256 259.058C279.558 274.089 264.283 277.8 263.651 291.462C263.532 296.306 267.539 299.751 270.709 302.777C273.544 305.484 274.773 307.966 271.444 310.938C270.83 311.487 270.705 311.376 269.932 311.347C262.72 308.654 257.498 301.367 256.015 293.953C254.75 287.63 256.219 281.936 260.39 277.04C264.138 272.642 268.615 268.586 268.356 262.309C268.769 255.215 261.134 252.158 258.507 247.567C253.608 239.003 255.237 224.089 263.144 217.61C265.606 215.593 267.105 214.674 270.102 214.09Z"/><path fill="#FFBE24" transform="scale(2 2)" d="M286.38 407.107C288.833 407.034 291.338 407.036 293.797 407.115C310.988 407.666 328.289 406.41 345.43 407.885C348.433 407.773 349.158 410.532 348.409 413.019C347.678 415.448 343.864 415.533 342.062 415.51C324.912 415.475 307.755 415.776 290.608 415.463C286.952 415.396 282.771 415.516 279.207 414.807C277.822 408.442 280.464 407.368 286.38 407.107Z"/><path fill="#FF581F" transform="scale(2 2)" d="M252.594 159.114C259.879 158.972 276.594 158.664 284.052 160.599C284.805 160.863 285.714 162.993 285.65 163.65C285.146 168.854 272.112 167.809 269.005 167.812C266.232 167.827 263.459 167.872 260.687 167.947C255.632 167.992 230.072 168.64 227.621 166.186C227.058 165.623 226.962 164.83 226.921 164.078C226.859 162.95 227.073 162.047 227.881 161.221C228.875 160.203 230.351 159.758 231.71 159.505C234.622 158.964 237.812 159.205 240.769 159.216C244.711 159.255 248.653 159.22 252.594 159.114Z"/><path fill="#FF581F" transform="scale(2 2)" d="M174.822 294.282C175.467 294.238 176.289 294.185 176.904 294.42C177.562 294.671 178.015 295.12 178.25 295.781C179.643 299.705 179.342 351.024 177.749 353.325C177.179 354.149 175.932 354.437 175.038 354.706C174.433 354.443 173.826 354.181 173.238 353.883C172.477 353.496 171.974 352.926 171.737 352.098C170.129 346.475 170.08 297.964 171.835 295.587C172.482 294.71 173.838 294.506 174.822 294.282Z"/><path fill="#FFBE24" transform="scale(2 2)" d="M336.091 293.267C338.067 293.162 338.488 293.3 340.338 294.076C341.022 296.894 340.848 301.024 340.869 303.995L340.925 317.71C340.939 326.948 340.998 336.202 340.865 345.437C340.812 349.056 340.769 349.791 337.412 351.036C336.433 351.032 333.827 350.451 333.686 349.203C331.952 333.849 332.759 317.927 332.966 302.461C332.996 300.207 332.927 296.698 333.684 294.641C334.4 293.816 335.053 293.675 336.091 293.267Z"/><path fill="#FFBE24" transform="scale(2 2)" d="M248.663 407.115C251.745 407.03 262.374 406.702 263.839 408.484C270.942 417.127 254.126 415.51 251.468 415.508L232.375 415.492C228.801 415.475 219.115 416.293 216.138 414.465C213.596 412.905 215.225 407.851 218.903 407.563C228.751 406.793 238.736 407.532 248.663 407.115Z"/><path fill="#FF581F" transform="scale(2 2)" d="M167.401 407.349C172.306 406.787 196.682 407.173 200.778 408.514C204.552 412.474 199.58 414.868 195.992 415.462C190.801 415.584 164.668 416.375 161.762 414.207C161.208 413.793 161.014 413.338 160.907 412.668C160.747 411.663 161.135 410.159 161.743 409.347C162.988 407.683 165.506 407.544 167.401 407.349Z"/><path fill="#FFBE24" transform="scale(2 2)" d="M406.248 280.568L406.526 280.949C407.072 279.849 406.603 235.338 406.835 229.753C406.874 233.558 406.688 264.52 407.137 265.184L407.513 264.861C406.925 251.964 406.833 237.715 408.576 224.913C408.622 224.579 410.281 224.684 410.353 224.069C411.26 222.583 411.558 216.678 411.495 215.137C412.073 215.853 411.813 216.524 411.828 217.714C411.972 217.222 411.924 217.471 411.976 216.965C412.305 216.731 412.113 216.806 412.565 216.776C412.55 216.879 412.536 216.983 412.522 217.086C412.149 220.006 412.909 223.089 412.978 225.984C413.074 230.053 413.349 234.355 413.373 238.406C413.464 253.717 413.382 269.038 413.431 284.347C413.431 284.347 414.222 285.549 414.268 285.62C414.491 305.051 414.543 324.483 414.421 343.915L414.451 359.869C414.479 367.197 415.344 376.794 409.812 382.507C403.743 388.775 393.848 388.524 385.763 388.774C385.004 404.294 385.968 419.891 385.623 435.404C385.551 438.66 383.278 440.904 380.063 440.901C365.097 440.891 350.117 441.507 335.16 441.068C333.538 441.02 331.86 441.052 330.234 441.048L281.32 440.993L281.552 440.771L281.557 440.509C277.576 440.344 272.953 440.573 268.885 440.506C256.385 440.298 243.386 440.815 230.928 440.467L230.972 439.735C229.883 439.723 225.161 439.12 223.978 438.528C223.52 438.298 223.355 437.762 223.347 437.244C223.878 436.221 224.28 436.586 224.838 435.761L224.241 435.066L224.445 434.713C225.471 434.549 226.945 434.641 228.02 434.667L228.463 434.24L228.409 433.967L227.704 433.835L227.786 433.601C229.456 433.315 238.83 433.489 241.204 433.492L271.794 433.518C274.46 433.52 280.806 433.821 283.075 433.251C285.257 433.028 291.504 433.195 293.93 433.199L315.923 433.225C336.514 433.234 356.826 432.793 377.463 433.251L377.413 432.751C376.817 427.225 377.14 420.784 377.095 415.15C377.012 404.683 376.736 395.037 377.854 384.584C381.876 378.379 396.674 383.314 402.214 378.086C407.081 373.492 406.263 365.276 406.228 359.224L406.171 343.897C406.048 322.787 406.074 301.677 406.248 280.568Z"/><path fill="#FF581F" transform="scale(2 2)" d="M126.312 401.394C127.621 403.22 127.067 422.169 126.98 425.572C126.107 423.618 127.421 425.167 126.287 423.426C126.135 421.473 126.247 417.992 126.252 415.88L126.312 401.394Z"/><path fill="#FF581F" transform="scale(2 2)" d="M126.302 426.928C127.329 428.358 127.351 435.853 126.685 437.541C126.361 435.939 126.332 428.803 126.302 426.928Z"/><path fill="#FE491D" transform="scale(2 2)" d="M373.358 69.2463C379.418 69.0671 379.041 73.0404 376.208 76.961C373.918 80.1311 370.773 82.3715 368.565 85.4559C372.876 90.2402 375.377 90.7617 378.761 96.8905C376.834 101.612 371.585 104.729 369.028 109.058C368.755 109.056 368.91 110.044 369.009 110.152C372.401 113.857 376.58 116.731 378.369 121.664C377.087 125.999 373.884 128.784 369.83 130.495C362.961 131.73 367.061 123.926 368.881 121.243C362.385 114.584 354.068 110.733 363.8 102.207C365.987 100.29 366.894 99.0181 369.559 97.3047C361.626 89.8075 353.273 85.4786 365.097 76.3149C368.053 74.0233 369.515 71.1342 373.358 69.2463Z"/></svg>