<?xml version="1.0" encoding="utf-8" ?><svg xmlns="http://www.w3.org/2000/svg" xmlns:xlink="http://www.w3.org/1999/xlink" width="1024" height="1024" viewBox="0 0 1024 1024"><defs><linearGradient id="gradient_0" gradientUnits="userSpaceOnUse" x1="281.95792" y1="393.11786" x2="422.03824" y2="333.20767"><stop offset="0" stop-color="#FF8B28"/><stop offset="1" stop-color="#FB8627"/></linearGradient></defs><path fill="url(#gradient_0)" transform="scale(2 2)" d="M352.48 284.653C363.145 283.246 363.336 293.481 363.242 300.936C373.298 301.416 381.257 306.392 389.221 311.973C391.057 309.97 392.883 307.869 394.947 306.104C402.161 299.936 412.913 305.731 414.143 314.425C415.105 321.232 409.351 324.262 405.736 328.909L405.471 329.254C411.268 336.07 413.243 343.036 415.392 351.499C420.134 352.157 427.187 350.739 430.606 353.583C434.214 356.584 434.013 369.834 430.706 373.002C427.813 375.774 419.462 374.743 415.392 374.85C412.556 387.375 408.924 389.499 405.471 398.821C409.952 402.494 418.619 409.129 413.288 415.403C402.153 428.509 399.602 424.162 389.221 414.877C379.349 420.26 374.755 422.806 363.242 425.426C363.309 434.449 365.851 442.855 354.049 442.835L353.358 442.84C336.911 442.929 339.26 439.802 339.349 425.426C328.759 423.035 323.711 420.437 314.611 414.877C307.094 422.668 302.601 428.256 293.174 417.333C286.504 409.604 291.269 404.105 297.679 398.821C293.44 389.374 290.151 386.291 288.65 374.85C279.636 375.611 270.526 375.918 270.372 364.189C270.189 350.147 278.268 351.345 288.65 351.499C289.509 343.343 293.048 335.893 297.679 329.254L292.555 324.153C283.589 315.093 292.5 303.377 301.793 303.717C306.808 303.9 310.527 308.49 313.614 311.973C319.968 306.885 331.292 301.477 339.349 300.936C339.575 289.812 339.405 284.358 352.48 284.653ZM278.307 359.255C277.974 362.389 278.02 364.314 278.307 367.461C299.722 367.43 293.398 365.61 299.891 385.658C300.795 388.447 307.78 397.84 307.15 399.337C305.425 403.434 300.322 405.76 297.679 410.956C299.344 412.631 300.97 414.255 302.685 415.884C304.556 413.81 311.93 405.639 314.105 405.431C323.101 408.993 327.61 415.802 339.898 417.439C351.044 418.923 347.498 423.737 347.508 435.229L355.268 435.229C355.219 416.424 353.038 420.566 366.958 416.57C389.533 410.09 383.239 397.622 402.042 415.884C403.783 413.828 404.85 412.76 406.847 410.956C391.424 395.182 397.193 401.144 403.531 384.897C410.95 365.879 403.778 367.55 425.693 367.461C425.686 364.795 425.627 361.9 425.693 359.255C402.843 362.22 411.054 356.192 403.986 341.554C394.511 321.929 393.945 332.248 406.847 315.666C405.444 313.536 404.081 312.493 402.042 311.03L401.638 311.313C385.759 322.567 396.153 324.313 380.667 315.235C376.086 312.512 371.284 310.719 366.219 309.187C352.974 305.184 355.145 309.661 355.268 292.437C352.37 292.31 350.444 292.301 347.508 292.437C348.003 310.123 348.989 305.068 337.332 309.045C331.927 310.576 326.494 312.938 321.632 315.635C319.348 316.902 315.314 321.057 313.111 320.991C307.429 320.819 303.261 306.026 297.081 314.396C293.622 319.081 306.122 323.083 306.561 328.44C304.979 334.17 299.053 340.414 296.678 349.369C292.928 363.503 294.326 358.851 278.307 359.255Z"/><path fill="#FB9927" transform="scale(2 2)" d="M349.695 322.372C372.058 321.349 391.033 338.613 392.12 360.972C393.207 383.332 375.997 402.355 353.641 403.506C331.194 404.662 312.077 387.367 310.985 364.918C309.894 342.468 327.243 323.4 349.695 322.372ZM355.393 395.412C373.258 393.251 385.988 377.014 383.823 359.149C381.658 341.284 365.417 328.558 347.553 330.729C329.695 332.898 316.975 349.131 319.14 366.989C321.304 384.848 337.534 397.572 355.393 395.412Z"/><path fill="#FB9927" transform="scale(2 2)" d="M202.961 121.63C208.122 118.869 214.145 116.768 219.728 114.996C316.286 84.3377 406.205 172.722 380.235 269.969C378.241 277.454 371.12 273.179 372.337 268.566C375.064 258.227 376.337 248.662 377.017 238.044C372.096 238.07 357.942 239.949 357.502 233.967C357.028 227.527 372.837 229.735 377.017 229.736C375.122 211.014 367.502 180.124 354.049 165.819L353.747 166.085C351.48 168.095 344.198 177.073 341.336 176.363C331.345 173.883 345.586 162.831 349.117 159.544C329.397 134.325 293.612 117.348 262.005 117.269C262.023 120.92 263.745 135.17 259.099 135.939C251.05 137.271 254.051 122.252 253.465 117.269C240.061 117.445 227.024 120.546 214.578 125.348C212.654 126.09 205.667 129.54 204.523 129.857C192.248 137.392 174.142 146.964 166.997 159.544C168.948 161.73 178.186 169.308 177.95 171.49C176.72 182.837 164.712 168.881 161.456 165.819C149.625 183.674 138.27 208.661 139.439 230.766C143.261 230.778 152.754 230.185 155.957 230.78C158.681 231.287 159.905 235.186 157.976 237.182C155.451 239.794 143.222 238.798 139.439 238.774C139.58 253.161 142.828 266.67 148.781 279.681C152.152 287.048 144.364 291.022 140.966 282.696C115.341 223.282 142.852 146.55 202.961 121.63Z"/><path fill="#F1BF25" transform="scale(2 2)" d="M202.961 121.63C208.122 118.869 214.145 116.768 219.728 114.996C316.286 84.3377 406.205 172.722 380.235 269.969C378.241 277.454 371.12 273.179 372.337 268.566C375.064 258.227 376.337 248.662 377.017 238.044C372.096 238.07 357.942 239.949 357.502 233.967C357.028 227.527 372.837 229.735 377.017 229.736C375.122 211.014 367.502 180.124 354.049 165.819L353.747 166.085C351.48 168.095 344.198 177.073 341.336 176.363C331.345 173.883 345.586 162.831 349.117 159.544C329.397 134.325 293.612 117.348 262.005 117.269C262.023 120.92 263.745 135.17 259.099 135.939C251.05 137.271 254.051 122.252 253.465 117.269C240.061 117.445 227.024 120.546 214.578 125.348C212.654 126.09 205.667 129.54 204.523 129.857C204.343 129.644 204.417 129.777 204.347 129.437C211.174 125.159 247.564 113.48 254.092 116.815C254.669 118.883 254.279 130.891 254.475 133.822L254.5 134.16C265.999 140.976 259.796 120.395 261.869 116.817C265.277 115.123 285.525 120.997 288.094 117.807C287.886 112.162 277.843 110.837 273.846 111.032C272.033 111.12 272.434 111.984 269.02 111.481L269.013 111.31C270.392 110.866 271.043 110.968 272.48 110.996C260.189 106.86 229.866 112.373 218.017 116.094C215.11 117.008 204.6 121.533 202.961 121.63Z"/><defs><linearGradient id="gradient_1" gradientUnits="userSpaceOnUse" x1="242.58549" y1="365.96634" x2="86.070702" y2="380.8349"><stop offset="0" stop-color="#FAA22C"/><stop offset="1" stop-color="#FF7A36"/></linearGradient></defs><path fill="url(#gradient_1)" transform="scale(2 2)" d="M162.94 314.518C157.703 311.154 157.768 307.526 164.149 305.877C168.45 304.765 208.188 296.307 209.48 296.535C211.925 296.966 216.626 304.993 218.097 307.026L230.116 323.608C233.168 327.844 237.906 333.252 240.191 337.786C241.682 340.742 238.137 344.714 235.167 343.334C233.108 342.378 214.768 316.038 211.905 311.973L211.914 410.966C211.918 436.701 205.908 443.974 179.656 443.974L97.1864 443.95C94.8757 443.935 90.9103 444.052 88.7465 443.958C89.7954 441.877 102.643 444.707 103.822 436.79C105.817 436.044 107.584 437.218 110.843 436.015C112.935 435.945 114.603 435.937 116.692 436.015L116.667 418.404C116.664 415.317 116.534 412.217 116.852 409.221C117.221 405.742 122.563 404.927 124.044 407.519C125.325 409.76 124.799 415.98 124.779 418.739L124.758 436.015L158.979 436.015L158.967 408.382C158.962 404.207 158.827 400.007 159.006 395.845C159.21 391.123 166.739 390.873 166.919 395.853C167.075 400.159 167.008 404.447 167.007 408.756L166.997 436.015L179.686 436.038C196.374 436.05 203.851 434.377 203.829 416.034L203.803 314.518C196.514 321.606 190.778 330.46 183.713 337.658C181.644 339.765 174.776 336.718 179.311 330.72C185.315 322.78 193.178 315.199 198.668 306.989L174.205 312.022C170.979 312.697 165.973 314.032 162.94 314.518Z"/><path fill="#FB9927" transform="scale(2 2)" d="M256.235 162.272C264.86 161.673 261.716 175.248 261.717 182.544L261.709 217.143L262.169 217.284C267.223 218.844 271.678 222.05 273.999 226.83C285.429 250.369 250.7 265.829 239.581 242.669C237.149 237.605 237.922 232.713 239.817 227.636C234.93 223.321 230.36 218.456 225.835 213.75C218.322 206.171 210.363 198.147 203.036 190.346C200.709 187.87 201.164 177.335 213.853 190.18L225.69 202.372C232.067 208.922 238.599 214.787 244.55 221.789C246.999 219.207 249.798 217.294 253.465 217.143L253.462 179.611C253.459 173.89 251.368 165.019 256.235 162.272ZM258.846 246.028C264.728 245.115 268.767 239.62 267.882 233.733C266.997 227.847 261.522 223.782 255.631 224.638C249.7 225.5 245.601 231.021 246.492 236.948C247.383 242.875 252.924 246.947 258.846 246.028Z"/><path fill="#FB9927" transform="scale(2 2)" d="M158.979 98.6633C162.286 98.72 167.047 92.2981 170.466 93.0226C175.516 97.3237 164.844 103.278 163.578 104.761L163.737 105.115C155.669 111.691 149.104 116.532 141.688 124.17C96.2853 170.938 83.1942 242.401 111.255 301.3C112.76 304.459 115.726 308.284 115.875 311.637C116.035 315.23 110.435 316.725 108.506 313.663C106.637 311.147 106.088 309.444 104.82 306.765C74.4482 242.61 87.5976 165.966 138.482 116.127C145.321 109.429 151.988 104.745 158.979 98.6633Z"/><path fill="#F1BF25" transform="scale(2 2)" d="M158.979 98.6633C224.498 53.2814 310.795 56.8501 370.493 109.762C374.354 113.29 378.592 116.723 381.831 120.844C383.911 123.491 381.141 128.638 377.488 126.523C373.14 124.004 369.936 119.27 365.905 116.195C360.165 111.477 355.051 107.081 348.909 102.975C290.588 63.9901 221.067 66.7129 163.737 105.115L163.578 104.761C164.844 103.278 175.516 97.3237 170.466 93.0226C167.047 92.2981 162.286 98.72 158.979 98.6633Z"/><path fill="#F1BF25" transform="scale(2 2)" d="M394.058 139.52C400.709 139.083 412.371 166.329 414.796 172.335C427.417 203.582 429.882 239.582 422.794 272.512C421.99 276.246 421.446 282.753 417.583 284.653C412.215 285.155 412.988 279.542 413.838 276.199C424.896 232.753 417.731 184.542 392.762 147.083C390.464 143.636 390.294 141.807 394.058 139.52Z"/><path fill="#EE9024" transform="scale(2 2)" d="M88.7465 443.958C77.5446 441.936 68.3875 429.643 68.76 418.256C68.8576 415.273 68.7491 411.884 68.7484 408.808L68.7488 349.133C68.7507 341.841 68.6956 334.751 68.9806 327.337C69.1681 322.459 76.9422 317.501 76.8263 331.319L76.8029 410.518C76.7746 429.922 79.8806 436.006 100.061 436.025L110.843 436.015C107.584 437.218 105.817 436.044 103.822 436.79C102.643 444.707 89.7954 441.877 88.7465 443.958Z"/><path fill="#EE9024" transform="scale(2 2)" d="M169.382 350.756C185.27 351.175 148.716 381.626 145.746 384.545C142.744 387.494 140.078 384.608 137.76 382.19C131.27 375.421 123.959 368.82 118.007 361.574C114.141 365.224 97.6114 383.152 93.5633 384.31C82.2995 382.232 98.7017 369.565 101.343 366.875C103.671 364.504 114.637 351.155 117.879 351.741C120.34 352.186 140.154 372.918 142.682 376.175C147.692 371.948 164.899 352.466 169.382 350.756Z"/></svg>