<?xml version="1.0" encoding="utf-8" ?><svg xmlns="http://www.w3.org/2000/svg" xmlns:xlink="http://www.w3.org/1999/xlink" width="1024" height="1024" viewBox="0 0 1024 1024"><defs><linearGradient id="gradient_0" gradientUnits="userSpaceOnUse" x1="14.517871" y1="194.88129" x2="276.49619" y2="344.32602"><stop offset="0" stop-color="#FF9A02"/><stop offset="1" stop-color="#FF7709"/></linearGradient></defs><path fill="url(#gradient_0)" transform="scale(2 2)" d="M79.1154 113.315C62.8125 109.142 65.7751 89.438 79.1154 87.8907L80.7349 88.1737L80.8078 88.4072C75.2385 90.354 66.6505 92.2716 68.2818 101.819C72.6576 96.0938 71.7036 105.905 77.1521 105.407L77.4462 105.483C80.1208 106.151 83.8751 105.917 85.5654 107.365C87.5315 111.921 86.3027 145.013 86.7703 145.667L86.7703 179.227C95.8992 179.209 107.59 178.435 115.995 181.056C126.163 184.228 129.252 191.572 141.105 191.713C161.923 192.262 164.004 180.677 180.667 179.78C207.564 178.331 207.711 192.455 224.85 191.996C231.591 191.977 238.453 191.677 244.268 187.397C253.847 180.347 259.835 180.536 271.25 179.227C271.223 174.55 269.026 157.019 277.664 162.037C279.824 163.292 279.208 169.622 279.183 172.033L279.156 182.481C279.2 209.084 279.585 228.693 264.377 252.547C262.003 256.27 256.329 253.508 257.137 249.79C257.686 247.266 261.083 243.327 262.158 240.814C271.073 222.427 271.271 207.828 271.25 187.625C260.894 187.202 256.219 188.157 248.285 194.281C239.056 201.404 216.971 201.499 207.074 195.41C200.517 191.289 197.756 187.71 189.382 186.959C167.986 184.886 165.498 199.877 145.282 199.438C137.76 199.275 129.757 198.569 123.398 193.875C110.429 184.517 102.461 186.738 86.7703 186.763C86.6978 240.714 95.1541 254.822 139.599 283.882L149.416 290.217C153.951 293.125 155.069 293.364 157.345 298.323C164.804 314.576 185.487 319.245 197.415 304.453C199.522 301.841 201.945 296.846 204.108 295.044C207.966 291.831 212.967 288.672 217.065 285.665L233.088 274.023C237.179 271.004 241.503 267.065 246.162 265.153C248.2 264.316 251.416 269.636 249.104 271.714C246.591 273.972 243.692 275.911 240.961 277.901L221.379 292.154C217.766 294.737 213.255 297.821 209.874 300.535C202.149 306.734 202.049 319.089 183.011 320.873L183.011 412.088C204.79 412.808 197.942 410.804 209.491 432.89L214.46 442.334C215.944 445.094 219.116 448.469 215.993 451.235C210.783 455.848 208.094 447.33 205.834 443.615C201.337 436.226 198.138 427.281 193.39 420.07C183.928 419.872 174.262 420.21 164.766 420.07C161.822 426.516 158.384 432.84 155.175 439.292C153.182 443.3 146.825 460.169 142.023 448.748C142.785 445.866 158.007 415.226 160.098 413.045C161.666 411.41 172.412 412.072 175.175 412.088L175.175 320.873C151.855 316.119 154.411 302.778 147.47 298.126C133.429 288.715 117.529 280.717 105.556 268.696C84.8923 247.949 79.0592 228.486 79.1026 200.711L79.1154 113.315Z"/><defs><linearGradient id="gradient_1" gradientUnits="userSpaceOnUse" x1="265.23358" y1="302.76385" x2="417.67343" y2="405.11288"><stop offset="0" stop-color="#FFBB04"/><stop offset="1" stop-color="#FF8211"/></linearGradient></defs><path fill="url(#gradient_1)" transform="scale(2 2)" d="M394.383 440.917C315.183 482.974 226.621 410.74 252.607 328.145C269.341 274.956 325.601 248.399 377.751 265.023C381.133 266.486 386.859 266.985 388.928 270.269C390.879 273.433 387.072 276.935 384.102 275.641C337.418 255.306 281.741 275.712 262.608 323.09C235.006 391.441 298.956 461.894 369.107 442.992C370.163 442.707 371.69 442.301 372.741 442.129C376.833 443.02 375.874 440.516 375.814 443.368C383.52 444.962 393.185 439.558 394.338 440.177L394.383 440.917Z"/><path fill="#FFBC08" transform="scale(2 2)" d="M348.791 121.467C366.194 121.547 379.245 120.43 392.467 134.955C403.799 147.404 403.265 158.649 403.239 174.301L403.25 212.061C403.268 215.624 403.426 219.308 403.24 222.845C407.245 217.387 425.496 199.524 428.698 198.384C431.902 197.243 434.918 201.379 433.068 204.088C429.5 209.316 413.559 222.526 408.145 227.822C401.062 234.75 400.72 238.784 392.84 230.982C388.889 227.071 384.934 222.415 380.453 219.152L380.048 218.86C376.267 212.8 358.447 202.653 369.818 198.508C373.949 200.509 391.134 218.643 395.266 222.845C395.517 220.079 395.289 216.091 395.281 213.172L395.276 172.346C395.329 136.742 382.441 129.019 347.877 129.055L323.409 129.056C320.663 129.058 315.391 129.548 313.031 129.186C307.864 128.394 308.264 123.952 312.268 121.467C324.291 121.298 336.733 121.465 348.791 121.467Z"/><path fill="#FFBC08" transform="scale(2 2)" d="M334.363 423.991L333.805 423.909C297.159 418.464 272.391 381.605 277.877 345.699C278.451 341.941 283.543 319.268 289.909 322.039C294.823 324.621 291.108 329.653 289.645 333.167C276.462 364.851 291.967 401.027 324.065 413.334C328.566 415.059 333.107 415.698 337.593 417.246L337.759 417.582L338.162 417.568C338.798 417.55 341.614 417.566 341.954 417.72C344.344 418.802 357.98 416.258 358.875 416.612C359.628 423.112 370.879 418.509 372.438 418.916C360.17 423.208 351.697 425.68 338.524 424.006C337.865 423.922 334.674 423.541 334.372 423.624L334.363 423.991Z"/><path fill="#FF7B02" transform="scale(2 2)" d="M79.1154 87.8907C84.2037 87.5963 91.572 87.887 96.8395 87.8915L181.108 87.8378C187.741 88.0715 187.766 95.6294 181.156 95.8688C176.998 96.0194 172.804 95.9506 168.642 95.9439L146.194 95.9224C124.686 95.925 102.788 96.1546 81.3146 95.9303C76.4622 96.0258 73.3598 100.781 77.2791 104.414C82.3291 109.094 86.7764 97.693 86.7858 115.421L86.7872 129.241C86.7864 132.93 87.066 142.227 86.7703 145.667C86.3027 145.013 87.5315 111.921 85.5654 107.365C83.8751 105.917 80.1208 106.151 77.4462 105.483L77.1521 105.407C71.7036 105.905 72.6576 96.0938 68.2818 101.819C66.6505 92.2716 75.2385 90.354 80.8078 88.4072L80.7349 88.1737L79.1154 87.8907Z"/><path fill="#FFA802" transform="scale(2 2)" d="M77.1521 105.407C74.9324 103.069 74.5663 98.702 77.0796 96.4022C77.3887 96.1193 100.468 95.1053 104.277 95.6009C101.306 95.9477 81.8047 95.6624 81.3146 95.9303C76.4622 96.0258 73.3598 100.781 77.2791 104.414C82.3291 109.094 86.7764 97.693 86.7858 115.421L86.7872 129.241C86.7864 132.93 87.066 142.227 86.7703 145.667C86.3027 145.013 87.5315 111.921 85.5654 107.365C83.8751 105.917 80.1208 106.151 77.4462 105.483L77.1521 105.407Z"/><path fill="#FFBC08" transform="scale(2 2)" d="M346.38 334.597C350.152 334.499 353.402 336.781 351.034 341.124C350.089 342.859 345.659 342.259 343.628 342.562C326.876 345.059 321.628 365.451 334.657 376.078C345.176 384.656 360.903 379.319 364.64 366.439C365.76 362.581 363.346 355.258 368.81 354.915C373.891 354.613 372.863 361.56 372.741 364.813C370.346 385.436 345.85 394.681 329.785 382.24C310.227 367.093 319.554 336.865 346.38 334.597Z"/><path fill="#FFE07C" transform="scale(2 2)" d="M372.741 442.129C409.237 428.591 435.226 399.029 436.151 358.5C436.209 355.96 435.276 351.272 437.62 349.474C448.035 341.49 442.298 373.794 441.698 376.438C435.034 405.777 419.523 425.123 394.383 440.917L394.338 440.177C393.185 439.558 383.52 444.962 375.814 443.368C375.874 440.516 376.833 443.02 372.741 442.129Z"/><path fill="#FFBC08" transform="scale(2 2)" d="M421.089 285.729C427.572 286.117 426.717 290.579 422.841 294.31C416.136 300.766 398.915 315.533 394.383 322.749C399.196 323.187 416.329 321.52 418.969 323.821C420.254 324.941 420.475 328.012 419.209 329.22C416.65 331.66 409.802 330.483 406.59 330.48L386.675 330.462C382.515 330.24 380.122 330.05 380.176 325.038C380.28 315.383 379.574 304.76 380.048 295.194C382.473 292.16 387.002 292.057 387.615 296.455C387.938 298.768 387.767 301.577 387.762 303.952L387.737 318.041C390.29 315.764 393.08 312.816 395.538 310.357L408.11 297.776C410.468 295.395 418.629 286.855 421.089 285.729Z"/><path fill="#FFE07C" transform="scale(2 2)" d="M337.593 417.246C339.732 416.947 342.732 417.151 344.964 417.209C380.825 418.154 411.575 385.058 406.161 349.217C405.229 343.046 413.187 341.055 414.19 349.344C419.397 392.361 380.005 431.798 334.363 423.991L334.372 423.624C334.674 423.541 337.865 423.922 338.524 424.006C351.697 425.68 360.17 423.208 372.438 418.916C370.879 418.509 359.628 423.112 358.875 416.612C357.98 416.258 344.344 418.802 341.954 417.72C341.614 417.566 338.798 417.55 338.162 417.568L337.759 417.582L337.593 417.246Z"/><path fill="#FFBC08" transform="scale(2 2)" d="M263.252 87.8907C269.659 87.4978 282.432 86.9618 287.085 90.5533C296.302 97.6658 292.195 111.708 279.158 112.539C279.167 119.349 282.077 138.524 275.905 140.797C272.885 140.809 271.527 138.777 271.319 136.042C271.052 132.513 270.825 108.659 271.746 106.345C273.109 102.92 287.355 106.362 283.558 98.5973C281.108 93.5877 267.608 97.205 262.775 95.5241C258.346 93.9835 259.648 89.3184 263.252 87.8907Z"/><path fill="#FFBC08" transform="scale(2 2)" d="M341.538 288.258C348.956 287.917 361.517 288.752 368.316 292.186C370.775 293.633 368.923 299.172 366.302 298.676C359.285 297.347 353.694 295.884 346.38 296.003C338.103 296.014 330.999 297.229 323.279 299.977C320.358 301.249 307.927 292.02 341.538 288.258Z"/><path fill="#FF7B02" transform="scale(2 2)" d="M207.188 87.8907C214.35 87.2814 233.877 87.3764 240.368 88.2361C242.504 88.519 244.831 94.6443 239.563 95.9303C235.502 96.0772 207.71 96.3655 205.951 95.5919C202.151 93.9208 202.405 89.5551 207.188 87.8907Z"/><path fill="#FFBC08" transform="scale(2 2)" d="M367.608 335.753C383.469 335.29 351.872 361.522 350.395 362.11C347.413 362.127 345.221 359.549 346.33 356.518C346.885 355 364.298 337.281 367.608 335.753Z"/><path fill="#FFBC08" transform="scale(2 2)" d="M231.072 208.1C232.524 207.559 234.154 207.842 235.339 208.839C236.524 209.837 237.081 211.395 236.796 212.918C236.511 214.44 235.428 215.692 233.963 216.193C231.738 216.954 229.315 215.787 228.524 213.573C227.734 211.359 228.869 208.92 231.072 208.1Z"/><path fill="#FFBC08" transform="scale(2 2)" d="M207.188 203.76C212.888 203.631 214.19 210.55 208.13 212.306C202.684 211.15 201.162 205.624 207.188 203.76Z"/><path fill="#FFBC08" transform="scale(2 2)" d="M217.757 225.333C219.081 224.86 220.555 225.077 221.687 225.912C222.819 226.747 223.461 228.091 223.4 229.496C223.325 231.2 222.233 232.692 220.632 233.279C218.435 234.084 216.002 232.949 215.206 230.749C214.41 228.549 215.553 226.121 217.757 225.333Z"/><path fill="#FFBC08" transform="scale(2 2)" d="M196.614 265.115C198.015 264.544 199.614 264.77 200.801 265.707C201.988 266.644 202.58 268.147 202.349 269.642C202.118 271.137 201.102 272.392 199.687 272.928C197.539 273.742 195.135 272.677 194.293 270.539C193.452 268.4 194.487 265.983 196.614 265.115Z"/><path fill="#FFBC08" transform="scale(2 2)" d="M245.547 225.117C247.799 224.802 249.889 226.35 250.245 228.597C250.6 230.843 249.091 232.961 246.851 233.357C245.366 233.62 243.854 233.061 242.898 231.894C241.941 230.727 241.689 229.135 242.238 227.73C242.788 226.325 244.053 225.326 245.547 225.117Z"/><path fill="#FFBC08" transform="scale(2 2)" d="M222.103 265.11C224.304 264.532 226.562 265.826 227.174 268.018C227.786 270.21 226.527 272.487 224.345 273.134C222.903 273.561 221.343 273.178 220.263 272.132C219.182 271.085 218.75 269.538 219.131 268.083C219.513 266.628 220.648 265.492 222.103 265.11Z"/><path fill="#FFBC08" transform="scale(2 2)" d="M203.988 252.28C202.412 250.98 202.015 248.728 203.049 246.967C204.084 245.206 206.245 244.458 208.147 245.202C210.049 245.945 211.129 247.96 210.695 249.956C210.387 251.373 209.364 252.527 207.994 253.001C206.624 253.476 205.106 253.202 203.988 252.28Z"/><path fill="#FFBC08" transform="scale(2 2)" d="M203.988 252.28C209.144 251.327 205.653 253.854 210.695 249.956C210.387 251.373 209.364 252.527 207.994 253.001C206.624 253.476 205.106 253.202 203.988 252.28Z"/><path fill="#FFBC08" transform="scale(2 2)" d="M232.26 245.003C238.168 244.852 239.77 250.633 234.522 252.974C228.838 253.384 226.783 247.71 232.26 245.003Z"/><path fill="#FFBC08" transform="scale(2 2)" d="M301.834 304.509C307.574 304.297 308.813 309.919 303.415 312.248C298.207 312.691 296.209 307.101 301.834 304.509Z"/></svg>