<?xml version="1.0" encoding="utf-8" ?><svg xmlns="http://www.w3.org/2000/svg" xmlns:xlink="http://www.w3.org/1999/xlink" width="683" height="683" viewBox="0 0 683 683"><path fill="#FF9627" transform="matrix(1.33398 0 0 1.33398 0 -1.52588e-05)" d="M306.389 136.169C313.825 135.94 322.283 136.164 329.827 136.166L409.842 136.168C414.837 136.166 419.813 136.137 424.815 136.077C436.802 135.933 424.722 168.261 402.225 172.254C391.934 174.081 380.119 172.811 369.653 173.206C354.645 173.054 339.27 173.471 324.368 173.201L312.472 173.201L312.477 209.527C312.487 237.548 312.348 244.143 284.226 244.015C284.189 249.337 285.434 256.121 282.415 260.73C280.835 260.949 276.93 260.769 275.128 260.759L260.212 260.73L260.212 291.42C283.19 294.11 295.612 322.38 281.024 340.854C269.063 356.002 247.762 357.77 233.882 344.382C215.113 326.28 226.386 294.184 252.051 291.42C251.865 289.065 252.028 283.685 252.03 281.174L252.051 260.73L238.716 260.77C224.069 260.793 227.145 257.395 227.248 244.015C208.194 244.897 199.811 239.753 200.009 219.668L200.014 172.662L125.559 172.681C104.133 172.702 86.3653 165.297 82.5292 141.894C81.3112 134.463 92.5936 136.173 96.9132 136.172L261.068 136.176C275.932 136.176 291.609 135.895 306.389 136.169ZM200.014 165.016C199.035 150.712 202.48 153.691 215.075 153.688L306.064 153.678C314.579 153.746 312.393 157.761 312.472 165.016L364.169 165.016L383.828 165.039C400.574 165.137 415.502 164.146 420.703 144.066C418.411 144.31 413.479 144.084 410.921 144.079L322.422 144.066L114.241 144.067C106.726 144.065 98.7615 144.713 91.2964 144.066C96.131 162.342 110.213 165.014 127.098 165.022L200.014 165.016ZM238.691 244.015L234.768 244.015L234.768 252.762L273.312 252.762L276.069 252.762L276.069 244.015L238.691 244.015ZM253.422 299.068C240.593 300.393 231.282 311.89 232.652 324.715C234.022 337.54 245.552 346.81 258.372 345.395C271.128 343.987 280.343 332.526 278.979 319.765C277.616 307.004 266.188 297.75 253.422 299.068ZM217.768 161.444L207.881 161.444L207.867 224.239C207.857 231.51 212.25 236.311 219.571 236.314L294.214 236.248C308.304 234.787 304.491 216.253 304.49 205.648L304.483 161.444L217.768 161.444Z"/><path fill="#F5C016" transform="matrix(1.33398 0 0 1.33398 0 -1.52588e-05)" d="M306.389 136.169C313.825 135.94 322.283 136.164 329.827 136.166L409.842 136.168C414.837 136.166 419.813 136.137 424.815 136.077C436.802 135.933 424.722 168.261 402.225 172.254C391.934 174.081 380.119 172.811 369.653 173.206C354.645 173.054 339.27 173.471 324.368 173.201C326.274 172.825 335.391 173.11 337.799 173.194C348.818 173.575 359.721 172.709 370.68 172.651L388.415 172.685C388.268 172.686 392.629 170.811 392.896 170.703L392.839 170.181C392.482 169.986 392.143 169.843 391.763 169.705L391.528 169.042C392.545 163.651 367.985 165.587 364.199 165.786L363.898 165.502L364.169 165.016L383.828 165.039C400.574 165.137 415.502 164.146 420.703 144.066C418.411 144.31 413.479 144.084 410.921 144.079L322.422 144.066C323.296 143.175 363.483 143.332 368.376 143.385C372.627 143.431 390.068 146.084 391.728 140.181C391.097 134.514 371.342 136.846 367.248 136.816C351.825 136.703 336.281 136.927 320.881 136.162C316.292 135.934 310.811 136.672 306.389 136.169Z"/><path fill="#FF9627" transform="matrix(1.33398 0 0 1.33398 0 -1.52588e-05)" d="M252.051 184.457C267.581 183.246 239.065 207.459 236.673 208.721C233.927 208.921 230.931 206.92 232.079 203.8C232.915 201.528 248.151 186.384 252.051 184.457Z"/><path fill="#FF9627" transform="matrix(1.33398 0 0 1.33398 0 -1.52588e-05)" d="M236.673 171.006C239.197 171.086 240.116 172.762 241.019 174.817C239.436 178.15 225.388 192.557 221.203 194.494C219.13 194.227 215.866 192.386 216.667 189.88C217.238 188.092 232.597 172.693 236.673 171.006Z"/><path fill="#FF9627" transform="matrix(1.33398 0 0 1.33398 0 -1.52588e-05)" d="M159.687 421.564C176.514 403.8 194.263 386.398 211.522 369.022C214.533 365.991 218.295 366.003 218.847 370.816C219.116 373.161 213.454 378.009 211.759 379.712L200.106 391.356C190.449 401.032 180.181 411.643 170.832 421.564L252.051 421.564L252.037 397.41C252.036 392.968 252 388.559 252.097 384.089C252.219 378.452 257.232 377.586 260.212 381.689C260.486 383.729 260.229 391.203 260.225 393.798L260.212 421.564C262.558 421.768 267.616 421.589 270.182 421.581L323.274 421.562C328.81 421.565 334.698 421.724 340.172 421.564C329.313 411.183 317.765 399.191 307.244 388.37L298.404 379.366C296.667 377.612 291.595 373.129 292.047 371.142C294.137 361.951 301.707 371.58 303.425 373.308L325.138 395.193C326.986 397.068 329.318 399.142 331.03 401.057C337.565 406.924 344.66 415.28 351.303 421.564L414.868 421.565C417.682 421.565 420.525 421.509 423.244 421.711C427.211 422.005 428.728 426.309 425.937 428.678C424.031 430.295 415.842 429.599 413.119 429.59L391.311 429.573C370.699 429.578 349.294 429.877 328.75 429.575L171.437 429.562C165.343 429.563 158.063 429.813 152.127 429.575C148.08 429.706 143.258 429.583 139.159 429.583L96.3291 429.584C92.1948 429.585 80.281 431.381 83.3088 423.604C84.4812 420.593 90.0903 421.513 92.6152 421.532L106.622 421.564C124.208 421.382 142.074 421.574 159.687 421.564Z"/><path fill="#F21D16" transform="matrix(1.33398 0 0 1.33398 0 -1.52588e-05)" d="M152.127 429.575C148.08 429.706 143.258 429.583 139.159 429.583L96.3291 429.584C92.1948 429.585 80.281 431.381 83.3088 423.604C84.4812 420.593 90.0903 421.513 92.6152 421.532L106.622 421.564L106.882 421.582C110.007 421.777 114.939 421.581 118.207 421.575L140.585 421.563C144.528 421.557 150.578 421.38 154.29 421.914C148.238 422.289 142.969 421.843 137.01 421.667C135.277 421.616 112.814 421.883 111.919 422.109C114.573 422.731 114.078 427.396 110.403 428.993C113.917 430.727 147.978 428.104 152.127 429.575Z"/><path fill="#F5C016" transform="matrix(1.33398 0 0 1.33398 0 -1.52588e-05)" d="M331.03 401.057C337.565 406.924 344.66 415.28 351.303 421.564L414.868 421.565C417.682 421.565 420.525 421.509 423.244 421.711C427.211 422.005 428.728 426.309 425.937 428.678C424.031 430.295 415.842 429.599 413.119 429.59L391.311 429.573C370.699 429.578 349.294 429.877 328.75 429.575C330.584 428.983 344.622 429.671 347.504 429.515C360.926 428.785 374.639 429.326 388.343 428.889C400.228 428.51 412.194 429.785 424.048 428.989C424.766 428.941 427.394 425.009 425.774 423.546C422.108 420.238 371.491 421.67 362.645 421.567C358.822 421.523 355.184 422.519 351.74 422.391L351.303 422.373C349.385 420.719 331.501 402.992 331.03 401.057Z"/><path fill="#FF9627" transform="matrix(1.33398 0 0 1.33398 0 -1.52588e-05)" d="M272.171 89.2612C260.47 89.5456 247.644 89.2626 235.828 89.2613L110.132 89.258C102.634 89.2583 95.1445 89.2772 87.6486 89.4142C83.595 89.4882 77.0494 81.6972 92.8647 81.6905L262.818 81.6827C263.706 82.219 270.892 82.3093 272.33 82.3139L297.124 82.3149C298.932 82.316 319.006 81.2923 316.104 86.6405C314.343 89.8843 293.883 89.5569 288.332 89.2165C286.284 89.0909 271.385 88.8425 271.244 88.9416L271.003 88.9197C271.336 88.996 271.93 89.0849 272.171 89.2612Z"/><path fill="#F5C016" transform="matrix(1.33398 0 0 1.33398 0 -1.52588e-05)" d="M262.818 81.6827L410.739 81.6878C415.193 81.6873 419.68 81.7214 424.123 81.4707C428.466 81.2256 431.47 89.4499 423.364 89.3432C415.508 89.2399 407.652 89.2597 399.794 89.2587L296.834 89.2642C289.143 89.2652 279.764 89.5261 272.171 89.2612C271.93 89.0849 271.336 88.996 271.003 88.9197L271.244 88.9416C271.385 88.8425 286.284 89.0909 288.332 89.2165C293.883 89.5569 314.343 89.8843 316.104 86.6405C319.006 81.2923 298.932 82.316 297.124 82.3149L272.33 82.3139C270.892 82.3093 263.706 82.219 262.818 81.6827Z"/><path fill="#FF9627" transform="matrix(1.33398 0 0 1.33398 0 -1.52588e-05)" d="M191.589 339.255C195.513 338.812 197.574 344.088 193.877 346.251C185.832 350.958 177.528 355.184 169.307 359.569L153.529 367.954C150.768 369.421 146.705 371.73 143.913 372.88C140.843 373.325 138.223 368.946 139.598 367.164C142.145 363.866 167.774 351.407 172.375 349.016L182.801 343.577C185.591 342.095 188.662 340.285 191.589 339.255Z"/><path fill="#FF9627" transform="matrix(1.33398 0 0 1.33398 0 -1.52588e-05)" d="M368.903 278.038C374.277 277.205 375.898 282.896 370.412 285.799L331.42 306.22C328.647 307.67 325.188 309.767 322.422 310.882C318.891 311.516 316.945 308.693 318.154 305.509C318.89 303.57 324.331 301.228 326.366 300.142L338.954 293.429C348.239 288.513 359.264 282.039 368.903 278.038Z"/><path fill="#FF9627" transform="matrix(1.33398 0 0 1.33398 0 -1.52588e-05)" d="M143.913 278.038C144.571 278.122 152.869 282.905 154.172 283.601L174.784 294.803C179.275 297.22 204.649 307.318 191.589 312.568C189.464 312.146 186.429 310.164 184.452 309.034L143.768 286.615C139.664 283.752 136.369 280.64 143.913 278.038Z"/><path fill="#FF9627" transform="matrix(1.33398 0 0 1.33398 0 -1.52588e-05)" d="M320.544 339.255C323.975 339.117 340.087 348.969 344.168 351.106L370.028 364.571C374.419 366.863 373.984 370.484 370.19 372.88C367.428 373.046 327.619 351.185 321.863 347.897C317.422 345.361 315.368 342.478 320.544 339.255Z"/></svg>