<?xml version="1.0" encoding="utf-8" ?><svg xmlns="http://www.w3.org/2000/svg" xmlns:xlink="http://www.w3.org/1999/xlink" width="1024" height="1024" viewBox="0 0 1024 1024"><defs><linearGradient id="gradient_0" gradientUnits="userSpaceOnUse" x1="51.002979" y1="358.35367" x2="321.38135" y2="210.9982"><stop offset="0" stop-color="#FD951D"/><stop offset="1" stop-color="#F04716"/></linearGradient></defs><path fill="url(#gradient_0)" transform="scale(2 2)" d="M189.164 145.271C194.39 145.12 199.591 145.258 204.816 145.219C219.099 145.056 233.383 145.021 247.667 145.114C255.538 145.129 273.008 144.532 280.083 145.793C282.657 146.273 285.037 147.491 286.931 149.299C290.092 152.28 291.904 156.419 291.95 160.763C291.969 164.517 290.315 168.162 287.712 170.801C284.734 173.821 281.891 172.943 281.924 177.539C282.014 190.152 281.955 202.815 281.956 215.428L281.979 295.068L281.989 320.482C281.994 326.055 281.942 340.371 280.656 345.551C280.44 349.568 278.673 356.871 277.21 360.775L276.865 362.012C272.108 375.231 265.074 387.83 255.222 397.947C252.44 400.803 249.794 403.435 247.449 406.688C251.585 411.698 254.902 418.868 257.848 424.678C259.988 428.898 262.383 433.583 264.28 437.873C262.957 439.933 261.141 442.393 258.405 441.596C255.611 439.216 243.392 415.613 241.208 411.168C237.572 413.234 234.12 415.654 230.423 417.695C218.093 424.502 202.35 429.572 188.222 430.395C168.124 431.621 148.095 427.083 130.487 417.315C127.344 415.587 121.844 412.302 119.215 409.977C116.951 415.056 104.342 440.601 100.679 442.155C99.7718 442.539 98.7391 442.485 97.8526 442.073C96.8088 441.589 95.6129 440.675 95.3255 439.506C94.4322 435.871 110.295 410.373 113.174 405.449C111.564 404.254 110.204 402.886 108.738 401.547C88.2316 382.83 80.4191 360.033 79.7259 332.583C79.4278 331.112 79.4201 326.55 79.3827 324.893C79.2639 317.548 79.2248 310.203 79.2654 302.857L79.2617 232.497L79.2408 193.138C79.2407 190.079 79.0352 178.315 79.4993 175.841C73.3659 173.523 68.186 168.043 68.3872 161.072C68.5717 154.68 72.15 148.616 78.4974 146.669C84.8539 144.72 92.3403 145.183 99.0185 145.191L123.522 145.21L165.624 145.221C173.201 145.217 181.644 145.032 189.164 145.271ZM200.552 238.674C195.083 240.65 189.081 241.213 183.44 239.646C176.191 237.631 169.999 232.974 162.284 232.512C155.699 232.117 150.171 235.57 144.253 237.861C140.674 239.231 136.82 239.965 132.967 240.025C128.88 240.102 124.807 239.507 120.911 238.266C112.525 235.675 104.299 230.509 95.2973 233.351C93.7908 233.827 89.2941 235.471 88.3707 236.837C87.9585 237.446 87.7173 239.839 87.7115 240.7C87.6678 247.236 87.6843 253.815 87.6853 260.353L87.6846 298.898L87.6672 325.491C87.6654 330.559 87.4833 337.078 87.9181 342.01C88.6685 349.883 90.5484 357.606 93.4999 364.943C102.716 388.235 120.249 405.198 143.156 415.066C166.583 425.061 193.032 425.287 216.625 415.692C242.314 405.419 264.684 380.99 270.432 353.607C271.786 347.161 272.06 341.684 272.999 335.371C272.876 333.972 273.329 326.791 273.385 325.006C273.522 318.894 273.568 312.781 273.523 306.668L273.513 232.797C265.329 234.823 260.907 238.696 251.949 240.008C237.655 242.103 231.62 231.255 218.157 233.033C211.895 233.86 206.768 236.899 200.882 238.581L200.552 238.674ZM87.5501 227.471C95.5036 225.54 104.381 223.576 112.533 226.138C117.755 227.997 122 230.527 127.462 231.816C137.289 234.136 145.665 227.849 154.827 225.535C167.933 222.225 176.8 230.405 188.971 232.229C191.735 232.643 194.383 231.58 196.918 231.513C199.064 230.95 200.142 230.681 202.192 229.827L203.729 229.365C216.016 223.953 223.713 222.41 235.834 228.798C240.639 231.331 244.691 232.286 250.146 232.005C260.564 231.469 262.512 225.835 273.509 225.206L273.453 191.488C273.414 184.746 273.248 177.699 273.525 170.937C273.778 166.418 279.498 167.659 282.092 165.225C285.05 162.448 283.917 157.689 281.401 155.039C280 153.564 278.181 153.238 276.229 153.109C272.887 152.888 269.462 152.983 266.115 152.989L249.141 152.999L191.205 152.928L117.295 152.918C107.405 152.923 97.541 152.525 87.686 152.825C79.3815 153.078 73.6935 157.275 77.7539 166.023L78.0877 166.165C80.0854 166.997 85.8881 167.689 86.9223 169.478C88.5109 172.226 87.624 220.031 87.5501 227.471Z"/><path fill="#FAD71A" transform="scale(2 2)" d="M79.4993 175.841C79.6255 176.024 79.7517 176.208 79.8779 176.392C79.9794 184.702 79.8219 196.59 79.8629 204.532L80.1162 294.733C80.2065 304.46 80.1757 314.188 80.0237 323.914C79.9755 326.103 80.2512 330.675 79.7259 332.583C79.4278 331.112 79.4201 326.55 79.3827 324.893C79.2639 317.548 79.2248 310.203 79.2654 302.857L79.2617 232.497L79.2408 193.138C79.2407 190.079 79.0352 178.315 79.4993 175.841Z"/><path fill="#FAD71A" transform="scale(2 2)" d="M276.865 362.012L276.1 361.049C276.147 360.017 275.949 360.404 276.471 359.738L276.828 359.79L277.21 360.775L276.865 362.012Z"/><path fill="#FAD71A" transform="scale(2 2)" d="M122.629 296.472C131.724 295.212 140.128 301.537 141.435 310.625C142.742 319.714 136.46 328.15 127.378 329.504C118.231 330.867 109.719 324.529 108.403 315.375C107.087 306.22 113.468 297.741 122.629 296.472ZM127.116 321.21C131.68 319.953 134.351 315.222 133.07 310.664C131.789 306.106 127.046 303.459 122.494 304.763C117.975 306.057 115.351 310.76 116.622 315.286C117.894 319.811 122.584 322.459 127.116 321.21Z"/><path fill="#FAD71A" transform="scale(2 2)" d="M146.658 351.153C152.472 349.88 158.521 351.829 162.499 356.256C166.477 360.683 167.769 366.906 165.884 372.551C163.998 378.196 159.225 382.392 153.385 383.54C144.49 385.288 135.845 379.55 134.001 370.674C132.158 361.798 137.802 353.092 146.658 351.153ZM151.375 376.097C156.201 375.349 159.496 370.814 158.713 365.992C157.931 361.171 153.372 357.91 148.556 358.727C143.79 359.535 140.568 364.039 141.343 368.811C142.117 373.583 146.597 376.837 151.375 376.097Z"/><path fill="#FAD71A" transform="scale(2 2)" d="M159.131 260.114C176.999 260.643 182.266 285.618 165.414 292.15C163.876 292.747 158.935 292.68 158.958 290.261C158.992 286.859 163.933 284.345 166.053 281.67C167.027 279.955 168.109 276.791 167.458 274.904C166.061 270.858 162.156 267.413 157.779 267.787C150.933 268.372 150.924 274.956 145.517 276.953C145.002 277.144 143.957 276.857 143.53 276.481C139.821 273.335 142.717 268.503 145.153 265.804C149.058 261.477 153.61 260.442 159.131 260.114Z"/><path fill="#FAD71A" transform="scale(2 2)" d="M237.341 274.327C242.552 273.941 246.878 275.79 250.322 279.697C253.533 283.391 255.16 288.202 254.852 293.088C254.571 297.18 252.664 300.99 249.556 303.667C240.482 311.349 233.481 304.592 243.364 298.184C246.262 295.89 247.692 292.582 246.584 288.946C245.804 286.429 244.013 284.351 241.639 283.21C231.151 278.049 231.292 293.257 223.336 288.374C219.767 279.329 230.531 275.521 237.341 274.327Z"/><path fill="#FAD71A" transform="scale(2 2)" d="M199.6 385.89C203.01 385.679 206.133 385.893 209.485 386.26C213.11 386.657 214.866 389.866 212.38 392.598C210.552 394.608 205.449 394.289 202.873 394.291C199.229 394.292 193.715 394.771 190.55 392.8C188.956 391.807 188.59 389.559 189.956 388.15C192.283 385.749 196.458 385.987 199.6 385.89Z"/><path fill="#FAD71A" transform="scale(2 2)" d="M181.769 316.102C184.984 315.944 193.871 315.872 196.94 316.332C198.292 318.152 199.77 321.037 197.802 323.014C196.37 324.453 194.515 324.247 192.638 324.239C188.781 324.191 176.944 325.58 175.205 321.001C174.73 319.751 176.201 317.386 177.457 316.82C178.868 316.185 180.184 316.19 181.769 316.102Z"/><path fill="#FAD71A" transform="scale(2 2)" d="M214.714 348.078C218.008 347.873 229.499 347.883 232.394 348.389C234.164 349.604 234.333 350.076 235.21 351.96C235.073 352.32 234.93 352.678 234.779 353.033C233.965 354.923 233.378 355.173 231.542 355.915C227.971 356.173 210.326 357.649 210.86 351.903C211.088 349.458 212.424 348.462 214.714 348.078Z"/><path fill="#FAD71A" transform="scale(2 2)" d="M196.918 231.513C199.064 230.95 200.142 230.681 202.192 229.827C202.765 230.646 202.666 230.224 202.694 231.078C201.119 232.379 198.62 232.844 196.918 231.513Z"/><path fill="#DB7F34" transform="scale(2 2)" d="M396.299 165.416C395.871 162.946 396.02 155.162 396.024 152.26L396.065 129.227C396.083 116.105 396.388 104.628 388.575 93.1458C375.775 74.3339 351.828 77.1504 331.979 77.0235C315.434 76.9177 298.679 77.0786 282.126 77.1278C277.815 77.1438 273.728 74.7397 276.954 70.3696C277.926 69.0532 282.961 69.2236 284.537 69.2209L330.033 69.2394C342.874 69.2314 359.08 68.3332 371.369 71.2964C378.609 73.1494 384.145 77.1446 389.395 82.1733C405.614 97.7103 404.191 115.883 404.211 136.526L404.135 165.471C404.581 165.42 405.027 165.378 405.473 165.343C409.869 165.016 421.012 164.25 425.024 166.825C426.433 167.729 426.274 170.884 424.773 171.737C419.628 174.662 410.073 173.385 404.238 172.928C404.185 178.769 404.176 184.61 404.21 190.451C404.23 193.232 404.928 204.056 402.582 205.744C398.568 208.592 396.034 205.411 396.125 201.241C396.319 192.313 395.409 182.009 396.252 173.2C388.285 173.163 378.496 172.912 370.674 173.229C369.19 173.167 367.402 173.052 365.945 173.064C365.944 180.105 365.839 186.866 366.017 193.912C365.784 198.49 364.76 204.506 358.78 200.957C357.205 197.422 357.338 194.916 357.508 191.14C357.777 185.157 357.537 179.184 357.835 173.201C355.839 173.221 330.906 175.695 338.224 166.712C340.314 164.147 353.075 165.107 357.659 165.317C357.466 163.425 357.729 159.583 357.741 157.5C357.886 151.038 357.82 144.887 357.176 138.453C355.418 120.917 342.832 108.579 325.164 107.482C316.457 106.941 307.602 107.244 298.774 107.248L250.016 107.273C245.933 107.291 241.813 107.509 237.768 107.454C235.983 107.43 233.077 105.033 233.624 102.996C234.208 100.82 236.273 100.048 238.274 99.917C242.373 99.6482 246.462 99.7082 250.552 99.7085L271.474 99.719L305.462 99.7021C311.751 99.6938 318.095 99.6963 324.339 99.7263C339.801 99.8004 353.6 107.374 360.38 121.533C365.399 132.013 365.931 142.87 365.876 154.269C365.858 157.972 366.025 161.657 365.901 165.362C375.876 165.561 386.134 164.752 396.299 165.416Z"/><path fill="#FAD71A" transform="scale(2 2)" d="M211.432 99.8972C214.245 99.6012 221.242 99.2855 222.374 102.641C224.324 108.416 213.088 106.952 209.98 107.497C195.623 110.017 188.174 118.09 181.999 130.651C180.008 134.855 175.245 135.674 174.592 130.455C174.029 125.959 177.6 120.64 180.26 117.135C188.442 106.355 198.221 101.415 211.432 99.8972Z"/><path fill="#DB7F34" transform="scale(2 2)" d="M253.104 69.1074C257.117 68.9079 260.534 68.7551 264.025 70.8495C266.725 76.9554 262.225 76.9634 257.508 77.1569C254.285 77.2127 250.383 77.4024 247.43 75.9662C245.826 75.1862 243.777 73.1618 245.52 71.4022C247.666 69.236 250.283 69.2187 253.104 69.1074Z"/><path fill="#DB7F34" transform="scale(2 2)" d="M220.989 69.2962C224.808 69.0958 237.58 67.8163 234.186 74.9435C233.618 76.1372 231.917 76.6287 230.787 76.9665C227.104 77.2861 222.643 77.5653 219.075 76.4861C216.392 75.6748 216.439 73.2296 217.773 71.2165C218.701 69.8164 219.411 69.6735 220.989 69.2962Z"/></svg>