<?xml version="1.0" encoding="utf-8" ?><svg xmlns="http://www.w3.org/2000/svg" xmlns:xlink="http://www.w3.org/1999/xlink" width="1024" height="1024" viewBox="0 0 1024 1024"><path fill="#F8A700" transform="scale(2 2)" d="M221.192 234.104C229.093 233.589 237.614 234.505 245.311 236.586C268.244 242.785 272.127 266.407 270.114 286.772C269.948 288.453 266.909 289.755 265.615 290.43C264.832 300.484 263.971 306.551 258.612 315.626C252.69 325.676 243.037 332.979 231.755 335.947C220.259 337.946 209.898 334.497 201.557 326.487C192.085 317.233 186.648 304.615 186.428 291.374C183.675 289.291 182.334 288.562 182.133 284.867C181.955 281.595 182.107 278.465 182.26 275.194C182.725 265.206 183.778 254.004 190.559 246.1C197.634 237.832 210.756 234.904 221.192 234.104ZM194.084 288.63C192.954 305.198 204.755 328.209 223.289 329.426C227.848 329.71 232.408 328.884 236.578 327.019C250.997 319.885 256.861 306.586 258.137 291.254C243.995 290.322 234.877 288.729 222.37 280.993C220.653 279.931 214.876 275.349 213.721 274.931C209.709 278.427 206.649 280.803 202.12 283.666C200.147 284.914 195.521 287.409 194.084 288.63ZM189.81 282.679C194.954 279.674 209.877 267.684 214.313 266.428C218.08 268.546 221.268 271.165 225.386 273.533C226.783 274.528 229.679 276.812 230.941 277.506C238.717 281.778 247.224 283.327 255.996 283.616C258.295 283.691 260.697 283.992 263.027 283.963C262.494 255.282 256.886 241.089 225.488 241.221C224.364 241.225 223.169 241.252 222.056 241.393C193.019 243.857 189.45 255.944 189.81 282.679Z"/><defs><linearGradient id="gradient_0" gradientUnits="userSpaceOnUse" x1="153.82704" y1="112.86353" x2="134.67979" y2="228.29517"><stop offset="0" stop-color="#FFCE4A"/><stop offset="1" stop-color="#FFBD06"/></linearGradient></defs><path fill="url(#gradient_0)" transform="scale(2 2)" d="M166.675 115.851C169.637 115.639 175.24 115.643 178.071 116.557C194.609 121.946 170.354 129.318 169.364 136.868C168.769 141.41 171.258 143.487 175.369 144.417C176.889 143.942 178.907 143.235 180.387 142.184C184.447 139.302 188.371 131.894 193.078 130.6C193.6 130.463 194.797 130.782 195.111 131.253C201.014 140.106 196.284 154.707 189.825 161.415C181.592 169.966 174.285 170.639 163.727 171.022C158.972 174.588 146.858 189.444 142.774 190.404C141.987 190.589 141.13 190.291 140.489 189.835C139.752 189.31 139.048 188.411 138.939 187.487C138.394 182.888 154.855 170.036 158.207 165.778C158.269 165.699 158.329 165.618 158.39 165.538C154.463 162.263 150.033 159.757 146.598 156.853C143.444 159.59 139.693 163.579 136.601 166.539C130.533 172.348 124.52 178.211 118.758 184.324C111.672 190.211 106.054 196.871 99.8869 203.686C98.3777 205.354 97.7342 206.894 97.1636 209.029C98.1551 213.572 98.89 214.561 103.133 216.132C113.862 214.652 113.938 204.639 123.126 202.086C123.763 201.958 124.826 202.028 125.265 202.546C127.856 205.601 124.901 209.288 122.874 211.347C117.837 216.465 111.357 223.536 103.559 223.542C95.55 223.549 89.1275 216.072 89.3901 208.24C89.4656 205.937 90.0946 203.524 91.4747 201.693C97.4497 193.765 105.353 187.534 112.201 180.393C122.089 170.868 131.823 160.279 141.665 150.966C140.874 149.164 140.476 148.046 140.286 146.055C138.812 130.619 151.889 117.363 166.675 115.851ZM165.862 163.288C171.999 163.226 176.642 163.401 181.323 158.643L181.583 158.376C189.399 151.38 187.717 151.046 191.002 142.17C186.121 146.299 181.836 152.373 174.872 151.542C163.34 150.165 156.736 135.267 166.702 127.277C168.078 126.175 170.903 124.475 171.659 122.988L171.448 122.655L170.88 122.649C164.18 122.982 157.747 126.272 153.137 131.183C148.78 135.824 143.976 145.808 150.336 150.845C153.853 153.631 158.295 155.647 161.764 158.567C163.091 159.652 164.636 161.947 165.862 163.288Z"/><path fill="#FF7A02" transform="scale(2 2)" d="M59.5952 136.414C61.8822 133.953 65.3148 131.978 68.637 131.34C78.4863 129.451 88.6345 130.124 98.5953 129.968C102.875 129.901 107.359 129.353 111.561 129.674C114.409 129.891 118.018 130.104 120.297 131.774C121.786 132.866 120.504 134.768 119.917 135.678C112.933 139.193 107.398 137.748 99.8653 137.553C95.8488 137.45 91.9674 137.388 87.923 137.183C82.6468 137.321 68.8409 137.306 65.3645 141.427C60.0108 147.773 61.5886 163.586 61.7143 171.377C61.7919 176.681 61.7926 181.987 61.7163 187.291C62.073 204.771 61.7604 223.375 61.7566 240.973L61.7661 341.32L61.7661 381.395C61.7458 387.942 61.161 394.564 61.7573 401.07C62.3788 407.851 65.6186 413.308 72.9148 414.004C77.9134 414.481 82.8471 414.307 87.8482 414.308L114.984 414.282C118.567 414.266 122.876 413.952 126.339 414.74C128.627 415.26 129.535 418.107 128.054 419.846C126.547 421.534 123.095 421.432 120.991 421.504C108.191 421.464 95.6155 422.341 82.7936 421.608C78.0806 421.338 74.1682 421.783 69.4137 420.536C66.1353 419.68 63.1496 417.953 60.773 415.539C55.9811 410.72 54.4964 404.927 54.4828 398.295C54.4727 393.392 54.4841 388.485 54.4864 383.583L54.4922 346.316L54.491 270.952C54.4897 258.495 54.2207 244.868 54.5014 232.494C54.5069 232.232 54.5182 231.971 54.5355 231.709C54.3296 226.272 54.4871 219.842 54.4862 214.345L54.4802 181.523L54.4493 162.189C54.436 153.544 53.7293 143.478 59.5952 136.414Z"/><path fill="#F8A700" transform="scale(2 2)" d="M59.5952 136.414C61.8822 133.953 65.3148 131.978 68.637 131.34C78.4863 129.451 88.6345 130.124 98.5953 129.968C102.875 129.901 107.359 129.353 111.561 129.674C114.409 129.891 118.018 130.104 120.297 131.774C121.786 132.866 120.504 134.768 119.917 135.678C112.933 139.193 107.398 137.748 99.8653 137.553C95.8488 137.45 91.9674 137.388 87.923 137.183C82.6468 137.321 68.8409 137.306 65.3645 141.427C60.0108 147.773 61.5886 163.586 61.7143 171.377C61.7919 176.681 61.7926 181.987 61.7163 187.291C60.9926 185.002 61.3582 171.829 61.214 168.601C61.1449 167.054 60.6655 162.917 60.7267 161.658C60.8965 158.166 61.027 153.515 61.4617 150.095C61.824 147.245 64.0452 141.153 66.5196 139.602C67.5689 138.945 66.8637 139.033 68.1973 139.222L68.4673 138.371C74.0818 135.164 74.81 138.49 78.9378 136.929C77.9071 136.455 78.1314 136.765 77.8106 136.001C78.8265 134.817 80.7441 135.276 82.4783 134.711L82.4689 134.466C81.3357 134.227 78.9901 134.102 79.056 132.771C79.8591 132.187 80.4628 132.856 81.8988 132.397L81.815 132.072C80.6329 131.581 79.9242 131.408 78.7079 131.935C77.0517 132.654 76.5969 131.616 75.0891 131.708C73.906 131.746 71.5816 132.664 70.537 132.264C67.0523 130.927 62.5542 134.545 60.0818 137.047L59.5952 136.414Z"/><path fill="#F8A700" transform="scale(2 2)" d="M54.5355 231.709C54.3296 226.272 54.4871 219.842 54.4862 214.345L54.4802 181.523L54.4493 162.189C54.436 153.544 53.7293 143.478 59.5952 136.414L60.0818 137.047C57.9387 140.45 56.2946 144.243 55.3708 148.199C55.1519 149.137 55.2339 153.244 55.234 154.533L55.2499 167.163C55.2597 173.83 55.4328 245.466 55.1265 246.117C55.1208 244.277 55.1498 230.478 54.8548 229.964C54.7782 230.493 54.713 231.234 54.5355 231.709Z"/><path fill="#FF7A02" transform="scale(2 2)" d="M194.918 338.318C197.607 338.233 199.479 339.846 199.067 342.633C198.634 345.558 192.735 346.298 190.225 346.936C184.078 348.515 178.411 351.572 173.716 355.841C169.527 359.672 167.068 363.726 164.708 368.833C157.722 383.947 159.686 398.694 158.974 414.454C161.803 414.889 168.847 414.276 172.224 414.278C181.323 414.281 190.444 414.276 199.544 414.275L267.334 414.27L284.512 414.283C287.162 414.311 289.587 414.533 292.269 414.479C291.502 396.237 295.004 375.819 282.695 360.809C278.445 355.339 272.923 351.657 266.693 348.807C264.66 347.877 254.439 344.568 253.877 343.227C250.579 335.36 264.43 339.686 267.434 340.675C273.304 342.882 279.172 346.574 283.912 350.81C300.799 365.901 298.386 389.834 299.108 410.271C299.321 416.315 300.237 421.344 292.333 421.424C282.755 421.521 273.083 421.48 263.459 421.476L209.264 421.47L176.974 421.464C171.729 421.46 157.401 421.547 152.68 420.385C151.783 415.32 152.319 410.662 152.119 405.675C150.831 373.484 158.876 344.779 194.918 338.318Z"/><defs><linearGradient id="gradient_1" gradientUnits="userSpaceOnUse" x1="429.98761" y1="99.60923" x2="362.11096" y2="182.85963"><stop offset="0" stop-color="#F77703"/><stop offset="1" stop-color="#F8C764"/></linearGradient></defs><path fill="url(#gradient_1)" transform="scale(2 2)" d="M381.168 89.5931C386.338 90.0854 385.755 97.9344 384.368 97.9267C369.441 97.8428 356.788 111.351 351.985 124.51C347.696 136.106 348.213 148.934 353.419 160.149C358.775 171.705 368.564 180.614 380.572 184.861C392.634 189.214 405.322 188.85 416.931 183.347C428.279 177.934 437.013 168.235 441.211 156.383C445.318 144.609 444.497 131.675 438.934 120.515C435.021 112.593 428.301 105.141 420.068 101.476C416.839 100.038 413.283 99.2733 409.938 98.2047C409.347 97.9026 408.618 97.8244 408.5 97.0514C406.693 85.1405 417.935 91.2895 422.359 93.815C436.458 101.946 448.566 115.492 450.702 132.045C452.699 145.738 450.002 162.268 441.308 173.361C431.972 184.67 421.481 191.241 407.09 194.153C397.742 196.045 398.906 196.523 389.582 194.686C378.25 192.454 371.427 190.87 362.035 183.42C331.286 159.031 335.802 104.925 374.662 91.4392C376.799 90.6972 378.901 89.8278 381.168 89.5931Z"/><path fill="#F8A700" transform="scale(2 2)" d="M293.562 165.743C294.643 165.996 295.662 166.317 296.584 166.951C300.732 169.801 313.333 181.973 316.317 186.069C317.01 187.021 317.756 188.353 317.503 189.572C317.278 190.658 316.101 191.971 315.362 192.805C313.627 194.763 311.561 196.425 309.712 198.277C305.849 202.148 299.959 209.634 295.399 212C294.419 212.509 293.323 212.798 292.25 212.4C291.416 212.091 290.62 211.275 290.337 210.435C288.715 205.621 303.561 196.086 305.778 191.776C299.165 191.572 291.664 191.757 284.995 191.766L248.375 191.758L218.241 191.755C213.413 191.753 208.569 191.8 203.748 191.693C201.52 191.537 200.871 190.179 200.79 188.161C200.662 184.961 203.835 184.445 206.365 184.325C210.588 184.123 214.866 184.205 219.102 184.21L240.86 184.219C262.026 184.126 283.191 184.149 304.356 184.288C301.016 180.951 284.804 169.696 293.562 165.743Z"/><path fill="#FF7A02" transform="scale(2 2)" d="M93.2232 293.108C96.3204 292.876 100.778 292.994 103.971 292.998L122.479 293.021L142.681 292.996C145.564 292.992 156.453 292.607 158.331 293.92C159.118 294.459 159.637 295.311 159.754 296.258C160.205 300.018 156.478 300.796 153.625 300.835C150.203 301.022 146.228 300.833 142.75 300.793C137.254 300.749 131.759 300.733 126.263 300.746L107.614 300.776C102.872 300.82 93.771 301.449 89.0263 299.954C87.263 299.398 86.6137 296.036 88.0893 294.549C89.5047 293.123 91.2629 293.252 93.2232 293.108Z"/><path fill="#FF7A02" transform="scale(2 2)" d="M96.9671 265.121C111.77 265 126.573 265.004 141.376 265.131C146.24 265.206 151.167 265.052 155.983 265.276C161.705 265.542 160.07 273.819 154.618 272.687C154.051 272.57 150.956 272.65 150.173 272.643L113.247 272.738C106.696 272.765 100.355 272.844 93.6109 272.717C90.2416 272.653 84.9608 271.52 88.4615 266.551C89.7636 264.702 94.6444 265.115 96.9671 265.121Z"/><path fill="#FF7A02" transform="scale(2 2)" d="M101.115 320.628L135.529 320.575C138.864 320.571 156.943 319.819 158.432 321.851C164.207 329.733 149.1 328.194 145.531 328.094L108.865 328.082C106.109 328.08 90.1491 328.668 88.9907 327.132C82.8236 318.955 97.2519 320.68 101.115 320.628Z"/><path fill="#F8A700" transform="scale(2 2)" d="M225.621 130.079C231.982 129.721 289.829 129.737 291.205 130.382C292.086 130.795 292.674 132.046 292.884 132.937C293.087 133.801 293.111 134.685 292.584 135.44C291.593 136.862 289.729 137.169 288.142 137.409C279.446 137.678 270.538 137.217 261.825 137.388C259.299 137.438 256.703 137.397 254.166 137.39C245.282 137.365 236.445 137.804 227.556 137.495C226.609 137.462 222.777 137.124 221.742 136.392C219.089 131.252 223.088 130.368 225.621 130.079Z"/><path fill="#FBA200" transform="scale(2 2)" d="M416.294 122.778C417.261 122.908 418.404 122.988 419.18 123.647C419.723 124.108 419.922 124.681 419.979 125.372C420.194 127.967 416.667 131.966 415.029 133.788C412.026 137.127 399.372 150.49 395.29 150.267C393.943 150.194 392.6 149.136 391.61 148.316C389.428 146.509 387.53 144.17 385.574 142.12C382.403 138.791 379.18 135.511 375.906 132.283C374.642 131.073 372.205 128.954 372.365 127.12C372.835 121.707 378.316 124.726 380.522 126.508C386.141 131.048 391.282 136.552 395.571 142.305C399.888 138.151 411.135 124.599 416.294 122.778Z"/><path fill="#FF7A02" transform="scale(2 2)" d="M331.708 414.352C334.244 414.003 341.807 414.319 344.721 414.279C350.981 414.286 356.41 414.189 362.736 414.274C365.448 414.31 370.32 415.161 368.671 419.51C368.165 420.843 363.986 421.253 362.577 421.464C351.938 421.737 340.829 421.277 330.15 421.422C326.663 421.469 323.05 419.835 325.465 415.942C326.326 414.555 330.176 414.487 331.708 414.352Z"/><path fill="#F8A700" transform="scale(2 2)" d="M282.891 266.046C287.514 265.903 312.365 265.413 315.273 266.646C316.009 266.958 316.436 267.729 316.683 268.459C317.034 269.495 316.924 270.449 316.404 271.416C315.859 272.428 315.129 272.763 314.062 273.043C310.448 273.286 282.979 273.718 281.163 272.595C280.066 271.916 279.758 270.487 279.351 269.341C280.283 267.236 280.689 266.696 282.891 266.046Z"/><path fill="#FF7A02" transform="scale(2 2)" d="M128.159 195.082C129.701 194.612 131.377 195.079 132.454 196.279C133.531 197.479 133.814 199.195 133.18 200.678C132.547 202.161 131.11 203.142 129.498 203.193C128.048 203.239 126.68 202.523 125.89 201.307C125.181 200.215 125.026 198.852 125.472 197.629C125.918 196.405 126.913 195.462 128.159 195.082Z"/></svg>