<?xml version="1.0" encoding="utf-8" ?><svg xmlns="http://www.w3.org/2000/svg" xmlns:xlink="http://www.w3.org/1999/xlink" width="683" height="683" viewBox="0 0 683 683"><path fill="#FF7A02" transform="matrix(1.33398 0 0 1.33398 0 -1.52588e-05)" d="M111.194 149.358C121.634 149.804 125.054 154.015 132.03 160.852L222.181 250.295C226.782 254.806 241.61 282.74 244.766 290.221C247.094 295.741 238.589 306.726 228.246 299.277C222.913 297.004 197.594 284.806 193.521 280.785L100.926 187.577C95.5857 182.29 91.137 179.004 90.6828 170.955C89.9574 158.101 99.1666 150.327 111.194 149.358ZM200.915 269.122C205.281 264.462 209.929 260.01 214.254 255.364C210.666 252.19 207.079 248.441 203.665 245.024L124.995 167.089C120.904 163.043 117.435 158.086 111.194 158.598C102.302 159.513 95.9647 168.092 102.562 175.643C108.981 182.99 116.762 189.356 123.394 196.55L184.452 258.263C188.845 262.72 194.111 267.737 198.122 272.447C198.865 271.539 200.143 269.892 200.915 269.122ZM205.975 277.822C211.577 279.826 221.066 285.247 226.879 288.289C229.601 289.791 232.814 291.647 235.641 292.854C234.755 290.684 220.581 263.704 219.624 262.676C215.462 267.697 209.338 273.083 205.975 277.822Z"/><defs><linearGradient id="gradient_0" gradientUnits="userSpaceOnUse" x1="394.98776" y1="193.57838" x2="282.79022" y2="332.01624"><stop offset="0" stop-color="#F2C000"/><stop offset="1" stop-color="#FF6601"/></linearGradient></defs><path fill="url(#gradient_0)" transform="matrix(1.33398 0 0 1.33398 0 -1.52588e-05)" d="M417.475 206.109L417.494 206.534C415.478 208.452 413.554 210.337 411.59 212.307C412.858 211.508 413.937 210.775 415.311 210.162L415.51 210.341C413.986 213.001 416.569 216.129 414.715 220.682C415.534 219.811 416.348 218.653 417.475 218.549C415.853 220.382 414.233 222.038 412.527 223.785C422.704 241.302 412.806 260.885 392.871 261.715C387.48 261.939 383.146 260.491 378.314 258.553C368.436 265.252 350.418 286.278 340.872 295.565C336.619 299.702 331.139 298.9 326.294 296.558C320.791 302.195 312.212 310.802 305.788 301.099C303.074 303.196 300.537 305.823 298.07 308.231L287.238 318.915C284.953 321.211 282.717 323.702 280.135 325.698C275.319 329.614 270.481 323.294 274.086 319.189C281.657 310.568 290.521 303.022 298.658 294.937C296.276 292.679 293.802 290.486 291.36 288.289C285.246 294.554 278.742 301.031 272.312 307.025C268.504 310.55 262.983 304.566 265.684 301.305C271.552 294.221 278.955 288.094 285.112 281.196C273.149 272.072 281.853 265.708 289.302 258.553C284.467 252.172 286.773 247.794 292.022 242.565C301.468 233.157 310.906 223.725 320.159 214.125C324.993 209.111 331.707 214.723 327.469 220.207C318.227 229.864 303.551 242.437 295.709 252.558C307.074 263.53 319.979 275.965 330.647 287.435C331.503 288.356 332.244 289.089 333.275 289.825C337.549 286.799 347.027 276.337 351.187 272.171L398.208 225.099C403.402 219.953 411.991 210.387 417.475 206.109ZM289.302 272.447C292.649 277.097 307.901 292.427 313.054 296.558C315.256 294.858 317.774 291.962 319.677 289.825C312.174 281.239 302.531 274.092 295.709 265.005C293.223 267.469 291.104 269.404 289.302 272.447ZM385.587 251.174L388.262 252.558C403.046 253.267 413.593 238.422 405.46 230.705C399.236 237.421 391.181 244.186 385.587 251.174Z"/><path fill="#FEAE00" transform="matrix(1.33398 0 0 1.33398 0 -1.52588e-05)" d="M403.441 145.615C410.376 138.122 414.688 131.932 425.893 131.656C446.139 131.158 457.511 156.032 442.699 170.41C440.62 172.428 437.618 175.221 435.754 177.356C452.047 192.981 430.559 204.936 420.37 215.782C419.706 216.443 418.146 218.089 417.475 218.549C416.348 218.653 415.534 219.811 414.715 220.682C416.569 216.129 413.986 213.001 415.51 210.341L415.311 210.162C413.937 210.775 412.858 211.508 411.59 212.307C413.554 210.337 415.478 208.452 417.494 206.534L417.475 206.109C421.629 200.086 436.437 191.87 430.52 185.501C424.85 179.035 418.638 173.346 412.665 167.251L404.108 158.507C402.593 156.948 399.181 152.058 396.682 152.694C391.328 154.054 375.092 175.854 369.251 178.108C365.924 179.392 362.551 174.396 364.384 171.474C365.718 169.346 386.208 148.68 388.631 146.799C393.233 143.226 398.275 142.924 403.441 145.615ZM410.111 151.549L428.092 169.712L429.291 170.927C431.167 168.59 433.797 165.668 435.939 163.545C445.428 154.139 437.484 139.952 423.984 140.792C418.786 142.029 414.576 147.661 410.111 151.549Z"/><path fill="#FF7A02" transform="matrix(1.33398 0 0 1.33398 0 -1.52588e-05)" d="M305.788 338.027C316.956 339.332 306.814 348.39 303.77 351.313C292.868 361.785 294.565 373.949 294.569 387.759L294.586 418.101C299.966 418.234 305.958 418.107 311.381 418.107L446.274 418.101C450.396 421.231 450.29 426.747 444.559 427.687L309.256 427.694C302.982 427.698 296.68 427.765 290.43 427.62C282.766 427.442 285.097 416.92 285.099 410.781L285.111 376.454C285.131 363.315 292.263 342.194 305.788 338.027Z"/><defs><linearGradient id="gradient_1" gradientUnits="userSpaceOnUse" x1="239.88318" y1="370.92581" x2="144.61406" y2="408.04181"><stop offset="0" stop-color="#FF6B0C"/><stop offset="1" stop-color="#FF233F"/></linearGradient></defs><path fill="url(#gradient_1)" transform="matrix(1.33398 0 0 1.33398 0 -1.52588e-05)" d="M228.246 418.101L228.259 387.147C228.26 369.394 228.934 345.715 204.913 341.954C193.101 339.881 197.873 330.887 203.614 331.638C230.219 335.119 237.892 357.166 237.878 380.047L237.88 413.417C237.882 428.247 239.184 427.758 224.538 427.717L152.766 427.687C149.63 427.199 143.664 426.722 151.364 427.217L151.644 427.237C153.1 426.034 156.196 426.736 158.346 424.482C159.74 423.02 160.248 421.398 161.401 420.281L161.731 419.964L161.671 419.504C158.78 417.537 144.333 419.198 140.862 418.422C143.708 417.542 148.362 418.838 151.087 418.101L228.246 418.101Z"/><path fill="#FF7A02" transform="matrix(1.33398 0 0 1.33398 0 -1.52588e-05)" d="M259.865 69.5257C264.357 69.3069 265.261 71.9068 265.286 75.8111L265.307 195.336C265.289 198.063 264.238 199.371 261.816 200.298C258.145 200.318 256.181 198.593 256.128 194.853C255.998 185.736 256.051 176.61 256.051 167.491L256.047 88.4757C256.041 81.381 253.654 72.8173 259.865 69.5257Z"/><path fill="#FB000B" transform="matrix(1.33398 0 0 1.33398 0 -1.52588e-05)" d="M65.4016 426.383C59.596 416.475 73.4012 418.095 78.5646 418.093L151.087 418.101C148.362 418.838 143.708 417.542 140.862 418.422C144.333 419.198 158.78 417.537 161.671 419.504L161.731 419.964L161.401 420.281C160.248 421.398 159.74 423.02 158.346 424.482C156.196 426.736 153.1 426.034 151.644 427.237L151.364 427.217C143.664 426.722 149.63 427.199 152.766 427.687C148.677 427.948 141.422 427.7 137.044 427.697L80.0359 427.703C75.4794 427.708 69.3236 428.824 65.4016 426.383Z"/><path fill="#FEAE00" transform="matrix(1.33398 0 0 1.33398 0 -1.52588e-05)" d="M407.478 187.276C411.088 186.945 414.479 188.738 413.963 192.768C410.488 198.468 396.872 210.714 391.848 215.666L364.916 242.714C363.043 244.572 358.199 250.04 356.651 251.174C353.361 251.546 348.656 248.563 350.352 245.419C352.358 241.7 358.276 236.311 361.099 233.436L395.328 198.769C398.542 195.508 403.815 189.394 407.478 187.276Z"/><path fill="#FB000B" transform="matrix(1.33398 0 0 1.33398 0 -1.52588e-05)" d="M164.91 352.238C169.262 351.691 171.164 356.857 168.845 359.559C166.966 361.747 125.207 384.995 118.813 387.06C115.022 386.745 112.626 382.032 114.928 378.877C116.287 377.015 161.348 352.765 164.91 352.238Z"/><path fill="#FB000B" transform="matrix(1.33398 0 0 1.33398 0 -1.52588e-05)" d="M83.8102 268.057C94.0215 266.955 110.547 268.594 121.021 269.066C126.721 269.323 134.052 268.636 139.639 269.791C143.521 271.474 142.694 277.379 138.935 278.876C134.25 279.207 84.5794 277.294 82.7794 276.568C78.6247 274.891 79.5925 269.412 83.8102 268.057Z"/><path fill="#FF7A02" transform="matrix(1.33398 0 0 1.33398 0 -1.52588e-05)" d="M358.53 352.238C360.266 352.479 408.95 377.747 409.382 380.935C409.766 383.766 408.454 386.572 405.46 387.06C403.024 386.316 399.95 384.514 397.607 383.289L367.876 367.71C363.163 365.251 344.651 357.527 358.53 352.238Z"/><path fill="#FF7A02" transform="matrix(1.33398 0 0 1.33398 0 -1.52588e-05)" d="M182.423 124.297C184.867 124.271 186.297 125.813 187.301 127.863L202.165 158.404C205.639 165.549 214.883 176.791 205.975 181.087C199.772 180.267 194.258 163.35 191.38 157.36L183.294 140.899C180.251 134.822 174.01 127.781 182.423 124.297Z"/><path fill="#FF7A02" transform="matrix(1.33398 0 0 1.33398 0 -1.52588e-05)" d="M436.873 268.057C441.982 266.855 444.823 271.818 442.251 275.607C440.265 278.533 395.769 279.579 390.73 279.799C381.024 280.591 382.879 270.929 387.59 270.567C402.898 269.391 421.468 268.178 436.873 268.057Z"/><path fill="#FEAE00" transform="matrix(1.33398 0 0 1.33398 0 -1.52588e-05)" d="M339.436 124.297C348.055 125.75 341.975 135.271 339.884 139.997L326.834 169.681C325.28 173.262 323.725 179.901 319.677 181.087C316.788 180.739 315.435 180.124 314.384 177.356C315.397 172.166 318.495 166.247 320.65 161.316L329.12 141.874C330.492 138.768 335.014 127.631 336.698 125.418C337.794 124.783 338.204 124.69 339.436 124.297Z"/><path fill="#FB000B" transform="matrix(1.33398 0 0 1.33398 0 -1.52588e-05)" d="M190.013 391.123C195.988 391.098 219.099 388.043 209.787 400.762C208.615 400.896 208.454 400.939 207.313 400.762C199.332 400.726 186.601 404.155 184.66 395.638C185.662 392.185 186.463 391.349 190.013 391.123Z"/><path fill="#FEAE00" transform="matrix(1.33398 0 0 1.33398 0 -1.52588e-05)" d="M351.977 183.021C357.357 182.69 359.775 187.725 356.547 190.31C352.324 193.691 344.595 203.712 340.38 206.109C326.082 202.147 348.17 184.88 351.977 183.021Z"/><path fill="#FF7A02" transform="matrix(1.33398 0 0 1.33398 0 -1.52588e-05)" d="M260.89 378.522C262.901 378.399 264.771 378.947 265.8 380.843C266.854 382.784 269.073 402.176 262.793 404.951C259.9 405.411 258.761 404.38 257.062 402.121C257.053 395.197 254.107 380.928 260.89 378.522Z"/><path fill="#FF7A02" transform="matrix(1.33398 0 0 1.33398 0 -1.52588e-05)" d="M245.347 309.28C248.685 309.019 265.425 325.83 254.554 329.756C250.194 329.769 243.382 318.908 241.718 315.449C240.196 312.283 242.687 310.472 245.347 309.28Z"/><path fill="#FF7A02" transform="matrix(1.33398 0 0 1.33398 0 -1.52588e-05)" d="M260.89 421.535C269.306 420.907 267.877 440.351 262.793 442.618C255.436 443.646 254.035 424.717 260.89 421.535Z"/><path fill="#FF7A02" transform="matrix(1.33398 0 0 1.33398 0 -1.52588e-05)" d="M261.816 345.072C268.481 345.385 268.979 360.889 261.816 362.93C254.882 360.237 254.893 346.264 261.816 345.072Z"/></svg>