<?xml version="1.0" encoding="utf-8" ?><svg xmlns="http://www.w3.org/2000/svg" xmlns:xlink="http://www.w3.org/1999/xlink" width="1024" height="1024" viewBox="0 0 1024 1024"><defs><linearGradient id="gradient_0" gradientUnits="userSpaceOnUse" x1="415.13751" y1="247.22159" x2="291.56158" y2="408.12329"><stop offset="0" stop-color="#F0B924"/><stop offset="1" stop-color="#FF9526"/></linearGradient></defs><path fill="url(#gradient_0)" transform="scale(2 2)" d="M353.14 225.496C409.571 225.292 455.502 270.837 455.774 327.268C456.046 383.698 410.557 429.684 354.126 430.024C297.599 430.365 251.518 384.781 251.246 328.253C250.973 271.726 296.613 225.7 353.14 225.496ZM358.886 421.446C410.678 418.401 450.163 373.895 447.017 322.109C443.871 270.324 399.289 230.925 347.51 234.172C295.873 237.41 256.606 281.843 259.743 333.486C262.88 385.129 307.237 424.483 358.886 421.446Z"/><path fill="#FFD600" transform="scale(2 2)" d="M353.22 260.064C358.197 259.753 357.77 263.912 357.766 267.539C387.854 269.141 413.843 294.789 414.955 324.977C417.304 324.961 421.099 324.207 423.068 325.542C424.943 326.809 425.326 330.146 423.766 331.744C422.117 333.433 417.28 333.137 414.955 333.256C414.014 363.066 386.825 387.463 357.766 389.865L357.766 396.258C357.192 397.203 356.864 397.566 356.135 398.417C349.741 402.781 349.07 394.088 349.245 389.865C321.932 388.521 293.012 360.904 292.927 333.256C280.84 332.89 280.996 325.095 292.927 324.977C292.331 294.26 319.601 269.932 349.245 267.539C349.105 263.257 348.511 261.207 353.22 260.064ZM349.245 275.88C324.296 278.023 301.132 299.113 301.166 324.977C303.336 324.997 306.995 324.658 308.592 326.214C313.758 331.252 305.422 333.352 301.166 333.256C303.881 362.147 323.64 375.619 349.245 381.738C349.605 370.62 357.995 371.31 357.766 381.738C382.047 378.09 402.388 362.306 406.196 336.804C406.369 335.65 406.728 334.363 407.088 333.256C395.473 332.258 397.09 323.737 407.088 324.977C403.459 300.157 384.355 275.805 357.766 275.88C357.513 280.955 354.486 285.871 349.921 281.003C348.869 279.881 349.76 276.854 349.245 275.88Z"/><path fill="#FFD600" transform="scale(2 2)" d="M353.22 288.802C355.72 289.027 356.3 289.513 357.766 291.542C358.107 302.172 357.765 315.04 357.766 325.858C362.202 330.05 367.293 335.555 371.45 340.139C373.811 342.743 370.636 345.486 368.336 346.997C365.849 346.602 349.7 330.501 349.569 328.421C348.831 316.709 349.314 304.358 349.34 292.558C349.347 289.782 350.891 289.225 353.22 288.802Z"/><path fill="#FF7706" transform="scale(2 2)" d="M203.742 239.167L216.404 239.134C241.784 239.09 240.448 248.178 240.441 270.371L240.446 421.062L271.02 421.062C270.99 418.828 270.399 409.506 272.385 408.562C280.935 404.499 279.044 416.36 279.011 421.062C282.438 421.119 292.028 420.133 294.524 422.275C297.687 424.99 296.519 429.473 292.164 429.623C290.268 429.688 288.29 429.538 286.386 429.519L98.375 429.5C80.4377 429.59 80.5422 432.555 80.5287 414.341L80.5178 358.975C80.5192 352.882 80.4463 346.775 80.6281 340.688C80.6593 335.132 88.9685 334.753 88.9318 340.781L88.8779 421.062C94.2996 421.255 100.968 421.068 106.485 421.062L106.494 380.772C106.486 367.59 103.361 345.247 124.162 347.001C132.417 347.698 141.15 345.052 148.517 349.306C148.66 335.137 148.181 320.766 148.764 306.602C149.498 288.793 164.512 291.291 177.086 290.749C182.638 290.529 185.286 290.455 190.022 293.429L190.014 266.951C189.974 255.347 188.84 242.074 203.742 239.167ZM198.465 421.062L225.622 421.062L232.036 421.062L232.041 271.249C232.043 257.369 236.079 246.311 217.995 247.417C213.847 247.67 209.45 247.261 205.336 247.479C195.189 249.56 198.452 266.093 198.456 274.704L198.465 421.062ZM182.305 421.062L190.022 421.062L190.029 317.651C190.028 307.429 193.049 299.296 179.732 299.326L165.669 299.393C154.306 299.575 156.955 309.413 156.958 317.551L156.961 421.062L182.305 421.062ZM114.67 421.062L142.375 421.062C144.395 421.055 146.505 421.015 148.517 421.062L148.543 368.596C148.616 358.967 148.53 354.59 136.5 354.95C131.594 355.097 126.043 354.62 121.165 354.986C111.294 358.274 114.668 373.579 114.666 382.932L114.67 421.062Z"/><defs><linearGradient id="gradient_1" gradientUnits="userSpaceOnUse" x1="231.14647" y1="142.95067" x2="185.30968" y2="252.65427"><stop offset="0" stop-color="#F8CE25"/><stop offset="1" stop-color="#FF9B3E"/></linearGradient></defs><path fill="url(#gradient_1)" transform="scale(2 2)" d="M292.927 163.131L293.014 163.539C291.595 164.852 288.985 166.647 287.32 167.919C294.008 167.519 291.159 169.437 291.498 173.475L292.387 172.697L292.802 172.77L292.927 172.992C292.165 173.704 291.197 174.329 290.36 174.965C283.712 180.015 250.916 205.39 245.885 207.182C235.76 202.356 210.609 183.257 201.577 176.331C198.11 178.385 195.039 181.225 191.768 183.608L131.923 227.528C124.848 232.107 121.681 224.483 127.383 220.391L185.76 177.833C199.151 167.865 197.508 163.51 209.918 172.145L221.151 180.036C229.307 185.826 237.911 191.617 245.885 197.558C250.512 194.596 257.881 188.762 262.455 185.387L292.927 163.131Z"/><path fill="#FF7706" transform="scale(2 2)" d="M84.3075 82.0535C89.1558 82.114 109.286 104.381 113.099 108.315C117.351 112.7 111.539 118.146 108.333 115.117C101.894 108.74 95.794 102.023 88.8779 96.1226L88.8999 181.11C88.918 186.072 90.3657 190.379 86.0731 192.916C79.1354 195.253 80.5334 183.807 80.5309 179.905L80.5249 119.257C80.5273 112.186 80.7596 104.053 80.5286 97.102C74.1274 101.768 68.2045 111.879 61.8101 115.426C59.2506 116.846 54.4729 113.659 55.6887 110.799C56.8249 108.127 80.1467 83.8679 84.3075 82.0535Z"/><path fill="#FFD600" transform="scale(2 2)" d="M288.143 116.027C281.316 112.59 285.081 108.546 289.176 104.51C296.279 97.5114 303.509 90.536 310.488 83.4013C315.922 77.8756 319.27 83.9808 323.259 87.9094L334.11 98.6252C336.849 101.363 344.547 108.162 345.626 111.08C340.887 124.405 326.53 101.909 319.291 95.9838L318.793 95.5707L318.801 133.593C318.803 139.932 318.952 146.96 318.793 153.256C316.534 156.893 296.705 170.716 292.927 172.992L292.802 172.77L292.387 172.697L291.498 173.475C291.159 169.437 294.008 167.519 287.32 167.919C288.985 166.647 291.595 164.852 293.014 163.539L292.927 163.131C297.056 159.491 305.675 153.821 310.527 150.214L310.527 95.5707C303.924 99.6205 295.493 113.191 288.143 116.027Z"/><path fill="#FFD600" transform="scale(2 2)" d="M323.726 211.55C328.248 210.727 330.999 217.266 325.917 219.257C309.381 225.285 304.407 226.416 288.979 236.304C286.924 236.299 284.671 234.723 284.142 232.744C281.955 224.564 318.273 213.042 323.726 211.55Z"/><path fill="#FF7706" transform="scale(2 2)" d="M84.3075 236.304C88.2192 236.339 89.0732 238.635 88.9247 242.171C88.6573 248.537 91.3715 259.136 85.2732 261.237C77.9279 261.461 80.3573 242.257 81.5272 237.931C81.7278 237.189 83.6711 236.541 84.3075 236.304Z"/><path fill="#FF7706" transform="scale(2 2)" d="M84.3075 202.753C91.7422 202.374 89.8876 224.733 86.0731 226.87C78.9221 227.91 80.7976 219.949 80.5085 215.263C80.1781 209.908 79.3869 204.969 84.3075 202.753Z"/><path fill="#FF7706" transform="scale(2 2)" d="M84.3075 303.316C86.1958 303.487 88.2358 304.198 88.6413 306.328C89.4497 310.573 91.143 325.679 85.2732 326.948C77.6952 326.272 81.397 315.272 80.5404 309.734C80.0528 306.582 81.1158 304.349 84.3075 303.316Z"/><path fill="#FF7706" transform="scale(2 2)" d="M84.3075 270.752C91.8742 270.316 89.7296 291.914 86.0731 294.236C77.5868 294.591 80.3094 278.307 81.273 272.923C81.4682 271.832 83.4393 271.115 84.3075 270.752Z"/></svg>