<?xml version="1.0" encoding="utf-8" ?><svg xmlns="http://www.w3.org/2000/svg" xmlns:xlink="http://www.w3.org/1999/xlink" width="1024" height="1024" viewBox="0 0 1024 1024"><defs><linearGradient id="gradient_0" gradientUnits="userSpaceOnUse" x1="190.38687" y1="154.85005" x2="394.57529" y2="255.0406"><stop offset="0" stop-color="#FF8B28"/><stop offset="1" stop-color="#FF3538"/></linearGradient></defs><path fill="url(#gradient_0)" transform="scale(2 2)" d="M238.867 157.949C242.32 153.116 248.219 147.101 252.484 142.852C257.955 137.429 263.471 132.051 269.029 126.719C277.238 118.77 284.831 110.085 293.365 102.49C314.404 83.7683 342.857 70.0679 370.685 65.4323C377.102 64.3633 383.652 63.4076 390.156 63.1655C400.846 62.7675 428.955 64.7277 437.448 70.6079C442.371 74.0169 444.881 89.7993 445.829 95.7764C452.089 135.252 439.038 175.474 415.869 207.355C401.947 226.512 384.406 242.807 367.669 259.456L358.792 268.224C357.414 269.567 355.142 271.611 353.916 272.988C362.49 288.7 360.115 311.837 355.618 328.715C350.292 348.706 337.339 362.205 323.095 376.335L307.171 392.357C303.56 396 293.82 406.752 290.288 408.591C289.701 408.896 289.225 408.914 288.594 408.738C285.999 408.013 267.072 389.168 265.883 386.386C265.547 385.6 265.769 384.765 266.108 384.022C267.323 381.365 270.126 379.295 272.224 377.353C275.013 374.774 277.693 372.062 280.389 369.386C287.309 362.517 292.748 356.019 289.301 345.803C288.682 343.968 287.859 342.179 287.108 340.393C284.734 343.389 282.249 345.455 279.468 348.017C271.782 355.099 261.708 359.052 252.881 351.269C247.991 346.958 243.208 342.013 238.44 337.381C226.847 326.02 215.315 314.598 203.845 303.112L176.051 275.593C173.227 272.799 170.37 269.98 167.558 267.176C160.352 259.99 153.62 254.32 157.035 243.214C157.422 241.116 158.907 238.728 160.147 237.032C163.242 233.244 167.757 228.822 171.251 225.282C170.507 224.664 169.615 224.042 168.827 223.463L167.725 222.847C166.149 221.5 162.388 220.46 160.489 219.581C151.031 218.779 146.936 224.646 140.864 230.983C136.521 235.516 131.167 242.242 125.857 245.874C125.305 246.252 123.787 246.226 123.221 245.81C115.842 240.394 109.71 232.844 102.942 226.608C100.928 224.751 100.574 222.409 102.082 220.085C106.442 213.366 113.259 208.346 118.858 202.554C125.853 195.317 133.137 188.229 140.363 181.225C153.859 169.104 169.928 158.64 187.483 153.588C190.11 152.832 192.844 152.444 195.48 151.677L197.03 151.407C199.625 151.064 202.291 150.92 204.906 150.739C213.464 149.177 231.718 152.933 238.867 157.949ZM173.929 217.689C175.046 218.511 175.689 219.141 176.675 220.087C181.878 214.161 188.847 207.505 194.502 201.827L224.999 171.012C227.618 168.329 230.426 165.854 232.914 163.129C222.401 159.982 214.376 158.3 203.227 158.825C200.814 158.938 198.054 159.712 195.689 159.917L195.269 159.951C164.405 167.422 148.814 183.194 127.13 205.265L116.837 215.757C114.891 217.745 112.188 220.319 110.574 222.481C114.7 227.071 120.983 232.754 124.566 237.124C126.287 235.344 127.707 233.38 129.436 231.602C131.787 229.186 134.311 226.949 136.723 224.594C143.105 217.991 149.616 211.536 159.43 211.339C160.885 211.31 163.872 211.682 165.165 212.383C167.729 213.04 172.127 215.856 173.929 217.689ZM390.879 71.6066C384.1 71.9967 377.488 72.4562 370.819 73.7594C367.645 74.3795 364.024 74.6887 361.009 75.8164C364.426 79.2763 368.26 82.6719 371.783 86.1654L406.127 120.448C409.65 123.986 413.198 127.498 416.773 130.983C418.147 132.322 421.183 135.089 422.355 136.422C424.464 138.582 433.067 147.978 434.693 148.698C436.266 147.954 436.089 145.122 436.368 143.64C439.359 127.765 440.187 111.306 437.246 95.3432C436.157 89.4359 434.231 83.037 432.596 77.0725C421.148 72.7846 403.067 70.6102 390.879 71.6066ZM347.393 278.609C343.755 283.984 339.305 288.061 334.726 292.59L322.812 304.465L304.199 323.194C300.466 326.951 296.445 331.166 292.551 334.703C294.823 338.001 296.785 340.75 297.901 344.679C302.984 362.586 285.32 374.002 275.162 385.529C277.292 387.579 279.336 389.501 281.311 391.707C282.811 393.133 288.078 398.596 289.15 399.376C291.162 398.635 324.433 363.832 328.182 359.774C330.655 357.054 333.05 354.264 335.364 351.408C338.658 347.237 341.463 342.703 343.724 337.893C351.381 321.44 353.406 298.721 349.113 281.16C348.93 280.408 348.169 278.861 347.393 278.609ZM382.845 233.216C389.163 226.311 395.205 220.479 401.506 213.111C411.438 201.331 419.754 188.278 426.233 174.297C428.482 169.34 430.792 162.994 432.784 157.866C424.533 150.464 416.233 141.914 408.324 134.059L371.852 97.9258C366.474 92.6144 357.559 82.2401 351.908 78.3297C335.296 83.3166 320.398 91.8075 306.655 102.264C294.158 111.773 283.696 123.322 272.693 134.445L226.795 180.896L190.322 217.683C181.834 226.193 172.007 234.685 165.083 244.462C162.006 248.807 165.979 254.077 168.975 257.26C173.657 262.234 178.634 267.035 183.5 271.858L208.295 296.492C219.84 308.068 231.479 319.551 243.211 330.938C246.031 333.68 248.724 336.561 251.453 339.422C255.48 343.681 261.313 348.429 267.59 347.244C268.535 347.066 270.905 345.275 271.659 344.538C277.489 338.842 283.201 332.989 288.96 327.218L324.801 291.293C330.792 285.27 337.83 277.79 343.961 272.075C344.708 270.797 352.866 263.001 354.451 261.411L372.745 243.085C375.616 240.221 379.858 235.771 382.845 233.216Z"/><path fill="#FF8128" transform="scale(2 2)" d="M160.489 219.581C151.031 218.779 146.936 224.646 140.864 230.983C136.521 235.516 131.167 242.242 125.857 245.874C125.305 246.252 123.787 246.226 123.221 245.81C115.842 240.394 109.71 232.844 102.942 226.608C100.928 224.751 100.574 222.409 102.082 220.085C106.442 213.366 113.259 208.346 118.858 202.554C125.853 195.317 133.137 188.229 140.363 181.225C153.859 169.104 169.928 158.64 187.483 153.588C190.11 152.832 192.844 152.444 195.48 151.677C196.18 152.029 196.473 152.002 196.698 152.548C196.428 152.696 194.557 153.567 194.565 153.557C193.319 155.21 194.681 155.297 192.564 156.286C192.303 156.9 192.119 157.113 192.252 157.748C193.659 159.214 195.45 158.173 196.125 158.996C195.706 159.43 195.868 159.308 195.33 159.614L195.269 159.951C164.405 167.422 148.814 183.194 127.13 205.265L116.837 215.757C114.891 217.745 112.188 220.319 110.574 222.481C114.7 227.071 120.983 232.754 124.566 237.124C126.287 235.344 127.707 233.38 129.436 231.602C131.787 229.186 134.311 226.949 136.723 224.594C143.105 217.991 149.616 211.536 159.43 211.339C160.885 211.31 163.872 211.682 165.165 212.383C167.729 213.04 172.127 215.856 173.929 217.689C173.713 218.006 173.866 217.844 173.402 218.101C171.556 217.604 168.336 214.771 166.659 213.643C165.285 214.088 165.517 213.624 164.168 213.588L163.996 213.712L164.686 214.753C163.801 215.536 162.495 214.488 161.053 215.026C160.443 215.717 160.559 215.34 160.538 216.134C161.362 216.936 162.192 216.601 163.194 217.078C163.194 217.078 163.443 218.322 163.466 218.437C163.58 218.571 163.695 218.705 163.809 218.839C164.2 218.959 165.729 218.8 165.908 219.151C166.108 219.542 166.131 219.073 166.146 219.572C166.162 220.071 165.849 220.653 165.639 221.121L165.323 220.663C163.783 220.558 161.545 218.738 160.489 219.581Z"/><path fill="#FF8128" transform="scale(2 2)" d="M160.147 237.032C160.578 239.569 158.793 242.1 157.557 244.618L157.371 244.675C157.28 244.26 157.158 243.595 157.035 243.214C157.422 241.116 158.907 238.728 160.147 237.032Z"/><path fill="#FF8128" transform="scale(2 2)" d="M197.03 151.407C199.625 151.064 202.291 150.92 204.906 150.739C203.712 152.382 199.615 152.499 197.702 151.979C197.633 151.96 197.111 151.48 197.03 151.407Z"/><path fill="#FF8128" transform="scale(2 2)" d="M167.725 222.847C168.386 221.826 167.952 222.129 168.947 221.748L169.488 221.949C169.735 222.679 169.736 222.31 169.378 223.088L168.827 223.463L167.725 222.847Z"/><defs><linearGradient id="gradient_1" gradientUnits="userSpaceOnUse" x1="310.93903" y1="145.60222" x2="379.05722" y2="186.24216"><stop offset="0" stop-color="#FF6A28"/><stop offset="1" stop-color="#FF402E"/></linearGradient></defs><path fill="url(#gradient_1)" transform="scale(2 2)" d="M342.019 125.997C364.213 124.345 383.521 141.053 385.076 163.254C386.63 185.456 369.838 204.691 347.629 206.147C325.559 207.595 306.469 190.929 304.925 168.865C303.38 146.801 319.961 127.639 342.019 125.997ZM370.421 185.954C381.065 172.331 379.064 152.736 365.885 141.545C352.707 130.355 333.046 131.556 321.328 144.268C309.61 156.979 310.009 176.672 322.233 188.899C334.456 201.125 354.149 201.529 366.864 189.814C368.166 188.63 369.269 187.286 370.421 185.954Z"/><path fill="#FF2864" transform="scale(2 2)" d="M370.421 185.954C369.342 187.335 368.152 188.626 366.864 189.814C368.166 188.63 369.269 187.286 370.421 185.954Z"/><path fill="#FF2864" transform="scale(2 2)" d="M382.845 233.216C382.827 233.436 382.809 233.656 382.791 233.876C380.365 236.47 377.083 239.702 374.641 242.144L344.634 272.013C344.451 272.035 344.128 272.089 343.961 272.075C344.708 270.797 352.866 263.001 354.451 261.411L372.745 243.085C375.616 240.221 379.858 235.771 382.845 233.216Z"/><path fill="#FF2864" transform="scale(2 2)" d="M433.481 168.364C436.114 169.861 432.449 174.743 430.686 175.631C429.64 176.158 428.918 176.293 427.807 176.525L427.634 176.583L427.387 176.424L427.392 175.932C429.129 173.275 430.88 169.942 433.481 168.364Z"/><path fill="#FF2864" transform="scale(2 2)" d="M438.187 154.141L438.6 154.24C439.646 155.376 438.94 158.688 437.917 159.824C437.193 160.019 437.544 160.047 436.838 159.678C435.792 158.747 435.471 158.172 434.715 157.028C435.79 156.077 437.069 155.067 438.187 154.141Z"/><path fill="#FF2864" transform="scale(2 2)" d="M434.175 161.403C435.606 161.495 436.831 161.741 438.233 161.997C437.547 163.087 436.695 163.956 435.834 164.916C435.306 165.591 435.015 166.135 434.229 166.425L433.893 166.186C433.628 164.992 434.018 162.711 434.175 161.403Z"/><path fill="#FF8128" transform="scale(2 2)" d="M196.784 158.006C198.367 157.768 198.46 157.837 199.743 158.681C198.002 159.007 197.999 159.155 196.784 158.006Z"/><path fill="#FF2864" transform="scale(2 2)" d="M369.488 373.499C370.341 373.22 371.224 373.258 372.058 373.625C372.985 374.033 373.492 374.988 373.796 375.9C375.032 379.611 374.303 413.766 373.668 418.798C373.267 421.981 372.558 425.184 371.03 428.032C368.929 431.946 365.186 434.152 361.031 435.383C357.592 436.402 354.097 436.661 350.532 436.819C345.121 437.059 339.683 436.943 334.268 436.942L307.627 436.934L282.044 436.95C277.371 436.953 272.392 436.912 267.767 436.89C261.502 436.859 261.171 430.182 266.238 429.488C272.074 428.69 279.124 429.038 285.055 429.035L331.12 429.044C340.144 429.046 351.525 429.86 360.234 427.461C363.927 426.443 365.273 422.277 365.966 418.82C366.525 414.908 366.377 409.981 366.37 405.935L366.287 388.045C366.257 384.717 365.844 379.227 366.661 375.993C366.905 375.026 368.482 373.917 369.488 373.499Z"/><path fill="#FF8128" transform="scale(2 2)" d="M158.906 73.8686C162.822 73.8541 171.571 72.479 172.819 77.3812C171.889 85.8191 127.149 78.0258 121.802 83.5686C117.657 87.864 118.737 107.633 118.742 113.748L118.853 152.067C118.715 155.852 115.241 159.295 112.468 156.753C109.323 153.871 110.36 141.857 110.402 137.9L110.456 120.264L110.438 103.924C110.426 98.1989 110.217 92.6537 111.345 86.9972C114.241 72.4836 127.054 73.9465 138.508 73.9495C145.307 74.0017 152.107 73.9747 158.906 73.8686Z"/><path fill="#FF8128" transform="scale(2 2)" d="M197.802 355.238C198.483 355.321 199.157 355.44 199.813 355.641C200.611 355.886 201.336 356.374 201.657 357.181C202.03 358.119 201.788 359.096 201.388 359.978C199.648 363.809 181.174 381.219 176.915 385.458L140.073 422.11C133.28 428.882 126.728 435.945 119.77 442.518C118.542 443.678 117.312 444.369 115.734 444.961C113.288 444.041 112.517 442.901 111.28 440.814C113.191 437.255 127.16 423.997 130.547 420.632L154.977 396.219C166.659 384.525 178.003 372.474 189.911 361.065C192.171 358.9 194.904 356.462 197.802 355.238Z"/><path fill="#FF8128" transform="scale(2 2)" d="M149.999 311.229C151.648 310.696 154.381 310.64 154.809 312.767C155.269 315.052 153.231 317.518 152.003 319.289C147.475 325.175 141.481 330.173 136.131 335.27C132.657 338.581 129.244 342.087 125.871 345.489L91.0411 380.748C86.8151 385.002 82.7582 389.47 78.5214 393.647C76.8749 395.271 73.8211 397.497 71.7483 395.623C69.3675 393.47 71.7998 389.192 73.3963 387.505C78.1956 382.435 83.09 377.539 87.9629 372.58C97.5864 362.728 107.274 352.938 117.026 343.212L133.608 326.484C135.54 324.535 139.775 320.026 141.723 318.414C143.205 316.56 147.807 311.714 149.999 311.229Z"/><path fill="#FF8128" transform="scale(2 2)" d="M143.071 274.738C143.303 274.757 143.534 274.779 143.765 274.805C144.972 274.945 146.636 275.411 147.34 276.515C147.803 277.239 147.91 277.961 147.743 278.792C147.169 281.642 99.1131 329.221 92.8529 333.538C90.9619 334.002 90.5346 333.56 88.7869 332.636C88.3314 331.551 87.5716 329.992 88.0409 328.809C89.5681 324.96 131.871 283.696 138.518 277.938C139.938 276.709 141.317 275.462 143.071 274.738Z"/><path fill="#FF8128" transform="scale(2 2)" d="M229.736 366.83C231.712 365.019 234.913 363.096 237.376 365.408C239.914 370.634 222.384 384.81 218.768 388.427L196.696 410.648C192.738 414.685 185.81 422.796 181.288 425.484C179.861 425.156 178.279 424.849 177.392 423.551C176.786 422.663 176.722 421.374 177.016 420.361C177.819 417.599 200.487 395.456 203.926 392.415C206.627 389.359 212.168 384.105 215.185 381.237C215.442 380.859 215.635 380.77 216.008 380.467C217.118 379.083 221.553 374.598 222.97 373.471C223.389 372.754 224.213 372.063 224.84 371.472C225.962 370.204 228.457 367.854 229.736 366.83Z"/><path fill="#FF8128" transform="scale(2 2)" d="M96.85 410.966C97.1542 410.972 97.1534 410.965 97.509 411.018C98.7651 411.208 100.196 411.772 100.909 412.889C101.354 413.587 101.439 414.382 101.246 415.178C100.309 419.045 75.402 442.809 71.2316 446.412C70.0729 447.413 68.8805 448.267 67.5757 449.065C67.2553 449.059 66.9368 449.059 66.6205 448.999C65.463 448.779 64.1372 447.746 63.5201 446.762C63.0352 445.988 62.9109 445.104 63.137 444.22C64.0935 440.481 89.4047 416.471 94.122 412.665C94.9861 411.968 95.8426 411.442 96.85 410.966Z"/><path fill="#FF8128" transform="scale(2 2)" d="M174.563 333.273C176.547 333.193 177.938 332.876 178.961 334.793C179.184 338.062 173.053 344.345 170.852 346.522C163.953 353.349 157.131 360.249 150.355 367.196C149.82 367.745 148.918 368.084 148.204 368.317C147.624 368.197 147.033 368.058 146.478 367.849C145.432 367.456 144.349 366.66 143.924 365.593C143.614 364.814 143.64 363.856 143.996 363.099C145.706 359.455 166.913 338.704 171.08 335.32C172.184 334.423 173.223 333.789 174.563 333.273Z"/><path fill="#FF8128" transform="scale(2 2)" d="M127.396 380.012C127.929 379.963 128.465 379.963 128.998 380.012C134.281 380.52 131.889 385.66 129.84 388.256C127.52 391.195 124.848 393.717 121.862 395.96C119.002 396.176 116.434 393.476 117.443 390.681C118.872 386.727 123.783 381.908 127.396 380.012Z"/></svg>