<?xml version="1.0" encoding="utf-8" ?><svg xmlns="http://www.w3.org/2000/svg" xmlns:xlink="http://www.w3.org/1999/xlink" width="1024" height="1024" viewBox="0 0 1024 1024"><path fill="#FF7628" transform="scale(2 2)" d="M187.798 366.239L436.3 366.224C439.125 366.219 448.986 365.503 450.922 367.648C454.274 371.361 451.089 376.331 446.253 375.968L218.902 375.989C218.827 375.993 218.752 375.997 218.676 376.001L81.7305 375.993C75.4843 375.992 69.2395 376.039 62.9933 375.893C55.9073 375.727 55.993 366.281 62.7373 366.224L187.798 366.239Z"/><path fill="#FBAA18" transform="scale(2 2)" d="M218.902 375.989C218.827 375.993 218.752 375.997 218.676 376.001L81.7305 375.993C75.4843 375.992 69.2395 376.039 62.9933 375.893C55.9073 375.727 55.993 366.281 62.7373 366.224L187.798 366.239C185.853 367.751 149.597 365.989 143.525 367.648C143.465 372.975 140.387 371.124 141.202 373.399C144.867 376.532 217.452 374.578 218.902 375.989Z"/><path fill="#FBAA18" transform="scale(2 2)" d="M255.846 182.498C311.457 179.391 355.032 234.759 343.032 289.333C337.615 313.969 323.202 336.122 302.964 351.777C298.569 354.821 293.146 349.019 296.517 345.034C298.58 342.764 301.089 340.812 303.401 338.78C335.312 310.733 346.943 263.041 322.351 226.334C320.765 223.967 318.924 221.411 317.558 218.899C314.655 216.826 312.911 214.455 310.341 212.188C255.353 163.673 169.45 208.258 179.163 279.755C179.981 285.773 181.681 291.151 183.141 297.028C182.89 297.787 182.359 299.353 181.764 299.88C170.872 309.53 169.08 275.248 169.085 269.766C169.124 222.382 208.364 182.771 255.846 182.498Z"/><path fill="#F88F18" transform="scale(2 2)" d="M221.089 438.383C200.322 438.672 178.587 438.445 157.998 438.267C134.125 438.059 108.674 417.354 102.04 394.886C100.82 390.755 107.011 387.945 109.846 391.118C111.378 392.913 112.484 396.269 113.7 398.379C130.044 430.358 155.325 428.77 185.111 428.769L240.9 428.776L339.261 428.782C363.704 428.805 384.563 424.994 397.091 400.229C399.708 395.055 399.236 390.27 406.266 391.332C411.366 394.561 408.837 398.276 406.97 402.545C393.532 433.287 365.925 438.409 336.727 438.388L221.089 438.383Z"/><path fill="#FF7628" transform="scale(2 2)" d="M221.089 438.383C200.322 438.672 178.587 438.445 157.998 438.267C134.125 438.059 108.674 417.354 102.04 394.886C100.82 390.755 107.011 387.945 109.846 391.118C111.378 392.913 112.484 396.269 113.7 398.379C130.044 430.358 155.325 428.77 185.111 428.769L240.9 428.776C238.72 429.343 232.73 429.23 230.209 429.283C219.946 429.5 191.415 427.957 182.856 430.263L182.709 430.587L183.315 431.295C182.91 432.486 181.162 435.206 181.804 436.555C191.357 438.296 200.917 438.954 210.584 437.733C211.922 437.564 219.733 438.045 221.089 438.383Z"/><path fill="#FBAA18" transform="scale(2 2)" d="M285.549 228.535C291.876 228.225 296.418 238.112 298.4 243.001C311.125 274.392 274.464 320.573 250.546 337.253C246.826 339.848 240.371 344.358 236.233 345.922C226.142 345.309 231.779 337.782 238.399 333.931C249.432 327.511 260.923 317.488 269.029 307.515C281.238 292.064 302.046 257.193 285.002 238.769C281.366 234.838 279.447 231.094 285.549 228.535Z"/><path fill="#FBAA18" transform="scale(2 2)" d="M221.089 238.759C226.645 238.92 230.44 247.476 231.94 252C242.979 285.303 206.121 322.289 178.996 335.021C175.72 336.558 172.705 338.286 169.238 339.393C164.928 339.598 163.388 332.358 166.303 330.922C186.865 320.791 207.859 307.367 218.51 286.249C223.67 275.292 228.085 259.731 220.074 249.005C217.049 244.955 213.738 241.071 221.089 238.759Z"/><path fill="#FBAA18" transform="scale(2 2)" d="M317.558 72.5356C319.448 72.4709 321.12 72.6656 322.298 74.3336C326.021 79.4765 319.294 82.5165 316.062 85.464C301.837 98.434 314.177 108.399 320.71 117.783C331.874 133.82 324.131 151.157 309.476 161.019C307.043 160.844 304.87 159.575 304.033 157.209C301.652 150.483 326.83 139.451 312.298 122.496C308.035 117.522 304.65 115.83 302.148 109.071C297 95.1623 303.695 77.8607 317.558 72.5356Z"/><path fill="#FBAA18" transform="scale(2 2)" d="M258.803 72.5356C261.246 72.7713 263.137 73.8233 263.863 76.3382C265.631 82.4586 242.383 92.3093 255.919 109.795C258.288 112.587 260.892 114.877 263.137 117.809C273.776 131.705 265.446 156.366 249.84 161.019C235.874 159.513 254.706 145.45 255.888 143.343C266.286 124.809 245.69 119.725 242.862 104.322C240.621 93.5383 248.248 74.8543 258.803 72.5356Z"/><path fill="#FBAA18" transform="scale(2 2)" d="M202.838 72.5356C206.591 72.4701 209.274 76.0952 207.533 79.5359C204.124 86.2749 187.564 93.2591 199.713 109.666C201.773 112.442 204.482 114.518 206.476 117.335C212.426 125.867 212.441 139.059 207.437 148.031C205.155 152.121 197.632 159.687 192.812 161.019C173.128 155.586 215.163 144.589 197.898 122.008C196.07 119.617 193.41 117.701 191.636 115.299C181.544 101.642 187.689 77.8645 202.838 72.5356Z"/><path fill="#FBAA18" transform="scale(2 2)" d="M374.562 72.5356C376.818 72.2464 378.498 73.0299 379.555 75.0544C381.908 79.563 375.896 82.3546 373.386 85.0161C367.161 91.6166 364.118 101.424 370.13 109.329C373.205 113.371 376.386 115.488 378.933 120.734C385.766 134.805 379.496 154.152 365.635 161.019C363.341 160.88 361.152 159.277 360.414 157.092C358.321 150.785 372.28 148.653 372.399 133.406C372.511 119.082 349.232 111.084 360.018 87.3472C362.397 81.8394 369.005 74.5707 374.562 72.5356Z"/><path fill="#FF7628" transform="scale(2 2)" d="M395.862 241.031C398.34 240.866 400.3 241.274 401.24 243.75C403.277 248.759 397.948 249.773 395.313 252.325C387.594 259.802 387.266 273.09 395.346 280.456C410.62 294.549 406.901 320.58 388.858 327.157C386.462 327.269 384.619 325.979 383.767 323.748C382.2 319.488 387.708 317.04 390.114 314.459C398.607 305.352 396.862 294.759 388.427 286.827C374.471 273.704 377.907 248.103 395.862 241.031Z"/><path fill="#FBAA18" transform="scale(2 2)" d="M120.992 243.02C134.419 242.516 143.977 268.266 134.177 281.582C131.026 285.865 126.765 288.634 125.312 294.499C120.281 315.161 139.379 316.18 137.077 323.32C136.49 325.138 135.207 326.342 133.502 327.157L133.395 327.144C117.496 325.329 109.469 296.68 121.043 281.928C123.705 278.535 127.414 275.868 128.553 271.476C133.236 253.918 108.498 248.743 120.992 243.02Z"/><path fill="#FF7628" transform="scale(2 2)" d="M237.069 400.744L276.573 400.744C281.235 403.243 281.617 408.553 276.573 410.483C274.195 410.823 237.331 410.564 236.153 410.169C231.688 408.673 232.185 402.928 237.069 400.744Z"/><path fill="#FF7628" transform="scale(2 2)" d="M295.259 400.744C315.365 399.84 309.174 410.043 303.715 410.483C300.616 410.491 293.474 411.117 291.672 409.268C288.467 405.978 290.585 401.064 295.259 400.744Z"/></svg>