<?xml version="1.0" encoding="utf-8" ?><svg xmlns="http://www.w3.org/2000/svg" xmlns:xlink="http://www.w3.org/1999/xlink" width="1024" height="1024" viewBox="0 0 1024 1024"><path fill="#FF7A02" transform="scale(2 2)" d="M376.873 108.636C389.143 107.582 399.955 116.647 401.057 128.911C402.16 141.176 393.138 152.024 380.878 153.175C368.549 154.332 357.627 145.249 356.518 132.916C355.41 120.582 364.536 109.697 376.873 108.636ZM380.119 146.651C388.777 145.879 395.161 138.221 394.362 129.566C393.564 120.911 385.886 114.55 377.234 115.375C368.618 116.197 362.291 123.833 363.087 132.451C363.882 141.069 371.499 147.419 380.119 146.651Z"/><path fill="#FF7A02" transform="scale(2 2)" d="M323.863 88.0353C344.855 87.6189 367.196 87.9959 388.296 87.9968L406.849 87.9701C419.108 87.9388 426.924 87.5508 436.437 96.9258C440.566 100.995 444.521 106.899 446.057 112.806C447.4 124.145 446.794 138.451 446.791 149.83L446.777 209.952L446.769 235.879C446.767 249.934 448.046 259.014 437.478 269.84C426.195 281.398 412.135 279.728 397.39 279.74L373.338 279.74C369.941 279.738 364.588 279.902 361.38 279.699C338.534 279.964 315.186 279.746 292.297 279.747L207.712 279.917L147.845 279.824C138.884 279.818 128.508 280.179 119.625 279.905C116.838 279.782 114.419 279.545 111.549 279.513C108.037 279.473 100.815 279.819 97.6623 279.099C97.8082 278.846 98.5725 277.488 98.5127 277.386C97.6885 275.986 96.0835 274.927 96.299 273.189C99.5865 273.47 119.985 273.512 120.649 273.861L120.96 273.527L120.717 273.239C119.968 269.069 120.267 262.439 120.265 257.961C120.262 254.216 119.936 250.25 120.002 246.551C120.259 234.597 118.998 219.875 121.656 208.273C125.169 192.937 153.645 196.236 165.488 196.24L213.265 196.24L363.556 195.976C370.212 195.955 381.507 196.783 386.553 201.787C391.54 206.734 391.618 215.425 391.831 221.953C391.986 226.695 392.009 231.578 392.017 236.366L391.986 273.036C396.758 272.958 401.984 273.049 406.819 273.104C416.092 273.208 424.408 273.464 431.577 266.499C435.647 262.546 437.838 256.826 438.791 251.318C440.476 241.585 440.009 230.188 440.01 220.232L440.002 177.569C432.243 177.377 423.432 177.622 415.563 177.623L371.363 177.553C363.136 177.57 352.801 177.931 344.826 177.549C341.475 177.154 330.765 177.401 326.815 177.386L294.056 177.155C291.916 177.156 281.393 177.335 279.933 176.957L279.691 176.533L279.669 176.551L281.247 176.302L281.504 175.805C281.058 174.712 279.536 174.44 279.108 173.53C278.51 172.255 277.73 172.967 276.721 172.19C277.805 171.199 279.731 171.673 281.26 171.664L307.862 171.606C310.961 171.61 318.356 171.936 321.11 171.273C328.682 171.036 337.334 171.246 344.975 171.246L390.984 171.229L421.958 171.206C427.307 171.204 434.868 171.008 440.059 171.416C439.778 160.883 440.097 150.145 440.003 139.588C439.911 131.245 440.294 123.061 438.691 114.824C436.473 103.433 431.546 97.7699 419.985 95.6283C410.007 93.7799 400.682 94.3418 390.651 94.2323C375.413 94.0658 360.113 94.508 344.895 94.1656C343.577 93.766 333.194 93.8748 330.924 93.8854C322.682 93.9241 314.537 93.7261 306.283 93.4127C303.272 93.2984 299.898 93.7504 296.759 93.5591C296.09 92.6235 299.691 91.1468 296.108 88.7626L295.894 88.6225C303.293 88.6486 310.613 88.3578 318.007 88.2292C319.961 88.1952 321.914 88.1936 323.863 88.0353ZM375.38 273.056C378.315 272.983 382.557 272.862 385.447 273.098C384.954 270.134 385.231 259.269 385.2 255.73C385.083 242.568 385.476 229.293 385.042 216.118C383.25 205.982 380.332 203.588 369.669 203.121C363.755 202.862 357.771 203.01 351.849 203.013L320.832 203.03L227.598 203.021L171.061 203.02C159.727 203.022 148 202.539 136.831 204.107C130.621 204.978 128.225 209.371 127.748 215.133C126.426 231.103 128.195 247.419 127.303 263.463C127.177 265.716 127.294 269.941 126.82 271.954C126.938 272.364 126.969 272.862 127.256 272.874C133.76 273.156 144.165 272.828 150.391 272.856L302.304 273.003L350.295 273.01C358.275 273.012 367.533 272.785 375.38 273.056Z"/><path fill="#FCAF28" transform="scale(2 2)" d="M163.163 246.614C180.163 246.752 197.163 246.786 214.163 246.716L304.878 246.787L335.097 246.791C339.92 246.791 359.129 245.601 361.393 249.726C361.393 253.781 354.386 253.662 351.688 253.619L220.572 253.481L175.713 253.461C169.743 253.446 163.777 253.488 157.813 253.515C155.593 253.39 152.99 253.061 152.501 250.533C151.599 245.872 159.84 246.728 163.163 246.614Z"/><path fill="#FF7A02" transform="scale(2 2)" d="M307.985 221.875L343.478 221.907C347.795 221.944 352.157 221.806 356.463 221.936C361.408 222.086 362.442 228.028 357.128 228.344C352.053 228.646 346.712 228.394 341.599 228.404L308.615 228.45L205.625 228.49L172.906 228.482C167.554 228.484 162.152 228.638 156.814 228.447C150.543 228.223 151.184 221.911 157.101 221.912C161.905 221.913 166.752 221.942 171.553 221.929L205.35 221.894L307.985 221.875Z"/><path fill="#FCAF28" transform="scale(2 2)" d="M120.96 273.527C122.05 274.145 122.815 274.79 124.005 274.866C125.4 274.476 125.966 272.963 126.82 271.954C126.938 272.364 126.969 272.862 127.256 272.874C133.76 273.156 144.165 272.828 150.391 272.856L302.304 273.003L350.295 273.01C358.275 273.012 367.533 272.785 375.38 273.056C372.512 273.378 368.961 273.204 366.014 273.2L349.782 273.184C337.169 273.189 324.668 273.633 312.221 273.659C313.6 275.583 313.006 277.193 311.722 278.992C312.267 279.302 319.851 279.116 320.944 279.121L346.236 279.474C348.716 279.486 359.39 279.37 361.38 279.699C338.534 279.964 315.186 279.746 292.297 279.747L207.712 279.917L147.845 279.824C138.884 279.818 128.508 280.179 119.625 279.905C116.838 279.782 114.419 279.545 111.549 279.513C108.037 279.473 100.815 279.819 97.6623 279.099C97.8082 278.846 98.5725 277.488 98.5127 277.386C97.6885 275.986 96.0835 274.927 96.299 273.189C99.5865 273.47 119.985 273.512 120.649 273.861L120.96 273.527Z"/><path fill="#FCAF28" transform="scale(2 2)" d="M385.042 216.118C385.338 216.467 385.556 216.739 385.572 217.225C386.175 235.491 385.407 253.85 386.233 272.104C385.911 272.66 385.934 272.697 385.447 273.098C384.954 270.134 385.231 259.269 385.2 255.73C385.083 242.568 385.476 229.293 385.042 216.118Z"/><path fill="#FF7A02" transform="scale(2 2)" d="M254.988 306.913C262.028 306.817 259.548 320.016 258.822 324.209L258.992 324.118C262.83 321.979 272.918 311.169 276.439 314.91C281.476 320.261 262.262 329.081 259.552 331.932C258.98 334.879 259.155 341.973 259.157 345.271C259.147 351.319 259.103 357.367 259.026 363.414C261.82 364.534 262.573 365.038 264.875 366.995C272.455 361.378 283.49 354.36 292.077 350.12C292.009 349.591 291.956 349.06 291.918 348.528C291.62 344.774 290.88 332.079 293.16 329.61C293.7 329.022 294.46 328.685 295.258 328.679C300.707 328.585 298.628 342.603 298.597 346.625C301.276 344.985 311.219 335.486 314.69 340.757C317.138 344.474 305.195 350.204 302.655 351.536C305.869 353.134 321.029 358.615 315.527 363.452C312.658 365.973 299.325 357.477 296.801 355.293C289.838 358.432 275.361 367.673 268.842 372.571C267.726 373.41 268.181 377.385 268.288 378.997C278.696 384.007 286.139 390.83 296.517 395.716C300.024 392.782 312.82 384.475 316.797 388.036C319.325 392.904 305.44 397.024 303.242 399.084C303.031 401.851 314.521 405.894 314.949 408.802C316.318 418.123 301.084 406.646 298.705 405.379C299.062 409.258 299.285 422.108 296.969 423.54C289.811 427.965 291.985 404.298 292.061 402.351C287.066 396.534 272.065 389.038 265.005 384.237C264.04 384.704 260.144 386.5 259.81 387.144C258.696 389.289 259.125 397.693 259.128 400.033L259.039 418.902C262.142 419.755 275.605 428.39 276.358 431.03C279.419 441.756 260.909 427.393 259.075 426.315C259.627 431.078 260.017 436.48 258.252 440.946C257.303 442.075 255.259 443.087 254.207 441.521C251.424 437.375 252.339 431.203 252.673 426.463C250.458 427.765 236.914 438.911 235.213 433.462C233.643 428.437 248.436 420.593 252.579 418.663C252.333 412.034 252.565 405.31 252.484 398.671C252.439 395.019 252.46 391.342 252.795 387.703C251.406 386.693 248.95 385.279 247.423 384.336C243.713 386.354 221.921 399.742 220.529 401.894C218.517 405.002 221.745 417.54 218.9 422.354C218.448 423.119 217.534 423.983 216.606 424.089C215.958 424.163 215.533 424.052 215.052 423.592C212.289 420.951 212.946 409.492 213.035 405.767C208.672 407.873 204.667 411.624 200.018 412.784C198.631 413.13 196.612 410.64 196.876 409.327C197.757 404.937 206.109 403.136 208.274 400.981L208.254 400.604C205.271 397.815 192.984 394.493 195.492 389.153C197.286 385.332 203.709 389.976 205.859 391.165C208.99 392.898 212.258 394.833 215.185 396.798C224.062 390.191 233.885 384.314 243.557 378.919C243.136 376.4 243.188 375.339 243.602 372.842C234.347 366.076 225.417 360.741 215.362 355.217C209.733 357.339 203.94 362.947 197.807 363.847C194.728 363.633 194.47 360.798 196.05 358.909C199.413 354.887 204.29 353.624 208.433 350.71L208.761 350.476C205.307 349.061 197.747 345.771 196.978 341.246C196.924 340.023 198.237 339.365 199.21 339.411C203.874 339.628 209.837 343.662 213.097 346.643C212.83 343.312 212.36 332.537 214.123 329.905C217.817 324.391 219.616 331.644 219.879 334.968C220.3 340.294 220.125 345.172 220.011 350.483C224.289 352.198 231.389 357.003 235.375 359.601C239.36 362.152 243.364 364.672 247.387 367.162C249.323 364.831 249.852 364.363 252.587 363.049C252.215 355.971 252.692 348.569 252.505 341.459C252.427 338.485 252.444 335.102 252.66 332.143C247.635 328.182 241.586 325.354 236.768 321.082C234.93 319.453 233.709 317.617 234.123 315.113C237.117 311.461 250.555 322.373 253.014 324.794C251.823 320.176 250.869 310.34 254.988 306.913ZM256.625 381.153C263.384 376.978 263.184 369.631 254.916 369.521C253.026 370.119 251.839 370.721 250.89 372.58C250.095 374.168 249.982 376.011 250.576 377.685C251.419 380.102 254.141 381.815 256.625 381.153Z"/><path fill="#FF860A" transform="scale(2 2)" d="M119.625 279.905C103.947 280.059 87.0175 282.165 74.9082 269.916C63.7892 258.668 64.9762 250.274 64.9893 235.447L65.0133 213.427L65.0236 129.21C65.0301 89.0233 84.8763 87.9989 119.331 87.9999C121.384 88 123.513 88.0197 125.575 88.0429C123.755 88.1945 121.15 88.253 119.483 88.5509L131.506 88.6343C131.903 89.6117 131.188 91.9212 130.912 93.0871C129.331 94.0208 121.751 92.8957 119.349 93.7771C101.312 94.837 78.2168 91.7857 72.9752 114.858C71.2171 122.596 71.7327 130.439 71.8237 138.307L71.9021 159.645C71.9098 163.243 72.0796 167.594 71.9316 171.09C85.7011 170.822 100.587 170.966 114.394 171.064L112.951 171.373L113.204 171.537C113.936 172.019 114.215 172.127 114.666 172.886C114.752 174.743 112.778 175.236 111.914 177.016L111.969 177.496L112.258 177.722L86.6839 177.722C82.132 177.72 76.4067 177.877 71.9863 177.565L71.9328 226.936C71.9351 231.627 71.9746 236.519 71.9362 241.181C71.8573 250.757 72.0639 257.793 79.1893 264.885C86.3208 271.983 95.3653 273.203 105.065 273.058C108.516 273.032 117.917 272.697 120.717 273.239L120.96 273.527L120.649 273.861C119.985 273.512 99.5865 273.47 96.299 273.189C96.0835 274.927 97.6885 275.986 98.5127 277.386C98.5725 277.488 97.8082 278.846 97.6623 279.099C100.815 279.819 108.037 279.473 111.549 279.513C114.419 279.545 116.838 279.782 119.625 279.905Z"/><path fill="#FCAF28" transform="scale(2 2)" d="M114.394 171.064C133.905 170.838 153.784 171.041 173.33 171.039L258.893 171.136L301.014 171.185C307.011 171.19 315.326 170.94 321.11 171.273C318.356 171.936 310.961 171.61 307.862 171.606L281.26 171.664C279.731 171.673 277.805 171.199 276.721 172.19C277.73 172.967 278.51 172.255 279.108 173.53C279.536 174.44 281.058 174.712 281.504 175.805L281.247 176.302L279.669 176.551L279.691 176.533L279.933 176.957C281.393 177.335 291.916 177.156 294.056 177.155L326.815 177.386C330.765 177.401 341.475 177.154 344.826 177.549C336.395 177.956 325.742 177.675 317.152 177.681L263.295 177.71L165.394 177.756C147.816 177.75 129.807 177.946 112.258 177.722L111.969 177.496L111.914 177.016C112.778 175.236 114.752 174.743 114.666 172.886C114.215 172.127 113.936 172.019 113.204 171.537L112.951 171.373L114.394 171.064Z"/><path fill="#FCAF28" transform="scale(2 2)" d="M125.575 88.0429C139.011 87.8303 152.784 87.9974 166.253 87.9979L240.838 87.9955L295.867 87.9974C304.839 87.9987 314.981 87.7461 323.863 88.0353C321.914 88.1936 319.961 88.1952 318.007 88.2292C310.613 88.3578 303.293 88.6486 295.894 88.6225L296.108 88.7626C299.691 91.1468 296.09 92.6235 296.759 93.5591C299.898 93.7504 303.272 93.2984 306.283 93.4127C314.537 93.7261 322.682 93.9241 330.924 93.8854C333.194 93.8748 343.577 93.766 344.895 94.1656C335.978 94.3033 326.669 94.1736 317.723 94.1727L250.625 94.1685C206.866 94.5692 163.105 94.4387 119.349 93.7771C121.751 92.8957 129.331 94.0208 130.912 93.0871C131.188 91.9212 131.903 89.6117 131.506 88.6343L119.483 88.5509C121.15 88.253 123.755 88.1945 125.575 88.0429Z"/><path fill="#FCAF28" transform="scale(2 2)" d="M100.582 335.808C101.782 335.647 103.442 335.413 104.201 336.489C104.355 339.18 98.8253 346.99 97.1768 350.011C96.0924 352.025 95.1822 354.128 94.4562 356.297C89.4718 371.215 98.2098 374.036 103.944 385.276C109.869 396.892 105.036 417.888 92.4059 424.146C85.9257 423.617 90.0976 418.154 92.2656 415.394C100.939 404.351 103.449 392.943 93.2565 381.771C83.6855 371.281 84.1205 354.121 92.5622 342.998C94.8414 339.995 96.8181 337.262 100.582 335.808Z"/><path fill="#FF7A02" transform="scale(2 2)" d="M380.238 335.568C383.687 336.194 382.132 339.529 380.907 341.563C378.037 346.329 374.831 349.986 372.558 355.141C367.107 367.509 377.456 376.944 381.534 387.707C384.415 395.536 383.167 406.312 379.269 413.591C377.139 417.588 373.845 422.882 369.367 424.399C368.86 424.323 367.615 424.131 367.283 423.808C364.111 420.726 371.955 413.042 373.257 409.462C374.653 405.62 374.934 404.557 375.543 401.259C378.721 384.039 367.213 382.854 364.681 367.762C363.255 359.264 365.29 350.695 370.33 343.758C372.949 340.152 375.592 336.361 380.238 335.568Z"/><path fill="#FCAF28" transform="scale(2 2)" d="M144.38 335.519C151.264 337.82 142.141 345.678 140.264 349.072C139.149 351.087 138.128 352.411 137.083 354.594C133.479 362.122 135.077 369.644 139.648 376.356C142.369 380.411 145.721 383.473 147.448 388.354C150.023 395.63 149.043 403.288 145.967 410.219C143.752 415.211 138.779 422.401 133.585 424.372C130.619 423.398 129.505 421.344 131.326 418.562C134.173 414.212 137.651 410.835 140.119 406.164C144.119 398.594 142.568 391.454 137.595 384.811C135.032 381.251 131.559 377.588 130.325 373.273C127.274 362.602 129.123 349.666 136.61 341.184C138.878 338.615 141.067 336.564 144.38 335.519Z"/><path fill="#FF7A02" transform="scale(2 2)" d="M420.04 336.092C421.879 334.715 425.873 335.663 424.894 338.135C423.375 342.038 419.75 345.721 417.483 348.889C415.458 351.718 411.69 360.337 412.09 363.955C412.918 371.448 421.458 379.857 423.29 387.576C425.318 396.12 424.646 403.957 421.672 412.128C419.974 416.689 416.868 421.455 412.319 423.719C410.72 424.515 408.155 424.245 407.752 422.1C407.521 419.579 409.734 417.166 411.022 415.367C412.819 412.859 415.515 410.002 416.706 407.227C419.023 401.479 418.558 395.503 416.419 389.899C411.63 377.346 400.954 366.284 407.818 352.185C408.794 350.179 411.98 342.776 413.788 341.719C415.43 339.516 417.524 337.268 420.04 336.092Z"/></svg>