<?xml version="1.0" encoding="utf-8" ?><svg xmlns="http://www.w3.org/2000/svg" xmlns:xlink="http://www.w3.org/1999/xlink" width="1024" height="1024" viewBox="0 0 1024 1024"><defs><linearGradient id="gradient_0" gradientUnits="userSpaceOnUse" x1="291.27945" y1="316.17975" x2="123.57883" y2="237.12115"><stop offset="0" stop-color="#FF9627"/><stop offset="1" stop-color="#FF8F3D"/></linearGradient></defs><path fill="url(#gradient_0)" transform="scale(2 2)" d="M108.349 99.9293C107.516 95.7707 108.032 90.2855 108.052 86.035C108.137 83.6388 109.356 80.8057 112.122 80.9559C117.924 81.2709 115.432 95.9082 114.947 99.9944C117.021 100.03 119.253 99.8019 121.375 99.8133L158.041 100.012C164.161 100.009 168.661 99.7467 174.927 100.02C183.024 100.049 191.325 99.8936 199.395 100.044C203.795 99.9062 208.968 99.9459 213.391 100.062C213.165 97.9585 212.353 83.5983 213.369 82.757C222.073 75.5477 221.057 94.1077 220.756 98.3814C220.715 98.9626 220.668 99.5433 220.615 100.124C232.698 101.116 245.48 108.068 253.205 117.345C259.651 125.086 263.025 133.023 264.34 142.979C264.919 147.365 264.794 152.32 264.801 156.776L264.807 175.739L264.79 241.165L264.794 326.101L264.81 351.673C264.828 357 265.095 362.703 264.613 367.954C262.763 388.097 247.859 404.81 228.339 409.71C225.913 410.319 223.133 410.456 220.815 411.093C221.042 415.713 222.909 430.143 217.242 431.535C210.786 430.637 212.779 415.377 213.283 411.009L147.382 411.012L126.138 411C122.818 410.998 118.372 410.848 115.174 411.025C115.007 414.884 117.353 431.837 110.758 431.298C105.718 430.887 106.954 414.741 107.209 410.837C92.4638 409.733 82.0718 404.474 72.4319 393.198C68.6926 388.825 66.5149 384.969 64.5429 379.567C61.0214 370.263 61.0867 358.781 61.3943 348.969C61.3017 351.671 62.9071 355.814 64.2503 358.112C65.8396 358.527 67.826 358.981 69.3034 359.605C69.2057 357.317 69.0126 354.537 69.0367 352.283C71.0526 352.26 73.4877 352.173 75.4794 352.242C85.0518 351.931 95.9194 352.179 105.61 352.181L161.487 352.178L221.064 352.151C232.984 352.143 245.126 351.937 257.017 352.291C256.676 333.332 256.678 314.369 257.021 295.41C253.501 295.303 239.852 296.687 237.996 293.567C232.901 284.999 253.355 287.586 257.066 288.151C256.539 275.947 257.101 263.427 256.935 251.184C256.832 243.593 256.81 235.824 257.096 228.237C253.235 228.323 239.768 228.85 238.069 226.685C231.493 218.304 255.087 220.453 257.044 220.543C256.836 214.269 256.927 207.535 256.902 201.231C256.835 186.822 256.891 172.412 257.068 158.003C237.245 158.321 217.419 158.314 197.596 157.984C192.147 158.418 183.346 158.156 177.802 158.156L149.003 158.361C131.205 158.531 113.406 158.564 95.6081 158.462C87.1135 158.449 77.8613 158.565 69.4367 158.319C69.5454 161.541 71.216 184.683 63.7687 179.102C59.9427 176.236 61.4466 154.928 61.2657 149.629C60.8753 138.186 64.5365 126.81 71.9101 118.053C81.6128 106.529 93.5055 101.217 108.349 99.9293ZM202.37 151.036C220.565 150.985 239.428 150.737 257.572 151.035C256.686 138.704 254.443 129.737 245.839 120.254C236.607 110.078 223.703 107.175 210.475 107.128C205.998 107.112 200.669 107.469 196.305 107.285C194.665 107.519 190.666 107.458 188.936 107.453C184.053 107.424 179.17 107.35 174.288 107.231L132.467 107.489C122.279 107.492 110.069 106.696 100.262 108.696C80.8047 112.663 69.6905 130.083 69.1944 149.131C69.1779 149.757 69.2367 150.232 69.5616 150.769C70.9581 151.108 78.3603 150.992 80.2856 150.993L104.122 150.994L202.37 151.036ZM257.146 360.01C242.605 359.768 227.209 360.027 212.603 360.024L121.227 360.005L88.9223 360.01C82.97 360.011 76.2906 360.15 70.4101 359.92L69.6649 360.036C68.9038 361.4 69.8336 368.649 69.9328 370.691C73.2622 388.324 88.8879 402.618 107.118 403.08C115.139 403.283 123.173 403.149 131.2 403.154L176.731 403.188C184.713 403.162 192.695 403.181 200.677 403.244C218.724 403.432 234.502 404.472 247.224 389.062C255.092 379.531 256.585 371.992 257.146 360.01Z"/><path fill="#FF6F34" transform="scale(2 2)" d="M212.422 123.089C216.01 122.92 219.597 123.432 222.994 124.597C227.593 126.131 231.319 128.397 234.671 131.923C238.406 135.854 240.94 141.339 234.527 144.199C229.426 141.73 229.993 136.172 224.304 132.997C218.822 129.938 215.162 131.527 209.674 129.898C208.897 129.459 208.329 128.135 208.198 127.396C207.612 124.087 209.747 123.504 212.422 123.089Z"/><path fill="#FF6F34" transform="scale(2 2)" d="M235.435 368.036C248.893 367.323 233.627 391.54 212.51 389.959C207.257 388.581 205.225 384.608 211.695 382.952C214.221 382.306 216.978 382.206 219.562 381.782C220.951 381.543 222.314 381.171 223.632 380.67C229.002 378.669 230.96 371.516 235.435 368.036Z"/><path fill="#FAD265" transform="scale(2 2)" d="M108.349 99.9293C107.516 95.7707 108.032 90.2855 108.052 86.035C108.137 83.6388 109.356 80.8057 112.122 80.9559C117.924 81.2709 115.432 95.9082 114.947 99.9944C117.021 100.03 119.253 99.8019 121.375 99.8133L158.041 100.012C164.161 100.009 168.661 99.7467 174.927 100.02L174.601 100.403C175.561 102.289 177.327 105.252 175.374 106.972L174.288 107.231L132.467 107.489C122.279 107.492 110.069 106.696 100.262 108.696C80.8047 112.663 69.6905 130.083 69.1944 149.131C69.1779 149.757 69.2367 150.232 69.5616 150.769C70.9581 151.108 78.3603 150.992 80.2856 150.993L104.122 150.994L202.37 151.036C203.728 151.384 206.787 153.154 205.692 154.95C204.729 156.529 201.861 156.635 200.263 157.032C199.374 157.273 198.565 157.712 197.596 157.984C192.147 158.418 183.346 158.156 177.802 158.156L149.003 158.361C131.205 158.531 113.406 158.564 95.6081 158.462C87.1135 158.449 77.8613 158.565 69.4367 158.319C69.5454 161.541 71.216 184.683 63.7687 179.102C59.9427 176.236 61.4466 154.928 61.2657 149.629C60.8753 138.186 64.5365 126.81 71.9101 118.053C81.6128 106.529 93.5055 101.217 108.349 99.9293Z"/><path fill="#FF6F34" transform="scale(2 2)" d="M61.3943 348.969C61.3017 351.671 62.9071 355.814 64.2503 358.112C65.8396 358.527 67.826 358.981 69.3034 359.605C69.2057 357.317 69.0126 354.537 69.0367 352.283C71.0526 352.26 73.4877 352.173 75.4794 352.242L75.4994 352.611L74.0662 352.767L74.0037 353.11C75.1879 354.541 80.5996 352.614 79.8929 355.283C79.6496 356.202 77.9919 357.097 77.2042 357.554C74.0332 357.535 73.7329 359.193 70.9221 359.639C70.7847 359.66 70.5416 359.833 70.4101 359.92L69.6649 360.036C68.9038 361.4 69.8336 368.649 69.9328 370.691C66.534 372.959 73.6917 379.259 69.3413 381.748C68.0689 381.586 68.5541 380.686 67.3652 380.357L67.1322 380.87C67.5472 381.895 67.7253 382.617 68.0586 383.64L67.7025 383.582C66.9555 382.098 66.3617 380.019 65.0631 379.344L64.5429 379.567C61.0214 370.263 61.0867 358.781 61.3943 348.969Z"/><path fill="#FF6F34" transform="scale(2 2)" d="M174.927 100.02C183.024 100.049 191.325 99.8936 199.395 100.044C196.481 100.721 190.264 99.7529 188.237 100.867L188.169 100.982L188.527 101.428C188.584 101.424 189.785 101.355 189.698 101.326C190.959 101.754 194.135 101.7 195.086 101.904C194.824 103.173 193.853 103.021 193.825 103.879C194.502 104.559 194.488 104.527 195.296 104.93L195.247 105.198C192.804 106.261 190.06 106.287 189.252 106.725C191.402 107.216 194.17 106.933 196.305 107.285C194.665 107.519 190.666 107.458 188.936 107.453C184.053 107.424 179.17 107.35 174.288 107.231L175.374 106.972C177.327 105.252 175.561 102.289 174.601 100.403L174.927 100.02Z"/><path fill="#F8A926" transform="scale(2 2)" d="M341.168 233.607C345.542 233.049 371.578 233.344 374.805 234.572C377.269 236.908 375.513 241.255 371.985 241.236C360.468 241.173 348.259 241.666 336.788 241.169C322.127 270.578 311.867 301.344 327.238 332.879C344.62 368.539 383.418 380.61 418.368 362.543C434.902 354.05 447.375 339.323 453.029 321.616C459.953 299.699 455.437 276.574 446.168 256.079C443.899 251.061 441.274 246.151 438.738 241.259C430.374 240.93 414.618 245.434 412.226 234.003C420.475 232.814 431.884 234.244 440.439 233.741C443.988 233.533 446.755 240.069 448.379 242.872C457.007 257.763 461.629 273.393 463.476 290.438C464.366 312.988 461.459 331.569 446.761 350.12C433.77 366.517 412.845 376.383 392.091 378.333C392.273 382.981 392.062 389.38 392.06 394.168C392.091 404.099 392.068 414.031 391.992 423.962C401.98 423.737 412.041 423.514 422.02 423.813C423.847 424.887 424.468 425.567 425.018 427.642C425.94 431.118 422.214 431.634 419.796 431.717C415.933 431.85 412.088 431.725 408.245 431.713L386.861 431.713L365.557 431.724C361.674 431.728 357.805 431.768 353.925 431.638C351.009 431.54 348.629 427.07 350.83 424.913C351.846 424.153 354.399 423.843 355.627 423.835C364.949 423.777 375.02 423.718 384.266 423.875C383.753 420.92 383.969 412.251 383.969 408.682L384.031 378.479C380.41 378.337 376.9 378.138 373.335 377.586C330.211 370.905 307.185 325.535 312.767 285.11C314.428 273.083 318.657 261.77 323.194 250.586C325.063 245.979 328.435 238.326 331.585 234.694C334.468 233.653 338 233.836 341.168 233.607Z"/><path fill="#FF6F34" transform="scale(2 2)" d="M310.044 80.4437C313.038 80.8417 342.571 104.929 330.316 107.454C327.271 108.082 317.394 96.5123 314.907 93.6622C315.429 96.9692 315.081 102.333 315.056 105.892L315.014 127.197L315.011 213.618C317.718 209.763 325.669 201.091 329.452 197.936C330.009 197.471 331.023 197.328 331.782 197.526C332.898 197.82 333.837 198.575 334.362 199.603C334.761 200.398 334.825 201.283 334.53 202.126C333.727 204.417 314.421 225.999 312.333 226.844C311.376 227.231 310.542 227.079 309.586 226.796C307.266 225.258 304.988 222.453 303.163 220.305C298.266 214.542 292.43 209.615 287.62 203.807C287.119 203.201 286.44 201.325 286.563 200.758C287.887 194.636 294.036 198.826 296.622 201.514C300.995 205.831 303.852 210.244 307.503 214.702C307.538 210.131 307.298 205.622 307.304 201.05L307.283 132.049C307.152 119.203 307.246 106.356 307.564 93.5132C304.544 97.1928 295.315 106.665 290.882 107.338C290.16 107.447 289.348 107.341 288.818 106.786C288.049 105.982 287.673 104.407 287.792 103.319C288.079 100.683 307.198 82.3004 310.044 80.4437Z"/><path fill="#FAD265" transform="scale(2 2)" d="M61.3943 348.969C61.7764 335.398 61.4574 322.21 61.4503 308.646L61.5429 241.916L61.5375 214.111C61.5331 210.326 61.4324 206.512 61.4139 202.789C61.4 199.976 63.7005 197.733 66.4983 198.146C67.1414 198.241 67.8766 198.847 68.1766 199.439C70.4918 205.194 69.6055 214.519 68.9617 220.461C72.4002 220.487 87.9228 219.261 89.5409 221.819C94.9253 230.33 73.2989 228.295 69.3157 228.133C68.7421 245.581 69.4263 263.288 69.17 280.759C69.1354 283.117 69.0933 285.593 69.1518 287.944C73.474 287.993 85.3364 286.787 89.5078 289.191C90.5118 289.769 91.5234 293.651 89.5671 294.237C84.2898 296.699 75.0723 295.592 69.2368 295.471C69.3386 298.996 69.117 302.403 69.166 305.877C69.3838 321.336 68.8092 336.826 69.0367 352.283C69.0126 354.537 69.2057 357.317 69.3034 359.605C67.826 358.981 65.8396 358.527 64.2503 358.112C62.9071 355.814 61.3017 351.671 61.3943 348.969Z"/><path fill="#F8A926" transform="scale(2 2)" d="M382.822 289.37C392.282 296.852 404.903 280.771 416.354 281.246C421.61 280.982 426.397 283.639 430.189 287.178C434.577 291.272 438.282 291.167 443.889 292.285C446.481 292.802 447.154 295.993 446.275 298.402C445.461 299.378 443.528 299.924 442.306 300.031C430.891 301.028 425.127 290.086 415.822 289.264C408.169 289.281 403.375 295.685 396.387 298.209C382.404 303.257 377.496 291.465 365.619 289.605C359.574 288.659 353.684 295.161 348.547 297.496C345.087 299.069 343.144 299.438 339.205 299.886C337.202 298.945 335.058 297.727 335.569 295.181C339.118 292.065 342.709 291.344 346.696 289.121C349.413 287.606 353.552 284.076 356.549 283.245C359.099 282.538 364.35 282.155 367.174 281.909C372.574 282.503 374.536 283.269 378.951 286.635C379.822 287.298 381.879 288.859 382.822 289.37Z"/><path fill="#FF6F34" transform="scale(2 2)" d="M160.597 182.088C173.623 180.863 183.59 187.307 188.896 199.432C191.738 205.927 191.322 213.805 191.7 220.737C191.839 223.295 191.59 226.077 191.427 228.635C191.219 231.075 190.246 240.378 185.949 237.984C185.188 237.561 184.223 236.22 184.033 235.325C180.77 219.975 189.325 202.477 173.285 192.27C168.056 189.445 162.844 188.514 157.016 190.195C145.722 193.453 141.938 202.313 141.664 213.37C141.402 217.827 142.265 223.076 140.315 227.213C139.595 229.153 136.33 228.144 135.302 227.151C133.355 225.27 133.884 219.318 133.804 216.863C133.524 208.296 134.466 199.874 139.852 192.902C145.376 185.749 151.967 183.285 160.597 182.088Z"/><path fill="#F8A926" transform="scale(2 2)" d="M391.825 154.25C391.906 154.246 391.987 154.243 392.069 154.24C393.545 153.976 395.254 155.116 396.255 156.135C403.279 163.279 410.246 191.514 410.527 200.751C415.195 195.921 417.851 191.051 423.934 187.288C429.553 183.812 430.401 189.734 428.686 192.09C425.006 197.144 411.979 211.976 406.487 213.476C405.741 213.15 405.031 212.784 404.356 212.326C401.3 210.253 382.988 192.886 382.691 190.394C382.56 189.294 383.183 188.102 383.868 187.281C384.396 186.648 385.102 186.232 385.941 186.199C386.685 186.17 387.384 186.364 388.014 186.754C392.011 189.23 399.634 197.406 403.307 200.907C402.754 199.371 402.477 198.117 402.197 196.51C400.198 185.005 397.066 173.772 391.418 163.492C390.462 161.752 388.811 158.835 388.934 156.887C389.008 155.724 390.985 154.699 391.825 154.25Z"/><path fill="#FF6F34" transform="scale(2 2)" d="M137.12 239.248C138.382 239.442 140.396 239.736 140.894 241.163C141.327 242.404 141.545 244.646 141.539 245.973C141.449 265.397 141.717 284.836 141.454 304.257C141.442 305.155 141.126 306.172 140.836 307.02C139.749 308.119 139.442 308.322 138.007 308.883C137.555 308.823 137.095 308.765 136.653 308.654C135.763 308.429 135.026 308.009 134.587 307.17C133.674 305.428 133.743 301.792 133.664 299.859C133.424 293.982 133.171 243.964 134.411 241.198C134.926 240.05 136.047 239.711 137.12 239.248Z"/><path fill="#F8A926" transform="scale(2 2)" d="M428.674 331.084C430.406 331.268 430.615 331.417 432.125 332.344C433.176 334.186 433.482 335.798 432.168 337.678C426.525 345.756 415.29 353.033 405.949 355.897C404.564 355.942 402.557 355.112 402.12 353.681C400.584 348.65 407.33 347.223 410.597 345.46C413.036 344.145 415.438 343.108 417.519 341.237C420.866 338.536 424.71 332.425 428.674 331.084Z"/><path fill="#FF6F34" transform="scale(2 2)" d="M186.423 276.734C186.581 276.74 186.738 276.743 186.895 276.751C187.959 276.812 189.651 277 190.294 277.979C191.977 280.543 191.595 300.813 190.597 304.808C190.134 306.664 189.562 307.87 187.902 308.87C187.609 308.883 187.314 308.894 187.021 308.877C186.137 308.826 185.133 308.384 184.581 307.671C182.699 305.246 182.726 286.145 183.315 282.772C183.73 280.401 184.387 278.182 186.423 276.734Z"/><path fill="#F8A926" transform="scale(2 2)" d="M363.163 119.456C368.657 119.945 380.555 134.769 382.408 139.45C381.519 141.656 380.726 142.315 378.883 143.664L378.174 143.673C374.705 141.844 370.226 135.206 367.314 132.19C365.066 129.862 362.312 127.147 360.401 124.583C358.687 122.282 361.417 120.475 363.163 119.456Z"/><path fill="#FF6F34" transform="scale(2 2)" d="M161.385 224.785C164.864 224.405 166.132 226.121 166.39 229.478C166.834 235.246 168.323 248.397 163.6 252.361C160.22 252.278 159.091 251.239 158.711 247.752C158.103 242.165 156.916 229.039 161.385 224.785Z"/><path fill="#FF6F34" transform="scale(2 2)" d="M161.94 285.265C166.613 285.796 166.267 288.17 166.421 292.473C166.599 297.427 168.076 305.905 163.094 308.965C157.021 308.097 158.951 301.307 158.423 296.438C157.997 292.501 157.897 287.294 161.94 285.265Z"/><path fill="#F8A926" transform="scale(2 2)" d="M439.728 308.512C445.273 308.969 442.823 316.006 441.779 319.321C440.931 322.013 439.438 324.027 437.247 325.759C432.868 324.919 432.991 320.615 433.81 317.095C434.632 313.564 435.835 309.453 439.728 308.512Z"/><path fill="#FF6F34" transform="scale(2 2)" d="M187.258 249.499C187.644 249.591 188.659 249.875 188.965 250.089C192.779 252.757 192.449 264.683 187.657 265.875C182.771 263.679 182.248 258.01 183.712 253.256C184.301 251.344 185.455 250.307 187.258 249.499Z"/><path fill="#FF6F34" transform="scale(2 2)" d="M162.687 262.001C164.564 262.386 165.793 263.071 166.27 265.037C167.29 269.239 166.856 273.615 162.357 275.047C158.247 273.21 157.311 268.581 159.163 264.524C159.841 263.039 161.142 262.39 162.687 262.001Z"/></svg>