<?xml version="1.0" encoding="utf-8" ?><svg xmlns="http://www.w3.org/2000/svg" xmlns:xlink="http://www.w3.org/1999/xlink" width="1024" height="1024" viewBox="0 0 1024 1024"><defs><linearGradient id="gradient_0" gradientUnits="userSpaceOnUse" x1="388.16751" y1="324.39035" x2="123.88506" y2="187.16582"><stop offset="0" stop-color="#FF7A02"/><stop offset="1" stop-color="#FEDB00"/></linearGradient></defs><path fill="url(#gradient_0)" transform="scale(2 2)" d="M247.74 107.176C326.195 102.867 394.503 160.246 403.8 238.267C413.096 316.289 360.184 388.112 282.913 402.359C205.642 416.606 130.595 368.375 111.456 292.168C96.5907 232.98 119.337 170.712 168.854 135.042C178.525 128.075 188.998 122.294 200.047 117.824C215.25 111.673 231.365 108.075 247.74 107.176ZM149.517 166.19C129.708 190.627 117.256 219.576 116.734 251.501L131.099 251.476C133.894 251.467 137.027 251.193 139.775 251.757C143.335 252.488 144.153 257.569 141.539 259.851C139.373 261.741 120.734 261 116.734 260.991C116.611 267.424 117.284 270.383 117.917 276.66C118.902 281.434 119.4 285.894 120.613 290.702C134.748 346.706 192.645 396.262 251.295 394.794L251.25 381.086C251.227 377.055 249.91 369.338 255.875 369.083C264.235 368.727 260.793 388.234 260.793 394.794C335.233 394.327 390.437 333.291 395.241 260.991C390.777 260.567 372.768 262.122 370.316 259.925C367.278 257.202 368.169 251.915 372.4 251.351C377.475 250.675 389.562 251.504 395.241 251.501C394.687 245.68 394.112 240.16 393.274 234.402C383.951 170.276 325.833 116.938 260.793 116.401C260.868 121.832 263.363 141.439 256.242 141.783C250.351 142.068 251.244 133.092 251.251 129.295L251.295 116.401C243.162 116.122 229.737 118.686 221.752 120.29C207.296 124.831 200.1 127.818 186.791 135.073C171.468 143.138 160.815 153.561 149.517 166.19Z"/><path fill="#F8B500" transform="scale(2 2)" d="M200.047 117.824C215.25 111.673 231.365 108.075 247.74 107.176C247.542 107.338 247.345 107.501 247.147 107.664C238.693 108.884 210.598 112.835 204.216 117.201C203.707 117.55 199.999 118.709 200.047 117.824Z"/><path fill="#F53100" transform="scale(2 2)" d="M255.022 175.019C262.408 174.632 260.806 181.577 260.806 186.828L260.805 200.784C260.802 218.372 260.447 237.162 260.793 254.672C263.141 257.16 273.333 264.47 276.371 266.841L343.373 319.548C346.836 322.917 348.7 327.517 342.483 329.532C340.928 329.56 340.049 329.437 338.789 328.441L267.478 272.188C250.274 258.566 251.284 264.484 251.284 243.091L251.301 180.692C251.306 177.466 251.967 176.273 255.022 175.019Z"/><path fill="#F8B500" transform="scale(2 2)" d="M186.791 135.073C188.31 130.214 214.544 120.355 221.596 119.893L221.752 120.29C207.296 124.831 200.1 127.818 186.791 135.073Z"/><defs><linearGradient id="gradient_1" gradientUnits="userSpaceOnUse" x1="464.00281" y1="294.21863" x2="224.78815" y2="140.84406"><stop offset="0" stop-color="#FF6A01"/><stop offset="1" stop-color="#FCBB00"/></linearGradient></defs><path fill="url(#gradient_1)" transform="scale(2 2)" d="M280.326 60.7764C289.147 61.2056 302.582 64.5973 311.117 67.1399C398.155 93.0702 457.095 175.116 452.668 266.367C450.518 310.689 432.04 355.485 401.299 387.483C397.144 391.884 390.148 386.762 393.621 382.266C398.03 376.559 403.152 371.502 407.461 365.681C446.345 313.151 453.84 242.209 427.855 182.364C405.571 131.041 365.345 96.2845 313.531 77.823C301.07 73.3828 289.605 72.3183 277.033 69.5866C277.967 69.0858 278.673 69.3612 279.746 69.5599C270.217 64.731 276.438 69.0237 276.366 62.196L275.701 62.1601L275.644 61.7953C276.977 60.7595 278.821 61.1148 280.326 60.7764Z"/><path fill="#F8B500" transform="scale(2 2)" d="M62.2503 282.655C65.4573 277.444 71.1784 279.214 71.8271 283.301C81.2161 342.454 113.249 390.33 166.473 419.707C173.569 423.624 180.493 426.378 187.763 429.67C189.114 431.834 205.528 435.228 207.035 436.54C205.629 436.829 204.606 436.587 203.46 435.77L202.611 436.115L202.046 435.368C199.241 435.746 202.595 436.488 202.595 437.162L201.469 437.43C199.317 442.661 210.47 447.086 213.367 446.936L213.589 446.81C208.967 447.921 190.307 440.07 183.432 438.163L183.279 438.552C180.67 437.692 175.627 435.379 173.057 434.177C119.676 409.219 77.6422 359.519 65.1981 301.48C64.086 296.292 62.1613 287.906 62.2503 282.655Z"/><path fill="#F53100" transform="scale(2 2)" d="M187.763 429.67C238.626 447.531 288.187 447.939 337.857 423.5C341.037 422.274 346.445 417.726 349.977 419.385C353.786 421.175 353.871 426.532 349.888 428.667C302.583 454.021 233.315 461.48 183.279 438.552L183.432 438.163C190.307 440.07 208.967 447.921 213.589 446.81L213.367 446.936C210.47 447.086 199.317 442.661 201.469 437.43L202.595 437.162C202.595 436.488 199.241 435.746 202.046 435.368L202.611 436.115L203.46 435.77C204.606 436.587 205.629 436.829 207.035 436.54C205.528 435.228 189.114 431.834 187.763 429.67Z"/><path fill="#F8B500" transform="scale(2 2)" d="M123.152 111.227C134.679 111.043 124.566 122.107 121.412 125.275C98.25 148.538 82.4236 178.803 74.9135 210.655C73.9724 214.646 74.1421 216.715 70.1944 218.392C67.2653 218.532 64.1154 216.07 64.6725 213.113C71.0064 179.495 87.8995 147.8 110.909 122.606C114.409 118.773 118.501 113.564 123.152 111.227Z"/><path fill="#F8B500" transform="scale(2 2)" d="M277.033 69.5866C271.922 69.655 266.758 68.9203 261.637 68.8036C236.43 68.2291 211.664 72.3211 188.157 81.4915C184.986 82.7285 169.407 90.1216 167.863 89.8885C163.522 89.2332 162.823 83.3125 166.196 80.9642C169.664 78.5494 177.173 75.77 181.303 74.083C209.947 62.3818 249.193 55.096 280.326 60.7764C278.821 61.1148 276.977 60.7595 275.644 61.7953L275.701 62.1601L276.366 62.196C276.438 69.0237 270.217 64.731 279.746 69.5599C278.673 69.3612 277.967 69.0858 277.033 69.5866Z"/></svg>