<?xml version="1.0" encoding="utf-8" ?><svg xmlns="http://www.w3.org/2000/svg" xmlns:xlink="http://www.w3.org/1999/xlink" width="683" height="683" viewBox="0 0 683 683"><defs><linearGradient id="gradient_0" gradientUnits="userSpaceOnUse" x1="308.77249" y1="398.98138" x2="441.85004" y2="281.39615"><stop offset="0" stop-color="#FF8B28"/><stop offset="1" stop-color="#FFD232"/></linearGradient></defs><path fill="url(#gradient_0)" transform="matrix(1.33398 0 0 1.33398 0 -1.52588e-05)" d="M259.33 352.703C257.983 295.876 302.202 248.345 358.978 245.592C415.754 242.84 464.365 285.87 468.521 342.56C472.678 399.251 430.863 448.911 374.293 454.469C345.301 457.317 316.433 447.964 294.62 428.655C272.807 409.346 260.02 381.826 259.33 352.703ZM286.251 345.53C291.742 354.188 270.504 353.148 267.793 352.347C267.683 402.827 311.226 445.249 361.881 446.248C365.517 446.32 369.385 445.842 372.991 446.042C378.195 444.793 383.532 444.188 388.801 442.876C429.777 432.666 459.467 394.976 461.056 352.347C458.267 352.187 454.153 352.337 451.247 352.338L432.014 352.341C409.153 352.343 385.878 352.589 363.066 352.347L331.119 352.35C326.269 352.352 321.348 352.505 316.531 352.316C311.737 352.128 311.241 344.074 316.118 343.788C321.38 343.48 327.073 343.616 332.341 343.613L367.476 343.619C376.631 343.24 388.698 343.619 398.141 343.619L461.056 343.619L460.935 343.208C460.022 340.041 459.705 336.529 459.105 333.271C449.116 279.068 391.77 241.747 338.322 257.595C299.577 269.083 270.713 302.97 267.793 343.619C271.263 343.633 284.623 342.941 286.251 345.53Z"/><path fill="#F9CE26" transform="matrix(1.33398 0 0 1.33398 0 -1.52588e-05)" d="M437.057 373.482C439.157 373.54 442.657 374.98 441.984 377.559C433.664 409.453 398.032 433.559 365.696 432.773C362.283 433.048 359.819 431.113 360.715 427.716C361.93 423.111 370.985 424.447 374.809 423.875C394.173 421.015 412.181 410.379 423.992 394.744C428.034 389.394 433.449 375.152 437.057 373.482Z"/><path fill="#F63426" transform="matrix(1.33398 0 0 1.33398 0 -1.52588e-05)" d="M287.467 371.797C288.978 371.827 291.303 372.05 291.971 373.57C296.457 383.726 302.028 393.704 310.06 401.53C312.763 404.162 316.538 408.619 310.851 410.967C302.789 411.788 288.713 387.717 286.237 381.611C284.283 376.792 283.23 375.311 287.467 371.797Z"/><path fill="#F63426" transform="matrix(1.33398 0 0 1.33398 0 -1.52588e-05)" d="M317.546 287.518C319.186 287.619 321.149 288.088 321.846 289.782C322.666 291.777 324.975 313.096 318.846 315.084C310.966 315.102 314.128 296.518 314.377 290.257C314.424 289.066 316.701 287.932 317.546 287.518Z"/><path fill="#F9CE26" transform="matrix(1.33398 0 0 1.33398 0 -1.52588e-05)" d="M333.036 274.207C335.87 274.159 343.822 273.268 345.466 276.215C347.007 278.976 345.722 280.664 343.192 282.009C339.148 282.303 329.289 283.525 329.948 277.477C330.146 275.669 331.437 274.795 333.036 274.207Z"/><path fill="#F63426" transform="matrix(1.33398 0 0 1.33398 0 -1.52588e-05)" d="M259.33 352.703C260.282 350.839 258.399 344.828 260.109 343.059C262.167 343.208 264.331 346.987 267.696 347.9L269.168 348.31L269.555 347.609C270.907 347.766 271.848 348.642 272.018 350.013C271.144 351.944 270.378 350.728 268.698 351.846C271.34 351.844 277.764 352.197 279.878 351.663L279.878 351.652C273.475 351.079 276.258 349.033 276.427 345.217C278.661 344.667 283.852 343.94 285.651 345.594L286.251 345.53C291.742 354.188 270.504 353.148 267.793 352.347C267.683 402.827 311.226 445.249 361.881 446.248C365.517 446.32 369.385 445.842 372.991 446.042C379.925 447.12 399.664 436.665 391.212 449.444C389.788 449.816 387.794 451.154 386.214 451.86C383.953 452.869 374.625 453.167 373.399 454.139L374.293 454.469C345.301 457.317 316.433 447.964 294.62 428.655C272.807 409.346 260.02 381.826 259.33 352.703Z"/><path fill="#F63426" transform="matrix(1.33398 0 0 1.33398 0 -1.52588e-05)" d="M363.066 352.347L331.119 352.35C326.269 352.352 321.348 352.505 316.531 352.316C311.737 352.128 311.241 344.074 316.118 343.788C321.38 343.48 327.073 343.616 332.341 343.613L367.476 343.619C370.694 344.106 375.252 343.802 378.658 343.746C377.928 344.025 353.727 344.319 352.085 344.302C350.916 344.289 346.03 344.728 349.645 344.939C352.027 348.059 348.362 350.666 345.662 351.595C352.832 351.832 361.904 351.133 368.661 351.848C367.746 351.944 363.395 352.181 363.066 352.347Z"/><defs><linearGradient id="gradient_1" gradientUnits="userSpaceOnUse" x1="70.97683" y1="419.16806" x2="225.14073" y2="280.5723"><stop offset="0" stop-color="#EF6A29"/><stop offset="1" stop-color="#FFAB2B"/></linearGradient></defs><path fill="url(#gradient_1)" transform="matrix(1.33398 0 0 1.33398 0 -1.52588e-05)" d="M143.293 245.647C200.989 242.916 249.953 287.518 252.602 345.217C255.251 402.916 210.581 451.817 152.878 454.385C95.2902 456.948 46.5078 412.385 43.8638 354.801C41.2198 297.217 85.7133 248.372 143.293 245.647ZM52.0297 343.619C59.2409 343.994 66.4524 342.916 73.5431 343.599C75.5717 343.794 78.5309 348.714 75.2959 350.455C71.8349 352.318 68.3637 351.877 64.6267 351.873L52.0297 351.846C51.8088 375.209 62.9986 400.307 79.1496 416.779C122.308 460.795 195.053 453.836 228.464 403.373C237.914 388.261 244.903 369.953 244.038 351.846C232.942 351.641 221.155 351.845 210.013 351.845L102.059 351.869C96.224 351.839 96.0955 343.573 102.157 343.578L221.568 343.618C228.314 343.616 237.605 343.237 244.038 343.619C241.785 295.962 196.025 251.354 147.999 253.997L147.665 254.019C99.3642 253.733 58.4838 290.911 52.796 338.511C52.5925 340.214 52.34 341.932 52.0297 343.619Z"/><path fill="#F63426" transform="matrix(1.33398 0 0 1.33398 0 -1.52588e-05)" d="M222.674 371.797C225.652 372.032 226.456 373.059 227.544 375.77C218.696 408.901 182.885 433.401 149.129 432.773C142.363 432.912 143.761 425.42 147.373 424.851C149.925 424.449 152.485 424.659 155.011 424.42C181.561 421.901 205.782 405.549 216.626 380.875C218.148 377.412 218.331 372.569 222.674 371.797Z"/><path fill="#F63426" transform="matrix(1.33398 0 0 1.33398 0 -1.52588e-05)" d="M73.3538 371.797C77.4396 371.504 78.2193 375.651 79.2728 378.911C81.4714 385.716 84.8112 391.57 89.4627 397.03C92.7093 400.841 100.59 406.344 92.4593 409.956C84.062 409.8 69.3044 382.945 69.9968 374.78C70.1082 373.466 72.229 372.376 73.3538 371.797Z"/><path fill="#F63426" transform="matrix(1.33398 0 0 1.33398 0 -1.52588e-05)" d="M103.555 287.518C106.055 287.391 108.612 288.677 108.651 291.424C108.746 298.102 111.207 312.819 105.537 315.897C103.783 316.113 101.975 315.567 101.033 313.946C99.9938 312.157 97.4451 290.757 103.555 287.518Z"/><path fill="#F63426" transform="matrix(1.33398 0 0 1.33398 0 -1.52588e-05)" d="M122.711 274.207C135.772 273.955 133.018 282.061 127.419 282.009C116.998 283.807 115.202 275.741 122.711 274.207Z"/><defs><linearGradient id="gradient_2" gradientUnits="userSpaceOnUse" x1="169.48305" y1="218.85262" x2="343.26093" y2="104.00345"><stop offset="0" stop-color="#FC8626"/><stop offset="1" stop-color="#FFD034"/></linearGradient></defs><path fill="url(#gradient_2)" transform="matrix(1.33398 0 0 1.33398 0 -1.52588e-05)" d="M251.415 56.498C256.203 56.3789 272.118 56.1403 275.138 58.9524C277.414 61.0724 275.931 65.9459 272.827 66.3994C270.598 66.725 262.612 65.2613 259.254 65.1693C209.102 63.7957 161.649 104.381 160.269 155.587L172.947 155.552C187.509 155.489 183.463 163.339 179.646 163.757C177.2 164.025 174.894 163.946 172.439 163.941L160.269 163.905C160.016 173.217 161.603 181.005 164.492 189.952C197.261 291.439 342.975 277.69 352.768 163.905L223.599 163.904C218.813 163.904 214.029 163.886 209.24 163.97C203.398 164.073 203.359 155.733 209.474 155.607C214.083 155.512 218.699 155.576 223.316 155.582L337.437 155.587L352.768 155.587C351.939 152.088 351.871 148.331 351.278 144.767C346.407 115.516 325.466 87.265 298.267 74.8462C295.177 73.4353 291.358 72.4161 288.641 70.3866C285.952 68.378 287.045 63.7669 290.526 63.4112C300.178 62.4248 325.025 81.5369 332.828 89.7429C368.835 127.607 370.408 186.937 337.83 227.557C307.687 265.141 256.221 277.793 212.575 257.383C151.018 228.597 132.043 147.905 175.323 95.0099C194.928 71.0485 221.317 59.5067 251.415 56.498Z"/><defs><linearGradient id="gradient_3" gradientUnits="userSpaceOnUse" x1="250.86345" y1="223.67561" x2="337.22275" y2="206.79424"><stop offset="0" stop-color="#FF9C2C"/><stop offset="1" stop-color="#FFC62A"/></linearGradient></defs><path fill="url(#gradient_3)" transform="matrix(1.33398 0 0 1.33398 0 -1.52588e-05)" d="M329.701 184.503C336.352 184.53 333.921 191.132 332.397 194.956C320.643 224.442 289.822 244.613 258.263 244.717C252.469 244.73 252.613 237.17 256.583 236.582C261.573 235.848 266.656 236.018 271.621 234.926C292.287 230.379 311.316 217.836 321.077 198.664C323.702 193.509 324.592 186.295 329.701 184.503Z"/><path fill="#F63426" transform="matrix(1.33398 0 0 1.33398 0 -1.52588e-05)" d="M180.753 184.503C185.044 183.815 185.398 187.565 186.887 190.947C190.427 199.122 195.148 206.68 201.584 212.901C205.053 216.254 208.166 219.737 202.389 222.959C196.197 222.312 168.843 188.23 180.753 184.503Z"/><path fill="#F63426" transform="matrix(1.33398 0 0 1.33398 0 -1.52588e-05)" d="M210.447 97.0701C212.15 96.9203 214.49 97.0306 215.459 98.6929C216.137 99.8546 218.875 124.952 213.364 128.148C211.565 128.622 209.402 128.29 208.374 126.557C207.792 125.575 205.021 100.046 210.447 97.0701Z"/><path fill="#F63426" transform="matrix(1.33398 0 0 1.33398 0 -1.52588e-05)" d="M227.544 86.011C229.734 85.9836 235.355 85.6555 236.945 86.5733C240.493 88.6224 239.186 93.1712 235.295 94.2919C232.225 94.3167 227.182 94.8731 224.549 93.4022C221.01 91.4254 223.225 86.4848 227.544 86.011Z"/></svg>