<?xml version="1.0" encoding="utf-8" ?><svg xmlns="http://www.w3.org/2000/svg" xmlns:xlink="http://www.w3.org/1999/xlink" width="1024" height="1024" viewBox="0 0 1024 1024"><defs><linearGradient id="gradient_0" gradientUnits="userSpaceOnUse" x1="53.315693" y1="337.41132" x2="257.63309" y2="445.99146"><stop offset="0" stop-color="#FF9F26"/><stop offset="1" stop-color="#FF3028"/></linearGradient></defs><path fill="url(#gradient_0)" transform="scale(2 2)" d="M134.012 436.233C133.763 454.714 119.224 455.352 105.76 455.357L87.4908 455.345C81.8523 455.323 76.2276 455.369 70.5895 455.466C67.1502 455.525 66.862 453.039 66.8627 450.091L66.8759 329.957C66.873 324.114 66.7822 318.057 66.9206 312.206C67.0149 308.221 70.7762 308.19 73.9192 308.187C85.468 308.142 97.1466 308.199 108.681 308.178C122.23 308.103 133.878 310.65 134.012 326.812C153.064 328.01 173.431 324.742 192.366 328.992C209.444 332.928 213.088 339.839 225.198 348.411C228.101 348.654 234.686 348.427 237.851 348.423L264.85 348.4C282.239 348.391 287.965 348.262 296.448 365.354C294.745 368.136 296.279 378.135 291.384 382.212C287.764 381.467 293.531 377.37 288.968 372.094L288.748 371.843C289.769 369.188 288.585 368.591 289.355 366.221L289.649 366.158C291.944 369.825 291.159 366.085 290.931 363.907C289.204 362.199 289.354 362.955 287.207 362.274L286.801 362.148C286.141 361.191 285.524 360.024 284.328 359.906C275.638 354.637 272.118 356.241 261.75 356.246L233.814 356.261C218.505 356.259 224.809 357.269 213.337 348.377C194.825 334.028 183.881 334.64 161.063 334.641L134.012 334.644L134.012 428.446C165.76 432.664 197.428 437.559 229.076 442.442C231.413 442.803 243.168 444.194 244.738 444.921C247.517 447.184 246.446 444.535 245.351 446.149C245.595 447.785 244.653 449.411 244.448 451.152C246.476 452.609 244.263 451.877 243.136 452.216C237.303 452.473 218.403 448.53 211.909 447.547L134.012 436.233ZM74.0081 447.923L102.842 447.933C110.46 447.937 116.382 449.154 123.016 444.921C128.424 436.766 126.33 426.589 126.317 416.667L126.328 339.024C126.348 317.253 128.851 315.628 104.057 315.636L74.0081 315.643L74.0081 447.923Z"/><defs><linearGradient id="gradient_1" gradientUnits="userSpaceOnUse" x1="242.36653" y1="128.71259" x2="367.95032" y2="193.42772"><stop offset="0" stop-color="#FF8627"/><stop offset="1" stop-color="#FF3E28"/></linearGradient></defs><path fill="url(#gradient_1)" transform="scale(2 2)" d="M296.448 89.1133C324.434 87.8967 348.345 103.037 358.165 129.741C359.922 134.517 360.269 138.391 361.675 142.85L361.784 143.191C370.524 150.091 369.63 155.436 369.729 165.765C371.684 165.978 377.277 165.706 378.613 166.749C380.804 168.46 381.008 173.123 377.367 173.766C374.786 174.221 372.393 174.038 369.729 173.994C369.776 181.435 370.659 188.121 364.686 193.801C359.333 198.891 349.723 199.961 344.358 194.301C336.797 222.432 311.9 237.208 284.11 227.601C279.552 226.025 277.506 221.464 283.229 219.213C283.885 218.955 288.865 220.906 289.99 221.276C308.955 227.513 327.175 215.993 334.88 198.925C332.671 199.868 329.765 200.655 327.779 201.783C312.323 230.08 288.49 197.359 308.922 187.537C316.937 184.43 322.014 188.047 326.522 194.301C330.021 192.594 334.597 190.819 338.255 189.291C338.297 188.53 338.329 187.763 338.334 187L338.253 165.576C338.27 149.299 338.786 136.497 326.494 124.124C311.957 109.596 288.597 109.761 274.314 124.553C263.469 135.785 263.729 145.889 263.751 160.232L263.861 181.388C263.794 196.571 247.472 203.858 236.472 193.174C231.383 188.231 232.164 180.606 232.243 173.994C229.974 173.837 223.642 174.398 222.64 172.884C217.192 164.662 229.088 165.723 232.243 165.765C232.182 153.959 231.206 150.7 239.979 142.255C241.265 138.903 241.645 135.419 242.703 132.046C250.273 107.908 271.471 90.8953 296.448 89.1133ZM256.014 143.191C257.215 139.825 258.167 136.412 259.475 133.092C266.428 115.443 286.149 103.098 305.327 105.742C326.185 108.899 340.521 122.697 345.244 143.191C348.436 141.897 350.051 141.138 353.458 140.923C346.146 113.902 326.048 94.6835 296.448 96.7442C272.369 99.9062 253.254 116.176 248.368 140.149C251.602 140.924 253.214 141.34 256.014 143.191ZM247.595 148.316C239.868 148.911 239.903 154.734 239.972 160.849C240.091 171.57 235.846 189.584 249.152 190.521C251.601 189.513 254.446 187.781 255.43 185.193C256.555 182.235 256.398 155.228 255.128 152.508C253.778 149.616 250.675 148.113 247.595 148.316ZM354.516 190.521C356.777 190.02 359.158 189.121 360.465 187.074C362.39 184.058 362.213 157.567 361.145 153.656C360.259 150.411 356.641 148.41 353.458 148.316C349.686 148.942 346.284 151.122 346.156 155.405C345.871 164.917 341.297 190.686 354.516 190.521ZM314.859 205.516C318.147 204.63 319.154 202.925 320.177 199.83C319.307 196.667 317.629 193.441 313.697 194.301C305.718 196.126 307.399 204.222 314.859 205.516Z"/><defs><linearGradient id="gradient_2" gradientUnits="userSpaceOnUse" x1="196.27795" y1="118.26323" x2="405.87207" y2="233.39313"><stop offset="0" stop-color="#FF9627"/><stop offset="1" stop-color="#FF3134"/></linearGradient></defs><path fill="url(#gradient_2)" transform="scale(2 2)" d="M293.773 56.2177C328.054 55.7499 358.921 65.3089 384.32 89.6385C461.187 163.268 411.512 291.766 304.649 295.033C216.07 297.74 158.352 209.573 190.716 128.935C191.861 126.382 193.836 119.193 197.464 119.464C205.344 120.051 196.3 135.3 195.15 138.82C180.226 184.503 194.605 234.137 232.048 264.462C232.113 264.538 232.178 264.613 232.243 264.689C234.545 266.188 236.546 267.621 238.759 269.233C243.753 250.122 255.513 245.419 272.395 238.534C277.208 236.572 280.421 243.01 275.634 245.584C259.584 254.216 251.011 252.228 245.56 272.893C276.403 290.122 314.692 291.711 347.125 277.506C350.475 276.039 353.796 274.194 357.262 273.033L357.688 272.893L357.49 272.432C348.964 252.578 348.221 255.162 327.91 246.816C321.631 244.236 321.337 239.734 327.779 237.685C332.577 239.048 337.089 242.248 341.462 243.832C354.804 248.665 358.842 255.087 364.422 268.058C406.948 236.813 426.273 185.477 405.852 134.648C378.039 65.42 286.062 40.9816 230.361 89.5228C226.608 92.7933 222.47 87.5989 224.553 84.3171C226.792 81.7213 231.141 78.8972 234.139 76.8702C253.368 63.8726 271.298 58.6347 293.773 56.2177Z"/><defs><linearGradient id="gradient_3" gradientUnits="userSpaceOnUse" x1="382.84814" y1="427.35233" x2="280.72269" y2="374.52139"><stop offset="0" stop-color="#FF327C"/><stop offset="1" stop-color="#FF442F"/></linearGradient></defs><path fill="url(#gradient_3)" transform="scale(2 2)" d="M291.8 382.993L292.155 383.322C300.56 383.643 302.086 383.275 309.276 379.655L370.101 349.335C376.251 346.243 384.388 341.221 390.999 340.163C408.266 337.4 420.808 356.181 412.611 371.351C409.717 376.809 405.947 378.435 400.833 381.467L306.005 435.814C281.736 449.808 279.616 453.825 250.588 453.762C248.27 453.393 245.6 452.649 243.136 452.216C244.263 451.877 246.476 452.609 244.448 451.152C244.653 449.411 245.595 447.785 245.351 446.149C246.446 444.535 247.517 447.184 244.738 444.921C251.932 445.707 254.892 446.199 262.341 445.994C264.36 445.472 266.984 445.329 269.102 444.974C282.439 442.739 314.323 422.205 327.16 414.857L382.855 382.834C388.726 379.402 394.654 376.044 400.588 372.445C413.594 364.556 405.786 345.73 391.749 347.646C388.716 348.06 381.368 352.645 378.084 354.251L326.679 379.776C306.429 389.874 310.177 390.808 287.572 390.778L265.948 390.763C265.392 389.779 273.316 390.115 274.246 390.098C274.421 389.222 274.266 389.339 273.788 388.321C274.499 386.098 276.494 386.82 277.774 384.904L277.592 384.245L276.523 384.126L276.654 383.747C277.435 383.129 277.566 383.162 278.59 382.993C280.51 382.178 283.757 380.53 285.522 380.037C284.8 381.289 284.445 382.325 284.775 383.771C287.635 387.405 290.015 381.942 291.8 382.993Z"/><path fill="#FF3334" transform="scale(2 2)" d="M244.738 444.921C251.932 445.707 254.892 446.199 262.341 445.994C257.822 447.877 250.473 445.116 247.049 446.549C245.458 454.63 245.938 450.882 251.029 453.269L251.081 453.485L250.588 453.762C248.27 453.393 245.6 452.649 243.136 452.216C244.263 451.877 246.476 452.609 244.448 451.152C244.653 449.411 245.595 447.785 245.351 446.149C246.446 444.535 247.517 447.184 244.738 444.921Z"/><path fill="#FF3334" transform="scale(2 2)" d="M427.826 246.522C431.494 246.524 433.575 249.695 431.656 252.814C415.517 279.035 384.257 308.895 353.458 317.128C349.405 317.344 348.007 312.416 350.775 310.328C354.12 307.806 359.289 306.815 363.134 304.843C384.692 294.93 403.409 279.586 417.106 260.186C419.598 256.656 424.068 248.125 427.826 246.522Z"/><path fill="#FF3334" transform="scale(2 2)" d="M284.328 359.906C285.524 360.024 286.141 361.191 286.801 362.148L287.207 362.274C289.354 362.955 289.204 362.199 290.931 363.907C291.159 366.085 291.944 369.825 289.649 366.158L289.355 366.221C288.585 368.591 289.769 369.188 288.748 371.843L288.968 372.094C293.531 377.37 287.764 381.467 291.384 382.212C296.279 378.135 294.745 368.136 296.448 365.354C296.378 373.247 295.914 376.107 291.8 382.993C290.015 381.942 287.635 387.405 284.775 383.771C284.445 382.325 284.8 381.289 285.522 380.037C283.757 380.53 280.51 382.178 278.59 382.993C277.566 383.162 277.435 383.129 276.654 383.747L276.523 384.126L277.592 384.245L277.774 384.904C276.494 386.82 274.499 386.098 273.788 388.321C274.266 389.339 274.421 389.222 274.246 390.098C273.316 390.115 265.392 389.779 265.948 390.763C262.894 390.916 258.222 390.767 255.016 390.766L217.172 390.78C214.393 390.781 211.393 390.853 208.628 390.727C204.434 390.537 203.222 383.096 208.495 383.03C213.919 382.962 219.35 383.008 224.776 383.003L259.401 382.993C266.112 382.832 275.981 384.16 281.92 380.837C290.734 375.905 289.137 367.206 284.551 360.247L284.328 359.906Z"/><path fill="#FF3334" transform="scale(2 2)" d="M439.77 216.601C443.068 216.582 443.743 217.6 444.902 220.541C444.234 224.669 441.934 233.313 438.061 235.265C428.704 237.52 436.357 218.042 439.77 216.601Z"/><path fill="#FF7821" transform="scale(2 2)" d="M212.075 96.7442C221.375 97.776 215.177 107.038 210.685 109.949C200.332 110.516 208.651 100.044 212.075 96.7442Z"/><path fill="#FF7821" transform="scale(2 2)" d="M267.63 205.516C272.231 205.775 277.274 214.154 270.4 216.601C266.836 217.275 260.596 207.773 267.63 205.516Z"/></svg>