<?xml version="1.0" encoding="utf-8" ?><svg xmlns="http://www.w3.org/2000/svg" xmlns:xlink="http://www.w3.org/1999/xlink" width="1024" height="1024" viewBox="0 0 1024 1024"><defs><linearGradient id="gradient_0" gradientUnits="userSpaceOnUse" x1="294.76859" y1="247.87067" x2="194.92258" y2="458.91376"><stop offset="0" stop-color="#FF9627"/><stop offset="1" stop-color="#FFC246"/></linearGradient></defs><path fill="url(#gradient_0)" transform="scale(2 2)" d="M70.0687 269.529C75.2642 270.216 73.5417 277.881 73.5034 281.638L73.4776 352.523C78.5675 352.609 85.5336 352.909 90.5656 352.092C92.9824 351.554 95.7595 349.202 98.1309 348.813C131.35 343.369 123.839 401.094 89.9985 381.336C84.5005 381.407 78.9905 381.252 73.4776 381.336C73.842 391.685 82.0909 401.5 92.6763 403.499C97.0403 404.323 104.894 403.746 109.606 403.745L397.436 403.743C415.361 403.741 436.352 407.349 438.595 382.54C433.077 382.012 426.963 381.714 421.392 381.336C408.853 388.277 395.453 383.745 392.704 368.807C389.837 353.224 407.658 342.143 420.226 351.15L422.312 352.523C427.671 351.984 433.224 351.55 438.595 351.15L438.615 329.422C438.614 326.614 438.589 323.688 438.492 320.88C438.41 318.54 445.325 310.799 445.26 328.109L445.202 342.026C445.184 359.799 447.473 356.982 427.987 358.491C429.241 365.034 429.701 368.769 426.721 374.774C431.61 375.822 444.941 374.125 445.103 379.12C445.623 395.144 435.031 409.927 418.057 409.943L106.498 409.969C102.173 409.99 96.4446 410.34 92.3355 409.744C77.8294 407.641 66.6988 394.011 66.6219 379.482C66.5812 371.807 79.065 374.745 85.5974 374.774C82.808 368.223 82.7219 365.447 85.5974 358.924C66.4133 358.257 66.9993 363.552 66.9986 344.921L66.9988 292.644C67 286.533 64.6886 271.715 70.0687 269.529ZM103.491 378.818C110.082 377.864 114.653 371.749 113.704 365.158C112.755 358.566 106.645 353.99 100.052 354.934C93.4523 355.879 88.8699 361.998 89.8201 368.597C90.7704 375.196 96.893 379.774 103.491 378.818ZM412.108 378.108C418.593 377.296 423.209 371.404 422.447 364.913C421.685 358.421 415.83 353.76 409.333 354.471C402.764 355.191 398.04 361.125 398.81 367.688C399.581 374.251 405.551 378.929 412.108 378.108Z"/><path fill="#FDC327" transform="scale(2 2)" d="M418.786 101.502C423.235 101.258 428.934 100.782 432.835 102.303C449.011 108.608 448.441 129.591 432.528 136.017C425.424 138.886 428.565 132.324 427.987 145.476C439.559 148.049 445.374 158.714 445.211 169.909C445.137 174.943 447.816 199.143 441.853 199.02C437.223 198.924 438.526 189.717 438.595 186.625C438.595 173.433 442.308 155.659 425.721 152.129C418.293 161.83 406.554 165.028 397.204 155.398C384.32 142.131 394.302 123.319 413.659 124.292L413.615 111.981C413.571 105.893 411.835 101.53 418.786 101.502ZM412.597 154.125C418.96 152.681 422.957 146.364 421.538 139.996C420.119 133.627 413.817 129.605 407.443 131C401.034 132.402 396.985 138.746 398.413 145.15C399.84 151.553 406.199 155.577 412.597 154.125ZM420.226 128.546C425.539 130.748 429.928 131.22 434.547 127.384C439.215 122.609 439.602 115.403 434.52 110.588C430.925 107.182 425.939 107.587 421.392 107.725L420.7 107.882C419.972 109.609 420.177 125.402 420.226 128.546Z"/><path fill="#FF842A" transform="scale(2 2)" d="M82.9638 101.502L93.1243 101.452C94.5094 101.452 97.2137 101.435 98.2227 102.442C99.3722 105.13 98.9119 120.192 98.9002 124.292C106.079 124.666 110.699 125.787 115.284 131.784C129.471 150.044 101.561 173.314 85.5974 151.328C76.5423 153.972 73.5577 157.437 73.4776 167.045L73.5173 180.218C73.5574 183.329 74.8135 190.478 70.4458 190.382C64.3698 190.248 67.1794 170.732 67.0592 165.488C66.865 157.01 74.0778 144.925 83.5124 145.476C83.4645 142.582 83.3879 139.737 83.5124 136.843C62.3178 133.061 63.5073 103.596 82.9638 101.502ZM102.609 153.625C108.774 152.851 113.159 147.246 112.428 141.076C111.696 134.905 106.122 130.482 99.9463 131.171C93.7105 131.867 89.2342 137.507 89.973 143.738C90.7117 149.969 96.383 154.407 102.609 153.625ZM83.5124 130.773C88.4508 130.856 88.8687 128.671 92.5199 126.022C92.7021 120.117 92.501 113.694 92.5199 107.725C89.7116 107.721 86.2668 107.62 83.5124 107.725C71.4922 110.448 70.5636 124.952 83.5124 130.773Z"/><path fill="#FF842A" transform="scale(2 2)" d="M168.193 131.307C172.877 130.91 190.652 146.559 180.481 148.329C178.574 148.661 174.052 142.903 172.934 141.647L172.933 321.022C172.932 328.25 172.732 336.262 172.934 343.403C173.777 342.552 181.497 332.202 182.893 340.628C183.379 343.559 173.511 353.224 168.193 353.275C164.682 352.476 154.925 342.539 155.576 340.68C158.402 332.614 163.957 341.492 166.213 344.539L166.213 141.647C163.623 143.812 159.851 149.237 156.44 147.841C149.786 145.117 164.883 132.593 168.193 131.307Z"/><path fill="#FF842A" transform="scale(2 2)" d="M244.557 131.307C250.145 131.131 253.79 137.47 257.57 140.858C263.576 146.241 257.489 151.931 253.211 145.683C252.556 144.765 249.76 142.289 248.991 141.647L248.991 343.93C250.75 342.076 252.479 339.234 254.657 338.026C257.594 336.397 260.934 339.619 258.837 342.702C256.163 346.632 251.007 352.14 246.424 353.275L243.258 353.275C229.303 345.391 227.563 326.612 242.534 344.539C242.176 339.209 242.531 329.282 242.531 323.55L242.534 141.647C240.585 144.404 236.362 151.881 232.843 146.9C229.947 143.001 241.999 132.847 244.557 131.307Z"/><path fill="#FF842A" transform="scale(2 2)" d="M206.036 131.307C213.374 130.757 227.399 146.569 218.62 148.117C216.818 148.435 212.716 143.129 211.291 141.647L211.291 343.403C212.841 341.268 216.224 336.185 219.207 337.673C226.293 341.207 212.281 352.754 207.153 353.275C202.946 353.07 191.479 341.952 194.803 338.537C198.678 334.554 202.044 341.663 204.751 344.539C204.178 337.58 204.751 330.218 204.754 323.217L204.751 141.647C202.603 143.159 200.815 145.296 198.899 147.094C196.343 149.492 192.391 146.624 193.864 144.048C195.914 140.462 202.333 133 206.036 131.307Z"/><path fill="#FF842A" transform="scale(2 2)" d="M148.353 124.292C149.939 124.185 150.901 124.833 151.689 126.239C153.81 130.099 147.667 131.281 145.352 132.435C132.606 138.785 135.098 153.54 135.099 165.677L135.086 353.061C135.085 355.892 135.689 357.56 132.798 358.924C125.548 359.742 128.483 345.642 128.489 339.543L128.485 166.876C128.474 149.623 126.37 129.5 148.353 124.292Z"/><path fill="#FDC327" transform="scale(2 2)" d="M265.9 126.022C271.929 125.752 280.149 126.014 286.403 126.016L355.56 126.02C358.464 126.016 372.982 124.983 374.491 127.503C375.743 129.593 374.985 131.22 373.14 132.479C366.577 132.809 357.194 132.48 350.391 132.478L279.335 132.494C275.285 132.512 270.826 132.685 266.817 132.395C263.813 132.178 262.921 128.03 265.9 126.022Z"/><path fill="#FF842A" transform="scale(2 2)" d="M377.222 348.221C379.101 348.126 381.948 347.911 383.269 349.467C389.113 356.349 371.747 354.749 368.892 354.745L282.699 354.732L280.745 354.763C273.606 354.929 273.564 348.565 278.122 348.327C281.876 348.131 285.627 348.204 289.376 348.208L377.222 348.221Z"/><path fill="#FF842A" transform="scale(2 2)" d="M282.699 266.371L368.491 266.357C371.745 266.355 384.905 264.801 384.728 269.497C384.583 273.341 380.436 272.77 378.063 272.761L289.469 272.772C287.186 272.781 270.108 274.379 275.638 267.804C277.186 265.964 280.496 266.428 282.699 266.371Z"/><path fill="#FF842A" transform="scale(2 2)" d="M277.207 224.756L370.47 224.747C373.696 224.747 379.652 224.582 382.573 225.009C385.28 226.85 385.388 229.931 382.165 231.087C372.901 231.234 281.436 232.127 277.192 230.659C273.781 229.479 274.213 226.004 277.207 224.756Z"/><path fill="#FF842A" transform="scale(2 2)" d="M277.207 184.25L355.834 184.263C364.646 184.267 373.742 183.975 382.495 184.473C384.815 184.605 386.026 188.783 382.165 190.556C374.202 190.729 365.601 190.562 357.57 190.56L288.216 190.568C285.085 190.592 281.118 190.871 278.076 190.603C274.562 190.294 274.05 186.239 277.207 184.25Z"/><path fill="#FF842A" transform="scale(2 2)" d="M277.207 307.082L371.698 307.052C374.759 307.035 379.067 306.781 382.006 307.221C385.664 307.77 385.212 311.624 382.165 313.326C380.18 313.573 371.234 313.329 368.541 313.328L292.769 313.324C287.661 313.326 282.082 313.512 277.038 313.254C275.14 313.157 273.356 308.686 277.207 307.082Z"/><path fill="#FF842A" transform="scale(2 2)" d="M440.71 218.495C448.421 217.686 445.247 234.925 445.249 241.369L445.248 276.041C445.246 281.317 447.028 297.294 443.072 299.796C435.981 299.971 438.593 284.152 438.591 278.36L438.588 231.888C438.571 227.068 437.161 221.604 440.71 218.495Z"/><path fill="#FF842A" transform="scale(2 2)" d="M70.0687 209.79C72.6352 210.209 73.3226 211.016 73.4418 213.491C73.7596 220.088 76.2198 247.618 70.8324 250.157C69.4978 250.023 68.1525 249.627 67.5108 248.326C66.7338 246.749 66.6122 213.498 67.3864 211.581C67.801 210.554 69.1312 210.142 70.0687 209.79Z"/></svg>