<?xml version="1.0" encoding="utf-8" ?><svg xmlns="http://www.w3.org/2000/svg" xmlns:xlink="http://www.w3.org/1999/xlink" width="1024" height="1024" viewBox="0 0 1024 1024"><path fill="#FE9800" transform="scale(2 2)" d="M172.171 271.161C183.09 267.68 192.708 265.865 203.977 264.113C242.013 258.315 280.758 259 318.566 266.14C341.503 270.439 378.345 279.496 387.53 303.973C389.434 309.046 388.409 322.586 388.556 328.739C389.219 356.545 389.877 378.795 376.547 404.232C363.22 429.468 340.468 448.422 313.24 456.973C307.964 458.608 296.091 461.47 290.701 461.593C284.04 461.746 276.31 461.147 269.502 461.209C266.569 461.173 263.27 461.369 260.245 461.382L234.748 461.394C228.117 461.396 220.392 461.569 213.862 460.627C203.369 459.115 192.017 455.477 182.557 450.669C157.25 437.804 137.342 415.359 128.383 388.344C126.693 383.245 125.155 376.927 124.495 371.626C122.967 359.369 123.578 346.924 123.42 334.578C123.418 326.45 122.686 318.486 123.42 310.364C124.183 301.919 126.722 297.141 132.817 291.307C143.771 280.82 157.997 275.607 172.171 271.161ZM270.454 453.001C276.432 452.868 283.477 453.238 289.33 452.782C310.666 450.999 330.846 442.339 346.837 428.104C365.967 411.243 377.526 387.408 378.92 361.946C379.375 354.202 379.478 346.251 379.267 338.501C379.183 335.446 379.191 332.6 379.367 329.552C375.485 331.831 372.37 334.7 368.177 336.943C327.063 358.934 276.644 359.671 231.125 357.294C220.894 356.76 209.803 356.058 199.82 354.473C192.751 353.293 185.741 351.785 178.812 349.954C175.743 349.122 172.756 348.095 169.692 347.262C155.674 342.365 143.402 337.687 132.317 327.489C132.987 339.528 131.805 353.246 132.599 364.829C134.26 389.047 146.749 411.853 164.654 427.871C179.578 441.277 198.235 449.814 218.137 452.345C225.86 453.267 233.466 453.038 241.238 453.027L270.454 453.001ZM175.072 338.517C180.655 340.61 186.736 341.808 192.548 343.133C237.34 353.342 297.448 351.651 341.577 339.206C353.547 335.83 370.702 329.111 376.944 317.757C378.955 314.099 379.474 309.922 378.282 305.904C375.843 297.686 367.658 291.946 360.533 288.057C333.138 273.104 282.862 268.684 251.548 269.195C231.423 269.512 211.36 271.544 191.58 275.27C186.013 276.369 176.485 279.495 170.697 281.189C157.66 284.848 141.022 291.59 133.804 303.514C126.878 314.955 139.356 323.85 148.149 328.381C155.662 332.252 163.444 335.297 171.57 337.648C172.384 337.891 174.324 338.545 175.072 338.517Z"/><path fill="#FA4006" transform="scale(2 2)" d="M151.188 358.002C157.284 357.495 156.148 366.219 156.811 370.081C160.363 390.746 173.437 409.704 192.133 419.435C196.252 421.579 202.954 426.808 195.521 430.395C194.155 430.255 192.914 429.879 191.657 429.342C188.231 427.88 185.122 425.734 182.107 423.571C169.265 414.358 158.269 401.296 152.467 386.509C150.747 382.125 145.672 364.715 147.643 360.566C148.367 359.043 149.681 358.529 151.188 358.002Z"/><path fill="#FA4006" transform="scale(2 2)" d="M254.854 390.26C260.401 389.663 260.068 393.794 260.02 398.215C259.881 410.988 260.365 423.906 259.775 436.628C259.709 438.051 256.935 439.301 255.826 439.769C251.549 438.591 250.692 433.849 250.79 430.026C251.09 418.337 251.143 406.679 251.021 394.983C250.994 392.431 252.63 391.066 254.854 390.26Z"/><path fill="#FA4006" transform="scale(2 2)" d="M207.497 426.999C212.442 427.198 223.29 430.979 214.622 436.131C208.202 436.837 199.414 431.087 207.497 426.999Z"/><path fill="#FA4006" transform="scale(2 2)" d="M269.502 461.209C266.569 461.173 263.27 461.369 260.245 461.382L234.748 461.394C228.117 461.396 220.392 461.569 213.862 460.627C203.369 459.115 192.017 455.477 182.557 450.669C157.25 437.804 137.342 415.359 128.383 388.344C126.693 383.245 125.155 376.927 124.495 371.626C122.967 359.369 123.578 346.924 123.42 334.578C123.418 326.45 122.686 318.486 123.42 310.364C124.183 301.919 126.722 297.141 132.817 291.307C143.771 280.82 157.997 275.607 172.171 271.161C172.446 273.893 168.139 279.889 170.697 281.189C157.66 284.848 141.022 291.59 133.804 303.514C126.878 314.955 139.356 323.85 148.149 328.381C155.662 332.252 163.444 335.297 171.57 337.648C172.384 337.891 174.324 338.545 175.072 338.517C174.055 339.678 169.711 345.816 169.692 347.262C155.674 342.365 143.402 337.687 132.317 327.489C132.987 339.528 131.805 353.246 132.599 364.829C134.26 389.047 146.749 411.853 164.654 427.871C179.578 441.277 198.235 449.814 218.137 452.345C225.86 453.267 233.466 453.038 241.238 453.027L270.454 453.001C270.16 455.681 273.376 457.156 270.513 459.405C270.022 459.791 269.193 460.363 269.123 460.949L269.502 461.209Z"/><defs><linearGradient id="gradient_0" gradientUnits="userSpaceOnUse" x1="452.75082" y1="235.42145" x2="121.66698" y2="184.66505"><stop offset="0" stop-color="#FFA104"/><stop offset="1" stop-color="#FF4F23"/></linearGradient></defs><path fill="url(#gradient_0)" transform="scale(2 2)" d="M440.656 215.529C435.87 209.689 428.722 204.591 424.42 198.173C422.969 196.009 423.772 193.743 425.684 192.298C426.392 191.763 427.527 191.289 428.501 191.604C434.518 194.656 453.18 214.992 455.547 219.832C455.578 224.8 434.612 244.085 430.657 248.502C427.9 251.582 423.589 249.302 423.056 245.58C425.125 237.198 436.242 231.023 440.661 224.311C435.718 224.262 430.392 224.483 425.335 224.486L372.218 224.497L169.649 224.524C139.849 224.534 109.158 224.94 79.4291 224.441C76.9092 224.575 73.4631 224.406 70.846 224.351C76.1259 230.647 83.2615 236.214 87.2336 243.494C87.8708 244.662 88.4263 245.902 87.9688 247.239C87.6048 248.303 86.5909 249.158 85.593 249.608C84.7578 249.984 83.8622 250.134 82.996 249.763C80.9435 248.882 78.3849 245.656 76.801 244.037C71.4241 238.542 59.4145 226.849 57.0574 219.915C56.7959 219.145 56.5772 218.322 56.9751 217.569C58.0301 215.572 59.9522 213.716 61.4293 211.983C66.2212 206.362 76.4691 194.213 83.5761 192.276C84.6347 191.987 85.9652 191.832 86.9055 192.535C87.6367 193.081 88.0168 194.066 88.1055 194.949C88.598 199.852 74.2099 211.35 70.8079 215.744C79.8574 215.187 86.8058 215.366 95.8065 215.403L124.63 215.424L156.769 215.418C162.219 215.415 168.872 215.22 174.195 215.494C185.587 215.147 198.393 215.426 209.864 215.429L275.492 215.431L440.656 215.529Z"/><path fill="#FA4006" transform="scale(2 2)" d="M70.846 224.351C76.1259 230.647 83.2615 236.214 87.2336 243.494C87.8708 244.662 88.4263 245.902 87.9688 247.239C87.6048 248.303 86.5909 249.158 85.593 249.608C84.7578 249.984 83.8622 250.134 82.996 249.763C80.9435 248.882 78.3849 245.656 76.801 244.037C71.4241 238.542 59.4145 226.849 57.0574 219.915C56.7959 219.145 56.5772 218.322 56.9751 217.569C58.0301 215.572 59.9522 213.716 61.4293 211.983C66.2212 206.362 76.4691 194.213 83.5761 192.276C84.6347 191.987 85.9652 191.832 86.9055 192.535C87.6367 193.081 88.0168 194.066 88.1055 194.949C88.598 199.852 74.2099 211.35 70.8079 215.744C79.8574 215.187 86.8058 215.366 95.8065 215.403L124.63 215.424L156.769 215.418C162.219 215.415 168.872 215.22 174.195 215.494C173.304 215.81 168.264 215.758 167.052 215.772C159.866 215.876 152.678 215.911 145.49 215.878C140.756 215.86 135.604 215.366 131.103 216.518C128.055 217.298 124.418 216.876 121.307 217.493C120.905 217.565 119.894 219.465 119.652 219.546C118.975 219.773 117.361 219.921 116.642 219.999C117.791 221.667 120.034 221.633 121.808 222.516C119.916 224.154 118.905 223.488 116.567 223.744C107.861 224.698 98.9001 224.023 90.1403 224.279C87.3009 224.365 81.911 224.052 79.4291 224.441C76.9092 224.575 73.4631 224.406 70.846 224.351Z"/></svg>