<?xml version="1.0" encoding="utf-8" ?><svg xmlns="http://www.w3.org/2000/svg" xmlns:xlink="http://www.w3.org/1999/xlink" width="1024" height="1024" viewBox="0 0 1024 1024"><defs><linearGradient id="gradient_0" gradientUnits="userSpaceOnUse" x1="53.944832" y1="87.205185" x2="254.62668" y2="261.82455"><stop offset="0" stop-color="#FBB701"/><stop offset="1" stop-color="#FF7106"/></linearGradient></defs><path fill="url(#gradient_0)" transform="scale(2 2)" d="M66.3473 72.3243C75.67 66.6123 78.01 67.1925 88.7511 67.2001L222.65 67.1993C247.504 67.1861 250.026 77.7838 250.019 100.473L250.014 240.504C250.027 248.073 250.594 258.051 249.406 265.323C246.133 285.372 220.691 281.928 206.308 281.924L87.6036 281.947C61.6639 281.87 59.0665 273.046 59.0777 248.021L59.0694 94.381C59.0507 92.5743 58.909 88.5898 59.0927 86.9793C59.1756 81.6194 62.4455 75.8575 66.3473 72.3243ZM66.3473 120.698C66.5032 121.907 66.3647 129.8 66.3613 131.437L66.3427 246.803C66.4034 258.623 63.9183 274.146 80.7379 274.705C89.0207 274.979 97.5943 274.757 105.966 274.752L202.673 274.755C211.319 274.762 219.977 274.836 228.619 274.692C242.586 274.278 242.352 261.161 242.296 251.051L242.296 117.438C242.302 102.529 248.029 74.9314 227.523 74.8354L104.007 74.8013C96.6975 74.8017 81.433 73.6747 75.0601 76.203C60.6679 82.6699 67.5182 106.74 66.3473 120.698Z"/><path fill="#F9B701" transform="scale(2 2)" d="M66.3473 72.3243C65.3332 75.5025 61.2554 79.7083 60.4061 83.4709C60.2143 84.3205 59.6106 86.6671 59.0927 86.9793C59.1756 81.6194 62.4455 75.8575 66.3473 72.3243Z"/><defs><linearGradient id="gradient_1" gradientUnits="userSpaceOnUse" x1="117.62112" y1="88.252747" x2="192.97639" y2="144.94679"><stop offset="0" stop-color="#FDB901"/><stop offset="1" stop-color="#F79806"/></linearGradient></defs><path fill="url(#gradient_1)" transform="scale(2 2)" d="M189.837 92.5027C193.289 92.3398 209.774 110.363 212.567 113.321C216.37 117.349 212.645 120.115 209.729 122.959C204.308 128.181 199.127 133.562 193.899 138.96C188.952 144.069 185.264 137.568 187.24 135.365C191.693 130.399 196.96 125.783 201.468 120.698C191.747 120.427 180.521 120.693 170.679 120.694L109.634 120.698C113.935 125.575 129.767 135.731 121.386 140.7C117.294 141.752 102.027 124.191 98.7069 120.43C96.1024 117.479 95.7027 116.602 98.4109 113.43C100.731 110.713 121.621 84.6973 124.013 95.9615C124.736 99.3673 112.132 109.366 109.634 113.233L201.468 113.233C197.076 107.459 181.315 96.8735 189.837 92.5027Z"/><path fill="#FD7902" transform="scale(2 2)" d="M193.656 213.994C196.685 214.278 211.068 230.907 214.545 233.842C218.823 237.453 211.462 242.928 208.731 245.537L201.043 253.01C198.986 255.024 196.982 257.026 195.024 259.152C189.287 265.382 185.255 258.386 187.869 255.558C192.788 250.237 198.505 245.656 203.435 240.352L169.497 240.352L140.474 240.365C135.613 240.366 130.74 240.423 125.882 240.261C121.869 240.126 121.624 233.377 125.576 233.23C128.768 233.068 131.958 233.078 135.149 233.076L203.435 233.076C198.928 227.698 183.86 218.011 193.656 213.994Z"/><path fill="#FD7902" transform="scale(2 2)" d="M110.47 182.13L193.319 182.186C199.422 182.245 200.717 190.136 192.063 189.899L118.005 189.902C114.693 189.901 108.028 190.507 105.252 188.718C100.694 185.782 105.277 182.199 110.47 182.13Z"/><path fill="#FD7902" transform="scale(2 2)" d="M171.632 202.716C174.428 202.617 179.549 201.692 181.374 203.699C189.832 212.998 161.555 209.999 158.036 209.999L115.625 210.008C111.696 209.989 104.326 211.54 103.787 206.539C103.235 201.41 111.707 202.713 114.951 202.711L171.632 202.716Z"/><path fill="#FD7902" transform="scale(2 2)" d="M106.792 161.763C120.644 161.441 134.771 162.006 148.647 161.737C153.022 161.653 153.684 166.37 149.653 169.228C145.418 169.372 107.047 169.635 105.686 168.751C102.723 166.826 103.539 162.658 106.792 161.763Z"/><path fill="#F9B701" transform="scale(2 2)" d="M66.3473 120.698C66.0699 118.861 66.3725 113.588 66.266 111.24C65.896 104.507 65.1583 93.9377 65.418 87.3343C65.4577 86.3244 62.4394 83.5761 63.7746 81.5243C65.2751 79.2186 72.647 75.0771 75.0601 76.203C60.6679 82.6699 67.5182 106.74 66.3473 120.698Z"/><defs><linearGradient id="gradient_2" gradientUnits="userSpaceOnUse" x1="261.06494" y1="271.22113" x2="428.09714" y2="403.52115"><stop offset="0" stop-color="#FF7A02"/><stop offset="1" stop-color="#FF3A0E"/></linearGradient></defs><path fill="url(#gradient_2)" transform="scale(2 2)" d="M337.467 230.534L351.487 230.491C366.407 230.451 362.833 233.582 362.777 247.812C372.34 248.653 387.201 255.951 394.763 261.633C397.491 258.8 403.316 252.539 406.675 251.04C411.887 252.871 423.138 265.411 427.474 269.794C432.452 275.869 423.961 279.422 420.009 285.766C427.497 296.002 432.02 308.502 434.914 320.752C438.403 320.796 448.596 320.248 451.064 321.42C452.604 323.579 452.554 352.016 451.016 354.618C448.187 356.463 438.166 355.745 434.105 355.748C431.809 363.638 429.641 371.05 425.929 378.457C424.255 381.798 421.736 384.881 420.169 388.233L420.009 388.583C422.455 390.608 429.588 397.852 431.056 400.504C427.718 406.629 414.261 417.105 409.242 422.89C404.866 427.934 396.835 416.935 393.498 413.59C383.676 419.246 374.114 424.38 362.777 426.567C363.455 430.42 362.534 433.43 363.006 437.152C363.936 444.494 359.945 443.629 354.504 443.554L339.584 443.578C324.457 443.587 327.154 443.261 327.249 427.361C315.281 425.097 305.183 419.381 294.706 413.59C291.826 416.217 286.091 422.86 282.879 423.934C281.5 424.395 259.768 404.104 258.98 400.001C259.663 397.923 267.6 390.194 269.531 388.583C261.918 376.494 257.688 370.734 253.945 355.748C248.47 355.8 238.086 358.136 238.628 350.519C239.055 344.52 237.399 325.044 239.865 320.783C241.932 319.274 250.669 319.925 253.945 319.859C255.079 307.043 261.395 296.225 268.333 285.766C266.007 283.65 259.422 277.106 258.862 274.338C260.111 270.3 277.217 255.019 280.932 251.712C284.574 248.469 292.19 258.912 294.706 261.633C300.064 254.282 319.214 249.057 328.153 247.812C328.162 235.501 324.063 231.178 337.467 230.534ZM283.027 259.879C280.668 261.502 269.65 272.219 267.316 274.75C269.614 277.052 275.434 283.236 277.384 285.766C270.536 298.217 264.181 302.701 261.094 319.306C259.1 330.027 256.844 327.328 245.893 327.223L245.893 348.517C253.014 348.552 259.355 345.953 260.959 353.237C263.041 362.689 266.867 371.691 272.163 379.787C281.982 394.796 279.652 385.668 268.333 400.504C273.244 404.954 277.703 410.762 283.027 415.034C284.453 412.779 290.835 405.94 293.457 405.135C293.852 405.013 315.97 416.282 322.014 418.263C337.138 423.218 334.114 417.49 334.273 436.263L356.011 436.263C355.941 424.369 352.648 421.577 364.371 418.794C371.554 417.007 378.089 414.007 384.615 410.545C400.111 402.324 391.893 403.528 406.675 415.984C410.418 411.548 417.617 404.588 421.897 400.504L421.649 400.212C411.972 388.906 407.949 393.668 416.74 379.888C420.4 374.151 423.764 366.439 425.69 359.87C430.159 345.526 426.072 348.42 444.759 348.517L444.759 327.991C430.552 327.885 429.752 331.631 426.797 319.207C425.091 310.929 422.046 302.966 417.725 295.698C410.593 283.5 406.723 284.965 421.897 273.388C416.842 269.62 411.506 264.193 406.675 259.879C397.168 269.913 398.997 272.55 389.348 266.203C382.588 261.757 374.577 257.939 366.765 255.895C351.585 251.924 356.157 255.761 356.011 238.007L335.595 238.007C335.58 248.749 338.93 252.851 328.805 254.637C320.272 256.142 311.425 259.539 303.706 263.396C285.439 272.525 298.315 271.262 283.027 259.879Z"/><path fill="#FD7902" transform="scale(2 2)" d="M341.592 286.093C369.617 284.588 393.561 306.076 395.086 334.1C396.612 362.124 375.141 386.083 347.118 387.628C319.067 389.175 295.078 367.678 293.552 339.626C292.025 311.574 313.539 287.6 341.592 286.093ZM345.121 380.543C369.215 380.107 388.398 360.228 387.975 336.134C387.552 312.039 367.683 292.846 343.589 293.256C319.475 293.666 300.264 313.553 300.687 337.666C301.11 361.779 321.008 380.98 345.121 380.543Z"/><path fill="#FD7902" transform="scale(2 2)" d="M341.228 308.974C356.634 307.368 370.444 318.508 372.135 333.905C373.825 349.302 362.76 363.172 347.373 364.946C331.867 366.734 317.866 355.565 316.162 340.049C314.459 324.533 325.703 310.593 341.228 308.974ZM346.114 357.874C357.645 356.822 366.144 346.626 365.101 335.094C364.059 323.563 353.87 315.056 342.337 316.089C330.791 317.123 322.273 327.326 323.316 338.872C324.36 350.417 334.57 358.927 346.114 357.874Z"/><path fill="#FD7902" transform="scale(2 2)" d="M98.1134 324.726C101.881 324.674 127.178 344.037 131.074 347.026C135.281 350.256 130.077 355.44 126.448 353.039C119.329 347.561 111.797 342.779 104.676 337.308C120.332 396.516 171.759 438.564 234.429 436.52C238.539 436.386 250.395 433.229 247.602 441.362C244.251 445.044 234.277 443.47 229.688 443.58C176.486 444.861 125.96 409.969 104.858 361.625C101.333 353.555 99.1425 345.773 96.8382 337.308C91.5361 340.59 87.5521 346.32 83.2653 350.789C74.2527 360.187 72.1865 351.249 74.8912 348.339C78.4335 344.528 94.9374 326.394 98.1134 324.726Z"/><path fill="#FD7902" transform="scale(2 2)" d="M277.384 76.203C290.63 77.4752 309.898 85.3055 321.152 92.2033C351.425 110.759 370.192 138.211 379.243 172.139C386.328 165.632 393.009 158.295 400.182 151.853C404.207 148.238 407.926 153.902 405.508 156.691C402.791 159.826 399.32 162.903 396.289 165.784L380.232 181.12C379.058 182.044 378.604 182.277 377.308 182.961C373.483 181.192 368.624 177.487 364.899 175.17L351.267 166.647C336.661 157.359 344.674 153.202 351.361 157.62C358.093 162.068 364.988 166.217 371.552 170.916C369.971 166.759 368.692 162.414 367.123 158.224C353.006 120.515 318.661 90.9351 278.745 84.2175C273.544 83.3422 272.549 78.9688 277.384 76.203Z"/></svg>