<?xml version="1.0" encoding="utf-8" ?><svg xmlns="http://www.w3.org/2000/svg" xmlns:xlink="http://www.w3.org/1999/xlink" width="1024" height="1024" viewBox="0 0 1024 1024"><defs><linearGradient id="gradient_0" gradientUnits="userSpaceOnUse" x1="372.97079" y1="225.30865" x2="135.54521" y2="290.02954"><stop offset="0" stop-color="#E3890B"/><stop offset="1" stop-color="#FFD54D"/></linearGradient></defs><path fill="url(#gradient_0)" transform="scale(2 2)" d="M117.148 231.213C117.568 227.799 119.388 222.188 120.467 218.801C128.633 193.9 144.039 172 164.716 155.9C192.72 134.083 228.323 124.448 263.507 129.167C298.14 133.798 329.536 151.935 350.849 179.623C372.37 207.659 381.739 243.16 376.854 278.166C372.302 313.334 353.666 344.021 325.701 365.555C316.861 372.236 307.2 377.754 296.955 381.974C252.97 400.126 202.66 393.866 165.07 364.319C161.8 361.748 158.326 359.101 155.473 356.066C143.151 344.576 133.169 330.81 126.076 315.527C120.25 303.014 116.422 288.953 114.586 275.25C113.939 270.422 113.966 263.655 113.939 258.809C113.909 253.448 114.19 246.737 115.085 241.508C115.478 239.218 116.441 233.151 117.148 231.213ZM173.619 359.796L174.464 360.325C175.82 361.252 177.351 362.351 178.726 363.212C186.353 368.094 192.592 371.389 200.972 374.763C230.743 386.64 263.991 386.332 293.537 373.907C357.955 346.532 386.531 274.661 359.156 210.557C346.314 180.967 322.326 157.633 292.393 145.612C261.908 133.315 227.772 133.716 197.585 146.727C171.648 157.716 150.333 177.371 137.281 202.333C134.045 208.463 132.148 213.359 129.608 219.747C124.075 237.954 121.209 253.07 123.536 272.137C125.666 289.593 129.321 302.988 137.66 318.61C144.61 331.585 153.859 343.19 164.956 352.861C167.854 355.412 170.852 357.404 173.619 359.796Z"/><path fill="#FCC447" transform="scale(2 2)" d="M117.148 231.213L117.438 231.289C117.967 230.166 118.224 228.456 118.808 227.508C119.831 225.846 119.85 225.007 120.39 223.424L121.019 223.614C121.141 222.884 120.798 222.351 120.947 221.454C121.658 220.935 121.262 221.145 122.358 221.095L122.532 220.638C122.312 219.858 122.237 219.626 122.136 218.803L122.483 218.606C123.077 219.078 123.023 219.074 123.768 219.185C124.365 218.704 124.102 218.981 124.406 218.169C124.693 218.406 124.94 218.652 125.193 218.923C126.222 218.829 126.182 218.469 127.304 217.889L127.967 218.23C129.214 218.09 129.537 217.031 129.257 215.923L129.514 215.625L130.352 215.593C130.526 216.021 129.499 218.593 129.262 219.589L129.608 219.747C124.075 237.954 121.209 253.07 123.536 272.137C125.666 289.593 129.321 302.988 137.66 318.61C144.61 331.585 153.859 343.19 164.956 352.861C167.854 355.412 170.852 357.404 173.619 359.796C173.723 360.258 173.955 360.49 174.052 361.121C172.98 364.178 167.324 363.281 165.316 361.774C162.661 359.78 158.821 356.396 155.473 356.066C143.151 344.576 133.169 330.81 126.076 315.527C120.25 303.014 116.422 288.953 114.586 275.25C113.939 270.422 113.966 263.655 113.939 258.809C113.909 253.448 114.19 246.737 115.085 241.508C115.478 239.218 116.441 233.151 117.148 231.213Z"/><path fill="#FCC447" transform="scale(2 2)" d="M174.464 360.325C175.82 361.252 177.351 362.351 178.726 363.212C176.486 363.272 174.931 362.615 174.464 360.325Z"/><defs><linearGradient id="gradient_1" gradientUnits="userSpaceOnUse" x1="451.20911" y1="134.48375" x2="286.67044" y2="183.89006"><stop offset="0" stop-color="#E48A0C"/><stop offset="1" stop-color="#E98F58"/></linearGradient></defs><path fill="url(#gradient_1)" transform="scale(2 2)" d="M273.411 74.8728C309.034 75.261 345.185 74.9475 380.848 74.9672L411.276 74.9747C416.809 74.9678 422.521 74.8392 428.019 75.1039C433.598 75.4774 436.568 81.835 437.005 86.6881C437.812 95.6549 437.525 104.85 437.515 113.836L437.487 158.512L437.499 220.458C437.521 226.559 437.574 232.661 437.661 238.761C437.721 243.459 438.659 251.884 435.924 255.876C434.766 257.566 432.277 257.56 430.839 256.052C428.667 253.774 428.577 251.231 428.514 248.269C428.829 213.914 428.908 179.558 428.752 145.203L428.732 107.321C428.731 101.698 429.051 95.9643 428.801 90.3542C428.746 89.1375 428.621 85.2064 427.521 84.5826C423.037 82.0395 393.95 83.0993 387.38 83.1155L302.321 83.1634L275.552 83.2346C271.064 83.248 258.992 84.0234 256.337 81.4286C247.96 73.2394 271.292 74.8787 273.411 74.8728Z"/><path fill="#F0A035" transform="scale(2 2)" d="M231.29 436.829C226.003 436.62 220.13 436.756 214.804 436.787L188.467 436.937L126.619 436.742C117.934 436.704 87.7962 437.845 81.4061 435.022C78.933 433.93 76.8421 432.304 75.9024 429.688C75.27 427.927 75.1042 426.007 75.0209 424.152C74.6683 416.294 74.9545 408.326 74.9653 400.457L74.9625 358.676L74.9708 294.906C74.9725 282.817 74.7214 270.692 75.1743 258.618C75.2653 256.193 75.8274 254.882 78.3367 254.131C81.0003 253.335 83.0622 254.562 83.268 257.376C84.2964 264.175 83.9428 271.53 83.923 278.348L83.8691 306.466L83.912 395.686C83.9198 400.212 83.871 404.738 83.7656 409.263C83.5885 416.292 83.1038 420.505 84.4343 427.587C88.7068 428.203 99.3777 428.019 104.007 428.011C115.147 428.084 126.288 428.025 137.427 427.835C149.492 427.692 161.654 427.987 173.735 428.049C191.831 428.141 210.096 427.654 228.175 427.991C229.278 428.232 229.594 428.07 230.1 428.918C231.483 431.232 231.441 434.247 231.29 436.829Z"/><path fill="#E78E58" transform="scale(2 2)" d="M126.336 74.8743C131.788 74.7896 137.701 74.8298 143.147 75.386C145.069 75.5824 148.055 76.1564 147.99 78.6045C147.95 79.8074 147.437 80.9459 146.562 81.7724C145.688 82.6057 144.594 83.074 143.406 83.1656C138.181 83.568 132.587 83.1901 127.304 83.1747C114.917 83.1988 102.53 83.1243 90.1437 82.9513C91.2702 85.7093 100.329 94.2263 102.995 96.8895L133.881 127.758C139.17 133.045 144.68 138.373 149.724 143.899C150.434 144.778 151.463 146.25 151.417 147.44C151.255 151.684 148.22 153.332 144.845 150.637C141.633 148.071 139.19 145.389 136.405 142.576L123.339 129.416C109.991 116.463 96.8726 103.276 83.9897 89.8605C84.1855 101.071 83.9098 112.664 83.8962 123.92L83.8983 136.253C83.9144 139.075 84.4925 143.614 83.0016 146.053C81.903 147.851 78.5097 148.766 76.7891 147.206C74.9709 145.557 75.3542 141.399 75.0601 139.135C74.8698 128.181 75.0177 117.237 74.9488 106.283C74.9489 99.214 74.7081 91.3683 75.3021 84.3434C75.4784 82.2594 76.9364 79.1265 78.389 77.6724C79.7415 76.3185 81.8608 75.3466 83.7649 75.1682C88.2624 74.7467 93.4796 74.9256 98.0094 74.9327C107.451 74.9994 116.894 74.9799 126.336 74.8743Z"/><path fill="#F0A035" transform="scale(2 2)" d="M361.096 357.481C364.601 356.961 371.684 365.34 374.158 367.864L390.176 384.262C402.87 397.146 416.895 410.642 429.118 423.778C428.097 406.377 429.321 388.795 428.344 371.36C428.043 365.987 431.148 363.492 436.012 366.279C437.169 371.01 437.601 376.176 437.732 381.061C438.053 394.431 437.625 407.836 437.176 421.2C437.028 425.6 437.565 430.379 434.444 433.717C429.543 437.563 420.919 436.79 414.954 436.753L399.184 436.656C389.605 436.602 380.051 436.981 370.484 436.351C367.146 436.131 365.461 435.849 364.88 432.119C364.465 429.454 367.339 428.365 369.479 428.198C374.913 427.773 380.439 427.951 385.893 427.991L407.277 428.036C412.135 428.049 417.384 428.168 422.213 427.948C415.747 422.231 411.189 417.193 405.158 411.028L381.619 387.219C377.011 382.586 372.368 377.988 367.691 373.424C364.864 370.654 361.458 367.669 359.116 364.512C356.863 361.475 358.303 359.135 361.096 357.481Z"/><path fill="#E78E58" transform="scale(2 2)" d="M228.175 427.991C232.836 427.78 252.347 426.7 255.248 429.319C256.009 430.006 256.52 430.959 256.542 431.995C256.566 433.137 256.102 434.091 255.258 434.849C254.119 435.875 252.529 436.377 251.05 436.654C247.272 437.362 235.75 437.235 231.624 436.874C231.512 436.865 231.402 436.844 231.29 436.829C231.441 434.247 231.483 431.232 230.1 428.918C229.594 428.07 229.278 428.232 228.175 427.991Z"/></svg>