<?xml version="1.0" encoding="utf-8" ?><svg xmlns="http://www.w3.org/2000/svg" xmlns:xlink="http://www.w3.org/1999/xlink" width="1024" height="1024" viewBox="0 0 1024 1024"><defs><linearGradient id="gradient_0" gradientUnits="userSpaceOnUse" x1="260.8815" y1="363.08936" x2="141.33823" y2="169.21001"><stop offset="0" stop-color="#FE672E"/><stop offset="1" stop-color="#FFB12C"/></linearGradient></defs><path fill="url(#gradient_0)" transform="scale(2 2)" d="M377.898 192.711C376.502 191.349 375.269 189.645 373.964 188.175C313.543 120.123 207.974 117.128 143.837 181.531C83.569 242.048 83.5135 338.479 142.365 399.878C146.338 404.023 164.97 417.868 164.783 421.172C163.879 437.154 127.492 394.689 125.362 391.902C69.48 318.776 82.3466 216.428 155.852 160.666C219.061 112.715 310.96 116.763 368.435 171.756C372.446 175.593 376.862 179.707 380.221 184.136C386.49 190.165 392.925 199.592 397.423 207.101C435.71 271.017 428.274 350.789 376.36 404.484C371.864 409.135 352.553 430.14 346.979 422.995C345.774 416.743 355.386 412.71 360.574 408.334C421.543 356.907 430.57 265.72 384.815 201.939C382.638 198.905 379.889 195.774 377.898 192.711Z"/><path fill="#FFA627" transform="scale(2 2)" d="M377.898 192.711C377.876 191.519 376.07 189.601 375.28 188.69C346.606 155.658 306.936 137.623 263.639 134.304L263.504 133.812C262.247 132.851 262.215 134.488 260.465 134.213C259.996 133.39 259.914 133.04 259.031 133.495L258.682 133.679C256.542 133.156 259.585 133.515 260.248 130.479C262.792 129.86 264.178 132.192 265.288 128.666C269.319 127.143 293.469 132.208 298.049 133.353C326.857 140.556 354.527 156.798 374.663 178.777C375.703 179.913 378.984 183.834 380.221 184.136C386.49 190.165 392.925 199.592 397.423 207.101C435.71 271.017 428.274 350.789 376.36 404.484C371.864 409.135 352.553 430.14 346.979 422.995C345.774 416.743 355.386 412.71 360.574 408.334C421.543 356.907 430.57 265.72 384.815 201.939C382.638 198.905 379.889 195.774 377.898 192.711Z"/><path fill="#FFA627" transform="scale(2 2)" d="M313.402 229.224C317.5 229.181 326.007 238.993 326.583 242.177C326.847 243.639 319.466 251.837 318.167 253.472L301.011 275.231C297.284 279.937 291.494 288.213 287.719 292.26C295.246 316.547 267.045 341.963 241.218 328.741C209.887 311.626 223.435 261.869 264.079 267.971C267.967 264.254 274.059 259.581 278.375 256.239L296.327 242.319C301.552 238.249 307.781 232.355 313.402 229.224ZM259.597 324.549C273.146 322.722 282.662 310.274 280.871 296.72C279.08 283.165 266.658 273.616 253.099 275.37C239.488 277.13 229.893 289.611 231.691 303.217C233.489 316.824 245.995 326.384 259.597 324.549ZM271.604 271.39C275.602 273.695 277.525 275.028 280.736 278.358C282.444 280.366 283.346 281.7 284.795 283.871C291.837 273.878 309.189 250.616 317.652 242.468C317.184 241.902 314.885 239.056 314.496 238.762C299.833 248.181 285.606 260.983 271.604 271.39Z"/><defs><linearGradient id="gradient_1" gradientUnits="userSpaceOnUse" x1="286.67572" y1="343.95035" x2="203.30231" y2="160.72224"><stop offset="0" stop-color="#FF672D"/><stop offset="1" stop-color="#FFA62D"/></linearGradient></defs><path fill="url(#gradient_1)" transform="scale(2 2)" d="M249.009 150.479C281.412 150.104 311.814 157.452 338.638 176.61C369.26 198.481 391.134 233.094 397.35 270.314C397.982 274.099 400.584 291.142 398.4 293.625C397.672 294.453 364.425 297.563 364.221 291C364.041 285.212 373.837 286.84 377.42 286.849L391.091 286.859C387.739 252.595 377.297 224.031 352.561 198.646C349.151 202.584 339.153 213.02 335.157 216.097C332.302 218.295 327.919 217.003 328.748 212.828C329.173 210.688 344.403 195.575 346.979 193.656C328.189 172.398 287.349 158.735 259.989 158.753L259.989 178.563C259.954 181.223 259.337 182.819 256.377 182.998C250.668 183.344 251.997 175.703 251.999 171.946L252.028 158.753C221.246 158.479 187.426 172.862 164.961 193.656C170.49 198.547 178.576 204.886 182.365 210.733C184.069 213.362 181.655 216.811 178.711 216.78C176.38 216.755 161.917 200.797 159.981 198.646C137.855 219.547 122.097 256.982 121.766 286.859C125.543 286.393 137.928 286.293 142.758 286.322C148.196 286.355 149.933 293.575 145.142 294.19C139.936 294.859 117.713 295.432 114.529 293.15C113.998 292.285 113.61 291.164 113.625 290.14C114.521 228.912 156.786 173.253 215.664 156.241C227.324 152.872 237.271 151.609 249.009 150.479Z"/><path fill="#FFBC27" transform="scale(2 2)" d="M316.737 94.164C235.836 70.7276 150.621 93.9366 96.9447 160.733C32.6166 240.785 37.238 352.341 106.15 427.148C108.958 430.812 104.773 436.77 99.0154 430.439C62.5961 389.798 44.4822 342.708 44.0024 288.086C42.7408 144.455 184.542 45.9553 319.147 86.7882C317.845 87.2619 317.466 87.2662 316.076 87.2242C311.732 93.9332 314.78 90.8031 316.862 93.6034L316.737 94.164Z"/><path fill="#FFA627" transform="scale(2 2)" d="M237.425 355.849C253.804 354.271 264.828 367.317 264.079 383.021C267.634 381.359 270.806 379.584 274.803 379.373C297.325 378.123 297.922 399.122 297.442 414.807C297.334 418.323 289.541 422.367 289.579 409.995C289.46 405.914 289.982 401.182 289.129 397.224C286.817 386.493 274.238 384.405 266.863 391.508C260.557 399.213 268.022 413.454 259.06 424.261C245.507 441.575 217.501 434.167 214.791 412.263C213.945 404.486 215.321 395.166 214.586 387.559C213.05 371.666 220.284 357.841 237.425 355.849ZM241.218 426.051C259.127 422.317 256.212 407.446 256.528 392.945C256.835 378.896 256.985 363.016 238.277 363.335C219.805 365.477 222.347 384.391 222.342 398.056C222.348 411.56 222.838 427.377 241.218 426.051Z"/><defs><linearGradient id="gradient_2" gradientUnits="userSpaceOnUse" x1="494.75766" y1="279.3045" x2="274.12808" y2="171.86327"><stop offset="0" stop-color="#FF7F2C"/><stop offset="1" stop-color="#FFAD2D"/></linearGradient></defs><path fill="url(#gradient_2)" transform="scale(2 2)" d="M319.147 86.7882C430.517 120.547 492.015 240.218 459.015 350.519C458.036 352.991 454.539 365.865 452.456 366.565C447.001 368.397 445.527 364.111 447.405 359.241C488.735 252.082 427.791 131.897 321.02 95.653C319.631 95.1757 318.064 94.6967 316.737 94.164L316.862 93.6034C314.78 90.8031 311.732 93.9332 316.076 87.2242C317.466 87.2662 317.845 87.2619 319.147 86.7882Z"/></svg>