<?xml version="1.0" encoding="utf-8" ?><svg xmlns="http://www.w3.org/2000/svg" xmlns:xlink="http://www.w3.org/1999/xlink" width="1024" height="1536" viewBox="0 0 1024 1536"><path d="M702.437 37.7373C708.679 37.2119 716.043 37.7553 722.054 39.4456C752.436 47.9893 753.81 66.8049 747.077 92.6483C776.886 101.851 774.927 127.223 775.652 153.348C805.046 168.116 820.279 175.445 848.159 194.615C848.009 204.858 846.246 215.275 846.225 225.748C846.127 275.501 846.21 325.29 846.194 375.041L846.118 662.994C846.175 747.305 844.952 834.351 846.314 918.383C856.908 934.8 839.32 936.664 839.216 949.129C838.912 985.586 836.826 1024.96 838.445 1061.27C886.681 1081.19 935.279 1100.24 984.215 1118.38C983.939 1139.7 984.391 1161.27 984.225 1182.62C984.12 1196.15 984.606 1208.61 983.242 1222.15C973.593 1228.31 960.144 1234.32 949.614 1239.32L900.832 1262.39L757.591 1330.61C687.224 1364.21 617.039 1398.18 547.041 1432.54C511.408 1450.06 474.734 1470.11 438.625 1486.1C425.558 1477.13 408.934 1468.3 395.074 1460.1L315.359 1412.51C254.917 1376.65 194.693 1340.43 134.692 1303.84C104.304 1285.25 69.9808 1265.61 40.6228 1245.89C41.0275 1212.78 41.2365 1179.67 41.2499 1146.55C53.7749 1141.15 71.1721 1135.75 84.4173 1131.28L151.505 1108.62C151.466 1088.96 151.62 1069.39 152.106 1049.74C152.534 1032.39 151.289 1011.47 155.027 994.532C173.472 985.57 204.334 977.543 224.662 975.033C224.938 949.445 224.178 921.973 224.283 895.996L224.963 566.257L225.021 449.636C225.033 429.567 224.796 409.017 225.438 388.972C225.609 383.633 228.788 374.525 232.273 370.316C242.207 358.323 263.594 358.169 278.427 356.916C290.479 332.078 301.24 341.058 311.102 360.114C312.584 343.179 311.085 314.051 311.377 296.267C311.938 262.186 312.194 228.235 310.997 194.163C364.426 151.675 473.369 115.261 541.318 113.195C543.201 84.9296 561.304 58.9146 593.283 71.188C606.493 76.258 612.754 100.237 617.168 113.166C628.433 114.452 638.853 115.24 650.304 116.756C657.5 103.117 666.4 105.813 678.563 109.669C680.046 106.381 682.895 100.899 683.115 97.5323C677.308 90.7094 666.319 98.1532 660.699 93.4406C650.35 84.7632 657.626 68.1043 664.106 60.2441C675.028 46.998 685.933 39.8662 702.437 37.7373ZM318.934 254.008C367.095 261.434 411.251 263.105 459.933 265.141C534.255 268.31 608.65 269.443 683.034 268.538C693.476 268.479 740.47 265.497 746.229 267.659L746.31 268.493C739.934 271.134 712.663 271.409 704.659 271.561C586.074 273.804 466.681 271.183 348.461 261.543C342.633 261.068 323.129 256.761 319.11 259.366C325.545 265.146 408.352 271.085 421.541 271.851C421.694 351.146 425.169 437.372 422.354 516.055C410.664 514.502 398.741 513.586 387.012 512.075C381.277 511.336 368.364 507.862 363.831 511.565C367.505 516.275 415.37 521.069 423.25 521.955C423.78 589.422 423.755 656.892 423.176 724.359C423.071 752.914 423.704 781.562 423.524 810.081C408.628 805.373 393.809 800.339 378.873 795.756C376.089 794.901 371.115 792.965 368.836 794.725C369.1 805.423 417.593 808.069 424.005 815.713C423.31 838.356 424.962 966.289 421.527 973.032C415.692 977.077 403.046 972.136 397.038 969.888C390.213 967.251 372.777 959.566 366.218 959.848C364.993 961.624 365.385 960.622 365.383 963.066C369.054 968.703 389.317 973.724 396.344 975.667C405.767 978.386 415.249 980.9 424.781 983.206C542.069 1008.29 639.312 1006.23 755.457 977.428C754.649 910.711 755.289 842.58 755.254 775.725L754.956 408.42C754.919 340.589 755.973 268.418 754.544 200.87L441.722 199.621C412.782 199.328 383.854 198.315 354.964 196.582C346.634 196.138 338.461 195.55 330.164 194.64C326.164 194.201 321.776 194.987 319.867 199.009C320.271 200.027 320.37 200.983 321.786 201.222C337.898 203.94 360.204 205 376.083 205.832C463.302 210.233 550.63 212.096 637.957 211.42C661.256 211.105 684.551 210.561 707.84 209.788C714.412 209.561 744.263 207.728 747.497 209.667L747.509 210.803C742.403 213.976 701.04 213.805 693.154 213.976C606.41 216.106 519.621 215.452 432.919 212.014C410.27 211.289 387.634 210.212 365.019 208.785C351.495 207.978 332.307 206.914 319.117 204.496C319.793 218.108 318.92 239.768 318.934 254.008ZM430.644 820.116C430.621 868.625 429.313 926.933 431.261 974.877C507.147 991.697 585.289 995.882 662.538 987.264C680.345 985.323 698.055 982.571 715.611 979.017C725.217 977.009 734.718 974.389 744.295 972.33C748.169 971.497 749.24 970.61 750.608 972.657C748.11 976.402 719.566 982.098 713.646 983.214C621.792 1000.52 522.352 999.049 431.355 978.417C430.238 978.235 429.21 977.921 428.115 977.627C427.868 977.169 426.651 821.361 428.011 816.615L429.868 816.189C438.826 819.777 454.833 822.097 464.738 823.837C524.383 834.386 585.158 837.03 645.495 831.703C668.773 829.559 691.907 826.055 714.775 821.206C719.913 820.093 746.514 812.364 749.077 813.448L749.047 814.663C746.208 817.242 740.907 818.338 737.197 819.312C651.053 841.94 558.887 842.692 471.267 828.598C457.683 826.413 443.888 823.527 430.644 820.116ZM838.664 920.948C838.95 871.086 839.674 817.749 838.606 768.093C827.195 775.398 798.208 794.788 787.36 798.369L786.196 797.588C786.014 796.416 785.672 795.87 786.44 795.315C793.533 790.186 836.87 769.669 837.884 761.786C834.275 760.825 798.573 787.429 786.502 789.018L784.897 788.565L784.625 787.485C805.74 776.093 818.671 768.634 838.493 755.502L838.884 581.443C838.872 555.596 839.623 524.662 838.697 499.179C828.712 503.153 795.893 516.191 785.798 514.083L785.166 513.055C789.225 509.011 837.811 502.25 838.365 492.341C829.178 492.035 797.538 507.745 785.823 506.008L785.409 505.04C788.505 502.29 794.102 501.133 798.044 500.124C812.001 496.553 825.909 492.934 838.758 486.243C839.372 440.869 839.579 395.489 839.378 350.111C839.351 320.979 839.779 290.076 838.913 261.054C828.62 264.037 791.441 274.314 782.453 271.348L781.954 270.274C785.973 265.961 827.757 265.928 837.817 255.986L837.782 255.035C833.545 254.006 786.137 268.315 782.415 262.689C786.034 260.302 807.075 257.682 813.322 256.344C821.836 254.477 830.29 252.346 838.672 249.954C838.915 235.294 838.896 220.631 838.614 205.971C828.758 207.312 786.792 213.437 779.888 210.625L779.29 209.369C784.157 204.817 833.776 208.645 838.29 201.036C833.576 194.307 786.02 203.515 779.573 198.385C786.841 194.629 823.124 195.502 833.453 195.089C814.82 182.831 795.415 171.789 775.359 162.032C774.756 185.432 775.685 212.378 775.681 236.267L775.406 403.924L774.987 970.192C784.771 965.523 842.108 935.999 841.813 925.544L840.636 925.021C836.705 926.568 827.305 934.123 823.742 936.836C814.729 943.697 791.391 959.894 780.672 960.902L780.222 960.247C785.51 954.537 799.99 949.25 807.043 944.619C817.898 937.491 827.986 927.979 838.664 920.948ZM276.383 389.256C270.229 389.698 261.524 389.502 256.704 393.027C254.771 395.627 254.799 404.176 254.79 407.789C254.688 450.571 254.759 493.422 254.792 536.205L254.729 757.4L254.704 899.743C254.621 925.643 253.63 957.921 254.763 983.533C294.378 998.385 283.105 1002.3 284.212 1040.81C284.359 1047.9 284.319 1056.32 284.773 1063.29C296.247 1059.09 311.298 1053.57 322.922 1050.13C323.214 1031.73 323.282 1013.32 323.128 994.922C322.997 984.981 322.711 972.905 321.342 963.162C320.143 954.633 309.129 943.411 309.602 934.276C310.023 926.164 313.161 921.052 313.156 911.748L312.146 590.017C312.288 536.753 312.065 483.489 311.478 430.228C311.39 423.776 312.073 390.344 310.254 387.67C293.911 395.946 293.615 407.075 276.383 389.256ZM525.439 197.395C575.968 198.099 626.501 198.488 677.035 198.563C702.854 198.439 729.244 197.223 754.822 197.227C754.933 182.792 754.827 168.357 754.503 153.926C748.384 151.009 742.733 148.252 736.392 145.827C733.746 150.663 729.655 155.072 724.086 156.032C697.498 160.613 660.379 148.289 648.014 123.913C623.569 121.353 595.066 119.282 570.394 119.612C474.62 122.875 410.696 143.878 328.034 191.674C393.782 195.121 459.602 197.029 525.439 197.395ZM364.307 999.17C382.146 1012.45 386.615 1019.16 408.294 1030.42C479.109 1067.2 568.628 1073.36 646.724 1063.46C679.929 1059.26 716.384 1048.01 745.48 1032.72L757.084 1026.05C755.936 1014.41 755.44 993.3 755.466 981.194C667.328 1004.83 585.996 1008.93 495.202 998.58C450.944 993.537 406.137 985.42 364.658 968.505C364.587 978.454 364.722 989.294 364.307 999.17ZM338.809 384.758C330.712 389.514 328.694 389.152 319.576 386.885C318.902 399.655 318.821 413.38 319.063 426.219C319.496 449.191 318.141 473.184 319.381 496.019C323.821 497.05 328.528 498.056 332.919 499.186C336.469 499.798 340.126 500.38 343.655 501.048C345.744 471.337 345.492 420.809 351.629 393.175C348.673 391.085 341.65 385.43 338.809 384.758ZM547.689 112.48L559.37 112.356C560.673 95.7757 564.62 84.1119 584.362 87.5498C601.558 94.7817 593.02 105.904 602.602 111.916C604.978 112.332 606.26 112.796 608.539 112.021C608.69 108.721 607.295 105.154 606.28 102.026C600.664 84.7279 592.048 74.0791 572.803 75.8904C555.422 82.9184 549.9 94.3907 547.689 112.48ZM343.487 513.429C335.419 511.675 327.207 509.974 319.225 507.905L318.999 663.073C318.947 695.031 318.028 732.003 319.167 763.387C328.87 769.619 336.981 774.334 346.942 780.118C348.132 774.337 347.686 764.255 347.572 758.128C346.045 676.531 343.305 595.054 343.487 513.429ZM774.922 974.793C774.858 979.356 773.783 1009.7 775.76 1011.76C792.909 998.875 826.494 966.12 832.928 943.398C833.177 942.521 833.047 941.375 832.57 940.508C812.784 954.228 797.197 965.023 774.922 974.793ZM364.553 517.269C362.678 597.179 368.488 678.326 368.775 758.321C368.811 768.323 368.826 779.1 369.266 789.038C385.73 794.7 403.29 801.111 420.166 805.034L419.988 622.711C419.966 593.596 421.095 553.35 419.435 525.173L364.553 517.269ZM318.311 932.67C319.833 944.128 334.271 949.947 343.631 955.194C343.577 951.402 344.217 949.979 341.281 947.293C334.968 941.519 325.868 936.928 318.311 932.67ZM417.826 971.116C419.68 969.352 419.309 967.029 419.37 964.04C420.379 915.18 420.019 866.254 420.316 817.375C402.849 812.413 386.308 807.154 369.044 802.022C368.859 827.049 368.386 852.072 367.626 877.088C366.72 901.18 364.843 930.14 365.389 954.012C384.009 961.532 398.231 966.217 417.826 971.116ZM575.261 92.2488C571.498 95.035 561.515 103.366 565.707 109.02C569.17 113.691 578.826 112.327 584.153 112.023L593.454 112.246C591.204 100.784 589.453 92.2124 575.261 92.2488ZM318.536 499.062C319.509 502.297 319.125 503.086 322.342 504.828C327.784 507.775 338.675 509.32 344.892 509.587C343.517 506.165 343.681 505.411 339.862 503.827C333.166 501.05 325.525 500.932 318.536 499.062ZM320.192 928.554C325.081 932.328 337.839 941.892 343.528 942.502C344.342 941.442 344.197 941.92 344.362 940.687C346.011 891.741 347.017 842.774 347.381 793.802C337.561 788.647 328.708 782.076 319.623 777.294L320.192 928.554ZM343.501 959.472C337.505 955.806 329.517 950.622 323.352 947.719C325.645 952.679 337.79 978.183 342.996 978.262C343.446 971.701 343.49 966.044 343.501 959.472ZM749.462 143.08L754.293 145.549C752.94 138.16 749.68 118.616 741.962 115.874C733.657 130.63 728.184 132.487 745.823 141.265C747.039 141.864 748.253 142.469 749.462 143.08ZM339.54 355.81C353.023 345.263 369.951 327.314 387.855 329.828C420.096 334.356 425.781 386.929 402.461 404.865C394.196 411.221 379.425 411.282 369.342 410.21C366.808 435.091 365.239 460.06 364.639 485.063C364.615 491.819 364.495 498.786 364.573 505.521C381.234 508.203 404.466 509.568 419.301 512.542L418.499 275.436C385.142 273.227 351.898 269.557 318.862 264.435L318.993 353.83C322.355 352.365 326.108 350.623 329.553 349.491C333.816 351.779 335.828 352.798 339.54 355.81Z"/><path d="M427.663 521.944C432.097 522.873 443.713 523.568 448.714 523.92C462.064 524.863 475.423 525.67 488.79 526.342C552.839 530.095 617.033 530.677 681.139 528.086C699.429 527.204 717.258 525.748 735.408 523.417C738.396 523.033 743.757 522.111 746.254 523.711L746.027 524.71C742.596 526.694 737.755 526.992 733.838 527.413C645.918 536.863 556.913 533.786 468.811 528.742C456.467 528.036 442.863 527.24 430.667 525.495L430.649 808.087C439.197 810.328 447.269 811.858 455.922 813.529C541.227 828.161 626.487 831.012 711.557 813.133C722.589 810.815 736.836 805.82 747.881 805.504L747.803 806.554C743.946 810.267 711.831 816.761 705.168 818.015C613.105 834.919 518.536 832.549 427.435 811.056C426.594 796.687 427.235 779.009 427.374 764.408L427.625 696.761C427.729 639.449 426.486 578.795 427.663 521.944Z"/><path d="M426.188 272.197C511.416 275.569 610.175 280.7 695.042 276.581C705.958 276.051 716.871 275.461 727.781 274.811C732.679 274.495 745.131 272.473 748.437 275.23L747.667 276.229C737.04 279.043 700.802 279.658 688.751 280.035C602.334 282.744 516.135 279.545 429.816 275.83C428.84 318.128 430.142 362.856 429.876 405.312C429.786 419.641 429.052 508.489 432.185 513.442L434.446 513.779C452.329 516.222 481.173 517.372 499.662 518.33C556.384 521.239 613.208 521.618 669.964 519.464C682.906 518.906 695.837 518.121 708.751 517.109C714.516 516.607 742.479 513.087 745.882 515.216L745.588 516.282C740.37 519.208 712.65 520.419 705.556 520.838C638.712 524.928 571.692 525.255 504.812 521.815C479.044 520.808 453.312 519.031 427.65 516.487C426.003 485.628 426.987 444.746 426.926 413.265L426.188 272.197Z"/><path d="M678.962 524.683C681.911 524.206 682.642 523.99 685.608 524.721L685.401 525.383L682.847 525.63C679.495 525.889 678.402 525.871 675.046 525.578L675.321 525.088L678.962 524.683Z"/><path fill="#C6C6C5" d="M838.184 1070.45C852.267 1076.45 869.222 1082.6 883.681 1088.24L972.642 1122.94C966.29 1126.33 954.202 1131.23 947.303 1134.26L899.593 1155.23L750.183 1220.88L551.943 1308.13C515.473 1324.19 475.129 1343.15 438.41 1357.38C326.428 1299.21 214.939 1240.1 103.953 1180.05C87.0459 1170.23 68.7157 1160.75 51.4188 1151.47C71.3862 1144.26 91.4456 1137.3 111.592 1130.6C120.705 1127.48 143.022 1119.42 151.492 1118.55L152.862 1119.72C154.149 1122.5 153.804 1126.39 153.787 1129.55C149.346 1130.73 144.612 1132.67 140.28 1134.31L140.353 1157.57C162.175 1168.03 183.809 1178.88 205.244 1190.11L293.395 1160.52L293.078 1135.88L284.291 1131.16L285.025 1120.52C297.759 1120.42 310.434 1118.77 322.773 1115.62C321.95 1137.07 320.437 1138.54 342.228 1144.96C341.99 1152.97 340.735 1165.48 348.136 1170.51C363.447 1180.91 380.783 1189.8 397.008 1198.71C425.303 1214.36 453.723 1229.79 482.266 1244.98C499.592 1254.16 518.176 1263.03 534.982 1272.81C601.947 1244.97 671.612 1223 733.967 1185.27C760.524 1169.2 772.759 1160.27 786.876 1132.09C792.636 1135.53 798.606 1138.89 804.423 1142.25C815.657 1137.8 826.401 1132.73 837.366 1127.67C838.181 1108.94 838.05 1089.27 838.184 1070.45Z"/><path fill="#989796" d="M975.098 1125.77L975.543 1126.18C977.864 1131.66 976.712 1205.73 976.665 1217.77C958.015 1226 938.524 1235.79 920.02 1244.63L821.582 1291.52C694.753 1351.7 568.492 1413.06 442.816 1475.61C442.616 1475.52 442.388 1475.47 442.216 1475.33C440.063 1473.61 441.178 1372 441.201 1360.4L975.098 1125.77Z"/><path fill="#C6C6C5" d="M48.7391 1154.44C53.5355 1156.51 61.9888 1161.47 66.8411 1164.11L97.9756 1180.88L206.216 1238.88L346.307 1312.4C377.056 1328.49 407.436 1343.73 437.339 1361.4L437.433 1476.28C426.68 1469.27 414.556 1462.61 403.406 1455.99L347.193 1422.45C281.961 1384.05 217.011 1345.18 152.35 1305.82C117.616 1284.76 81.7219 1264.23 48.1558 1241.47C48.1429 1212.46 48.3374 1183.45 48.7391 1154.44Z"/><path fill="#C6C6C5" d="M720.6 83.8111C721.717 83.9316 723.01 84.2313 724.13 84.4517C726.533 85.9545 727.382 88.5323 728.574 91.121C744.365 97.9358 759.352 96.7412 766.546 115.173C768.483 120.274 769.694 125.622 770.144 131.059C771.959 151.312 771.223 188.647 771.168 209.625L770.621 353.84C771.589 567.603 771.312 781.37 769.789 995.13C769.642 1031.94 772.965 1068.73 771.974 1105.54C771.77 1113.12 770.512 1120.23 767.45 1127.21C750.229 1166.47 615.992 1217.92 576.155 1233.63L575.549 1188.83L575.87 1076.9C605.585 1077.28 628.515 1074.43 657.684 1070.57C680.115 1080.13 702.116 1090.15 724.333 1100.22C734.491 1104.82 745.535 1109 755.453 1114.16C757.314 1115.13 760.309 1118.74 761.751 1120.45C761.913 1119.04 762.049 1117.63 762.156 1116.21C764.644 1084.21 761.331 1036.35 760.664 1003.03C759.667 942.319 759.259 881.597 759.44 820.876L759.333 324.972L759.245 211.351C759.275 185.267 760.99 158.617 756.545 133.407C750.903 101.409 732.186 115.883 714.116 99.3419C708.607 94.2989 715.825 87.219 720.6 83.8111Z"/><path fill="#989796" d="M364.767 390.857C365.506 390.64 365.655 390.77 366.497 390.851C368.227 394.905 363.328 428.207 362.953 435.639C361.882 456.868 360.999 478.105 360.621 499.355C359.788 558.093 360.283 616.842 362.107 675.558C363.15 710.054 365.613 748.382 365.347 782.538C364.386 905.795 355.601 1033.05 359.758 1156.21C376.254 1166.9 395.51 1177.5 412.642 1187.24C452.968 1210.5 494.231 1232.09 536.327 1251.97C587.176 1235.37 725.782 1180.3 761.183 1143.78C781.018 1123.32 776.918 1093.22 776.035 1067.17C775.497 1052.12 775.118 1037.06 774.897 1022C780.851 1030.26 783.493 1036.31 785.952 1046.03C787.918 1056.33 787.132 1107.35 785.509 1118.54C784.638 1124.51 782.934 1130.33 780.446 1135.83C767.88 1163.87 731.244 1182.44 705.453 1195.95C650.948 1224.49 592.617 1246.14 535.283 1268.32C494.709 1247.35 454.447 1225.79 414.511 1203.63C393.727 1192.17 365.401 1177.52 346.561 1164C346.518 1108.87 344.746 1053.53 346.322 998.254C347.016 973.913 348.495 949.828 349.327 925.538C350.953 873.727 351.771 821.894 351.779 770.057C351.279 723.931 350.503 677.809 349.453 631.692C347.405 554.078 345.441 470.817 354.331 393.542C357.79 392.856 361.352 391.801 364.767 390.857Z"/><path fill="#C6C6C5" d="M420.651 1047.67C447.904 1057.95 470.878 1065.66 498.767 1074.31C499.02 1125.97 498.835 1177.62 498.212 1229.28C485.9 1222.55 473.295 1215.99 460.886 1209.41C443.45 1200.53 425.682 1189.81 408.738 1180.03C393.812 1171.42 378.5 1162.88 363.918 1153.76L363.454 1140.99C369.604 1138.52 371.307 1137.37 376.341 1133L376.551 1073.16C390.651 1064.05 405.949 1055.87 420.651 1047.67Z"/><path fill="#989796" d="M275.167 363.375C276.35 363.221 277.537 363.108 278.728 363.037C285.375 362.651 295.254 368.136 293.832 374.318C290.189 390.157 259.895 378.025 251.037 388.821C248.426 392.004 248.715 398.377 248.364 402.468C247.974 425.996 248.121 449.63 248.147 473.128L248.254 599.382L247.759 980.169C244.246 980.538 235.265 977.431 231.474 976.289L231.078 585.874L231.157 464.046C231.179 440.033 231.021 416.317 232 392.314C233.104 365.277 253.266 365.225 275.167 363.375Z"/><path fill="#989796" d="M273.954 1002.12L274.93 1002.55C278.212 1009.34 277.606 1089.16 277.62 1100.48C265.073 1100.39 266.525 1097.21 258.735 1088.07C247.663 1075.07 232.113 1087.08 228.971 1100.07C224.701 1117.73 232.901 1129.73 251.601 1127.6C258.484 1126.9 270.999 1120.62 276.17 1125.24C278.426 1133.14 268.559 1134.89 262.744 1136.75C244.257 1143.39 225.689 1149.8 207.045 1155.98L206.997 1021.21C229.209 1014.48 251.53 1008.11 273.954 1002.12Z"/><path d="M258.953 1020.88C260.01 1020.64 261.079 1020.71 262.183 1020.7C268.204 1024.83 265.877 1051.09 264.482 1057.84C253.162 1062.41 237.042 1066.6 225.119 1070C223.571 1070.21 221.064 1070.35 220.317 1068.86C215.909 1060.1 217.989 1041.52 219.097 1032.37C230.806 1027.34 246.377 1023.99 258.953 1020.88Z"/><path fill="#747273" d="M259.117 1025.28L260.591 1025.92C262.391 1030.41 262.368 1049 262.515 1054.91C250.42 1058.52 237.152 1062.16 225.444 1066.57C223.877 1066.36 224.643 1066.58 223.249 1065.45C221.372 1059.3 222.187 1041.95 222.311 1034.74C234.749 1032.28 247.037 1029.12 259.117 1025.28Z"/><path fill="#989796" d="M160.037 1001.05C174.417 1008.03 188.076 1014.28 202.678 1020.85C202.319 1064.69 203.06 1108.53 202.483 1152.36C202.122 1152.75 201.762 1153.14 201.401 1153.53L158.442 1130.16C158.469 1105.37 158.708 1080.59 159.16 1055.8C159.357 1038.02 159.153 1018.64 160.037 1001.05Z"/><path fill="#C6C6C5" d="M537.994 1074.63L571.935 1076.91C570.528 1128.44 571.081 1183.58 571.955 1235.15L562.769 1238.6L537.789 1247.79L537.994 1074.63Z"/><path fill="#C6C6C5" d="M502.456 1070.05C512.361 1070.9 524.254 1072.81 534.222 1074.21L534.125 1246.68L502.328 1231.37C501.514 1177.35 502.522 1124.02 502.456 1070.05Z"/><path fill="#C6C6C5" d="M831.728 963.649C835.187 967.903 833.785 1104.85 833.685 1124.85C824.803 1129.12 815.957 1133.46 807.145 1137.86L806.237 1137.42C804.039 1133.75 805.689 1010.92 805.717 996.552C816.176 985.701 823.215 975.852 831.728 963.649Z"/><path fill="#C6C6C5" d="M756.003 1037.16L756.908 1037.88C759.064 1044.5 758.58 1100.26 758.668 1111.46C738.443 1102.19 717.831 1093.24 697.484 1084.18C686.608 1079.34 675.14 1074.45 664.504 1069.2C692.51 1066.34 731.367 1050.27 756.003 1037.16Z"/><path d="M429.868 816.189C438.826 819.777 454.833 822.097 464.738 823.837C524.383 834.386 585.158 837.03 645.495 831.703C668.773 829.559 691.907 826.055 714.775 821.206C719.913 820.093 746.514 812.364 749.077 813.448L749.047 814.663C746.208 817.242 740.907 818.338 737.197 819.312C651.053 841.94 558.887 842.692 471.267 828.598C457.683 826.413 443.888 823.527 430.644 820.116C430.621 868.625 429.313 926.933 431.261 974.877C507.147 991.697 585.289 995.882 662.538 987.264C680.345 985.323 698.055 982.571 715.611 979.017C725.217 977.009 734.718 974.389 744.295 972.33C748.169 971.497 749.24 970.61 750.608 972.657C748.11 976.402 719.566 982.098 713.646 983.214C621.792 1000.52 522.352 999.049 431.355 978.417C430.238 978.235 429.21 977.921 428.115 977.627C427.868 977.169 426.651 821.361 428.011 816.615L429.868 816.189Z"/><path fill="#989796" d="M220.491 981.934C230.191 980.596 262.95 994.452 272.16 998.422L214.124 1015L204.718 1017.73C190.815 1011.71 177.085 1005.3 163.544 998.507C182.814 991.893 200.523 986.366 220.491 981.934Z"/><path fill="#C6C6C5" d="M709.392 52.8074C721.633 51.7965 737.777 60.8634 743.069 72.3699C745.728 78.1541 744.929 87.1881 739.501 90.9664L738.28 90.6554C735.622 85.6739 740.396 84.9229 738.597 74.6846C733.356 69.5507 728.834 66.7756 722.674 63.1291C723.455 68.4317 724.921 74.5445 726.057 79.8499C708.386 82.2812 707.706 100.779 699.848 103.303C697.968 102.278 698.581 102.687 697.39 100.574C698.819 96.6455 702.199 98.5793 702.756 94.1016C701.368 93.0433 700.998 92.7595 699.803 91.5133C700.728 85.5018 713.775 77.8906 710.747 71.9497C706.661 70.4807 704.839 72.3964 701.362 74.5882C688.865 86.9351 683.429 99.6487 694.69 114.332C690.274 111.808 688.077 110.384 684.048 107.292L684.233 106.883C689.799 94.303 685.095 89.2335 688.358 77.3529C688.682 76.1708 698.359 71.163 700.526 67.5478C700.398 63.9146 694.981 63.3725 692.419 63.8192C682.859 65.4869 679.675 80.8729 681.701 88.8692C682.009 90.0866 681.918 89.6404 681.321 90.7353C667.056 87.1192 671.726 76.0741 678.463 67.8136C686.98 57.3713 696.535 54.0915 709.392 52.8074Z"/><path fill="#C6C6C5" d="M800.149 1002.57L800.726 1003.1C802.162 1007.67 801.343 1039.59 801.327 1046.46L801.222 1135.72C797.346 1133.94 789.726 1131.25 788.718 1127.02L788.936 1126.01C793.173 1105.99 791.033 1082.87 791.583 1062.36C792.015 1046.27 787.162 1033.5 778.49 1020.14C786.325 1014.85 793.066 1008.8 800.149 1002.57Z"/><path fill="#989796" d="M287.894 1140.91C290.374 1143.98 289.585 1153.75 289.54 1158.03C263.055 1165.25 235.054 1175.63 208.725 1184.27C206.145 1181.07 207.037 1172.44 207.09 1167.84C233.376 1160.94 260.201 1148.16 287.894 1140.91Z"/><path fill="#989796" d="M329.882 978.299C332.554 980.04 340.059 989.668 342.492 992.675C340.878 1021.45 343.082 1050.84 341.889 1079.65C341.766 1082.61 340.259 1083.17 338.229 1084.83L329.362 1089.81L329.882 978.299Z"/><path fill="#C6C6C5" d="M321.776 1059.07C324.457 1061.42 323.336 1086.5 323.291 1091.42C311.22 1094.53 299.042 1097.23 286.781 1099.49L286.214 1098.96C284.287 1094.52 284.974 1078.08 285.036 1072.23C296.936 1068.35 309.931 1063.37 321.776 1059.07Z"/><path fill="#989796" d="M340.874 1087.53L341.518 1087.7C342.401 1089.88 342.034 1098.24 342.014 1101.1C318.659 1113.39 305.685 1114.48 280.132 1116.01C279.556 1110.66 279.785 1106.76 273.979 1104.81C272.558 1106.39 272.672 1111.92 271.876 1115.6C269.902 1117.56 269.854 1117.04 266.736 1117.56L264.072 1117.59C260.031 1117.63 256.864 1118.28 254.038 1115.51C252.892 1113.16 252.803 1111.31 253.624 1108.78C256.843 1098.85 270.657 1105.13 278.232 1104.26C300.615 1101.67 320.894 1098.24 340.874 1087.53Z"/><path fill="#989796" d="M702.221 41.4906C716.5 40.6091 735.03 44.6674 743.523 57.2667C747.304 62.8768 747.666 66.8245 748.683 73.3107C746.349 70.9606 744.092 67.6439 741.976 65.0093C728.235 47.8964 709.612 46.0203 690.065 53.5434L689.288 53.9914C680.257 59.2432 672.171 66.8622 670.47 77.6779C669.797 81.9546 670.448 84.8569 669.231 89.4171C667.35 91.8839 666.828 92.6045 663.862 91.409C660.704 87.6166 659.06 79.0711 660.427 74.4593C666.262 54.7744 683.07 44.1626 702.221 41.4906Z"/><path fill="#989796" d="M144.666 1139L203.28 1168.05L203.221 1184.19C198.234 1182.44 185.425 1175.5 180.058 1172.74C168.368 1166.71 156.586 1160.87 144.715 1155.21L144.666 1139Z"/><path fill="#747273" fill-opacity="0.015686275" d="M424.005 815.713C426.429 814.519 425.672 814.89 428.79 815.219C429.399 815.659 429.661 815.674 429.868 816.189L428.011 816.615C426.651 821.361 427.868 977.169 428.115 977.627C429.21 977.921 430.238 978.235 431.355 978.417L430.103 980.043L430.625 980.342C428.369 981.391 426.769 981.672 424.781 983.206C415.249 980.9 405.767 978.386 396.344 975.667L395.223 973.841C395.135 972.113 395.998 971.331 397.038 969.888C403.046 972.136 415.692 977.077 421.527 973.032C424.962 966.289 423.31 838.356 424.005 815.713Z"/><path fill="#C6C6C5" d="M384.121 394.909C395.603 380.266 396.965 359.99 382.146 347C375.361 341.053 366.569 343.278 364.162 341.166C369.469 333.975 379.923 334.368 386.396 340.022C402.969 354.497 407.422 380.886 394.456 399.118C389.848 405.485 388.046 406.979 380.108 407.469C375.301 407.577 372.667 408.532 369.327 404.948L369.395 403.389C373.368 397.839 377.731 397.628 384.121 394.909Z"/><path fill="#C6C6C5" d="M384.121 394.909C384.423 397.721 384.588 396.581 383.408 399.232C380.243 401.912 380.25 403.41 380.108 407.469C375.301 407.577 372.667 408.532 369.327 404.948L369.395 403.389C373.368 397.839 377.731 397.628 384.121 394.909Z"/><path fill="#989796" d="M383.408 399.232C388.404 400.182 389.432 400.454 394.456 399.118C389.848 405.485 388.046 406.979 380.108 407.469C380.25 403.41 380.243 401.912 383.408 399.232Z"/><path fill="#C6C6C5" d="M680.39 112.148C683.481 113.008 691.008 116.343 694.377 117.844C707.301 123.602 715.574 125.856 729.67 126.974C728.061 133.565 728.401 135.059 722.18 138.437C701.06 140.581 690.13 136.612 673.124 124.622C675.556 120.866 678.129 116.09 680.39 112.148Z"/><path fill="#C6C6C5" d="M352.337 350.198C356.278 350.698 359.288 351.091 362.872 352.915C367.494 355.25 370.942 359.395 372.396 364.364C374.881 372.748 372.445 378.711 368.508 385.817C362.442 388.571 357.565 389.396 351.146 390.624C355.791 387.513 357.085 387.044 360.746 382.741C360.775 378.751 360.564 376.584 359.244 372.891L358.516 372.729C357.096 377.537 355.785 384.909 350.655 386.741C347.753 386.473 348.483 386.965 346.632 385.34C344.211 375.579 354.601 370.786 342.296 358.131L352.337 350.198Z"/><path fill="#C6C6C5" d="M656.388 113.56C663.5 116.286 666.368 116.302 673.842 116.43C672.995 117.708 670.091 122.224 670.222 123.194C671.815 134.946 697.642 140.277 706.512 141.392C717.392 142.761 723.232 141.835 730.184 136.418L731.111 136.565C728.129 149.873 700.482 142.57 691.099 140.557C685.725 139.404 669.829 130 666.926 131.161C669.303 134.791 675.562 137.73 679.482 139.706C691.711 145.073 706.136 148.583 719.45 146.329C723.041 145.722 728.382 143.059 731.574 144.309L731.568 146.037C724.745 156.982 704.958 152.833 694.427 150.458C676.347 146.38 662.062 139.344 652.083 123.229C657.215 128.009 659.795 130.386 665.764 134.132C659.507 125.339 655.732 125.249 656.388 113.56Z"/><path fill="#C6C6C5" d="M370.879 1058.92L371.486 1058.96L372.179 1059.79C373.03 1080.15 372.066 1100.88 372.01 1121.27C372.002 1124.41 371.675 1127.68 371.213 1130.78C369.891 1133.1 367.857 1133.71 365.361 1134.93L364.671 1134.65C362.166 1131.38 363.3 1071.91 363.344 1063.59L370.879 1058.92Z"/><path fill="#989796" d="M153.325 1133.06C166.589 1138.05 193.96 1153.25 206.926 1160.08C216.321 1157.13 279.742 1132.69 285.156 1136.35L284.605 1137.38L284.414 1136.67L283.851 1137.83L281.912 1138.5C258.437 1145.51 229.631 1156.27 205.984 1164.34C193.991 1158.76 182.071 1153.03 170.225 1147.15C165.267 1144.73 153.345 1139.23 149.256 1136.33C150.119 1134.67 151.538 1134.19 153.325 1133.06Z"/><path fill="#C6C6C5" d="M382.186 333.262C417.358 334.383 421.604 381.147 400.644 402.553C398.777 403.793 398.016 404.317 395.964 403.865C395.892 401.53 398.591 397.967 399.8 395.76C409.677 377.721 405.901 353.859 390.439 340.148C388.152 338.12 383.158 335.839 382.186 333.262Z"/><path fill="#989796" d="M400.354 1036.52C405.81 1039.11 411.442 1042.02 416.866 1044.73C406.88 1050.91 396.746 1056.38 386.457 1062.03L376.556 1068.54L376.614 1048.82C385.237 1044.56 391.82 1041.29 400.354 1036.52Z"/><path fill="#C6C6C5" d="M385.922 1028.05L396.658 1034.27C386.768 1038.61 373.517 1041.72 372.657 1053.74L363.649 1058.68L363.763 1034.71C364.308 1034.76 365.568 1034.96 366.088 1034.81C372.68 1032.81 379.4 1030.34 385.922 1028.05Z"/><path fill="#C6C6C5" d="M708.263 98.6465C710.185 100.419 711.213 104.638 713.02 106.515C718.233 111.931 731.91 109.668 735.363 117.017C734.09 122.024 731.856 122.43 726.799 121.946C716.312 120.667 706.326 119.346 696.858 114.305C701.446 107.74 704.306 107.14 708.263 98.6465Z"/><path fill="#C6C6C5" d="M339.587 1109.27L340.96 1109.53C342.691 1114.31 341.946 1133.8 341.857 1139.93L332.586 1136.92C330.375 1136.28 330.456 1136.35 328.638 1134.96C325.701 1129.94 327.295 1120.13 327.739 1114.1C331.728 1112.64 335.669 1110.92 339.587 1109.27Z"/><path fill="#C6C6C5" d="M324.832 353.825C328.741 354.232 332.47 355.677 335.632 358.011C343.387 363.743 352.611 379.636 336.488 379.681C334.61 381.911 332.724 384.848 329.639 384.117C328.39 379.915 331.518 371.513 330.294 367.444C329.283 364.081 322.917 361.252 322.572 356.336L324.832 353.825Z"/><path fill="#C6C6C5" d="M287.602 352.958C306.784 360.06 304.744 394.603 288.393 393.425C285.821 392.058 285.601 392.456 284.263 390.152C285.624 386.387 295.081 383.927 296.438 378.016C298.476 369.147 291.346 363.747 287.282 357.037C286.354 355.505 287.028 354.698 287.602 352.958Z"/><path fill="#EA5C69" d="M243.097 1086.58C245.962 1086.52 251.388 1086.49 253.535 1088.48C251.794 1090.73 250.862 1090.13 248.317 1091.39C235.837 1097.54 237.37 1111.47 241.965 1121.73C242.18 1121.91 242.552 1122.71 242.712 1123.01L241.61 1123.51C223.514 1119.54 232.889 1095.51 243.097 1086.58Z"/><path fill="#989796" d="M310.1 362.943C322.474 363.804 331.902 365.685 325.523 380.559C320.243 381.62 316.878 382.189 311.44 382.724C312.483 374.239 311.878 371.072 310.1 362.943Z"/><path fill="#EA5C69" d="M253.091 1092.52C255.776 1092.64 258.791 1093.31 260.636 1095.35C260.355 1099.27 235.867 1112.8 256.706 1122.9L256.338 1123.91C244.186 1127.78 234.184 1107.66 253.091 1092.52Z"/><path fill="#C6C6C5" d="M365.148 346.236C383.274 347.239 387.016 370.194 381.633 383.838C379.326 389.686 377.807 391.822 373.524 396.411L372.11 395.813C371.83 392.716 382.887 380.042 380.98 369.748C378.909 358.564 373.807 353.242 365.148 346.236Z"/><path fill="#C6C6C5" d="M290.979 348.054C305.062 347.076 311.374 373.654 305.29 384.415L303.809 385.333C302.701 383.45 305.462 369.189 302.821 362.346C299.735 354.347 292.876 353.018 290.979 348.054Z"/><path fill="#989796" d="M367.244 351.496C381.823 355.812 380.78 380.126 371.151 390.856C366.539 384.229 387.75 376.063 367.244 351.496Z"/><path fill="#C6C6C5" d="M705.65 74.8824C707.057 76.3611 698.101 85.9 696.409 90.2426C693.344 98.1048 697.777 104.433 697.181 107.939C682.779 103.71 699.971 80.4975 705.65 74.8824Z"/><path fill="#C6C6C5" d="M363.763 1034.71C363.762 1029.16 363.576 1023.35 364.352 1017.88C365.158 1022.01 365.194 1033.21 366.088 1034.81C365.568 1034.96 364.308 1034.76 363.763 1034.71Z"/><path fill="#989796" d="M728.47 72.5307C731.845 75.9973 730.774 80.4503 730.466 84.9422C727.486 81.9066 728.342 76.5786 728.47 72.5307Z"/></svg>