<?xml version="1.0" encoding="utf-8" ?><svg xmlns="http://www.w3.org/2000/svg" xmlns:xlink="http://www.w3.org/1999/xlink" width="1024" height="1536" viewBox="0 0 1024 1536"><path fill="#030203" d="M306.305 190.222C315.99 185.976 325.107 181.281 335.012 177.69C364.227 167.097 394.854 161.398 425.465 156.606C432.409 155.519 451.71 153.742 456.52 148.966C459.641 140.887 444.462 131.449 451.153 125.855C458.204 119.96 477.354 118.105 486.937 118.403C505.878 118.994 525.133 119.491 544.063 120.349C548.585 120.543 554.573 124.164 554.06 129.421C553.382 136.378 548.248 139.834 543.277 143.967C549.259 146.158 554.361 147.241 560.554 148.672C562.793 148.762 570.475 149.802 572.463 150.632C588.866 152.372 603.812 154.803 619.716 159.33C647.072 167.135 673.443 177.913 700.004 188.014C745.567 205.342 791.752 220.099 832.169 248.308C853.357 263.096 855.683 264.842 861.748 289.918C863.452 290.98 865.923 292.637 867.617 293.542C870.331 295.703 874.879 299.141 876.518 302.233C880.835 307.329 883.814 311.607 884.306 318.431C885.678 337.456 885.234 357.432 885.165 376.533L884.6 480.254L884.464 705.424C884.406 752.129 883.918 799.402 884.356 846.063C885.332 866.333 885.88 886.622 886 906.916C886.037 915.983 886.203 933.23 884.363 941.879C883.933 961.178 891.015 980.477 888.78 995.883C889.487 1056.26 890.088 1114.03 887.376 1174.39C888.563 1211.59 887.403 1244.88 887.499 1281.5C887.612 1290.88 887.628 1300.26 887.549 1309.63L887.718 1320.06C898.025 1322.32 908.791 1324.52 919 1327.06L919.038 1339.64C898.67 1348.46 878.925 1357.24 857.727 1364.01C847.524 1361.6 838.625 1359.39 828.531 1356.42C822.24 1354.75 817.61 1353.41 811.492 1351.21C805.028 1349.36 798.739 1347.11 792.39 1344.9C791.911 1340.88 791.664 1337.34 791.428 1333.29L817.756 1322.98C815.084 1308.94 814.052 1281.86 812.94 1266.55C805.257 1269.26 795.446 1273.67 787.64 1276.85C785.296 1277.99 775.323 1282.4 772.871 1282.86C753.831 1290.83 734.697 1298.58 715.473 1306.1C707.105 1309.42 690.844 1316.38 682.844 1318.8C663.967 1327.74 642.079 1333.75 622.97 1342.68C619.823 1344.15 605.6 1350.22 603.48 1350.45C595.121 1354.7 582.599 1359.15 573.641 1362.49C571.772 1370.17 569.184 1451.32 570.219 1458.06L570.978 1458.85C579.898 1462.09 590.217 1465.56 598.916 1469.07L598.801 1481.35C578.586 1490.35 557.935 1498.33 536.925 1505.26C515.693 1499.68 493.387 1491.88 472.535 1484.75L472.719 1475.8L472.621 1475.03L472.597 1472.95C473.993 1470.78 495.849 1462.77 499.63 1461.23C501.864 1457.85 494.55 1316.11 493.808 1300.72C490.037 1297.95 483.993 1293.64 480.753 1290.55C475.52 1287.54 468.074 1280.84 463.633 1276.74C456.347 1272.07 439.112 1257.97 431.81 1252.29C406.663 1232.73 381.735 1212.88 357.031 1192.75C341.93 1198.78 326.912 1205.83 311.887 1212.18C282.831 1224.53 253.342 1235.84 223.476 1246.07C219 1248.02 213.197 1250.74 208.685 1252.28C207.483 1282.35 203.979 1308.94 201.662 1338.63C211.032 1341.51 220.911 1344.39 230.181 1347.45L230.272 1360.72C223.467 1363.56 217.898 1365.39 210.857 1367.65C205.486 1370.21 183.157 1379.73 178.089 1380.47C173.809 1382.96 168.91 1384.98 164.357 1387C142.667 1380.13 121.072 1372.97 99.5765 1365.52C99.1507 1360.87 99.3337 1356.36 99.4277 1351.7C108.46 1348.61 117.747 1345.08 126.747 1341.81L127.272 1341.49C128.444 1335.99 128.352 1309.92 128.455 1303.15C129.175 1267.48 129.348 1231.8 128.974 1196.12L129.063 1059.16C129.108 1040.69 130.072 1019.17 129.561 1001.21C125.211 982.378 131.456 975.483 134.584 958.179C133.076 952.084 133.791 933.536 133.866 926.023C133.975 912.759 134.013 899.496 133.98 886.232C133.995 822.763 133.257 757.637 134.266 694.261C133 664.138 134.017 631.557 134.049 601.234L133.747 448.848C133.702 424.432 133.479 400.016 133.079 375.602C132.853 361.197 132.105 334.726 134.164 320.96C134.505 314.876 134.459 311.085 137.644 305.834C141.083 298.529 149.818 292.765 156.246 288.251C157.33 278.414 158.516 273.084 161.52 263.66C189.728 241.545 272.325 200.774 306.305 190.222ZM749.034 1118.07C734.095 1131.8 714.305 1146.62 698.526 1159.78C692.859 1164.51 675.786 1178.91 670.538 1182.37C663.583 1189.05 637.548 1211.63 630.315 1215.67C616.564 1229.71 590.555 1244.88 576.129 1261.42L575.678 1271.48C574.954 1290.28 573.621 1311.36 573.808 1329.95C608.797 1318.53 650.052 1300.76 684.431 1286.54C729.104 1268.06 767.322 1253.77 813.235 1239.26C813.389 1216.62 810.49 1190.38 809.111 1167.46C807.361 1135.34 806.434 1103.18 806.331 1071.02C793.313 1082.97 763.466 1108.13 749.034 1118.07ZM223.719 1083.63C219.441 1128.81 217.325 1173.45 211.218 1218.66C251.707 1203.26 292.045 1187.46 332.228 1171.27C316.955 1158.99 297.35 1144.14 282.802 1131.44C278.146 1128.04 274.983 1125.37 270.665 1121.61C264.605 1116.86 238.178 1095.78 233.885 1091.16C230.071 1088.55 227.257 1086.58 223.719 1083.63Z"/><path fill="#D1D0D0" d="M142.798 340.279C146.075 343.083 149.612 345.433 153.155 347.887L157.072 350.464C159.193 351.595 167.018 355.945 168.802 356.51L171.887 357.921L172.779 358.608C185.111 363.972 217.535 375.602 231.03 378.358C264.074 385.133 301.896 392.951 335.466 395.68C350.016 397.386 364.863 399.264 379.457 400.363C392.509 401.346 404.994 401.328 418.067 402.803L430.76 402.775C435.062 403.29 449.903 403.467 451.412 403.936C457.413 404.392 463.797 405.049 469.782 404.844C480.114 405.211 490.704 405.72 501.021 405.628C542.454 405.876 583.883 404.652 625.229 401.959C648.438 400.37 671.477 397.427 694.587 395.89L694.681 1056.33C629.512 1067.8 566.685 1071.52 500.428 1071.78C482.632 1072.15 464.829 1071.68 447.077 1070.38C434.65 1070.53 427.206 1070.48 415.006 1069.14C402.578 1067.51 389.841 1067.09 377.323 1065.99C363.153 1064.67 349.053 1062.7 335.066 1060.07C321.781 1057.16 308.165 1055 294.79 1052.3C274.535 1048.05 254.303 1043.7 234.094 1039.24C199.028 1028.9 184.723 1022.57 154.459 1002.98C150.138 998.823 147.735 995.694 144.034 991.018L143.955 964.918C144.133 956.514 144.129 948.106 143.944 939.702C144.667 898.157 143.438 855.209 143.431 813.357L143.166 557.6C143.816 521.371 143.614 485.131 142.558 448.91L142.798 340.279Z"/><path fill="#D1D0D0" d="M142.798 340.279C146.075 343.083 149.612 345.433 153.155 347.887L157.072 350.464C159.193 351.595 167.018 355.945 168.802 356.51L171.887 357.921L172.779 358.608C185.111 363.972 217.535 375.602 231.03 378.358C264.074 385.133 301.896 392.951 335.466 395.68C332.719 439.077 332.93 478.281 333.009 521.676L333.264 648.157L333.523 840.044C333.502 897.784 332.727 955.826 335.512 1013.45C335.979 1023.11 332.753 1052.75 335.066 1060.07C321.781 1057.16 308.165 1055 294.79 1052.3C274.535 1048.05 254.303 1043.7 234.094 1039.24C199.028 1028.9 184.723 1022.57 154.459 1002.98C150.138 998.823 147.735 995.694 144.034 991.018L143.955 964.918C144.133 956.514 144.129 948.106 143.944 939.702C144.667 898.157 143.438 855.209 143.431 813.357L143.166 557.6C143.816 521.371 143.614 485.131 142.558 448.91L142.798 340.279Z"/><path fill="#FEFEFE" d="M142.798 340.279C146.075 343.083 149.612 345.433 153.155 347.887L157.072 350.464C159.193 351.595 167.018 355.945 168.802 356.51L171.887 357.921L172.779 358.608C185.111 363.972 217.535 375.602 231.03 378.358C233.607 464.661 230.446 551.045 232.519 637.368C232.586 640.162 232.466 643.506 232.33 646.303C230.943 674.832 231.005 703.122 231.048 731.675L231.903 970.5C232.099 984.493 232.456 998.484 232.976 1012.47C233.343 1020.89 234.202 1030.97 234.094 1039.24C199.028 1028.9 184.723 1022.57 154.459 1002.98C150.138 998.823 147.735 995.694 144.034 991.018L143.955 964.918C144.133 956.514 144.129 948.106 143.944 939.702C144.667 898.157 143.438 855.209 143.431 813.357L143.166 557.6C143.816 521.371 143.614 485.131 142.558 448.91L142.798 340.279Z"/><path fill="#D1D0D0" d="M142.798 340.279C146.075 343.083 149.612 345.433 153.155 347.887L157.072 350.464C153.948 363.393 154.255 379.276 154.341 392.625C154.54 423.603 155.935 454.399 155.791 485.402L155.237 676.389C154.814 732.762 153.175 788.907 154.51 845.353C154.919 862.621 153.742 880.356 154.018 897.874C154.365 916.581 154.616 935.29 154.771 953.999C155.076 971.685 155.775 985.069 154.459 1002.98C150.138 998.823 147.735 995.694 144.034 991.018L143.955 964.918C144.133 956.514 144.129 948.106 143.944 939.702C144.667 898.157 143.438 855.209 143.431 813.357L143.166 557.6C143.816 521.371 143.614 485.131 142.558 448.91L142.798 340.279Z"/><path fill="#9C9A9A" d="M171.887 357.921L172.779 358.608C168.343 469.994 174.334 584.923 171.578 696.174C169.31 684.075 170.135 660.769 170.156 647.68L170.253 571.402L170.25 449.108C170.196 418.274 169.363 388.679 171.887 357.921Z"/><path fill="#D1D0D0" d="M171.205 737.75C173.246 741.48 172.687 748.185 172.631 752.591C170.28 749.547 171.072 741.871 171.205 737.75Z"/><path fill="#FEFEFE" d="M335.466 395.68C350.016 397.386 364.863 399.264 379.457 400.363C392.509 401.346 404.994 401.328 418.067 402.803L430.76 402.775C435.062 403.29 449.903 403.467 451.412 403.936C457.413 404.392 463.797 405.049 469.782 404.844C480.114 405.211 490.704 405.72 501.021 405.628C503.057 426.152 501.102 450.234 501.091 471.429L501.077 612.28L500.428 1071.78C482.632 1072.15 464.829 1071.68 447.077 1070.38C434.65 1070.53 427.206 1070.48 415.006 1069.14C402.578 1067.51 389.841 1067.09 377.323 1065.99C363.153 1064.67 349.053 1062.7 335.066 1060.07C332.753 1052.75 335.979 1023.11 335.512 1013.45C332.727 955.826 333.502 897.784 333.523 840.044L333.264 648.157L333.009 521.676C332.93 478.281 332.719 439.077 335.466 395.68Z"/><path fill="#FEFEFE" d="M430.76 402.775C435.062 403.29 449.903 403.467 451.412 403.936C457.413 404.392 463.797 405.049 469.782 404.844C480.114 405.211 490.704 405.72 501.021 405.628C503.057 426.152 501.102 450.234 501.091 471.429L501.077 612.28L500.428 1071.78C482.632 1072.15 464.829 1071.68 447.077 1070.38C434.65 1070.53 427.206 1070.48 415.006 1069.14C421.381 1024.16 418.641 960.255 418.618 913.819L418.613 658.41L418.652 487.154C418.696 466.176 420.558 422.274 418.067 402.803L430.76 402.775Z"/><path fill="#D1D0D0" d="M430.76 402.775C435.062 403.29 449.903 403.467 451.412 403.936C450.044 404.861 449.729 404.584 449.571 406.23C446.465 438.579 447.017 471.865 447.532 504.219C447.809 536.734 447.899 569.25 447.8 601.766L447.077 1070.38C434.65 1070.53 427.206 1070.48 415.006 1069.14C421.381 1024.16 418.641 960.255 418.618 913.819L418.613 658.41L418.652 487.154C418.696 466.176 420.558 422.274 418.067 402.803L430.76 402.775Z"/><defs><linearGradient id="gradient_0" gradientUnits="userSpaceOnUse" x1="775.70367" y1="716.62445" x2="21.817139" y2="1040.0687"><stop offset="0" stop-color="#302F30"/><stop offset="1" stop-color="#5D5C5D"/></linearGradient></defs><path fill="url(#gradient_0)" d="M134.164 320.96C135.6 323.472 137.753 327.506 139.315 329.771C143.548 334.645 152.412 342.47 153.155 347.887C149.612 345.433 146.075 343.083 142.798 340.279L142.558 448.91C143.614 485.131 143.816 521.371 143.166 557.6L143.431 813.357C143.438 855.209 144.667 898.157 143.944 939.702C144.129 948.106 144.133 956.514 143.955 964.918L143.026 961.076C142.456 963.838 142.242 965.296 141.044 967.919C140.865 970.474 140.509 979.38 139.622 981.152C139.679 982.335 139.785 983.516 139.941 984.69C141.274 994.464 150.398 1002.26 157.811 1007.83C231.882 1063.51 429.489 1075.64 520.503 1074.73C571.987 1073.94 623.379 1070.09 674.407 1063.2C734.605 1054.63 816.694 1038.02 864.499 999.155C871.357 993.58 876.993 985.998 882.288 978.951C886.062 976.619 883.758 975.341 886.002 973.942C886.585 980.207 886.939 988.148 885.669 994.362C884.763 998.793 878.534 1006.72 879.362 1009.5C873.363 1015.71 863.533 1023.66 856.8 1029.31L857.542 1189.31L857.389 1239.36C857.345 1246.98 856.897 1260.09 857.516 1267.16C857.26 1291.07 857.277 1314.98 857.568 1338.89L875.178 1334.31C860.967 1343.01 840.451 1344.58 827.219 1333.15C826.549 1331.57 826.416 1331.37 825.382 1329.95L825.116 1329.59L825.611 1328.88L824.77 1328.26C826.18 1320.13 821.442 1289.24 820.218 1279.38L822.44 1278.55C820.312 1268.12 818.498 1245.16 817.374 1233.97C813.531 1198.03 811.041 1161.97 809.911 1125.85C809.404 1107.12 810.215 1087.66 808.585 1069.12C801.581 1072 750.262 1112.81 749.034 1118.07C734.095 1131.8 714.305 1146.62 698.526 1159.78C692.859 1164.51 675.786 1178.91 670.538 1182.37C663.583 1189.05 637.548 1211.63 630.315 1215.67C616.564 1229.71 590.555 1244.88 576.129 1261.42L575.678 1271.48C574.954 1290.28 573.621 1311.36 573.808 1329.95L573.997 1334.68C573.528 1339.18 572.694 1342.95 575.38 1346.75L574.45 1348.72L574.78 1349.6C570.682 1352.13 571.671 1354.78 573.685 1358.74L573.641 1362.49C571.772 1370.17 569.184 1451.32 570.219 1458.06L570.978 1458.85C579.898 1462.09 590.217 1465.56 598.916 1469.07L598.801 1481.35C578.586 1490.35 557.935 1498.33 536.925 1505.26C515.693 1499.68 493.387 1491.88 472.535 1484.75L472.719 1475.8L472.621 1475.03L472.597 1472.95C473.993 1470.78 495.849 1462.77 499.63 1461.23C501.864 1457.85 494.55 1316.11 493.808 1300.72C490.037 1297.95 483.993 1293.64 480.753 1290.55C475.52 1287.54 468.074 1280.84 463.633 1276.74C456.347 1272.07 439.112 1257.97 431.81 1252.29C406.663 1232.73 381.735 1212.88 357.031 1192.75C341.93 1198.78 326.912 1205.83 311.887 1212.18C282.831 1224.53 253.342 1235.84 223.476 1246.07C219 1248.02 213.197 1250.74 208.685 1252.28C207.483 1282.35 203.979 1308.94 201.662 1338.63C211.032 1341.51 220.911 1344.39 230.181 1347.45L230.272 1360.72C223.467 1363.56 217.898 1365.39 210.857 1367.65C205.486 1370.21 183.157 1379.73 178.089 1380.47C173.809 1382.96 168.91 1384.98 164.357 1387C142.667 1380.13 121.072 1372.97 99.5765 1365.52C99.1507 1360.87 99.3337 1356.36 99.4277 1351.7C108.46 1348.61 117.747 1345.08 126.747 1341.81L127.272 1341.49C128.444 1335.99 128.352 1309.92 128.455 1303.15C129.175 1267.48 129.348 1231.8 128.974 1196.12L129.063 1059.16C129.108 1040.69 130.072 1019.17 129.561 1001.21C125.211 982.378 131.456 975.483 134.584 958.179C133.076 952.084 133.791 933.536 133.866 926.023C133.975 912.759 134.013 899.496 133.98 886.232C133.995 822.763 133.257 757.637 134.266 694.261C133 664.138 134.017 631.557 134.049 601.234L133.747 448.848C133.702 424.432 133.479 400.016 133.079 375.602C132.853 361.197 132.105 334.726 134.164 320.96ZM211.218 1218.66C251.707 1203.26 292.045 1187.46 332.228 1171.27C316.955 1158.99 297.35 1144.14 282.802 1131.44C278.146 1128.04 274.983 1125.37 270.665 1121.61C264.605 1116.86 238.178 1095.78 233.885 1091.16C230.071 1088.55 227.257 1086.58 223.719 1083.63C219.441 1128.81 217.325 1173.45 211.218 1218.66Z"/><path fill="#D1D0D0" d="M574.279 1087.44C576.57 1086.13 577.43 1086.59 580.308 1086.78C575.922 1116.4 576.19 1147.07 576.181 1176.99C576.179 1184.84 576.109 1205.9 577.488 1213.04C577.78 1222.2 577.471 1235.93 576.035 1245C574.183 1249.16 575.425 1265.84 575.678 1271.48C574.954 1290.28 573.621 1311.36 573.808 1329.95L573.997 1334.68C573.528 1339.18 572.694 1342.95 575.38 1346.75L574.45 1348.72L574.78 1349.6C570.682 1352.13 571.671 1354.78 573.685 1358.74L573.641 1362.49C571.772 1370.17 569.184 1451.32 570.219 1458.06L570.978 1458.85C579.898 1462.09 590.217 1465.56 598.916 1469.07L598.801 1481.35C578.586 1490.35 557.935 1498.33 536.925 1505.26C515.693 1499.68 493.387 1491.88 472.535 1484.75L472.719 1475.8L472.621 1475.03L472.597 1472.95C473.993 1470.78 495.849 1462.77 499.63 1461.23C501.866 1463.37 505.432 1467.35 507.901 1468.58C504.618 1432.15 505.367 1394.44 503.174 1357.83C502.218 1341.86 502.071 1325.76 501.104 1309.73C501.551 1295.06 499.619 1266.15 499.117 1250.47C498.126 1220.2 497.299 1189.93 496.637 1159.65C496.012 1135.3 495.169 1112.47 495.684 1088.12L516.032 1088.2C520.286 1088.16 525.212 1088.22 529.402 1088.01L530.603 1087.98C532.844 1086.92 533.234 1087.13 535.819 1087.38C549.41 1087.95 560.761 1087.63 574.279 1087.44Z"/><path fill="#FEFEFE" d="M495.684 1088.12L516.032 1088.2C517.526 1109.81 516.94 1133.1 516.999 1154.92L518.108 1250.88L520.149 1380.37C520.893 1410.87 523.028 1445.63 521.977 1475.85C515.575 1473.38 513.675 1472.14 507.901 1468.58C504.618 1432.15 505.367 1394.44 503.174 1357.83C502.218 1341.86 502.071 1325.76 501.104 1309.73C501.551 1295.06 499.619 1266.15 499.117 1250.47C498.126 1220.2 497.299 1189.93 496.637 1159.65C496.012 1135.3 495.169 1112.47 495.684 1088.12Z"/><path fill="#D1D0D0" d="M529.402 1088.01L530.603 1087.98C532.416 1090.42 532.495 1091.15 532.545 1094.58C532.768 1109.82 532.606 1125.23 532.542 1140.47L532.263 1223.28L531.813 1478.33C529.73 1477.78 523.793 1476.07 521.977 1475.85C523.028 1445.63 520.893 1410.87 520.149 1380.37L518.108 1250.88L516.999 1154.92C516.94 1133.1 517.526 1109.81 516.032 1088.2C520.286 1088.16 525.212 1088.22 529.402 1088.01Z"/><path fill="#030203" d="M530.603 1087.98C532.844 1086.92 533.234 1087.13 535.819 1087.38C532.282 1097.75 534.195 1192.89 534.205 1210.05L534.206 1478.68C543.943 1475.67 553.778 1473.07 562.508 1467.74L565.519 1469.56C566.537 1468.2 567.784 1465.04 568.517 1463.36C569.289 1461.14 569.606 1460.81 570.978 1458.85C579.898 1462.09 590.217 1465.56 598.916 1469.07L598.801 1481.35C578.586 1490.35 557.935 1498.33 536.925 1505.26C515.693 1499.68 493.387 1491.88 472.535 1484.75L472.719 1475.8L472.621 1475.03L472.597 1472.95C473.993 1470.78 495.849 1462.77 499.63 1461.23C501.866 1463.37 505.432 1467.35 507.901 1468.58C513.675 1472.14 515.575 1473.38 521.977 1475.85C523.793 1476.07 529.73 1477.78 531.813 1478.33L532.263 1223.28L532.542 1140.47C532.606 1125.23 532.768 1109.82 532.545 1094.58C532.495 1091.15 532.416 1090.42 530.603 1087.98Z"/><path fill="#FEFEFE" d="M568.517 1463.36C575.649 1465.41 581.799 1467.19 588.672 1470.02C571.264 1477.02 553.784 1483.84 536.235 1490.48C517.84 1485 498.893 1479.53 480.907 1472.91C487.57 1470.14 494.271 1467.46 501.009 1464.87C519.807 1485.11 543.469 1485.51 565.519 1469.56C566.537 1468.2 567.784 1465.04 568.517 1463.36Z"/><path fill="#4B4B4B" d="M472.621 1475.03C487.977 1476.64 518.965 1487.5 534.791 1492.67C534.772 1495.05 535.17 1498.9 534.14 1500.59C526.905 1501.28 483.646 1485.92 476.148 1479.78C475.305 1479.09 473.49 1476.81 472.719 1475.8L472.621 1475.03Z"/><path fill="#4B4B4B" d="M591.531 1472.23C592.155 1472.2 592.847 1472.46 593.509 1472.63C596.575 1484.57 549.793 1497.81 540.569 1500.75L538.706 1500.55L538.022 1499.19C540.224 1488.4 580.74 1475.87 591.531 1472.23Z"/><path fill="#4B4B4B" d="M574.279 1087.44C576.57 1086.13 577.43 1086.59 580.308 1086.78C575.922 1116.4 576.19 1147.07 576.181 1176.99C576.179 1184.84 576.109 1205.9 577.488 1213.04C577.78 1222.2 577.471 1235.93 576.035 1245C574.183 1249.16 575.425 1265.84 575.678 1271.48C574.954 1290.28 573.621 1311.36 573.808 1329.95L573.997 1334.68C573.528 1339.18 572.694 1342.95 575.38 1346.75L574.45 1348.72L574.78 1349.6C570.682 1352.13 571.671 1354.78 573.685 1358.74L573.641 1362.49C571.772 1370.17 569.184 1451.32 570.219 1458.06L570.978 1458.85C569.606 1460.81 569.289 1461.14 568.517 1463.36C567.784 1465.04 566.537 1468.2 565.519 1469.56L562.508 1467.74C562.54 1467.69 564.076 1427.53 564.273 1423.43C567.2 1351.99 569.683 1280.54 571.72 1209.07L574.132 1131.53C574.358 1124 576.043 1092.08 574.279 1087.44Z"/><path fill="#9C9A9A" d="M201.702 1048.94C254.478 1063.04 305.524 1074.96 359.942 1080.55C373.019 1081.89 391.038 1084.9 403.874 1084.51C413.623 1108.51 424.943 1131.31 436.034 1154.71L470.094 1227.32C477.92 1243.76 486.207 1260.32 493.772 1276.88C494.568 1278.62 494.527 1280.91 494.503 1282.82C494.492 1285.52 494.565 1286.05 493.867 1288.61C491.795 1287.44 479.059 1276.2 476.097 1273.73C463.574 1263.33 450.876 1253.14 438.008 1243.17C386.989 1203.07 336.358 1162.48 286.121 1121.4C262.131 1101.84 238.024 1082.22 214.069 1062.62C209.383 1058.78 204.604 1054.26 201.702 1048.94Z"/><path fill="#9C9A9A" d="M640.12 1081.48C666.606 1080.61 695.478 1075.22 721.42 1070.01C753.728 1063.53 788.51 1056.21 819.717 1045.81C810.165 1057.27 789.501 1073.31 776.921 1082.62C768.627 1088.04 737.922 1112.65 730.742 1120.06C698.544 1145.23 666.904 1173.14 634.597 1198.43C633.247 1199.49 630.894 1201.47 629.794 1202.64C620.94 1208.87 606.111 1220.14 598.803 1227.98C593.564 1233.04 584.515 1242.42 578.397 1245.28C577.82 1245.22 576.53 1245.13 576.035 1245C577.471 1235.93 577.78 1222.2 577.488 1213.04C576.109 1205.9 576.179 1184.84 576.181 1176.99C576.19 1147.07 575.922 1116.4 580.308 1086.78C585.818 1082.64 631.424 1080.89 640.12 1081.48Z"/><path fill="#666566" d="M580.308 1086.78C585.818 1082.64 631.424 1080.89 640.12 1081.48C638.248 1081.81 633.778 1082.13 633.233 1083.43C629.737 1091.82 626.039 1101.05 622.512 1109.35L590.146 1186.18C586.603 1194.73 580.093 1205.59 577.488 1213.04C576.109 1205.9 576.179 1184.84 576.181 1176.99C576.19 1147.07 575.922 1116.4 580.308 1086.78Z"/><path fill="#9C9A9A" d="M165.803 1034.51C173.419 1041.05 182.165 1048.8 190.24 1054.69C198.828 1062.35 207.752 1069.63 216.987 1076.5L215.906 1088.09C214.792 1091.75 213.055 1110.95 212.52 1115.86C209.101 1147.28 207.252 1179.09 204.822 1210.62C204.416 1215.9 201.888 1238.44 202.042 1241.97C197.757 1276.5 193.275 1315.43 193.531 1350.13C184.602 1353.35 175.366 1356.52 166.692 1360.32C164.676 1354 164.953 1288.45 164.93 1278.27C164.739 1197.02 165.03 1115.76 165.803 1034.51Z"/><path fill="#9C9A9A" d="M850.896 1034.07C853.512 1048.08 853.561 1067.83 853.674 1082.29L853.83 1138.86L854.257 1338.54L829.249 1331.7C827.393 1313.36 824.99 1296.76 822.44 1278.55C820.312 1268.12 818.498 1245.16 817.374 1233.97C813.531 1198.03 811.041 1161.97 809.911 1125.85C809.404 1107.12 810.215 1087.66 808.585 1069.12C822.696 1058 837.059 1045.63 850.896 1034.07Z"/><path fill="#666566" d="M403.874 1084.51L404.755 1084.16C411.659 1084.48 436.944 1084.95 441.995 1086.52C446.65 1086.77 449.389 1086.9 454 1086.53L454.434 1086.59C464.798 1086.93 481.11 1087.01 491.034 1088.14C492.119 1106.64 491.669 1125.05 492.972 1142.99C493.805 1164.08 493.676 1190.1 494.18 1211.25C494.492 1224.31 496.624 1273.37 494.503 1282.82C494.527 1280.91 494.568 1278.62 493.772 1276.88C486.207 1260.32 477.92 1243.76 470.094 1227.32L436.034 1154.71C424.943 1131.31 413.623 1108.51 403.874 1084.51Z"/><path fill="#030203" d="M190.24 1054.69C197.956 1056.21 230.735 1083.91 233.885 1091.16C230.071 1088.55 227.257 1086.58 223.719 1083.63C219.441 1128.81 217.325 1173.45 211.218 1218.66C251.707 1203.26 292.045 1187.46 332.228 1171.27C316.955 1158.99 297.35 1144.14 282.802 1131.44C287.713 1133.12 287.966 1134.19 291.957 1136.52C297.864 1142.37 337.448 1171.14 337.988 1174.85C339.12 1176.29 342.271 1180.48 343.425 1181.48L343.668 1181.98C341.309 1184.67 255.244 1217.37 244.532 1221.36L244.658 1222.85C239.313 1228.2 217.681 1234.72 210.198 1236.65L209.167 1248.67C212.793 1247.08 219.626 1243.55 223.476 1246.07C219 1248.02 213.197 1250.74 208.685 1252.28C207.483 1282.35 203.979 1308.94 201.662 1338.63C211.032 1341.51 220.911 1344.39 230.181 1347.45L230.272 1360.72C223.467 1363.56 217.898 1365.39 210.857 1367.65C205.486 1370.21 183.157 1379.73 178.089 1380.47C173.809 1382.96 168.91 1384.98 164.357 1387C142.667 1380.13 121.072 1372.97 99.5765 1365.52C99.1507 1360.87 99.3337 1356.36 99.4277 1351.7C108.46 1348.61 117.747 1345.08 126.747 1341.81C127.524 1344.09 127.606 1344.24 127.615 1346.62C128.894 1348.26 133.283 1354.42 134.183 1355.38L135.73 1351.75C138.877 1353.89 141.311 1355.51 145.133 1356.25C148.448 1357.28 153.744 1358.75 156.711 1360.19L154.028 1361.57C158.74 1361.98 164.76 1362.31 169.467 1361.62L166.692 1360.32C175.366 1356.52 184.602 1353.35 193.531 1350.13C193.275 1315.43 197.757 1276.5 202.042 1241.97C201.888 1238.44 204.416 1215.9 204.822 1210.62C207.252 1179.09 209.101 1147.28 212.52 1115.86C213.055 1110.95 214.792 1091.75 215.906 1088.09L216.987 1076.5C207.752 1069.63 198.828 1062.35 190.24 1054.69Z"/><path fill="#FEFEFE" d="M210.868 1222.42C239.397 1212.97 267.292 1200.68 295.297 1189.97C303.926 1186.67 329.938 1175.78 337.988 1174.85C339.12 1176.29 342.271 1180.48 343.425 1181.48L343.668 1181.98C341.309 1184.67 255.244 1217.37 244.532 1221.36C235.809 1223.56 218.845 1231.15 210.096 1234.83L210.868 1222.42Z"/><path fill="#4B4B4B" d="M215.906 1088.09C218.056 1085.7 219.15 1081.72 220.274 1078.58C220.967 1099.8 219.067 1112.91 217.052 1134.01C214.99 1155.22 213.045 1176.44 211.217 1197.67C208.665 1230.25 205.904 1262.81 202.934 1295.36C201.772 1307.53 199.477 1334.07 196.708 1345.62C194.691 1321.49 199.848 1293.73 201.003 1269.55C201.254 1264.29 204.532 1245.6 202.042 1241.97C201.888 1238.44 204.416 1215.9 204.822 1210.62C207.252 1179.09 209.101 1147.28 212.52 1115.86C213.055 1110.95 214.792 1091.75 215.906 1088.09Z"/><path fill="#030203" d="M126.747 1341.81C127.524 1344.09 127.606 1344.24 127.615 1346.62C121.581 1348.76 113.773 1351.28 107.978 1353.65C126.456 1359.8 144.98 1365.82 163.549 1371.69C167.459 1370.27 173.009 1368.04 176.869 1366.91L177.105 1367.95C174.208 1370.47 165.051 1376.41 167.973 1379.95C171.801 1381.42 174.287 1379.84 178.089 1380.47C173.809 1382.96 168.91 1384.98 164.357 1387C142.667 1380.13 121.072 1372.97 99.5765 1365.52C99.1507 1360.87 99.3337 1356.36 99.4277 1351.7C108.46 1348.61 117.747 1345.08 126.747 1341.81Z"/><path fill="#4B4B4B" d="M102.637 1354.93C122.744 1361.87 143.047 1368.22 163.522 1373.97L163.521 1383.28C142.3 1377.24 124.439 1370.9 103.698 1363.4L102.637 1354.93Z"/><path fill="#FEFEFE" d="M200.639 1342.52C207.477 1344.77 214.296 1347.08 221.094 1349.45C213.411 1352.74 205.324 1355.72 197.498 1358.72C191.231 1360.83 182.811 1363.97 176.869 1366.91C173.009 1368.04 167.459 1370.27 163.549 1371.69C144.98 1365.82 126.456 1359.8 107.978 1353.65C113.773 1351.28 121.581 1348.76 127.615 1346.62C128.894 1348.26 133.283 1354.42 134.183 1355.38L135.73 1351.75C138.877 1353.89 141.311 1355.51 145.133 1356.25C148.448 1357.28 153.744 1358.75 156.711 1360.19L154.028 1361.57C158.74 1361.98 164.76 1362.31 169.467 1361.62C181.655 1359.16 187.888 1356.4 199.359 1351.38L200.639 1342.52Z"/><path fill="#030203" d="M135.73 1351.75C138.877 1353.89 141.311 1355.51 145.133 1356.25C148.448 1357.28 153.744 1358.75 156.711 1360.19L154.028 1361.57C148.783 1359.61 139.763 1357.14 134.183 1355.38L135.73 1351.75Z"/><path fill="#4B4B4B" d="M197.498 1358.72C203.561 1360.63 218.137 1351.26 224.199 1355.01C223.367 1359.7 213.64 1362.24 210.857 1367.65C205.486 1370.21 183.157 1379.73 178.089 1380.47C174.287 1379.84 171.801 1381.42 167.973 1379.95C165.051 1376.41 174.208 1370.47 177.105 1367.95L176.869 1366.91C182.811 1363.97 191.231 1360.83 197.498 1358.72Z"/><path fill="#D1D0D0" d="M129.561 1001.21C131.303 1004.31 135.546 1014.28 136.39 1015.51L136.755 1009.3C140.239 1012.84 143.88 1016.43 147.192 1020.11C145.156 1028.18 145.088 1038.22 144.766 1046.62L144.698 1146.83C145.861 1159.24 144.715 1177.47 145.091 1190.37C145.229 1195.1 145.286 1215.38 144.738 1219.35L144.719 1273C145.623 1293.3 145.984 1313.62 145.801 1333.94C145.791 1339.16 144.593 1352.16 145.133 1356.25C141.311 1355.51 138.877 1353.89 135.73 1351.75L134.183 1355.38C133.283 1354.42 128.894 1348.26 127.615 1346.62C127.606 1344.24 127.524 1344.09 126.747 1341.81L127.272 1341.49C128.444 1335.99 128.352 1309.92 128.455 1303.15C129.175 1267.48 129.348 1231.8 128.974 1196.12L129.063 1059.16C129.108 1040.69 130.072 1019.17 129.561 1001.21Z"/><path fill="#4B4B4B" d="M129.561 1001.21C131.303 1004.31 135.546 1014.28 136.39 1015.51L135.788 1271.46C135.727 1289.9 134.904 1308.12 134.828 1326.52C134.804 1332.27 134.498 1346.7 135.73 1351.75L134.183 1355.38C133.283 1354.42 128.894 1348.26 127.615 1346.62C127.606 1344.24 127.524 1344.09 126.747 1341.81L127.272 1341.49C128.444 1335.99 128.352 1309.92 128.455 1303.15C129.175 1267.48 129.348 1231.8 128.974 1196.12L129.063 1059.16C129.108 1040.69 130.072 1019.17 129.561 1001.21Z"/><path fill="#9C9A9A" d="M144.698 1146.83C143.233 1136.6 142.073 1054.3 144.766 1046.62L144.698 1146.83Z"/><path fill="#9C9A9A" d="M144.738 1219.35L144.719 1273C142.19 1262.88 142.847 1229.93 144.738 1219.35Z"/><path fill="#FEFEFE" d="M882.288 978.951C880.107 993.889 869.975 1006.41 858.232 1015.2C807.809 1052.93 676.339 1070.94 613.172 1076.64C597.883 1078.02 582.73 1078.27 567.422 1078.95C558.73 1079.34 550.062 1080.31 541.365 1080.6C506.424 1081.73 471.245 1080.38 436.34 1078.73C418.705 1077.9 400.612 1077.86 383.146 1075.29C345.46 1069.76 307.43 1065.87 270.119 1058.02C250.898 1053.97 232.072 1048.44 213.367 1042.49C189.085 1034.78 159.707 1025.39 143.953 1003.86C140.32 998.902 135.351 989.077 136.36 982.704C136.477 981.961 136.801 981.42 137.172 980.781C138.495 980.666 138.411 980.625 139.622 981.152C139.679 982.335 139.785 983.516 139.941 984.69C141.274 994.464 150.398 1002.26 157.811 1007.83C231.882 1063.51 429.489 1075.64 520.503 1074.73C571.987 1073.94 623.379 1070.09 674.407 1063.2C734.605 1054.63 816.694 1038.02 864.499 999.155C871.357 993.58 876.993 985.998 882.288 978.951Z"/><path fill="#FEFEFE" d="M147.192 1020.11C151.12 1023.13 157.113 1027.46 160.595 1030.74L160.577 1199.22C160.582 1220.89 162.947 1347.58 157.651 1359.6L156.711 1360.19C153.744 1358.75 148.448 1357.28 145.133 1356.25C144.593 1352.16 145.791 1339.16 145.801 1333.94C145.984 1313.62 145.623 1293.3 144.719 1273L144.738 1219.35C145.286 1215.38 145.229 1195.1 145.091 1190.37C144.715 1177.47 145.861 1159.24 144.698 1146.83L144.766 1046.62C145.088 1038.22 145.156 1028.18 147.192 1020.11Z"/><path fill="#030203" d="M134.164 320.96C135.6 323.472 137.753 327.506 139.315 329.771C137.178 331.343 136.508 331.776 136.204 335.117C135.494 342.897 135.569 351.633 135.574 359.456L135.722 400.382L136.273 576.051L136.516 635.904C136.612 647.97 138.054 685.303 134.266 694.261C133 664.138 134.017 631.557 134.049 601.234L133.747 448.848C133.702 424.432 133.479 400.016 133.079 375.602C132.853 361.197 132.105 334.726 134.164 320.96Z"/><path fill="#4B4B4B" d="M454.434 1086.59L455.845 1085.21C460.966 1085.29 484.634 1086.04 490.324 1086.86C491.394 1087.02 493.101 1095.15 493.591 1097.39C493.866 1093.84 494.184 1090.29 494.543 1086.75C500.643 1086.66 525.368 1085.49 529.402 1088.01C525.212 1088.22 520.286 1088.16 516.032 1088.2L495.684 1088.12C495.169 1112.47 496.012 1135.3 496.637 1159.65C497.299 1189.93 498.126 1220.2 499.117 1250.47C499.619 1266.15 501.551 1295.06 501.104 1309.73C497.375 1304.02 495.898 1180.18 495.171 1161.76C495.001 1157.45 495.943 1144.03 494.919 1140.84L492.972 1142.99C491.669 1125.05 492.119 1106.64 491.034 1088.14C481.11 1087.01 464.798 1086.93 454.434 1086.59Z"/><path fill="#030203" d="M190.829 1043.69C207.641 1047.2 223.962 1053.04 240.722 1057.16C271.361 1064.42 302.308 1070.3 333.471 1074.79C342.489 1076.11 402.077 1082.09 404.755 1084.16L403.874 1084.51C391.038 1084.9 373.019 1081.89 359.942 1080.55C305.524 1074.96 254.478 1063.04 201.702 1048.94C198.164 1047.24 194.289 1045.47 190.829 1043.69Z"/><path fill="#030203" d="M142.263 580.212C139.185 569.854 141.099 475.273 140.657 458.229C140.587 455.526 141.408 451.569 142.558 448.91C143.614 485.131 143.816 521.371 143.166 557.6C142.206 563.407 142.337 573.928 142.263 580.212Z"/><path fill="#030203" d="M134.584 958.179C136.212 960.81 136.838 962.93 135.859 965.994C129.652 985.431 128.499 989.883 136.755 1009.3L136.39 1015.51C135.546 1014.28 131.303 1004.31 129.561 1001.21C125.211 982.378 131.456 975.483 134.584 958.179Z"/><path fill="#030203" d="M776.921 1082.62C775.275 1088.91 737.857 1118.62 730.742 1120.06C737.922 1112.65 768.627 1088.04 776.921 1082.62Z"/><path fill="#030203" d="M630.315 1215.67C634.206 1208.54 663.51 1182.32 670.538 1182.37C663.583 1189.05 637.548 1211.63 630.315 1215.67Z"/><path fill="#030203" d="M629.794 1202.64C627.907 1209.15 605.588 1226.79 598.803 1227.98C606.111 1220.14 620.94 1208.87 629.794 1202.64Z"/><path fill="#030203" d="M463.633 1276.74C470.16 1276.05 480.586 1283.72 480.753 1290.55C475.52 1287.54 468.074 1280.84 463.633 1276.74Z"/><path fill="#4B4B4B" d="M143.944 939.702C144.129 948.106 144.133 956.514 143.955 964.918L143.026 961.076C142.456 963.838 142.242 965.296 141.044 967.919C141.391 961.223 140.626 943.729 143.944 939.702Z"/><path fill="#030203" d="M270.665 1121.61C275.414 1121.39 288.651 1132.53 291.957 1136.52C287.966 1134.19 287.713 1133.12 282.802 1131.44C278.146 1128.04 274.983 1125.37 270.665 1121.61Z"/><path fill="#4B4B4B" d="M343.425 1181.48C348.998 1180.27 354.168 1187.25 357.913 1191.14C351.942 1188.23 348.458 1186.75 343.668 1181.98L343.425 1181.48Z"/><path fill="#030203" d="M441.995 1086.52C444.974 1085.03 451.366 1084.2 454 1086.53C449.389 1086.9 446.65 1086.77 441.995 1086.52Z"/><path fill="#D1D0D0" d="M841.224 361.181C854.567 356.039 863.041 348.848 874.224 340.277C876.962 359.773 876.275 387.48 876.244 407.592L876.196 498.26L876.179 822.879C876.144 871.582 872.795 933.847 876.325 981.651C837.102 1031.5 763.166 1042.09 704.562 1055.33C703.059 1055.66 700.855 1055.48 699.378 1055.14C695.307 1051.18 696.956 847.169 696.97 824.99L697.62 394.694C732.228 393.747 779.439 382.857 812.647 371.638C816.552 371.262 837.504 363.354 841.224 361.181Z"/><path fill="#D1D0D0" d="M539.928 158.377C541.716 155.255 543.275 154.109 547.196 154.727C583.515 160.46 622.397 164.031 656.752 177.494C679.567 186.434 700.709 195.303 722.964 203.569C724.866 204.522 726.288 205.399 728.393 205.762C775.245 225.307 806.932 240.629 848.121 271.689C823.267 291.379 808.634 296.786 777.487 305.371L776.351 307.059C749.383 312.515 719.661 318.644 692.275 322.011C629.634 329.713 564.135 331.844 501.009 331.543C485.293 331.352 469.578 331.039 453.867 330.605C440 328.981 428.847 328.66 415.007 328.534C389.905 328.443 359.07 324.83 333.942 322.189C311.729 317.581 280.813 313.893 258.094 310.688C232.306 304.056 214.889 299.358 189.868 289.689C183.662 286.549 179.471 283.923 173.755 280.041L174.798 279C177.253 280.537 180.163 282.501 182.742 283.707C187.517 286.089 192.58 288.735 197.425 290.902C203.622 293.227 210.58 296.065 217.045 297.252C217.194 297.023 217.339 296.791 217.493 296.565C230.858 277.061 368.333 205.037 395.435 193.401C417.009 184.138 439.8 176.402 462.783 171.655C465.802 172.87 469.879 174.655 472.871 175.648L475.508 176.562C479.447 175.828 491.319 177.207 496.534 177.088C503.337 176.932 512.667 176.112 519.056 176.66L520.008 177.962C533.496 175.554 539.868 173.599 539.928 158.377Z"/><path fill="#FEFEFE" d="M462.783 171.655C465.802 172.87 469.879 174.655 472.871 175.648C465.281 182.513 452.047 187.507 442.53 191.761C382.148 218.752 328.899 260.278 278.283 302.263C274.598 305.319 270.729 308.923 266.076 310.265C250.048 305.609 233.311 301.875 217.045 297.252C217.194 297.023 217.339 296.791 217.493 296.565C230.858 277.061 368.333 205.037 395.435 193.401C417.009 184.138 439.8 176.402 462.783 171.655Z"/><path fill="#030203" d="M174.798 279C177.253 280.537 180.163 282.501 182.742 283.707C187.517 286.089 192.58 288.735 197.425 290.902C203.622 293.227 210.58 296.065 217.045 297.252C233.311 301.875 250.048 305.609 266.076 310.265C283.965 311.885 298.718 314.475 316.328 316.781C337.539 319.521 358.805 321.813 380.112 323.655C427.234 327.454 474.492 329.334 521.767 329.291C605.899 329.509 695.702 325.314 777.487 305.371L776.351 307.059C749.383 312.515 719.661 318.644 692.275 322.011C629.634 329.713 564.135 331.844 501.009 331.543C485.293 331.352 469.578 331.039 453.867 330.605C440 328.981 428.847 328.66 415.007 328.534C389.905 328.443 359.07 324.83 333.942 322.189C311.729 317.581 280.813 313.893 258.094 310.688C232.306 304.056 214.889 299.358 189.868 289.689C183.662 286.549 179.471 283.923 173.755 280.041L174.798 279Z"/><path fill="#030203" d="M475.508 176.562C479.447 175.828 491.319 177.207 496.534 177.088C503.337 176.932 512.667 176.112 519.056 176.66L520.008 177.962C504.072 179.883 491.281 180.416 475.508 176.562Z"/><path fill="#D1D0D0" d="M776.351 307.059C808.135 299.369 825.04 294.554 850.12 273.474C853.341 290.097 856.59 307.853 861.073 324.162C848.962 333.271 834.746 342.893 820.776 348.858C746.315 380.653 653.852 383.664 574.517 386.491L529.498 388.199C519.484 388.582 501.641 389.367 491.861 388.04C483.476 387.025 458.94 387.189 449.377 387.014C448.312 371.059 448.278 345.19 453.867 330.605C469.578 331.039 485.293 331.352 501.009 331.543C564.135 331.844 629.634 329.713 692.275 322.011C719.661 318.644 749.383 312.515 776.351 307.059Z"/><path fill="#FEFEFE" d="M453.867 330.605C469.578 331.039 485.293 331.352 501.009 331.543C501.004 341.243 501.988 379.173 496.926 386.107C494.82 387.296 494.217 387.427 491.861 388.04C483.476 387.025 458.94 387.189 449.377 387.014C448.312 371.059 448.278 345.19 453.867 330.605Z"/><path fill="#FEFEFE" d="M137.644 305.834C141.083 298.529 149.818 292.765 156.246 288.251C156.577 293.43 157.075 299.101 155.19 304.014L154.407 304.467L154.515 310.366C154.893 320.307 156.357 327.519 163.897 334.443C186.043 354.779 221.338 360.759 249.7 366.807C364.772 391.343 482.792 394.21 599.937 388.303C657.334 385.409 819.801 374.629 858.789 331.306C864.814 324.611 865.232 316.78 864.674 308.18C864.518 305.786 864.321 303.395 864.085 301.008C871.506 306.961 873.715 309.708 877.031 318.662C863.213 342.339 858.531 340.646 840.672 354.245C852.38 352.46 872.388 331.938 880.37 323.334C868.257 347.126 843.556 356.955 841.224 361.181C837.504 363.354 816.552 371.262 812.647 371.638C808.69 371.44 776.744 379.528 770.336 380.94C754.559 384.378 738.686 387.362 722.738 389.889C665.019 398.265 606.817 402.886 548.499 403.723C538.905 403.934 473.086 402.437 469.782 404.844C463.797 405.049 457.413 404.392 451.412 403.936C449.903 403.467 435.062 403.29 430.76 402.775L418.067 402.803C404.994 401.328 392.509 401.346 379.457 400.363C364.863 399.264 350.016 397.386 335.466 395.68C301.896 392.951 264.074 385.133 231.03 378.358C217.535 375.602 185.111 363.972 172.779 358.608L171.887 357.921L168.802 356.51C167.018 355.945 159.193 351.595 157.072 350.464L153.155 347.887C152.412 342.47 143.548 334.645 139.315 329.771C137.753 327.506 135.6 323.472 134.164 320.96C134.505 314.876 134.459 311.085 137.644 305.834Z"/><path fill="#666566" d="M137.644 305.834C141.083 298.529 149.818 292.765 156.246 288.251C156.577 293.43 157.075 299.101 155.19 304.014L154.407 304.467C142.344 303.082 141.221 325.397 146.93 331.52C172.599 359.05 214.331 365.95 249.241 373.151C293.157 382.661 337.635 389.357 382.405 393.197C465.387 399.554 548.728 399.728 631.736 393.719C654.115 392.221 675.844 389.148 697.298 387.603C733.208 381.136 762.778 378.661 799.033 369.077C808.35 366.592 817.515 363.57 826.482 360.027C830.824 358.312 836.366 355.355 840.672 354.245C852.38 352.46 872.388 331.938 880.37 323.334C868.257 347.126 843.556 356.955 841.224 361.181C837.504 363.354 816.552 371.262 812.647 371.638C808.69 371.44 776.744 379.528 770.336 380.94C754.559 384.378 738.686 387.362 722.738 389.889C665.019 398.265 606.817 402.886 548.499 403.723C538.905 403.934 473.086 402.437 469.782 404.844C463.797 405.049 457.413 404.392 451.412 403.936C449.903 403.467 435.062 403.29 430.76 402.775L418.067 402.803C404.994 401.328 392.509 401.346 379.457 400.363C364.863 399.264 350.016 397.386 335.466 395.68C301.896 392.951 264.074 385.133 231.03 378.358C217.535 375.602 185.111 363.972 172.779 358.608L171.887 357.921L168.802 356.51C167.018 355.945 159.193 351.595 157.072 350.464L153.155 347.887C152.412 342.47 143.548 334.645 139.315 329.771C137.753 327.506 135.6 323.472 134.164 320.96C134.505 314.876 134.459 311.085 137.644 305.834Z"/><path fill="#030203" d="M137.644 305.834C141.083 298.529 149.818 292.765 156.246 288.251C156.577 293.43 157.075 299.101 155.19 304.014L154.407 304.467C142.344 303.082 141.221 325.397 146.93 331.52C172.599 359.05 214.331 365.95 249.241 373.151C293.157 382.661 337.635 389.357 382.405 393.197C465.387 399.554 548.728 399.728 631.736 393.719C654.115 392.221 675.844 389.148 697.298 387.603C698.643 387.708 700.971 387.609 701.697 388.363C677.048 394.465 650.011 394.764 624.693 396.575C505.524 405.099 290.121 403.5 181.2 356.288C162.33 348.108 146.77 339.368 138.845 319.27C143.166 307.361 146.722 303.043 154.755 293.706C148.386 297.306 144.164 301.224 138.756 306.034L137.644 305.834Z"/><path fill="#030203" d="M168.802 356.51C172.678 355.959 178.464 358.127 182.127 359.563C231.778 379.021 285.173 387.878 337.961 393.691C352.882 395.336 367.816 396.847 382.764 398.226C391.001 398.942 425.798 400.618 430.76 402.775L418.067 402.803C404.994 401.328 392.509 401.346 379.457 400.363C364.863 399.264 350.016 397.386 335.466 395.68C301.896 392.951 264.074 385.133 231.03 378.358C217.535 375.602 185.111 363.972 172.779 358.608L171.887 357.921L168.802 356.51Z"/><path fill="#D1D0D0" d="M194.517 251.004C235.54 228.372 290.214 201.348 333.821 185.754C367.328 173.772 425.589 161.428 461.257 158.018C461.701 162.19 462.118 167.61 462.783 171.655C439.8 176.402 417.009 184.138 395.435 193.401C368.333 205.037 230.858 277.061 217.493 296.565C217.339 296.791 217.194 297.023 217.045 297.252C210.58 296.065 203.622 293.227 197.425 290.902C192.58 288.735 187.517 286.089 182.742 283.707C180.163 282.501 177.253 280.537 174.798 279C165.648 270.041 175.021 264.833 182.136 258.991C184.537 257.827 192.35 252.606 194.517 251.004Z"/><path fill="#FEFEFE" d="M182.742 283.707C192.155 270.225 219.149 255.751 233.316 247.486C293.172 212.569 358.859 184.281 427.215 171.51C433.218 170.389 441.606 168.99 447.521 168.503C426.873 176.408 404.432 181.873 383.511 189.506C331.315 208.304 281.577 233.328 235.375 264.035C223.051 272.107 208.676 281.528 197.425 290.902C192.58 288.735 187.517 286.089 182.742 283.707Z"/><path fill="#FEFEFE" d="M333.942 322.189C359.07 324.83 389.905 328.443 415.007 328.534C428.847 328.66 440 328.981 453.867 330.605C448.278 345.19 448.312 371.059 449.377 387.014C438.096 387.103 428.218 386.741 417.017 385.458C396.231 385.995 357.754 381.032 336.18 378.626C335.933 360.581 334.633 340.444 333.942 322.189Z"/><path fill="#D1D0D0" d="M415.007 328.534C428.847 328.66 440 328.981 453.867 330.605C448.278 345.19 448.312 371.059 449.377 387.014C438.096 387.103 428.218 386.741 417.017 385.458C418.2 372.563 416.895 341.569 415.007 328.534Z"/><defs><linearGradient id="gradient_1" gradientUnits="userSpaceOnUse" x1="941.68018" y1="1070.4238" x2="802.8493" y2="1214.4716"><stop offset="0" stop-color="#C9C9C8"/><stop offset="1" stop-color="#F7F4F6"/></linearGradient></defs><path fill="url(#gradient_1)" d="M879.362 1009.5L880.925 1008.97C882.371 1012.3 881.524 1222.67 881.531 1247.39C878.102 1246.95 874.68 1246.47 871.266 1245.93C870.83 1251.34 869.88 1272.52 868.385 1275.79L866.979 1276.94C864.73 1275.67 865.351 1275.79 863.995 1272.93C867.299 1265.11 862.644 1260.9 858.216 1254.81C858.256 1258.69 858.569 1263.52 857.516 1267.16C856.897 1260.09 857.345 1246.98 857.389 1239.36L857.542 1189.31L856.8 1029.31C863.533 1023.66 873.363 1015.71 879.362 1009.5Z"/><path fill="#D1D0D0" d="M258.094 310.688C280.813 313.893 311.729 317.581 333.942 322.189C334.633 340.444 335.933 360.581 336.18 378.626C308.89 375.446 283.889 371.153 256.839 366.472C257.26 349.269 256.676 327.204 258.094 310.688Z"/><path fill="#FEFEFE" d="M189.868 289.689C214.889 299.358 232.306 304.056 258.094 310.688C256.676 327.204 257.26 349.269 256.839 366.472C230.666 359.508 209.007 353.748 183.755 344.062C183.515 334.563 187.361 298.605 189.868 289.689Z"/><path fill="#4B4B4B" d="M797.209 1259.59C803.537 1259.84 810.424 1255.73 816.03 1258C817.227 1264.47 791.52 1272.55 787.64 1276.85C785.296 1277.99 775.323 1282.4 772.871 1282.86C753.831 1290.83 734.697 1298.58 715.473 1306.1C707.105 1309.42 690.844 1316.38 682.844 1318.8C663.967 1327.74 642.079 1333.75 622.97 1342.68C619.823 1344.15 605.6 1350.22 603.48 1350.45C595.121 1354.7 582.599 1359.15 573.641 1362.49L573.685 1358.74C571.671 1354.78 570.682 1352.13 574.78 1349.6L574.45 1348.72L575.38 1346.75C591.834 1338.22 614.96 1331.48 632.727 1324.14C670.743 1308.42 708.892 1290.93 748.039 1278.37C753.791 1274.74 788.932 1262.52 797.209 1259.59Z"/><path fill="#030203" d="M575.38 1346.75C591.834 1338.22 614.96 1331.48 632.727 1324.14C670.743 1308.42 708.892 1290.93 748.039 1278.37C745.104 1282.76 727.056 1289 721.233 1291.36L676.706 1309.19C643.218 1322.46 608.307 1336.96 574.78 1349.6L574.45 1348.72L575.38 1346.75Z"/><path fill="#030203" d="M682.844 1318.8C683.386 1317.45 683.467 1317.03 684.955 1316.42C696.603 1311.66 765.847 1280.95 772.871 1282.86C753.831 1290.83 734.697 1298.58 715.473 1306.1C707.105 1309.42 690.844 1316.38 682.844 1318.8Z"/><path fill="#030203" d="M573.685 1358.74C580.27 1357.05 598.687 1349.79 603.48 1350.45C595.121 1354.7 582.599 1359.15 573.641 1362.49L573.685 1358.74Z"/><path fill="#FEFEFE" d="M573.997 1334.68C618.464 1316.43 663.125 1298.66 707.973 1281.36C743.362 1267.39 776.99 1253.51 812.794 1240.32L815.167 1251.86L797.209 1259.59C788.932 1262.52 753.791 1274.74 748.039 1278.37C708.892 1290.93 670.743 1308.42 632.727 1324.14C614.96 1331.48 591.834 1338.22 575.38 1346.75C572.694 1342.95 573.528 1339.18 573.997 1334.68Z"/><path fill="#4B4B4B" d="M880.664 329.811C885.285 363.049 882.304 419.645 882.225 454.775L883.139 710.418C883.151 729.121 879.502 836.702 884.356 846.063C885.332 866.333 885.88 886.622 886 906.916C886.037 915.983 886.203 933.23 884.363 941.879C879.219 948.665 882.821 964.012 884.193 971.917L877.845 978.225L878.459 559.669L878.466 427.178C878.398 392.808 876.919 364.084 880.664 329.811Z"/><path fill="#FEFEFE" d="M858.216 1254.81C862.644 1260.9 867.299 1265.11 863.995 1272.93C865.351 1275.79 864.73 1275.67 866.979 1276.94L868.385 1275.79C869.88 1272.52 870.83 1251.34 871.266 1245.93C874.68 1246.47 878.102 1246.95 881.531 1247.39C881.656 1269.97 883.239 1313.22 877.475 1333.09C882.119 1329.68 884.17 1328.02 888.354 1323.99C892.755 1324.85 903 1326.38 906.272 1328.59L906.68 1329.81C904.764 1331.35 904.55 1331.43 902.259 1332.39C893.567 1335.77 885.385 1338.92 876.893 1342.82C871.075 1344.49 863.405 1347.59 857.575 1349.78C838.308 1344.78 819.156 1339.34 800.133 1333.48C805.577 1330.79 811.505 1328.41 817.114 1326.03C820.91 1329.03 823.105 1330.64 827.219 1333.15C840.451 1344.58 860.967 1343.01 875.178 1334.31L857.568 1338.89C857.277 1314.98 857.26 1291.07 857.516 1267.16C858.569 1263.52 858.256 1258.69 858.216 1254.81Z"/><path fill="#9C9A9A" d="M462.312 142.191L472.051 144.397L477.13 145.986C493.06 147.365 503.282 148.866 519.276 145.756C523.672 150.396 523.086 170.23 520.541 175.657L519.056 176.66C512.667 176.112 503.337 176.932 496.534 177.088C491.319 177.207 479.447 175.828 475.508 176.562L472.871 175.648C469.879 174.655 465.802 172.87 462.783 171.655C462.118 167.61 461.701 162.19 461.257 158.018C461.359 152.037 461.383 148.147 462.312 142.191Z"/><path fill="#FEFEFE" d="M472.051 144.397L477.13 145.986C477.439 150.75 479.596 171.935 471.977 170.468C465.585 164.097 468.379 151.542 472.051 144.397Z"/><path fill="#D1D0D0" d="M167.079 274.995L173.755 280.041C179.471 283.923 183.662 286.549 189.868 289.689C187.361 298.605 183.515 334.563 183.755 344.062C181.528 343.09 179.316 342.08 177.123 341.034C165.466 335.39 163.211 330.245 159.277 318.758C160.374 312.072 160.649 302.434 161.818 294.533C163.408 287.917 165.227 281.54 167.079 274.995Z"/><path fill="#4B4B4B" d="M161.52 263.66C189.728 241.545 272.325 200.774 306.305 190.222C294.476 203.148 196.255 240.538 194.517 251.004C192.35 252.606 184.537 257.827 182.136 258.991C175.021 264.833 165.648 270.041 174.798 279L173.755 280.041L167.079 274.995C165.227 281.54 163.408 287.917 161.818 294.533C160.649 302.434 160.374 312.072 159.277 318.758C158.349 313.384 158.648 313.283 154.515 310.366L154.407 304.467L155.19 304.014C157.075 299.101 156.577 293.43 156.246 288.251C157.33 278.414 158.516 273.084 161.52 263.66Z"/><path fill="#030203" d="M167.454 266.903C171.068 264.38 178.047 259.345 182.136 258.991C175.021 264.833 165.648 270.041 174.798 279L173.755 280.041L167.079 274.995C165.227 281.54 163.408 287.917 161.818 294.533C161.053 294.411 161.314 294.326 160.573 293.33C159.841 284.389 163.931 275.01 167.454 266.903Z"/><path fill="#4B4B4B" d="M887.376 1174.39C886.361 1175.78 885.483 1177.09 884.533 1178.53L883.926 1177.89C882.472 1144.41 884.173 1108.68 883.662 1074.92C884.045 1054.28 882.282 1033.44 883.885 1012.87C884.344 1006.98 887.559 1001.69 888.78 995.883C889.487 1056.26 890.088 1114.03 887.376 1174.39Z"/><path fill="#4B4B4B" d="M811.492 1351.21C808.312 1346.24 793.165 1343.97 793.899 1335.99C800.381 1335.2 846.523 1349.5 856.694 1352.19L856.716 1361.35C852.459 1360.37 831.461 1355.12 828.759 1356.19L828.531 1356.42C822.24 1354.75 817.61 1353.41 811.492 1351.21Z"/><path fill="#666566" d="M706.958 195.844C736.785 198.305 828.4 242.557 849.42 266.243C858.772 276.781 861.23 295.78 861.715 309.926L861.393 309.074C858.175 300.36 856.695 285.885 853.406 278.143C844.501 257.18 804.631 237.855 785.566 228.208C777.133 223.94 734.443 205.033 728.393 205.762C726.288 205.399 724.866 204.522 722.964 203.569C721.127 200.577 710.93 197.535 706.958 195.844Z"/><path fill="#4B4B4B" d="M519.276 145.756C527.191 143.479 532.089 142.422 540.585 142.245C539.965 146.307 538.209 154.912 539.928 158.377C539.868 173.599 533.496 175.554 520.008 177.962L519.056 176.66L520.541 175.657C523.086 170.23 523.672 150.396 519.276 145.756Z"/><path fill="#4B4B4B" d="M902.259 1332.39C907.662 1332.11 910.824 1330.38 914.763 1333.8C915.307 1341.05 868.98 1357.86 861.238 1359.41C859.435 1358.13 860.059 1358.98 859.512 1356.64C862.388 1349.77 876.204 1347.26 876.893 1342.82C885.385 1338.92 893.567 1335.77 902.259 1332.39Z"/><path fill="#666566" d="M824.77 1328.26C815.351 1316.47 816.176 1283.27 816.385 1268.48C818.255 1272.66 818.95 1274.94 820.218 1279.38C821.442 1289.24 826.18 1320.13 824.77 1328.26Z"/><path fill="#666566" d="M560.554 148.672C562.793 148.762 570.475 149.802 572.463 150.632C578.591 154.624 605.069 156.478 618.532 163.191C593.779 159.05 564.789 155.994 540.9 149.49C545.56 149.399 556.588 149.646 560.554 148.672Z"/><path fill="#666566" d="M867.617 293.542C870.331 295.703 874.879 299.141 876.518 302.233C876.18 308.797 882.105 311.668 882.648 316.757C881.526 318.906 881.433 319.899 879.591 321.137C879.041 319.257 877.802 312.696 877.241 311.813C875.073 308.397 869.378 304.461 867.464 300.702C865.941 297.71 866.776 296.303 867.617 293.542Z"/><path fill="#4B4B4B" d="M887.549 1309.63C880.382 1304.51 882.45 1287.26 887.499 1281.5C887.612 1290.88 887.628 1300.26 887.549 1309.63Z"/><path fill="#FEFEFE" d="M464.539 124.178C483.848 118.139 499.752 121.48 519.534 122.083C527.845 122.337 536.485 122.224 544.681 122.611C535.589 125.387 529.698 126.615 520.207 127.71L520.286 129.387C526.516 128.554 540.795 125.891 545.835 127.918L546.183 129.182C536.612 141.928 461.153 142.266 456.09 130.073C457.495 127.835 457.294 128.48 460.326 127.257C461.553 126.919 462.783 126.59 464.015 126.269L464.539 124.178Z"/><path fill="#FEFEFE" d="M464.539 124.178C483.848 118.139 499.752 121.48 519.534 122.083C527.845 122.337 536.485 122.224 544.681 122.611C535.589 125.387 529.698 126.615 520.207 127.71C500.707 129.514 483.392 130.539 464.539 124.178Z"/><path fill="#030203" d="M460.326 127.257C461.553 126.919 462.783 126.59 464.015 126.269L464.539 124.178C483.392 130.539 500.707 129.514 520.207 127.71L520.286 129.387C507.562 130.823 495.812 131.832 483.022 130.245C475.777 129.346 468.557 127.631 461.318 127.297L460.326 127.257Z"/><path fill="#666566" d="M545.053 134.213C546.399 133.968 546.361 134.098 547.635 134.683L547.348 135.683C527.935 147.606 487.176 143.883 465.682 139.82L462.637 138.634C463.513 138.46 468.267 139.148 469.388 139.369C497.656 144.942 517.779 143.009 545.053 134.213Z"/></svg>